<svg version="1.1" xmlns="http://www.w3.org/2000/svg" xmlns:xlink="http://www.w3.org/1999/xlink" width="353.2" height="354.8"><defs/><g><rect fill="rgb(255,255,255)" stroke="none" x="0" y="0" width="353.2" height="354.8" fill-opacity="0"/><path fill="none" stroke="#000000" paint-order="fill stroke markers" d=" M 51.5 2.3000000000000114 L 101.5 2.3000000000000114" stroke-linecap="round" stroke-miterlimit="10" stroke-width="3"/><path fill="none" stroke="#000000" paint-order="fill stroke markers" d=" M 51.5 2.3000000000000114 L 51.5 52.3" stroke-linecap="round" stroke-miterlimit="10" stroke-width="3"/><path fill="none" stroke="#000000" paint-order="fill stroke markers" d=" M 101.5 2.3000000000000114 L 151.5 2.3000000000000114" stroke-linecap="round" stroke-miterlimit="10" stroke-width="3"/><path fill="none" stroke="#000000" paint-order="fill stroke markers" d=" M 151.5 2.3000000000000114 L 201.5 2.3000000000000114" stroke-linecap="round" stroke-miterlimit="10" stroke-width="3"/><path fill="none" stroke="#000000" paint-order="fill stroke markers" d=" M 201.5 2.3000000000000114 L 251.5 2.3000000000000114" stroke-linecap="round" stroke-miterlimit="10" stroke-width="3"/><path fill="none" stroke="#000000" paint-order="fill stroke markers" d=" M 251.5 2.3000000000000114 L 301.5 2.3000000000000114" stroke-linecap="round" stroke-miterlimit="10" stroke-width="3"/><path fill="none" stroke="#000000" paint-order="fill stroke markers" d=" M 301.5 2.3000000000000114 L 301.5 52.3" stroke-linecap="round" stroke-miterlimit="10" stroke-width="3"/><path fill="none" stroke="#000000" paint-order="fill stroke markers" d=" M 1.5 52.3 L 51.5 52.3" stroke-linecap="round" stroke-miterlimit="10" stroke-width="3"/><path fill="none" stroke="#000000" paint-order="fill stroke markers" d=" M 1.5 52.3 L 1.5 102.3" stroke-linecap="round" stroke-miterlimit="10" stroke-width="3"/><path fill="none" stroke="#000000" paint-order="fill stroke markers" d=" M 301.5 52.3 L 351.5 52.3" stroke-linecap="round" stroke-miterlimit="10" stroke-width="3"/><path fill="none" stroke="#000000" paint-order="fill stroke markers" d=" M 351.5 52.3 L 351.5 102.3" stroke-linecap="round" stroke-miterlimit="10" stroke-width="3"/><path fill="none" stroke="#000000" paint-order="fill stroke markers" d=" M 1.5 102.3 L 1.5 152.3" stroke-linecap="round" stroke-miterlimit="10" stroke-width="3"/><path fill="none" stroke="#000000" paint-order="fill stroke markers" d=" M 351.5 102.3 L 351.5 152.3" stroke-linecap="round" stroke-miterlimit="10" stroke-width="3"/><path fill="none" stroke="#000000" paint-order="fill stroke markers" d=" M 1.5 152.3 L 1.5 202.3" stroke-linecap="round" stroke-miterlimit="10" stroke-width="3"/><path fill="none" stroke="#000000" paint-order="fill stroke markers" d=" M 351.5 152.3 L 351.5 202.3" stroke-linecap="round" stroke-miterlimit="10" stroke-width="3"/><path fill="none" stroke="#000000" paint-order="fill stroke markers" d=" M 1.5 202.3 L 1.5 252.3" stroke-linecap="round" stroke-miterlimit="10" stroke-width="3"/><path fill="none" stroke="#000000" paint-order="fill stroke markers" d=" M 351.5 202.3 L 351.5 252.3" stroke-linecap="round" stroke-miterlimit="10" stroke-width="3"/><path fill="none" stroke="#000000" paint-order="fill stroke markers" d=" M 1.5 302.3 L 51.5 302.3" stroke-linecap="round" stroke-miterlimit="10" stroke-width="3"/><path fill="none" stroke="#000000" paint-order="fill stroke markers" d=" M 1.5 252.3 L 1.5 302.3" stroke-linecap="round" stroke-miterlimit="10" stroke-width="3"/><path fill="none" stroke="#000000" paint-order="fill stroke markers" d=" M 351.5 252.3 L 351.5 302.3" stroke-linecap="round" stroke-miterlimit="10" stroke-width="3"/><path fill="none" stroke="#000000" paint-order="fill stroke markers" d=" M 301.5 302.3 L 351.5 302.3" stroke-linecap="round" stroke-miterlimit="10" stroke-width="3"/><path fill="none" stroke="#000000" paint-order="fill stroke markers" d=" M 51.5 352.3 L 101.5 352.3" stroke-linecap="round" stroke-miterlimit="10" stroke-width="3"/><path fill="none" stroke="#000000" paint-order="fill stroke markers" d=" M 51.5 302.3 L 51.5 352.3" stroke-linecap="round" stroke-miterlimit="10" stroke-width="3"/><path fill="none" stroke="#000000" paint-order="fill stroke markers" d=" M 101.5 352.3 L 151.5 352.3" stroke-linecap="round" stroke-miterlimit="10" stroke-width="3"/><path fill="none" stroke="#000000" paint-order="fill stroke markers" d=" M 151.5 352.3 L 201.5 352.3" stroke-linecap="round" stroke-miterlimit="10" stroke-width="3"/><path fill="none" stroke="#000000" paint-order="fill stroke markers" d=" M 201.5 352.3 L 251.5 352.3" stroke-linecap="round" stroke-miterlimit="10" stroke-width="3"/><path fill="none" stroke="#000000" paint-order="fill stroke markers" d=" M 301.5 302.3 L 301.5 352.3" stroke-linecap="round" stroke-miterlimit="10" stroke-width="3"/><path fill="none" stroke="#000000" paint-order="fill stroke markers" d=" M 251.5 352.3 L 301.5 352.3" stroke-linecap="round" stroke-miterlimit="10" stroke-width="3"/><path fill="#cccccc" stroke="#cccccc" paint-order="fill stroke markers" d=" M 51.5 52.3 L 101.5 52.3 L 101.5 102.3 L 51.5 102.3 Z" stroke-linecap="square" stroke-miterlimit="10" stroke-width="0.5"/><path fill="#cccccc" stroke="#cccccc" paint-order="fill stroke markers" d=" M 101.5 52.3 L 151.5 52.3 L 151.5 102.3 L 101.5 102.3 Z" stroke-linecap="square" stroke-miterlimit="10" stroke-width="0.5"/><path fill="#cccccc" stroke="#cccccc" paint-order="fill stroke markers" d=" M 151.5 52.3 L 201.5 52.3 L 201.5 102.3 L 151.5 102.3 Z" stroke-linecap="square" stroke-miterlimit="10" stroke-width="0.5"/><path fill="#cccccc" stroke="#cccccc" paint-order="fill stroke markers" d=" M 201.5 52.3 L 251.5 52.3 L 251.5 102.3 L 201.5 102.3 Z" stroke-linecap="square" stroke-miterlimit="10" stroke-width="0.5"/><path fill="#cccccc" stroke="#cccccc" paint-order="fill stroke markers" d=" M 251.5 52.3 L 301.5 52.3 L 301.5 102.3 L 251.5 102.3 Z" stroke-linecap="square" stroke-miterlimit="10" stroke-width="0.5"/><path fill="#cccccc" stroke="#cccccc" paint-order="fill stroke markers" d=" M 51.5 102.3 L 101.5 102.3 L 101.5 152.3 L 51.5 152.3 Z" stroke-linecap="square" stroke-miterlimit="10" stroke-width="0.5"/><path fill="#cccccc" stroke="#cccccc" paint-order="fill stroke markers" d=" M 101.5 102.3 L 151.5 102.3 L 151.5 152.3 L 101.5 152.3 Z" stroke-linecap="square" stroke-miterlimit="10" stroke-width="0.5"/><path fill="#cccccc" stroke="#cccccc" paint-order="fill stroke markers" d=" M 151.5 102.3 L 201.5 102.3 L 201.5 152.3 L 151.5 152.3 Z" stroke-linecap="square" stroke-miterlimit="10" stroke-width="0.5"/><path fill="#cccccc" stroke="#cccccc" paint-order="fill stroke markers" d=" M 201.5 102.3 L 251.5 102.3 L 251.5 152.3 L 201.5 152.3 Z" stroke-linecap="square" stroke-miterlimit="10" stroke-width="0.5"/><path fill="#cccccc" stroke="#cccccc" paint-order="fill stroke markers" d=" M 251.5 102.3 L 301.5 102.3 L 301.5 152.3 L 251.5 152.3 Z" stroke-linecap="square" stroke-miterlimit="10" stroke-width="0.5"/><path fill="#cccccc" stroke="#cccccc" paint-order="fill stroke markers" d=" M 51.5 152.3 L 101.5 152.3 L 101.5 202.3 L 51.5 202.3 Z" stroke-linecap="square" stroke-miterlimit="10" stroke-width="0.5"/><path fill="#cccccc" stroke="#cccccc" paint-order="fill stroke markers" d=" M 101.5 152.3 L 151.5 152.3 L 151.5 202.3 L 101.5 202.3 Z" stroke-linecap="square" stroke-miterlimit="10" stroke-width="0.5"/><path fill="#cccccc" stroke="#cccccc" paint-order="fill stroke markers" d=" M 151.5 152.3 L 201.5 152.3 L 201.5 202.3 L 151.5 202.3 Z" stroke-linecap="square" stroke-miterlimit="10" stroke-width="0.5"/><path fill="#cccccc" stroke="#cccccc" paint-order="fill stroke markers" d=" M 201.5 152.3 L 251.5 152.3 L 251.5 202.3 L 201.5 202.3 Z" stroke-linecap="square" stroke-miterlimit="10" stroke-width="0.5"/><path fill="#cccccc" stroke="#cccccc" paint-order="fill stroke markers" d=" M 251.5 152.3 L 301.5 152.3 L 301.5 202.3 L 251.5 202.3 Z" stroke-linecap="square" stroke-miterlimit="10" stroke-width="0.5"/><path fill="#cccccc" stroke="#cccccc" paint-order="fill stroke markers" d=" M 51.5 202.3 L 101.5 202.3 L 101.5 252.3 L 51.5 252.3 Z" stroke-linecap="square" stroke-miterlimit="10" stroke-width="0.5"/><path fill="#cccccc" stroke="#cccccc" paint-order="fill stroke markers" d=" M 101.5 202.3 L 151.5 202.3 L 151.5 252.3 L 101.5 252.3 Z" stroke-linecap="square" stroke-miterlimit="10" stroke-width="0.5"/><path fill="#cccccc" stroke="#cccccc" paint-order="fill stroke markers" d=" M 151.5 202.3 L 201.5 202.3 L 201.5 252.3 L 151.5 252.3 Z" stroke-linecap="square" stroke-miterlimit="10" stroke-width="0.5"/><path fill="#cccccc" stroke="#cccccc" paint-order="fill stroke markers" d=" M 201.5 202.3 L 251.5 202.3 L 251.5 252.3 L 201.5 252.3 Z" stroke-linecap="square" stroke-miterlimit="10" stroke-width="0.5"/><path fill="#cccccc" stroke="#cccccc" paint-order="fill stroke markers" d=" M 251.5 202.3 L 301.5 202.3 L 301.5 252.3 L 251.5 252.3 Z" stroke-linecap="square" stroke-miterlimit="10" stroke-width="0.5"/><path fill="#cccccc" stroke="#cccccc" paint-order="fill stroke markers" d=" M 51.5 252.3 L 101.5 252.3 L 101.5 302.3 L 51.5 302.3 Z" stroke-linecap="square" stroke-miterlimit="10" stroke-width="0.5"/><path fill="#cccccc" stroke="#cccccc" paint-order="fill stroke markers" d=" M 101.5 252.3 L 151.5 252.3 L 151.5 302.3 L 101.5 302.3 Z" stroke-linecap="square" stroke-miterlimit="10" stroke-width="0.5"/><path fill="#cccccc" stroke="#cccccc" paint-order="fill stroke markers" d=" M 151.5 252.3 L 201.5 252.3 L 201.5 302.3 L 151.5 302.3 Z" stroke-linecap="square" stroke-miterlimit="10" stroke-width="0.5"/><path fill="#cccccc" stroke="#cccccc" paint-order="fill stroke markers" d=" M 201.5 252.3 L 251.5 252.3 L 251.5 302.3 L 201.5 302.3 Z" stroke-linecap="square" stroke-miterlimit="10" stroke-width="0.5"/><path fill="#cccccc" stroke="#cccccc" paint-order="fill stroke markers" d=" M 251.5 252.3 L 301.5 252.3 L 301.5 302.3 L 251.5 302.3 Z" stroke-linecap="square" stroke-miterlimit="10" stroke-width="0.5"/><path fill="#b3ffb3" stroke="#b3ffb3" paint-order="fill stroke markers" d=" M 251.5 2.3000000000000114 L 301.5 2.3000000000000114 L 301.5 52.3 L 251.5 52.3 Z" stroke-linecap="square" stroke-miterlimit="10" stroke-width="0.5"/><path fill="#c0e0ff" stroke="#c0e0ff" paint-order="fill stroke markers" d=" M 101.5 52.3 L 151.5 52.3 L 151.5 102.3 L 101.5 102.3 Z" stroke-linecap="square" stroke-miterlimit="10" stroke-width="0.5"/><path fill="#c0e0ff" stroke="#c0e0ff" paint-order="fill stroke markers" d=" M 301.5 52.3 L 351.5 52.3 L 351.5 102.3 L 301.5 102.3 Z" stroke-linecap="square" stroke-miterlimit="10" stroke-width="0.5"/><path fill="#c0e0ff" stroke="#c0e0ff" paint-order="fill stroke markers" d=" M 101.5 102.3 L 151.5 102.3 L 151.5 152.3 L 101.5 152.3 Z" stroke-linecap="square" stroke-miterlimit="10" stroke-width="0.5"/><path fill="#ffb3ff" stroke="#ffb3ff" paint-order="fill stroke markers" d=" M 101.5 152.3 L 151.5 152.3 L 151.5 202.3 L 101.5 202.3 Z" stroke-linecap="square" stroke-miterlimit="10" stroke-width="0.5"/><path fill="#c0e0ff" stroke="#c0e0ff" paint-order="fill stroke markers" d=" M 101.5 202.3 L 151.5 202.3 L 151.5 252.3 L 101.5 252.3 Z" stroke-linecap="square" stroke-miterlimit="10" stroke-width="0.5"/><path fill="#b3ffb3" stroke="#b3ffb3" paint-order="fill stroke markers" d=" M 1.5 252.3 L 51.5 252.3 L 51.5 302.3 L 1.5 302.3 Z" stroke-linecap="square" stroke-miterlimit="10" stroke-width="0.5"/><path fill="#ffa3a3" stroke="#ffa3a3" paint-order="fill stroke markers" d=" M 251.5 252.3 L 301.5 252.3 L 301.5 302.3 L 251.5 302.3 Z" stroke-linecap="square" stroke-miterlimit="10" stroke-width="0.5"/><path fill="#c0e0ff" stroke="#c0e0ff" paint-order="fill stroke markers" d=" M 201.5 302.3 L 251.5 302.3 L 251.5 352.3 L 201.5 352.3 Z" stroke-linecap="square" stroke-miterlimit="10" stroke-width="0.5"/><path fill="#b3ffb3" stroke="#b3ffb3" paint-order="fill stroke markers" d=" M 251.5 302.3 L 301.5 302.3 L 301.5 352.3 L 251.5 352.3 Z" stroke-linecap="square" stroke-miterlimit="10" stroke-width="0.5"/><path fill="rgb(255,255,255)" stroke="#000000" paint-order="fill stroke markers" d=" M 94 77.3 A 17.5 17.5 0 1 1 93.99999125000073 77.28250000291665" fill-opacity="0" stroke-miterlimit="10" stroke-dasharray="4,4"/><path fill="rgb(255,255,255)" stroke="#000000" paint-order="fill stroke markers" d=" M 144 77.3 A 17.5 17.5 0 1 1 143.99999125000073 77.28250000291665" fill-opacity="0" stroke-miterlimit="10" stroke-dasharray="4,4"/><path fill="rgb(255,255,255)" stroke="#000000" paint-order="fill stroke markers" d=" M 144 127.3 A 17.5 17.5 0 1 1 143.99999125000073 127.28250000291665" fill-opacity="0" stroke-miterlimit="10" stroke-dasharray="4,4"/><path fill="rgb(255,255,255)" stroke="#000000" paint-order="fill stroke markers" d=" M 144 177.3 A 17.5 17.5 0 1 1 143.99999125000073 177.28250000291666" fill-opacity="0" stroke-miterlimit="10" stroke-dasharray="4,4"/><path fill="rgb(255,255,255)" stroke="#000000" paint-order="fill stroke markers" d=" M 94 227.3 A 17.5 17.5 0 1 1 93.99999125000073 227.28250000291666" fill-opacity="0" stroke-miterlimit="10" stroke-dasharray="4,4"/><path fill="rgb(255,255,255)" stroke="#000000" paint-order="fill stroke markers" d=" M 144 227.3 A 17.5 17.5 0 1 1 143.99999125000073 227.28250000291666" fill-opacity="0" stroke-miterlimit="10" stroke-dasharray="4,4"/><path fill="#000000" stroke="#000000" paint-order="fill stroke markers" d=" M 126.5 12.300000000000011 L 125.5 12.300000000000011 L 125.5 33.30000000000001 L 120.5 33.30000000000001 L 126.5 43.30000000000001 L 132.5 33.30000000000001 L 127.5 33.30000000000001 L 127.5 12.300000000000011 L 126.5 12.300000000000011" stroke-miterlimit="10"/><path fill="#000000" stroke="#000000" paint-order="fill stroke markers" d=" M 341.5 77.3 L 341.5 76.3 L 320.5 76.3 L 320.5 71.3 L 310.5 77.3 L 320.5 83.3 L 320.5 78.3 L 341.5 78.3 L 341.5 77.3" stroke-miterlimit="10"/><path fill="#000000" stroke="#000000" paint-order="fill stroke markers" d=" M 126.5 342.3 L 127.5 342.3 L 127.5 321.3 L 132.5 321.3 L 126.5 311.3 L 120.5 321.3 L 125.5 321.3 L 125.5 342.3 L 126.5 342.3" stroke-miterlimit="10"/><path fill="#000000" stroke="#000000" paint-order="fill stroke markers" d=" M 237.1066017177982 337.90660171779825 L 237.81370849898477 337.1994949366117 L 222.96446609406726 322.3502525316942 L 226.5 318.8147186257615 L 215.18629150101523 315.9862915010153 L 218.01471862576142 327.3 L 221.55025253169416 323.7644660940673 L 236.39949493661166 338.6137084989848 L 237.1066017177982 337.90660171779825" stroke-miterlimit="10"/><path fill="none" stroke="#000000" paint-order="fill stroke markers" d=" M 51.5 2.3000000000000114 L 101.5 2.3000000000000114" stroke-linecap="round" stroke-miterlimit="10" stroke-width="3"/><path fill="none" stroke="#000000" paint-order="fill stroke markers" d=" M 101.5 2.3000000000000114 L 101.5 52.3" stroke-linecap="square" stroke-miterlimit="10" stroke-width="0.8"/><path fill="none" stroke="#000000" paint-order="fill stroke markers" d=" M 51.5 52.3 L 101.5 52.3" stroke-linecap="square" stroke-miterlimit="10" stroke-width="0.8"/><path fill="none" stroke="#000000" paint-order="fill stroke markers" d=" M 51.5 2.3000000000000114 L 51.5 52.3" stroke-linecap="round" stroke-miterlimit="10" stroke-width="3"/><path fill="none" stroke="#000000" paint-order="fill stroke markers" d=" M 101.5 2.3000000000000114 L 151.5 2.3000000000000114" stroke-linecap="round" stroke-miterlimit="10" stroke-width="3"/><path fill="none" stroke="#000000" paint-order="fill stroke markers" d=" M 151.5 2.3000000000000114 L 151.5 52.3" stroke-linecap="square" stroke-miterlimit="10" stroke-width="0.8"/><path fill="none" stroke="#000000" paint-order="fill stroke markers" d=" M 101.5 52.3 L 151.5 52.3" stroke-linecap="square" stroke-miterlimit="10" stroke-width="0.8"/><path fill="none" stroke="#000000" paint-order="fill stroke markers" d=" M 151.5 2.3000000000000114 L 201.5 2.3000000000000114" stroke-linecap="round" stroke-miterlimit="10" stroke-width="3"/><path fill="none" stroke="#000000" paint-order="fill stroke markers" d=" M 201.5 2.3000000000000114 L 201.5 52.3" stroke-linecap="square" stroke-miterlimit="10" stroke-width="0.8"/><path fill="none" stroke="#000000" paint-order="fill stroke markers" d=" M 151.5 52.3 L 201.5 52.3" stroke-linecap="square" stroke-miterlimit="10" stroke-width="0.8"/><path fill="none" stroke="#000000" paint-order="fill stroke markers" d=" M 201.5 2.3000000000000114 L 251.5 2.3000000000000114" stroke-linecap="round" stroke-miterlimit="10" stroke-width="3"/><path fill="none" stroke="#000000" paint-order="fill stroke markers" d=" M 251.5 2.3000000000000114 L 251.5 52.3" stroke-linecap="square" stroke-miterlimit="10" stroke-width="0.8"/><path fill="none" stroke="#000000" paint-order="fill stroke markers" d=" M 201.5 52.3 L 251.5 52.3" stroke-linecap="square" stroke-miterlimit="10" stroke-width="0.8"/><path fill="none" stroke="#000000" paint-order="fill stroke markers" d=" M 251.5 2.3000000000000114 L 301.5 2.3000000000000114" stroke-linecap="round" stroke-miterlimit="10" stroke-width="3"/><path fill="none" stroke="#000000" paint-order="fill stroke markers" d=" M 301.5 2.3000000000000114 L 301.5 52.3" stroke-linecap="round" stroke-miterlimit="10" stroke-width="3"/><path fill="none" stroke="#000000" paint-order="fill stroke markers" d=" M 251.5 52.3 L 301.5 52.3" stroke-linecap="square" stroke-miterlimit="10" stroke-width="0.8"/><path fill="none" stroke="#000000" paint-order="fill stroke markers" d=" M 1.5 52.3 L 51.5 52.3" stroke-linecap="round" stroke-miterlimit="10" stroke-width="3"/><path fill="none" stroke="#000000" paint-order="fill stroke markers" d=" M 51.5 52.3 L 51.5 102.3" stroke-linecap="square" stroke-miterlimit="10" stroke-width="0.8"/><path fill="none" stroke="#000000" paint-order="fill stroke markers" d=" M 1.5 102.3 L 51.5 102.3" stroke-linecap="square" stroke-miterlimit="10" stroke-width="0.8"/><path fill="none" stroke="#000000" paint-order="fill stroke markers" d=" M 1.5 52.3 L 1.5 102.3" stroke-linecap="round" stroke-miterlimit="10" stroke-width="3"/><path fill="none" stroke="#000000" paint-order="fill stroke markers" d=" M 101.5 52.3 L 101.5 102.3" stroke-linecap="square" stroke-miterlimit="10" stroke-width="0.8"/><path fill="none" stroke="#000000" paint-order="fill stroke markers" d=" M 51.5 102.3 L 101.5 102.3" stroke-linecap="square" stroke-miterlimit="10" stroke-width="0.8"/><path fill="none" stroke="#000000" paint-order="fill stroke markers" d=" M 151.5 52.3 L 151.5 102.3" stroke-linecap="square" stroke-miterlimit="10" stroke-width="0.8"/><path fill="none" stroke="#000000" paint-order="fill stroke markers" d=" M 101.5 102.3 L 151.5 102.3" stroke-linecap="square" stroke-miterlimit="10" stroke-width="0.8"/><path fill="none" stroke="#000000" paint-order="fill stroke markers" d=" M 201.5 52.3 L 201.5 102.3" stroke-linecap="square" stroke-miterlimit="10" stroke-width="0.8"/><path fill="none" stroke="#000000" paint-order="fill stroke markers" d=" M 151.5 102.3 L 201.5 102.3" stroke-linecap="square" stroke-miterlimit="10" stroke-width="0.8"/><path fill="none" stroke="#000000" paint-order="fill stroke markers" d=" M 251.5 52.3 L 251.5 102.3" stroke-linecap="square" stroke-miterlimit="10" stroke-width="0.8"/><path fill="none" stroke="#000000" paint-order="fill stroke markers" d=" M 201.5 102.3 L 251.5 102.3" stroke-linecap="square" stroke-miterlimit="10" stroke-width="0.8"/><path fill="none" stroke="#000000" paint-order="fill stroke markers" d=" M 301.5 52.3 L 301.5 102.3" stroke-linecap="square" stroke-miterlimit="10" stroke-width="0.8"/><path fill="none" stroke="#000000" paint-order="fill stroke markers" d=" M 251.5 102.3 L 301.5 102.3" stroke-linecap="square" stroke-miterlimit="10" stroke-width="0.8"/><path fill="none" stroke="#000000" paint-order="fill stroke markers" d=" M 301.5 52.3 L 351.5 52.3" stroke-linecap="round" stroke-miterlimit="10" stroke-width="3"/><path fill="none" stroke="#000000" paint-order="fill stroke markers" d=" M 351.5 52.3 L 351.5 102.3" stroke-linecap="round" stroke-miterlimit="10" stroke-width="3"/><path fill="none" stroke="#000000" paint-order="fill stroke markers" d=" M 301.5 102.3 L 351.5 102.3" stroke-linecap="square" stroke-miterlimit="10" stroke-width="0.8"/><path fill="none" stroke="#000000" paint-order="fill stroke markers" d=" M 51.5 102.3 L 51.5 152.3" stroke-linecap="square" stroke-miterlimit="10" stroke-width="0.8"/><path fill="none" stroke="#000000" paint-order="fill stroke markers" d=" M 1.5 152.3 L 51.5 152.3" stroke-linecap="square" stroke-miterlimit="10" stroke-width="0.8"/><path fill="none" stroke="#000000" paint-order="fill stroke markers" d=" M 1.5 102.3 L 1.5 152.3" stroke-linecap="round" stroke-miterlimit="10" stroke-width="3"/><path fill="none" stroke="#000000" paint-order="fill stroke markers" d=" M 101.5 102.3 L 101.5 152.3" stroke-linecap="square" stroke-miterlimit="10" stroke-width="0.8"/><path fill="none" stroke="#000000" paint-order="fill stroke markers" d=" M 51.5 152.3 L 101.5 152.3" stroke-linecap="square" stroke-miterlimit="10" stroke-width="0.8"/><path fill="none" stroke="#000000" paint-order="fill stroke markers" d=" M 151.5 102.3 L 151.5 152.3" stroke-linecap="square" stroke-miterlimit="10" stroke-width="0.8"/><path fill="none" stroke="#000000" paint-order="fill stroke markers" d=" M 101.5 152.3 L 151.5 152.3" stroke-linecap="square" stroke-miterlimit="10" stroke-width="0.8"/><path fill="none" stroke="#000000" paint-order="fill stroke markers" d=" M 201.5 102.3 L 201.5 152.3" stroke-linecap="square" stroke-miterlimit="10" stroke-width="0.8"/><path fill="none" stroke="#000000" paint-order="fill stroke markers" d=" M 151.5 152.3 L 201.5 152.3" stroke-linecap="square" stroke-miterlimit="10" stroke-width="0.8"/><path fill="none" stroke="#000000" paint-order="fill stroke markers" d=" M 251.5 102.3 L 251.5 152.3" stroke-linecap="square" stroke-miterlimit="10" stroke-width="0.8"/><path fill="none" stroke="#000000" paint-order="fill stroke markers" d=" M 201.5 152.3 L 251.5 152.3" stroke-linecap="square" stroke-miterlimit="10" stroke-width="0.8"/><path fill="none" stroke="#000000" paint-order="fill stroke markers" d=" M 301.5 102.3 L 301.5 152.3" stroke-linecap="square" stroke-miterlimit="10" stroke-width="0.8"/><path fill="none" stroke="#000000" paint-order="fill stroke markers" d=" M 251.5 152.3 L 301.5 152.3" stroke-linecap="square" stroke-miterlimit="10" stroke-width="0.8"/><path fill="none" stroke="#000000" paint-order="fill stroke markers" d=" M 351.5 102.3 L 351.5 152.3" stroke-linecap="round" stroke-miterlimit="10" stroke-width="3"/><path fill="none" stroke="#000000" paint-order="fill stroke markers" d=" M 301.5 152.3 L 351.5 152.3" stroke-linecap="square" stroke-miterlimit="10" stroke-width="0.8"/><path fill="none" stroke="#000000" paint-order="fill stroke markers" d=" M 51.5 152.3 L 51.5 202.3" stroke-linecap="square" stroke-miterlimit="10" stroke-width="0.8"/><path fill="none" stroke="#000000" paint-order="fill stroke markers" d=" M 1.5 202.3 L 51.5 202.3" stroke-linecap="square" stroke-miterlimit="10" stroke-width="0.8"/><path fill="none" stroke="#000000" paint-order="fill stroke markers" d=" M 1.5 152.3 L 1.5 202.3" stroke-linecap="round" stroke-miterlimit="10" stroke-width="3"/><path fill="none" stroke="#000000" paint-order="fill stroke markers" d=" M 101.5 152.3 L 101.5 202.3" stroke-linecap="square" stroke-miterlimit="10" stroke-width="0.8"/><path fill="none" stroke="#000000" paint-order="fill stroke markers" d=" M 51.5 202.3 L 101.5 202.3" stroke-linecap="square" stroke-miterlimit="10" stroke-width="0.8"/><path fill="none" stroke="#000000" paint-order="fill stroke markers" d=" M 151.5 152.3 L 151.5 202.3" stroke-linecap="square" stroke-miterlimit="10" stroke-width="0.8"/><path fill="none" stroke="#000000" paint-order="fill stroke markers" d=" M 101.5 202.3 L 151.5 202.3" stroke-linecap="square" stroke-miterlimit="10" stroke-width="0.8"/><path fill="none" stroke="#000000" paint-order="fill stroke markers" d=" M 201.5 152.3 L 201.5 202.3" stroke-linecap="square" stroke-miterlimit="10" stroke-width="0.8"/><path fill="none" stroke="#000000" paint-order="fill stroke markers" d=" M 151.5 202.3 L 201.5 202.3" stroke-linecap="square" stroke-miterlimit="10" stroke-width="0.8"/><path fill="none" stroke="#000000" paint-order="fill stroke markers" d=" M 251.5 152.3 L 251.5 202.3" stroke-linecap="square" stroke-miterlimit="10" stroke-width="0.8"/><path fill="none" stroke="#000000" paint-order="fill stroke markers" d=" M 201.5 202.3 L 251.5 202.3" stroke-linecap="square" stroke-miterlimit="10" stroke-width="0.8"/><path fill="none" stroke="#000000" paint-order="fill stroke markers" d=" M 301.5 152.3 L 301.5 202.3" stroke-linecap="square" stroke-miterlimit="10" stroke-width="0.8"/><path fill="none" stroke="#000000" paint-order="fill stroke markers" d=" M 251.5 202.3 L 301.5 202.3" stroke-linecap="square" stroke-miterlimit="10" stroke-width="0.8"/><path fill="none" stroke="#000000" paint-order="fill stroke markers" d=" M 351.5 152.3 L 351.5 202.3" stroke-linecap="round" stroke-miterlimit="10" stroke-width="3"/><path fill="none" stroke="#000000" paint-order="fill stroke markers" d=" M 301.5 202.3 L 351.5 202.3" stroke-linecap="square" stroke-miterlimit="10" stroke-width="0.8"/><path fill="none" stroke="#000000" paint-order="fill stroke markers" d=" M 51.5 202.3 L 51.5 252.3" stroke-linecap="square" stroke-miterlimit="10" stroke-width="0.8"/><path fill="none" stroke="#000000" paint-order="fill stroke markers" d=" M 1.5 252.3 L 51.5 252.3" stroke-linecap="square" stroke-miterlimit="10" stroke-width="0.8"/><path fill="none" stroke="#000000" paint-order="fill stroke markers" d=" M 1.5 202.3 L 1.5 252.3" stroke-linecap="round" stroke-miterlimit="10" stroke-width="3"/><path fill="none" stroke="#000000" paint-order="fill stroke markers" d=" M 101.5 202.3 L 101.5 252.3" stroke-linecap="square" stroke-miterlimit="10" stroke-width="0.8"/><path fill="none" stroke="#000000" paint-order="fill stroke markers" d=" M 51.5 252.3 L 101.5 252.3" stroke-linecap="square" stroke-miterlimit="10" stroke-width="0.8"/><path fill="none" stroke="#000000" paint-order="fill stroke markers" d=" M 151.5 202.3 L 151.5 252.3" stroke-linecap="square" stroke-miterlimit="10" stroke-width="0.8"/><path fill="none" stroke="#000000" paint-order="fill stroke markers" d=" M 101.5 252.3 L 151.5 252.3" stroke-linecap="square" stroke-miterlimit="10" stroke-width="0.8"/><path fill="none" stroke="#000000" paint-order="fill stroke markers" d=" M 201.5 202.3 L 201.5 252.3" stroke-linecap="square" stroke-miterlimit="10" stroke-width="0.8"/><path fill="none" stroke="#000000" paint-order="fill stroke markers" d=" M 151.5 252.3 L 201.5 252.3" stroke-linecap="square" stroke-miterlimit="10" stroke-width="0.8"/><path fill="none" stroke="#000000" paint-order="fill stroke markers" d=" M 251.5 202.3 L 251.5 252.3" stroke-linecap="square" stroke-miterlimit="10" stroke-width="0.8"/><path fill="none" stroke="#000000" paint-order="fill stroke markers" d=" M 201.5 252.3 L 251.5 252.3" stroke-linecap="square" stroke-miterlimit="10" stroke-width="0.8"/><path fill="none" stroke="#000000" paint-order="fill stroke markers" d=" M 301.5 202.3 L 301.5 252.3" stroke-linecap="square" stroke-miterlimit="10" stroke-width="0.8"/><path fill="none" stroke="#000000" paint-order="fill stroke markers" d=" M 251.5 252.3 L 301.5 252.3" stroke-linecap="square" stroke-miterlimit="10" stroke-width="0.8"/><path fill="none" stroke="#000000" paint-order="fill stroke markers" d=" M 351.5 202.3 L 351.5 252.3" stroke-linecap="round" stroke-miterlimit="10" stroke-width="3"/><path fill="none" stroke="#000000" paint-order="fill stroke markers" d=" M 301.5 252.3 L 351.5 252.3" stroke-linecap="square" stroke-miterlimit="10" stroke-width="0.8"/><path fill="none" stroke="#000000" paint-order="fill stroke markers" d=" M 51.5 252.3 L 51.5 302.3" stroke-linecap="square" stroke-miterlimit="10" stroke-width="0.8"/><path fill="none" stroke="#000000" paint-order="fill stroke markers" d=" M 1.5 302.3 L 51.5 302.3" stroke-linecap="round" stroke-miterlimit="10" stroke-width="3"/><path fill="none" stroke="#000000" paint-order="fill stroke markers" d=" M 1.5 252.3 L 1.5 302.3" stroke-linecap="round" stroke-miterlimit="10" stroke-width="3"/><path fill="none" stroke="#000000" paint-order="fill stroke markers" d=" M 101.5 252.3 L 101.5 302.3" stroke-linecap="square" stroke-miterlimit="10" stroke-width="0.8"/><path fill="none" stroke="#000000" paint-order="fill stroke markers" d=" M 51.5 302.3 L 101.5 302.3" stroke-linecap="square" stroke-miterlimit="10" stroke-width="0.8"/><path fill="none" stroke="#000000" paint-order="fill stroke markers" d=" M 151.5 252.3 L 151.5 302.3" stroke-linecap="square" stroke-miterlimit="10" stroke-width="0.8"/><path fill="none" stroke="#000000" paint-order="fill stroke markers" d=" M 101.5 302.3 L 151.5 302.3" stroke-linecap="square" stroke-miterlimit="10" stroke-width="0.8"/><path fill="none" stroke="#000000" paint-order="fill stroke markers" d=" M 201.5 252.3 L 201.5 302.3" stroke-linecap="square" stroke-miterlimit="10" stroke-width="0.8"/><path fill="none" stroke="#000000" paint-order="fill stroke markers" d=" M 151.5 302.3 L 201.5 302.3" stroke-linecap="square" stroke-miterlimit="10" stroke-width="0.8"/><path fill="none" stroke="#000000" paint-order="fill stroke markers" d=" M 251.5 252.3 L 251.5 302.3" stroke-linecap="square" stroke-miterlimit="10" stroke-width="0.8"/><path fill="none" stroke="#000000" paint-order="fill stroke markers" d=" M 201.5 302.3 L 251.5 302.3" stroke-linecap="square" stroke-miterlimit="10" stroke-width="0.8"/><path fill="none" stroke="#000000" paint-order="fill stroke markers" d=" M 301.5 252.3 L 301.5 302.3" stroke-linecap="square" stroke-miterlimit="10" stroke-width="0.8"/><path fill="none" stroke="#000000" paint-order="fill stroke markers" d=" M 251.5 302.3 L 301.5 302.3" stroke-linecap="square" stroke-miterlimit="10" stroke-width="0.8"/><path fill="none" stroke="#000000" paint-order="fill stroke markers" d=" M 351.5 252.3 L 351.5 302.3" stroke-linecap="round" stroke-miterlimit="10" stroke-width="3"/><path fill="none" stroke="#000000" paint-order="fill stroke markers" d=" M 301.5 302.3 L 351.5 302.3" stroke-linecap="round" stroke-miterlimit="10" stroke-width="3"/><path fill="none" stroke="#000000" paint-order="fill stroke markers" d=" M 101.5 302.3 L 101.5 352.3" stroke-linecap="square" stroke-miterlimit="10" stroke-width="0.8"/><path fill="none" stroke="#000000" paint-order="fill stroke markers" d=" M 51.5 352.3 L 101.5 352.3" stroke-linecap="round" stroke-miterlimit="10" stroke-width="3"/><path fill="none" stroke="#000000" paint-order="fill stroke markers" d=" M 51.5 302.3 L 51.5 352.3" stroke-linecap="round" stroke-miterlimit="10" stroke-width="3"/><path fill="none" stroke="#000000" paint-order="fill stroke markers" d=" M 151.5 302.3 L 151.5 352.3" stroke-linecap="square" stroke-miterlimit="10" stroke-width="0.8"/><path fill="none" stroke="#000000" paint-order="fill stroke markers" d=" M 101.5 352.3 L 151.5 352.3" stroke-linecap="round" stroke-miterlimit="10" stroke-width="3"/><path fill="none" stroke="#000000" paint-order="fill stroke markers" d=" M 201.5 302.3 L 201.5 352.3" stroke-linecap="square" stroke-miterlimit="10" stroke-width="0.8"/><path fill="none" stroke="#000000" paint-order="fill stroke markers" d=" M 151.5 352.3 L 201.5 352.3" stroke-linecap="round" stroke-miterlimit="10" stroke-width="3"/><path fill="none" stroke="#000000" paint-order="fill stroke markers" d=" M 251.5 302.3 L 251.5 352.3" stroke-linecap="square" stroke-miterlimit="10" stroke-width="0.8"/><path fill="none" stroke="#000000" paint-order="fill stroke markers" d=" M 201.5 352.3 L 251.5 352.3" stroke-linecap="round" stroke-miterlimit="10" stroke-width="3"/><path fill="none" stroke="#000000" paint-order="fill stroke markers" d=" M 301.5 302.3 L 301.5 352.3" stroke-linecap="round" stroke-miterlimit="10" stroke-width="3"/><path fill="none" stroke="#000000" paint-order="fill stroke markers" d=" M 251.5 352.3 L 301.5 352.3" stroke-linecap="round" stroke-miterlimit="10" stroke-width="3"/><path fill="none" stroke="#ff0000" paint-order="fill stroke markers" d=" M 101.5 2.3000000000000114 L 151.5 52.3" stroke-linecap="square" stroke-miterlimit="10" stroke-width="3"/><path fill="none" stroke="#ff0000" paint-order="fill stroke markers" d=" M 151.5 2.3000000000000114 L 101.5 52.3" stroke-linecap="square" stroke-miterlimit="10" stroke-width="3"/><path fill="none" stroke="#ff0000" paint-order="fill stroke markers" d=" M 101.5 302.3 L 151.5 352.3" stroke-linecap="square" stroke-miterlimit="10" stroke-width="3"/><path fill="none" stroke="#ff0000" paint-order="fill stroke markers" d=" M 151.5 302.3 L 101.5 352.3" stroke-linecap="square" stroke-miterlimit="10" stroke-width="3"/><text fill="none" stroke="rgb(255,255,255)" font-family="Helvetica,Arial" font-size="35px" font-style="normal" font-weight="normal" text-decoration="normal" x="76.5" y="90.1" text-anchor="middle" dominant-baseline="alphabetic" stroke-opacity="0" stroke-linecap="square" stroke-miterlimit="10" stroke-width="3">3</text><text fill="#0000ff" stroke="none" font-family="Helvetica,Arial" font-size="35px" font-style="normal" font-weight="normal" text-decoration="normal" x="76.5" y="90.1" text-anchor="middle" dominant-baseline="alphabetic">3</text><text fill="none" stroke="rgb(255,255,255)" font-family="Helvetica,Arial" font-size="35px" font-style="normal" font-weight="normal" text-decoration="normal" x="126.5" y="90.1" text-anchor="middle" dominant-baseline="alphabetic" stroke-opacity="0" stroke-linecap="square" stroke-miterlimit="10" stroke-width="3">3</text><text fill="#0000ff" stroke="none" font-family="Helvetica,Arial" font-size="35px" font-style="normal" font-weight="normal" text-decoration="normal" x="126.5" y="90.1" text-anchor="middle" dominant-baseline="alphabetic">3</text><text fill="none" stroke="rgb(255,255,255)" font-family="Helvetica,Arial" font-size="35px" font-style="normal" font-weight="normal" text-decoration="normal" x="126.5" y="140.10000000000002" text-anchor="middle" dominant-baseline="alphabetic" stroke-opacity="0" stroke-linecap="square" stroke-miterlimit="10" stroke-width="3">2</text><text fill="#0000ff" stroke="none" font-family="Helvetica,Arial" font-size="35px" font-style="normal" font-weight="normal" text-decoration="normal" x="126.5" y="140.10000000000002" text-anchor="middle" dominant-baseline="alphabetic">2</text><text fill="none" stroke="rgb(255,255,255)" font-family="Helvetica,Arial" font-size="35px" font-style="normal" font-weight="normal" text-decoration="normal" x="226.5" y="140.10000000000002" text-anchor="middle" dominant-baseline="alphabetic" stroke-opacity="0" stroke-linecap="square" stroke-miterlimit="10" stroke-width="3">3</text><text fill="#000000" stroke="none" font-family="Helvetica,Arial" font-size="35px" font-style="normal" font-weight="normal" text-decoration="normal" x="226.5" y="140.10000000000002" text-anchor="middle" dominant-baseline="alphabetic">3</text><text fill="none" stroke="rgb(255,255,255)" font-family="Helvetica,Arial" font-size="35px" font-style="normal" font-weight="normal" text-decoration="normal" x="276.5" y="140.10000000000002" text-anchor="middle" dominant-baseline="alphabetic" stroke-opacity="0" stroke-linecap="square" stroke-miterlimit="10" stroke-width="3">3</text><text fill="#000000" stroke="none" font-family="Helvetica,Arial" font-size="35px" font-style="normal" font-weight="normal" text-decoration="normal" x="276.5" y="140.10000000000002" text-anchor="middle" dominant-baseline="alphabetic">3</text><text fill="none" stroke="rgb(255,255,255)" font-family="Helvetica,Arial" font-size="35px" font-style="normal" font-weight="normal" text-decoration="normal" x="126.5" y="190.10000000000002" text-anchor="middle" dominant-baseline="alphabetic" stroke-opacity="0" stroke-linecap="square" stroke-miterlimit="10" stroke-width="3">2</text><text fill="#0000ff" stroke="none" font-family="Helvetica,Arial" font-size="35px" font-style="normal" font-weight="normal" text-decoration="normal" x="126.5" y="190.10000000000002" text-anchor="middle" dominant-baseline="alphabetic">2</text><text fill="none" stroke="rgb(255,255,255)" font-family="Helvetica,Arial" font-size="35px" font-style="normal" font-weight="normal" text-decoration="normal" x="226.5" y="190.10000000000002" text-anchor="middle" dominant-baseline="alphabetic" stroke-opacity="0" stroke-linecap="square" stroke-miterlimit="10" stroke-width="3">3</text><text fill="#000000" stroke="none" font-family="Helvetica,Arial" font-size="35px" font-style="normal" font-weight="normal" text-decoration="normal" x="226.5" y="190.10000000000002" text-anchor="middle" dominant-baseline="alphabetic">3</text><text fill="none" stroke="rgb(255,255,255)" font-family="Helvetica,Arial" font-size="35px" font-style="normal" font-weight="normal" text-decoration="normal" x="76.5" y="240.10000000000002" text-anchor="middle" dominant-baseline="alphabetic" stroke-opacity="0" stroke-linecap="square" stroke-miterlimit="10" stroke-width="3">4</text><text fill="#0000ff" stroke="none" font-family="Helvetica,Arial" font-size="35px" font-style="normal" font-weight="normal" text-decoration="normal" x="76.5" y="240.10000000000002" text-anchor="middle" dominant-baseline="alphabetic">4</text><text fill="none" stroke="rgb(255,255,255)" font-family="Helvetica,Arial" font-size="35px" font-style="normal" font-weight="normal" text-decoration="normal" x="126.5" y="240.10000000000002" text-anchor="middle" dominant-baseline="alphabetic" stroke-opacity="0" stroke-linecap="square" stroke-miterlimit="10" stroke-width="3">3</text><text fill="#0000ff" stroke="none" font-family="Helvetica,Arial" font-size="35px" font-style="normal" font-weight="normal" text-decoration="normal" x="126.5" y="240.10000000000002" text-anchor="middle" dominant-baseline="alphabetic">3</text><text fill="none" stroke="rgb(255,255,255)" font-family="Helvetica,Arial" font-size="35px" font-style="normal" font-weight="normal" text-decoration="normal" x="226.5" y="240.10000000000002" text-anchor="middle" dominant-baseline="alphabetic" stroke-opacity="0" stroke-linecap="square" stroke-miterlimit="10" stroke-width="3">2</text><text fill="#000000" stroke="none" font-family="Helvetica,Arial" font-size="35px" font-style="normal" font-weight="normal" text-decoration="normal" x="226.5" y="240.10000000000002" text-anchor="middle" dominant-baseline="alphabetic">2</text><text fill="none" stroke="rgb(255,255,255)" font-family="Helvetica,Arial" font-size="35px" font-style="normal" font-weight="normal" text-decoration="normal" x="226.5" y="290.1" text-anchor="middle" dominant-baseline="alphabetic" stroke-opacity="0" stroke-linecap="square" stroke-miterlimit="10" stroke-width="3">3</text><text fill="#000000" stroke="none" font-family="Helvetica,Arial" font-size="35px" font-style="normal" font-weight="normal" text-decoration="normal" x="226.5" y="290.1" text-anchor="middle" dominant-baseline="alphabetic">3</text><text fill="none" stroke="rgb(255,255,255)" font-family="Helvetica,Arial" font-size="35px" font-style="normal" font-weight="normal" text-decoration="normal" x="276.5" y="290.1" text-anchor="middle" dominant-baseline="alphabetic" stroke-opacity="0" stroke-linecap="square" stroke-miterlimit="10" stroke-width="3">1</text><text fill="#000000" stroke="none" font-family="Helvetica,Arial" font-size="35px" font-style="normal" font-weight="normal" text-decoration="normal" x="276.5" y="290.1" text-anchor="middle" dominant-baseline="alphabetic">1</text></g></svg>