<svg version="1.1" xmlns="http://www.w3.org/2000/svg" xmlns:xlink="http://www.w3.org/1999/xlink" width="353.2" height="353.2"><defs/><g><rect fill="rgb(255,255,255)" stroke="none" x="0" y="0" width="353.2" height="353.2" fill-opacity="0"/><path fill="none" stroke="#000000" paint-order="fill stroke markers" d=" M 51.5 1.5 L 101.5 1.5" stroke-linecap="round" stroke-miterlimit="10" stroke-width="3"/><path fill="none" stroke="#000000" paint-order="fill stroke markers" d=" M 51.5 1.5 L 51.5 51.5" stroke-linecap="round" stroke-miterlimit="10" stroke-width="3"/><path fill="none" stroke="#000000" paint-order="fill stroke markers" d=" M 101.5 1.5 L 151.5 1.5" stroke-linecap="round" stroke-miterlimit="10" stroke-width="3"/><path fill="none" stroke="#000000" paint-order="fill stroke markers" d=" M 151.5 1.5 L 201.5 1.5" stroke-linecap="round" stroke-miterlimit="10" stroke-width="3"/><path fill="none" stroke="#000000" paint-order="fill stroke markers" d=" M 201.5 1.5 L 251.5 1.5" stroke-linecap="round" stroke-miterlimit="10" stroke-width="3"/><path fill="none" stroke="#000000" paint-order="fill stroke markers" d=" M 251.5 1.5 L 301.5 1.5" stroke-linecap="round" stroke-miterlimit="10" stroke-width="3"/><path fill="none" stroke="#000000" paint-order="fill stroke markers" d=" M 301.5 1.5 L 301.5 51.5" stroke-linecap="round" stroke-miterlimit="10" stroke-width="3"/><path fill="none" stroke="#000000" paint-order="fill stroke markers" d=" M 1.5 51.5 L 51.5 51.5" stroke-linecap="round" stroke-miterlimit="10" stroke-width="3"/><path fill="none" stroke="#000000" paint-order="fill stroke markers" d=" M 1.5 51.5 L 1.5 101.5" stroke-linecap="round" stroke-miterlimit="10" stroke-width="3"/><path fill="none" stroke="#000000" paint-order="fill stroke markers" d=" M 301.5 51.5 L 351.5 51.5" stroke-linecap="round" stroke-miterlimit="10" stroke-width="3"/><path fill="none" stroke="#000000" paint-order="fill stroke markers" d=" M 351.5 51.5 L 351.5 101.5" stroke-linecap="round" stroke-miterlimit="10" stroke-width="3"/><path fill="none" stroke="#000000" paint-order="fill stroke markers" d=" M 1.5 101.5 L 1.5 151.5" stroke-linecap="round" stroke-miterlimit="10" stroke-width="3"/><path fill="none" stroke="#000000" paint-order="fill stroke markers" d=" M 351.5 101.5 L 351.5 151.5" stroke-linecap="round" stroke-miterlimit="10" stroke-width="3"/><path fill="none" stroke="#000000" paint-order="fill stroke markers" d=" M 1.5 151.5 L 1.5 201.5" stroke-linecap="round" stroke-miterlimit="10" stroke-width="3"/><path fill="none" stroke="#000000" paint-order="fill stroke markers" d=" M 351.5 151.5 L 351.5 201.5" stroke-linecap="round" stroke-miterlimit="10" stroke-width="3"/><path fill="none" stroke="#000000" paint-order="fill stroke markers" d=" M 1.5 201.5 L 1.5 251.5" stroke-linecap="round" stroke-miterlimit="10" stroke-width="3"/><path fill="none" stroke="#000000" paint-order="fill stroke markers" d=" M 351.5 201.5 L 351.5 251.5" stroke-linecap="round" stroke-miterlimit="10" stroke-width="3"/><path fill="none" stroke="#000000" paint-order="fill stroke markers" d=" M 1.5 301.5 L 51.5 301.5" stroke-linecap="round" stroke-miterlimit="10" stroke-width="3"/><path fill="none" stroke="#000000" paint-order="fill stroke markers" d=" M 1.5 251.5 L 1.5 301.5" stroke-linecap="round" stroke-miterlimit="10" stroke-width="3"/><path fill="none" stroke="#000000" paint-order="fill stroke markers" d=" M 351.5 251.5 L 351.5 301.5" stroke-linecap="round" stroke-miterlimit="10" stroke-width="3"/><path fill="none" stroke="#000000" paint-order="fill stroke markers" d=" M 301.5 301.5 L 351.5 301.5" stroke-linecap="round" stroke-miterlimit="10" stroke-width="3"/><path fill="none" stroke="#000000" paint-order="fill stroke markers" d=" M 51.5 351.5 L 101.5 351.5" stroke-linecap="round" stroke-miterlimit="10" stroke-width="3"/><path fill="none" stroke="#000000" paint-order="fill stroke markers" d=" M 51.5 301.5 L 51.5 351.5" stroke-linecap="round" stroke-miterlimit="10" stroke-width="3"/><path fill="none" stroke="#000000" paint-order="fill stroke markers" d=" M 101.5 351.5 L 151.5 351.5" stroke-linecap="round" stroke-miterlimit="10" stroke-width="3"/><path fill="none" stroke="#000000" paint-order="fill stroke markers" d=" M 151.5 351.5 L 201.5 351.5" stroke-linecap="round" stroke-miterlimit="10" stroke-width="3"/><path fill="none" stroke="#000000" paint-order="fill stroke markers" d=" M 201.5 351.5 L 251.5 351.5" stroke-linecap="round" stroke-miterlimit="10" stroke-width="3"/><path fill="none" stroke="#000000" paint-order="fill stroke markers" d=" M 301.5 301.5 L 301.5 351.5" stroke-linecap="round" stroke-miterlimit="10" stroke-width="3"/><path fill="none" stroke="#000000" paint-order="fill stroke markers" d=" M 251.5 351.5 L 301.5 351.5" stroke-linecap="round" stroke-miterlimit="10" stroke-width="3"/><path fill="#cccccc" stroke="#cccccc" paint-order="fill stroke markers" d=" M 51.5 51.5 L 101.5 51.5 L 101.5 101.5 L 51.5 101.5 Z" stroke-linecap="square" stroke-miterlimit="10" stroke-width="0.5"/><path fill="#cccccc" stroke="#cccccc" paint-order="fill stroke markers" d=" M 101.5 51.5 L 151.5 51.5 L 151.5 101.5 L 101.5 101.5 Z" stroke-linecap="square" stroke-miterlimit="10" stroke-width="0.5"/><path fill="#cccccc" stroke="#cccccc" paint-order="fill stroke markers" d=" M 151.5 51.5 L 201.5 51.5 L 201.5 101.5 L 151.5 101.5 Z" stroke-linecap="square" stroke-miterlimit="10" stroke-width="0.5"/><path fill="#cccccc" stroke="#cccccc" paint-order="fill stroke markers" d=" M 201.5 51.5 L 251.5 51.5 L 251.5 101.5 L 201.5 101.5 Z" stroke-linecap="square" stroke-miterlimit="10" stroke-width="0.5"/><path fill="#cccccc" stroke="#cccccc" paint-order="fill stroke markers" d=" M 251.5 51.5 L 301.5 51.5 L 301.5 101.5 L 251.5 101.5 Z" stroke-linecap="square" stroke-miterlimit="10" stroke-width="0.5"/><path fill="#cccccc" stroke="#cccccc" paint-order="fill stroke markers" d=" M 51.5 101.5 L 101.5 101.5 L 101.5 151.5 L 51.5 151.5 Z" stroke-linecap="square" stroke-miterlimit="10" stroke-width="0.5"/><path fill="#cccccc" stroke="#cccccc" paint-order="fill stroke markers" d=" M 101.5 101.5 L 151.5 101.5 L 151.5 151.5 L 101.5 151.5 Z" stroke-linecap="square" stroke-miterlimit="10" stroke-width="0.5"/><path fill="#cccccc" stroke="#cccccc" paint-order="fill stroke markers" d=" M 151.5 101.5 L 201.5 101.5 L 201.5 151.5 L 151.5 151.5 Z" stroke-linecap="square" stroke-miterlimit="10" stroke-width="0.5"/><path fill="#cccccc" stroke="#cccccc" paint-order="fill stroke markers" d=" M 201.5 101.5 L 251.5 101.5 L 251.5 151.5 L 201.5 151.5 Z" stroke-linecap="square" stroke-miterlimit="10" stroke-width="0.5"/><path fill="#cccccc" stroke="#cccccc" paint-order="fill stroke markers" d=" M 251.5 101.5 L 301.5 101.5 L 301.5 151.5 L 251.5 151.5 Z" stroke-linecap="square" stroke-miterlimit="10" stroke-width="0.5"/><path fill="#cccccc" stroke="#cccccc" paint-order="fill stroke markers" d=" M 51.5 151.5 L 101.5 151.5 L 101.5 201.5 L 51.5 201.5 Z" stroke-linecap="square" stroke-miterlimit="10" stroke-width="0.5"/><path fill="#cccccc" stroke="#cccccc" paint-order="fill stroke markers" d=" M 101.5 151.5 L 151.5 151.5 L 151.5 201.5 L 101.5 201.5 Z" stroke-linecap="square" stroke-miterlimit="10" stroke-width="0.5"/><path fill="#cccccc" stroke="#cccccc" paint-order="fill stroke markers" d=" M 151.5 151.5 L 201.5 151.5 L 201.5 201.5 L 151.5 201.5 Z" stroke-linecap="square" stroke-miterlimit="10" stroke-width="0.5"/><path fill="#cccccc" stroke="#cccccc" paint-order="fill stroke markers" d=" M 201.5 151.5 L 251.5 151.5 L 251.5 201.5 L 201.5 201.5 Z" stroke-linecap="square" stroke-miterlimit="10" stroke-width="0.5"/><path fill="#cccccc" stroke="#cccccc" paint-order="fill stroke markers" d=" M 251.5 151.5 L 301.5 151.5 L 301.5 201.5 L 251.5 201.5 Z" stroke-linecap="square" stroke-miterlimit="10" stroke-width="0.5"/><path fill="#cccccc" stroke="#cccccc" paint-order="fill stroke markers" d=" M 51.5 201.5 L 101.5 201.5 L 101.5 251.5 L 51.5 251.5 Z" stroke-linecap="square" stroke-miterlimit="10" stroke-width="0.5"/><path fill="#cccccc" stroke="#cccccc" paint-order="fill stroke markers" d=" M 101.5 201.5 L 151.5 201.5 L 151.5 251.5 L 101.5 251.5 Z" stroke-linecap="square" stroke-miterlimit="10" stroke-width="0.5"/><path fill="#cccccc" stroke="#cccccc" paint-order="fill stroke markers" d=" M 151.5 201.5 L 201.5 201.5 L 201.5 251.5 L 151.5 251.5 Z" stroke-linecap="square" stroke-miterlimit="10" stroke-width="0.5"/><path fill="#cccccc" stroke="#cccccc" paint-order="fill stroke markers" d=" M 201.5 201.5 L 251.5 201.5 L 251.5 251.5 L 201.5 251.5 Z" stroke-linecap="square" stroke-miterlimit="10" stroke-width="0.5"/><path fill="#cccccc" stroke="#cccccc" paint-order="fill stroke markers" d=" M 251.5 201.5 L 301.5 201.5 L 301.5 251.5 L 251.5 251.5 Z" stroke-linecap="square" stroke-miterlimit="10" stroke-width="0.5"/><path fill="#cccccc" stroke="#cccccc" paint-order="fill stroke markers" d=" M 51.5 251.5 L 101.5 251.5 L 101.5 301.5 L 51.5 301.5 Z" stroke-linecap="square" stroke-miterlimit="10" stroke-width="0.5"/><path fill="#cccccc" stroke="#cccccc" paint-order="fill stroke markers" d=" M 101.5 251.5 L 151.5 251.5 L 151.5 301.5 L 101.5 301.5 Z" stroke-linecap="square" stroke-miterlimit="10" stroke-width="0.5"/><path fill="#cccccc" stroke="#cccccc" paint-order="fill stroke markers" d=" M 151.5 251.5 L 201.5 251.5 L 201.5 301.5 L 151.5 301.5 Z" stroke-linecap="square" stroke-miterlimit="10" stroke-width="0.5"/><path fill="#cccccc" stroke="#cccccc" paint-order="fill stroke markers" d=" M 201.5 251.5 L 251.5 251.5 L 251.5 301.5 L 201.5 301.5 Z" stroke-linecap="square" stroke-miterlimit="10" stroke-width="0.5"/><path fill="#cccccc" stroke="#cccccc" paint-order="fill stroke markers" d=" M 251.5 251.5 L 301.5 251.5 L 301.5 301.5 L 251.5 301.5 Z" stroke-linecap="square" stroke-miterlimit="10" stroke-width="0.5"/><path fill="#b3ffb3" stroke="#b3ffb3" paint-order="fill stroke markers" d=" M 151.5 1.5 L 201.5 1.5 L 201.5 51.5 L 151.5 51.5 Z" stroke-linecap="square" stroke-miterlimit="10" stroke-width="0.5"/><path fill="#c0e0ff" stroke="#c0e0ff" paint-order="fill stroke markers" d=" M 251.5 1.5 L 301.5 1.5 L 301.5 51.5 L 251.5 51.5 Z" stroke-linecap="square" stroke-miterlimit="10" stroke-width="0.5"/><path fill="#b3ffb3" stroke="#b3ffb3" paint-order="fill stroke markers" d=" M 1.5 51.5 L 51.5 51.5 L 51.5 101.5 L 1.5 101.5 Z" stroke-linecap="square" stroke-miterlimit="10" stroke-width="0.5"/><path fill="#ffa3a3" stroke="#ffa3a3" paint-order="fill stroke markers" d=" M 51.5 101.5 L 101.5 101.5 L 101.5 151.5 L 51.5 151.5 Z" stroke-linecap="square" stroke-miterlimit="10" stroke-width="0.5"/><path fill="#ffa3a3" stroke="#ffa3a3" paint-order="fill stroke markers" d=" M 151.5 101.5 L 201.5 101.5 L 201.5 151.5 L 151.5 151.5 Z" stroke-linecap="square" stroke-miterlimit="10" stroke-width="0.5"/><path fill="#b3ffb3" stroke="#b3ffb3" paint-order="fill stroke markers" d=" M 1.5 151.5 L 51.5 151.5 L 51.5 201.5 L 1.5 201.5 Z" stroke-linecap="square" stroke-miterlimit="10" stroke-width="0.5"/><path fill="#c0e0ff" stroke="#c0e0ff" paint-order="fill stroke markers" d=" M 1.5 251.5 L 51.5 251.5 L 51.5 301.5 L 1.5 301.5 Z" stroke-linecap="square" stroke-miterlimit="10" stroke-width="0.5"/><path fill="#c0e0ff" stroke="#c0e0ff" paint-order="fill stroke markers" d=" M 301.5 251.5 L 351.5 251.5 L 351.5 301.5 L 301.5 301.5 Z" stroke-linecap="square" stroke-miterlimit="10" stroke-width="0.5"/><path fill="#c0e0ff" stroke="#c0e0ff" paint-order="fill stroke markers" d=" M 151.5 301.5 L 201.5 301.5 L 201.5 351.5 L 151.5 351.5 Z" stroke-linecap="square" stroke-miterlimit="10" stroke-width="0.5"/><path fill="#b3ffb3" stroke="#b3ffb3" paint-order="fill stroke markers" d=" M 251.5 301.5 L 301.5 301.5 L 301.5 351.5 L 251.5 351.5 Z" stroke-linecap="square" stroke-miterlimit="10" stroke-width="0.5"/><path fill="#000000" stroke="#000000" paint-order="fill stroke markers" d=" M 65.89339828220179 15.893398282201789 L 65.18629150101523 16.600505063388336 L 80.03553390593274 31.449747468305837 L 76.5 34.985281374238575 L 87.81370849898477 37.81370849898476 L 84.98528137423858 26.5 L 81.44974746830584 30.035533905932738 L 66.60050506338834 15.18629150101524 L 65.89339828220179 15.893398282201789" stroke-miterlimit="10"/><path fill="#000000" stroke="#000000" paint-order="fill stroke markers" d=" M 187.1066017177982 15.893398282201787 L 186.39949493661166 15.186291501015239 L 171.55025253169416 30.035533905932738 L 168.01471862576142 26.5 L 165.18629150101523 37.81370849898476 L 176.5 34.98528137423857 L 172.96446609406726 31.449747468305834 L 187.81370849898477 16.600505063388333 L 187.1066017177982 15.893398282201787" stroke-miterlimit="10"/><path fill="#000000" stroke="#000000" paint-order="fill stroke markers" d=" M 276.5 11.5 L 275.5 11.5 L 275.5 32.5 L 270.5 32.5 L 276.5 42.5 L 282.5 32.5 L 277.5 32.5 L 277.5 11.5 L 276.5 11.5" stroke-miterlimit="10"/><path fill="#000000" stroke="#000000" paint-order="fill stroke markers" d=" M 15.893398282201787 65.89339828220179 L 15.186291501015239 66.60050506338834 L 30.035533905932738 81.44974746830584 L 26.5 84.98528137423858 L 37.81370849898476 87.81370849898477 L 34.98528137423857 76.5 L 31.449747468305834 80.03553390593274 L 16.600505063388333 65.18629150101523 L 15.893398282201787 65.89339828220179" stroke-miterlimit="10"/><path fill="#000000" stroke="#000000" paint-order="fill stroke markers" d=" M 15.893398282201787 187.1066017177982 L 16.600505063388333 187.81370849898477 L 31.449747468305834 172.96446609406726 L 34.98528137423857 176.5 L 37.81370849898476 165.18629150101523 L 26.5 168.01471862576142 L 30.035533905932738 171.55025253169416 L 15.186291501015239 186.39949493661166 L 15.893398282201787 187.1066017177982" stroke-miterlimit="10"/><path fill="#000000" stroke="#000000" paint-order="fill stroke markers" d=" M 11.5 276.5 L 11.5 277.5 L 32.5 277.5 L 32.5 282.5 L 42.5 276.5 L 32.5 270.5 L 32.5 275.5 L 11.5 275.5 L 11.5 276.5" stroke-miterlimit="10"/><path fill="#000000" stroke="#000000" paint-order="fill stroke markers" d=" M 341.5 276.5 L 341.5 275.5 L 320.5 275.5 L 320.5 270.5 L 310.5 276.5 L 320.5 282.5 L 320.5 277.5 L 341.5 277.5 L 341.5 276.5" stroke-miterlimit="10"/><path fill="#000000" stroke="#000000" paint-order="fill stroke markers" d=" M 65.89339828220179 337.1066017177982 L 66.60050506338834 337.81370849898474 L 81.44974746830583 322.9644660940673 L 84.98528137423855 326.5 L 87.81370849898477 315.18629150101526 L 76.5 318.0147186257614 L 80.03553390593274 321.5502525316942 L 65.18629150101523 336.39949493661163 L 65.89339828220179 337.1066017177982" stroke-miterlimit="10"/><path fill="#000000" stroke="#000000" paint-order="fill stroke markers" d=" M 287.1066017177982 337.1066017177982 L 287.81370849898474 336.39949493661163 L 272.9644660940673 321.5502525316942 L 276.5 318.0147186257615 L 265.18629150101526 315.18629150101526 L 268.0147186257615 326.5 L 271.5502525316942 322.9644660940673 L 286.39949493661163 337.81370849898474 L 287.1066017177982 337.1066017177982" stroke-miterlimit="10"/><path fill="none" stroke="#000000" paint-order="fill stroke markers" d=" M 51.5 1.5 L 101.5 1.5" stroke-linecap="round" stroke-miterlimit="10" stroke-width="3"/><path fill="none" stroke="#000000" paint-order="fill stroke markers" d=" M 101.5 1.5 L 101.5 51.5" stroke-linecap="square" stroke-miterlimit="10" stroke-width="0.8"/><path fill="none" stroke="#000000" paint-order="fill stroke markers" d=" M 51.5 51.5 L 101.5 51.5" stroke-linecap="square" stroke-miterlimit="10" stroke-width="0.8"/><path fill="none" stroke="#000000" paint-order="fill stroke markers" d=" M 51.5 1.5 L 51.5 51.5" stroke-linecap="round" stroke-miterlimit="10" stroke-width="3"/><path fill="none" stroke="#000000" paint-order="fill stroke markers" d=" M 101.5 1.5 L 151.5 1.5" stroke-linecap="round" stroke-miterlimit="10" stroke-width="3"/><path fill="none" stroke="#000000" paint-order="fill stroke markers" d=" M 151.5 1.5 L 151.5 51.5" stroke-linecap="square" stroke-miterlimit="10" stroke-width="0.8"/><path fill="none" stroke="#000000" paint-order="fill stroke markers" d=" M 101.5 51.5 L 151.5 51.5" stroke-linecap="square" stroke-miterlimit="10" stroke-width="0.8"/><path fill="none" stroke="#000000" paint-order="fill stroke markers" d=" M 151.5 1.5 L 201.5 1.5" stroke-linecap="round" stroke-miterlimit="10" stroke-width="3"/><path fill="none" stroke="#000000" paint-order="fill stroke markers" d=" M 201.5 1.5 L 201.5 51.5" stroke-linecap="square" stroke-miterlimit="10" stroke-width="0.8"/><path fill="none" stroke="#000000" paint-order="fill stroke markers" d=" M 151.5 51.5 L 201.5 51.5" stroke-linecap="square" stroke-miterlimit="10" stroke-width="0.8"/><path fill="none" stroke="#000000" paint-order="fill stroke markers" d=" M 201.5 1.5 L 251.5 1.5" stroke-linecap="round" stroke-miterlimit="10" stroke-width="3"/><path fill="none" stroke="#000000" paint-order="fill stroke markers" d=" M 251.5 1.5 L 251.5 51.5" stroke-linecap="square" stroke-miterlimit="10" stroke-width="0.8"/><path fill="none" stroke="#000000" paint-order="fill stroke markers" d=" M 201.5 51.5 L 251.5 51.5" stroke-linecap="square" stroke-miterlimit="10" stroke-width="0.8"/><path fill="none" stroke="#000000" paint-order="fill stroke markers" d=" M 251.5 1.5 L 301.5 1.5" stroke-linecap="round" stroke-miterlimit="10" stroke-width="3"/><path fill="none" stroke="#000000" paint-order="fill stroke markers" d=" M 301.5 1.5 L 301.5 51.5" stroke-linecap="round" stroke-miterlimit="10" stroke-width="3"/><path fill="none" stroke="#000000" paint-order="fill stroke markers" d=" M 251.5 51.5 L 301.5 51.5" stroke-linecap="square" stroke-miterlimit="10" stroke-width="0.8"/><path fill="none" stroke="#000000" paint-order="fill stroke markers" d=" M 1.5 51.5 L 51.5 51.5" stroke-linecap="round" stroke-miterlimit="10" stroke-width="3"/><path fill="none" stroke="#000000" paint-order="fill stroke markers" d=" M 51.5 51.5 L 51.5 101.5" stroke-linecap="square" stroke-miterlimit="10" stroke-width="0.8"/><path fill="none" stroke="#000000" paint-order="fill stroke markers" d=" M 1.5 101.5 L 51.5 101.5" stroke-linecap="square" stroke-miterlimit="10" stroke-width="0.8"/><path fill="none" stroke="#000000" paint-order="fill stroke markers" d=" M 1.5 51.5 L 1.5 101.5" stroke-linecap="round" stroke-miterlimit="10" stroke-width="3"/><path fill="none" stroke="#000000" paint-order="fill stroke markers" d=" M 101.5 51.5 L 101.5 101.5" stroke-linecap="square" stroke-miterlimit="10" stroke-width="0.8"/><path fill="none" stroke="#000000" paint-order="fill stroke markers" d=" M 51.5 101.5 L 101.5 101.5" stroke-linecap="square" stroke-miterlimit="10" stroke-width="0.8"/><path fill="none" stroke="#000000" paint-order="fill stroke markers" d=" M 151.5 51.5 L 151.5 101.5" stroke-linecap="square" stroke-miterlimit="10" stroke-width="0.8"/><path fill="none" stroke="#000000" paint-order="fill stroke markers" d=" M 101.5 101.5 L 151.5 101.5" stroke-linecap="square" stroke-miterlimit="10" stroke-width="0.8"/><path fill="none" stroke="#000000" paint-order="fill stroke markers" d=" M 201.5 51.5 L 201.5 101.5" stroke-linecap="square" stroke-miterlimit="10" stroke-width="0.8"/><path fill="none" stroke="#000000" paint-order="fill stroke markers" d=" M 151.5 101.5 L 201.5 101.5" stroke-linecap="square" stroke-miterlimit="10" stroke-width="0.8"/><path fill="none" stroke="#000000" paint-order="fill stroke markers" d=" M 251.5 51.5 L 251.5 101.5" stroke-linecap="square" stroke-miterlimit="10" stroke-width="0.8"/><path fill="none" stroke="#000000" paint-order="fill stroke markers" d=" M 201.5 101.5 L 251.5 101.5" stroke-linecap="square" stroke-miterlimit="10" stroke-width="0.8"/><path fill="none" stroke="#000000" paint-order="fill stroke markers" d=" M 301.5 51.5 L 301.5 101.5" stroke-linecap="square" stroke-miterlimit="10" stroke-width="0.8"/><path fill="none" stroke="#000000" paint-order="fill stroke markers" d=" M 251.5 101.5 L 301.5 101.5" stroke-linecap="square" stroke-miterlimit="10" stroke-width="0.8"/><path fill="none" stroke="#000000" paint-order="fill stroke markers" d=" M 301.5 51.5 L 351.5 51.5" stroke-linecap="round" stroke-miterlimit="10" stroke-width="3"/><path fill="none" stroke="#000000" paint-order="fill stroke markers" d=" M 351.5 51.5 L 351.5 101.5" stroke-linecap="round" stroke-miterlimit="10" stroke-width="3"/><path fill="none" stroke="#000000" paint-order="fill stroke markers" d=" M 301.5 101.5 L 351.5 101.5" stroke-linecap="square" stroke-miterlimit="10" stroke-width="0.8"/><path fill="none" stroke="#000000" paint-order="fill stroke markers" d=" M 51.5 101.5 L 51.5 151.5" stroke-linecap="square" stroke-miterlimit="10" stroke-width="0.8"/><path fill="none" stroke="#000000" paint-order="fill stroke markers" d=" M 1.5 151.5 L 51.5 151.5" stroke-linecap="square" stroke-miterlimit="10" stroke-width="0.8"/><path fill="none" stroke="#000000" paint-order="fill stroke markers" d=" M 1.5 101.5 L 1.5 151.5" stroke-linecap="round" stroke-miterlimit="10" stroke-width="3"/><path fill="none" stroke="#000000" paint-order="fill stroke markers" d=" M 101.5 101.5 L 101.5 151.5" stroke-linecap="square" stroke-miterlimit="10" stroke-width="0.8"/><path fill="none" stroke="#000000" paint-order="fill stroke markers" d=" M 51.5 151.5 L 101.5 151.5" stroke-linecap="square" stroke-miterlimit="10" stroke-width="0.8"/><path fill="none" stroke="#000000" paint-order="fill stroke markers" d=" M 151.5 101.5 L 151.5 151.5" stroke-linecap="square" stroke-miterlimit="10" stroke-width="0.8"/><path fill="none" stroke="#000000" paint-order="fill stroke markers" d=" M 101.5 151.5 L 151.5 151.5" stroke-linecap="square" stroke-miterlimit="10" stroke-width="0.8"/><path fill="none" stroke="#000000" paint-order="fill stroke markers" d=" M 201.5 101.5 L 201.5 151.5" stroke-linecap="square" stroke-miterlimit="10" stroke-width="0.8"/><path fill="none" stroke="#000000" paint-order="fill stroke markers" d=" M 151.5 151.5 L 201.5 151.5" stroke-linecap="square" stroke-miterlimit="10" stroke-width="0.8"/><path fill="none" stroke="#000000" paint-order="fill stroke markers" d=" M 251.5 101.5 L 251.5 151.5" stroke-linecap="square" stroke-miterlimit="10" stroke-width="0.8"/><path fill="none" stroke="#000000" paint-order="fill stroke markers" d=" M 201.5 151.5 L 251.5 151.5" stroke-linecap="square" stroke-miterlimit="10" stroke-width="0.8"/><path fill="none" stroke="#000000" paint-order="fill stroke markers" d=" M 301.5 101.5 L 301.5 151.5" stroke-linecap="square" stroke-miterlimit="10" stroke-width="0.8"/><path fill="none" stroke="#000000" paint-order="fill stroke markers" d=" M 251.5 151.5 L 301.5 151.5" stroke-linecap="square" stroke-miterlimit="10" stroke-width="0.8"/><path fill="none" stroke="#000000" paint-order="fill stroke markers" d=" M 351.5 101.5 L 351.5 151.5" stroke-linecap="round" stroke-miterlimit="10" stroke-width="3"/><path fill="none" stroke="#000000" paint-order="fill stroke markers" d=" M 301.5 151.5 L 351.5 151.5" stroke-linecap="square" stroke-miterlimit="10" stroke-width="0.8"/><path fill="none" stroke="#000000" paint-order="fill stroke markers" d=" M 51.5 151.5 L 51.5 201.5" stroke-linecap="square" stroke-miterlimit="10" stroke-width="0.8"/><path fill="none" stroke="#000000" paint-order="fill stroke markers" d=" M 1.5 201.5 L 51.5 201.5" stroke-linecap="square" stroke-miterlimit="10" stroke-width="0.8"/><path fill="none" stroke="#000000" paint-order="fill stroke markers" d=" M 1.5 151.5 L 1.5 201.5" stroke-linecap="round" stroke-miterlimit="10" stroke-width="3"/><path fill="none" stroke="#000000" paint-order="fill stroke markers" d=" M 101.5 151.5 L 101.5 201.5" stroke-linecap="square" stroke-miterlimit="10" stroke-width="0.8"/><path fill="none" stroke="#000000" paint-order="fill stroke markers" d=" M 51.5 201.5 L 101.5 201.5" stroke-linecap="square" stroke-miterlimit="10" stroke-width="0.8"/><path fill="none" stroke="#000000" paint-order="fill stroke markers" d=" M 151.5 151.5 L 151.5 201.5" stroke-linecap="square" stroke-miterlimit="10" stroke-width="0.8"/><path fill="none" stroke="#000000" paint-order="fill stroke markers" d=" M 101.5 201.5 L 151.5 201.5" stroke-linecap="square" stroke-miterlimit="10" stroke-width="0.8"/><path fill="none" stroke="#000000" paint-order="fill stroke markers" d=" M 201.5 151.5 L 201.5 201.5" stroke-linecap="square" stroke-miterlimit="10" stroke-width="0.8"/><path fill="none" stroke="#000000" paint-order="fill stroke markers" d=" M 151.5 201.5 L 201.5 201.5" stroke-linecap="square" stroke-miterlimit="10" stroke-width="0.8"/><path fill="none" stroke="#000000" paint-order="fill stroke markers" d=" M 251.5 151.5 L 251.5 201.5" stroke-linecap="square" stroke-miterlimit="10" stroke-width="0.8"/><path fill="none" stroke="#000000" paint-order="fill stroke markers" d=" M 201.5 201.5 L 251.5 201.5" stroke-linecap="square" stroke-miterlimit="10" stroke-width="0.8"/><path fill="none" stroke="#000000" paint-order="fill stroke markers" d=" M 301.5 151.5 L 301.5 201.5" stroke-linecap="square" stroke-miterlimit="10" stroke-width="0.8"/><path fill="none" stroke="#000000" paint-order="fill stroke markers" d=" M 251.5 201.5 L 301.5 201.5" stroke-linecap="square" stroke-miterlimit="10" stroke-width="0.8"/><path fill="none" stroke="#000000" paint-order="fill stroke markers" d=" M 351.5 151.5 L 351.5 201.5" stroke-linecap="round" stroke-miterlimit="10" stroke-width="3"/><path fill="none" stroke="#000000" paint-order="fill stroke markers" d=" M 301.5 201.5 L 351.5 201.5" stroke-linecap="square" stroke-miterlimit="10" stroke-width="0.8"/><path fill="none" stroke="#000000" paint-order="fill stroke markers" d=" M 51.5 201.5 L 51.5 251.5" stroke-linecap="square" stroke-miterlimit="10" stroke-width="0.8"/><path fill="none" stroke="#000000" paint-order="fill stroke markers" d=" M 1.5 251.5 L 51.5 251.5" stroke-linecap="square" stroke-miterlimit="10" stroke-width="0.8"/><path fill="none" stroke="#000000" paint-order="fill stroke markers" d=" M 1.5 201.5 L 1.5 251.5" stroke-linecap="round" stroke-miterlimit="10" stroke-width="3"/><path fill="none" stroke="#000000" paint-order="fill stroke markers" d=" M 101.5 201.5 L 101.5 251.5" stroke-linecap="square" stroke-miterlimit="10" stroke-width="0.8"/><path fill="none" stroke="#000000" paint-order="fill stroke markers" d=" M 51.5 251.5 L 101.5 251.5" stroke-linecap="square" stroke-miterlimit="10" stroke-width="0.8"/><path fill="none" stroke="#000000" paint-order="fill stroke markers" d=" M 151.5 201.5 L 151.5 251.5" stroke-linecap="square" stroke-miterlimit="10" stroke-width="0.8"/><path fill="none" stroke="#000000" paint-order="fill stroke markers" d=" M 101.5 251.5 L 151.5 251.5" stroke-linecap="square" stroke-miterlimit="10" stroke-width="0.8"/><path fill="none" stroke="#000000" paint-order="fill stroke markers" d=" M 201.5 201.5 L 201.5 251.5" stroke-linecap="square" stroke-miterlimit="10" stroke-width="0.8"/><path fill="none" stroke="#000000" paint-order="fill stroke markers" d=" M 151.5 251.5 L 201.5 251.5" stroke-linecap="square" stroke-miterlimit="10" stroke-width="0.8"/><path fill="none" stroke="#000000" paint-order="fill stroke markers" d=" M 251.5 201.5 L 251.5 251.5" stroke-linecap="square" stroke-miterlimit="10" stroke-width="0.8"/><path fill="none" stroke="#000000" paint-order="fill stroke markers" d=" M 201.5 251.5 L 251.5 251.5" stroke-linecap="square" stroke-miterlimit="10" stroke-width="0.8"/><path fill="none" stroke="#000000" paint-order="fill stroke markers" d=" M 301.5 201.5 L 301.5 251.5" stroke-linecap="square" stroke-miterlimit="10" stroke-width="0.8"/><path fill="none" stroke="#000000" paint-order="fill stroke markers" d=" M 251.5 251.5 L 301.5 251.5" stroke-linecap="square" stroke-miterlimit="10" stroke-width="0.8"/><path fill="none" stroke="#000000" paint-order="fill stroke markers" d=" M 351.5 201.5 L 351.5 251.5" stroke-linecap="round" stroke-miterlimit="10" stroke-width="3"/><path fill="none" stroke="#000000" paint-order="fill stroke markers" d=" M 301.5 251.5 L 351.5 251.5" stroke-linecap="square" stroke-miterlimit="10" stroke-width="0.8"/><path fill="none" stroke="#000000" paint-order="fill stroke markers" d=" M 51.5 251.5 L 51.5 301.5" stroke-linecap="square" stroke-miterlimit="10" stroke-width="0.8"/><path fill="none" stroke="#000000" paint-order="fill stroke markers" d=" M 1.5 301.5 L 51.5 301.5" stroke-linecap="round" stroke-miterlimit="10" stroke-width="3"/><path fill="none" stroke="#000000" paint-order="fill stroke markers" d=" M 1.5 251.5 L 1.5 301.5" stroke-linecap="round" stroke-miterlimit="10" stroke-width="3"/><path fill="none" stroke="#000000" paint-order="fill stroke markers" d=" M 101.5 251.5 L 101.5 301.5" stroke-linecap="square" stroke-miterlimit="10" stroke-width="0.8"/><path fill="none" stroke="#000000" paint-order="fill stroke markers" d=" M 51.5 301.5 L 101.5 301.5" stroke-linecap="square" stroke-miterlimit="10" stroke-width="0.8"/><path fill="none" stroke="#000000" paint-order="fill stroke markers" d=" M 151.5 251.5 L 151.5 301.5" stroke-linecap="square" stroke-miterlimit="10" stroke-width="0.8"/><path fill="none" stroke="#000000" paint-order="fill stroke markers" d=" M 101.5 301.5 L 151.5 301.5" stroke-linecap="square" stroke-miterlimit="10" stroke-width="0.8"/><path fill="none" stroke="#000000" paint-order="fill stroke markers" d=" M 201.5 251.5 L 201.5 301.5" stroke-linecap="square" stroke-miterlimit="10" stroke-width="0.8"/><path fill="none" stroke="#000000" paint-order="fill stroke markers" d=" M 151.5 301.5 L 201.5 301.5" stroke-linecap="square" stroke-miterlimit="10" stroke-width="0.8"/><path fill="none" stroke="#000000" paint-order="fill stroke markers" d=" M 251.5 251.5 L 251.5 301.5" stroke-linecap="square" stroke-miterlimit="10" stroke-width="0.8"/><path fill="none" stroke="#000000" paint-order="fill stroke markers" d=" M 201.5 301.5 L 251.5 301.5" stroke-linecap="square" stroke-miterlimit="10" stroke-width="0.8"/><path fill="none" stroke="#000000" paint-order="fill stroke markers" d=" M 301.5 251.5 L 301.5 301.5" stroke-linecap="square" stroke-miterlimit="10" stroke-width="0.8"/><path fill="none" stroke="#000000" paint-order="fill stroke markers" d=" M 251.5 301.5 L 301.5 301.5" stroke-linecap="square" stroke-miterlimit="10" stroke-width="0.8"/><path fill="none" stroke="#000000" paint-order="fill stroke markers" d=" M 351.5 251.5 L 351.5 301.5" stroke-linecap="round" stroke-miterlimit="10" stroke-width="3"/><path fill="none" stroke="#000000" paint-order="fill stroke markers" d=" M 301.5 301.5 L 351.5 301.5" stroke-linecap="round" stroke-miterlimit="10" stroke-width="3"/><path fill="none" stroke="#000000" paint-order="fill stroke markers" d=" M 101.5 301.5 L 101.5 351.5" stroke-linecap="square" stroke-miterlimit="10" stroke-width="0.8"/><path fill="none" stroke="#000000" paint-order="fill stroke markers" d=" M 51.5 351.5 L 101.5 351.5" stroke-linecap="round" stroke-miterlimit="10" stroke-width="3"/><path fill="none" stroke="#000000" paint-order="fill stroke markers" d=" M 51.5 301.5 L 51.5 351.5" stroke-linecap="round" stroke-miterlimit="10" stroke-width="3"/><path fill="none" stroke="#000000" paint-order="fill stroke markers" d=" M 151.5 301.5 L 151.5 351.5" stroke-linecap="square" stroke-miterlimit="10" stroke-width="0.8"/><path fill="none" stroke="#000000" paint-order="fill stroke markers" d=" M 101.5 351.5 L 151.5 351.5" stroke-linecap="round" stroke-miterlimit="10" stroke-width="3"/><path fill="none" stroke="#000000" paint-order="fill stroke markers" d=" M 201.5 301.5 L 201.5 351.5" stroke-linecap="square" stroke-miterlimit="10" stroke-width="0.8"/><path fill="none" stroke="#000000" paint-order="fill stroke markers" d=" M 151.5 351.5 L 201.5 351.5" stroke-linecap="round" stroke-miterlimit="10" stroke-width="3"/><path fill="none" stroke="#000000" paint-order="fill stroke markers" d=" M 251.5 301.5 L 251.5 351.5" stroke-linecap="square" stroke-miterlimit="10" stroke-width="0.8"/><path fill="none" stroke="#000000" paint-order="fill stroke markers" d=" M 201.5 351.5 L 251.5 351.5" stroke-linecap="round" stroke-miterlimit="10" stroke-width="3"/><path fill="none" stroke="#000000" paint-order="fill stroke markers" d=" M 301.5 301.5 L 301.5 351.5" stroke-linecap="round" stroke-miterlimit="10" stroke-width="3"/><path fill="none" stroke="#000000" paint-order="fill stroke markers" d=" M 251.5 351.5 L 301.5 351.5" stroke-linecap="round" stroke-miterlimit="10" stroke-width="3"/><path fill="#ffffff" stroke="#000000" paint-order="fill stroke markers" d=" M 239 101.5 A 12.5 12.5 0 1 1 238.99999375000053 101.48750000208332" stroke-miterlimit="10"/><path fill="#ffffff" stroke="#000000" paint-order="fill stroke markers" d=" M 139 151.5 A 12.5 12.5 0 1 1 138.99999375000053 151.48750000208332" stroke-miterlimit="10"/><path fill="#ffffff" stroke="#000000" paint-order="fill stroke markers" d=" M 239 201.5 A 12.5 12.5 0 1 1 238.99999375000053 201.48750000208332" stroke-miterlimit="10"/><path fill="#ffffff" stroke="#000000" paint-order="fill stroke markers" d=" M 139 251.5 A 12.5 12.5 0 1 1 138.99999375000053 251.48750000208332" stroke-miterlimit="10"/><path fill="#ffffff" stroke="#000000" paint-order="fill stroke markers" d=" M 264 76.5 A 12.5 12.5 0 1 1 263.9999937500005 76.48750000208332" stroke-miterlimit="10"/><path fill="#ffffff" stroke="#000000" paint-order="fill stroke markers" d=" M 114 126.5 A 12.5 12.5 0 1 1 113.99999375000053 126.48750000208332" stroke-miterlimit="10"/><path fill="#ffffff" stroke="#000000" paint-order="fill stroke markers" d=" M 164 126.5 A 12.5 12.5 0 1 1 163.99999375000053 126.48750000208332" stroke-miterlimit="10"/><path fill="#ffffff" stroke="#000000" paint-order="fill stroke markers" d=" M 264 126.5 A 12.5 12.5 0 1 1 263.9999937500005 126.48750000208332" stroke-miterlimit="10"/><path fill="#ffffff" stroke="#000000" paint-order="fill stroke markers" d=" M 114 226.5 A 12.5 12.5 0 1 1 113.99999375000053 226.48750000208332" stroke-miterlimit="10"/><path fill="#ffffff" stroke="#000000" paint-order="fill stroke markers" d=" M 214 226.5 A 12.5 12.5 0 1 1 213.99999375000053 226.48750000208332" stroke-miterlimit="10"/><path fill="#ffffff" stroke="#000000" paint-order="fill stroke markers" d=" M 264 226.5 A 12.5 12.5 0 1 1 263.9999937500005 226.48750000208332" stroke-miterlimit="10"/><path fill="#ffffff" stroke="#000000" paint-order="fill stroke markers" d=" M 114 276.5 A 12.5 12.5 0 1 1 113.99999375000053 276.4875000020833" stroke-miterlimit="10"/><text fill="none" stroke="rgb(255,255,255)" font-family="Helvetica,Arial" font-size="20px" font-style="normal" font-weight="normal" text-decoration="normal" x="226.5" y="108.6" text-anchor="middle" dominant-baseline="alphabetic" stroke-opacity="0" stroke-miterlimit="10" stroke-width="2">6</text><text fill="#000000" stroke="none" font-family="Helvetica,Arial" font-size="20px" font-style="normal" font-weight="normal" text-decoration="normal" x="226.5" y="108.6" text-anchor="middle" dominant-baseline="alphabetic">6</text><text fill="none" stroke="rgb(255,255,255)" font-family="Helvetica,Arial" font-size="20px" font-style="normal" font-weight="normal" text-decoration="normal" x="126.5" y="158.6" text-anchor="middle" dominant-baseline="alphabetic" stroke-opacity="0" stroke-miterlimit="10" stroke-width="2">5</text><text fill="#000000" stroke="none" font-family="Helvetica,Arial" font-size="20px" font-style="normal" font-weight="normal" text-decoration="normal" x="126.5" y="158.6" text-anchor="middle" dominant-baseline="alphabetic">5</text><text fill="none" stroke="rgb(255,255,255)" font-family="Helvetica,Arial" font-size="20px" font-style="normal" font-weight="normal" text-decoration="normal" x="226.5" y="208.6" text-anchor="middle" dominant-baseline="alphabetic" stroke-opacity="0" stroke-miterlimit="10" stroke-width="2">6</text><text fill="#000000" stroke="none" font-family="Helvetica,Arial" font-size="20px" font-style="normal" font-weight="normal" text-decoration="normal" x="226.5" y="208.6" text-anchor="middle" dominant-baseline="alphabetic">6</text><text fill="none" stroke="rgb(255,255,255)" font-family="Helvetica,Arial" font-size="20px" font-style="normal" font-weight="normal" text-decoration="normal" x="126.5" y="258.6" text-anchor="middle" dominant-baseline="alphabetic" stroke-opacity="0" stroke-miterlimit="10" stroke-width="2">5</text><text fill="#000000" stroke="none" font-family="Helvetica,Arial" font-size="20px" font-style="normal" font-weight="normal" text-decoration="normal" x="126.5" y="258.6" text-anchor="middle" dominant-baseline="alphabetic">5</text><text fill="none" stroke="rgb(255,255,255)" font-family="Helvetica,Arial" font-size="20px" font-style="normal" font-weight="normal" text-decoration="normal" x="251.5" y="83.6" text-anchor="middle" dominant-baseline="alphabetic" stroke-opacity="0" stroke-miterlimit="10" stroke-width="2">4</text><text fill="#000000" stroke="none" font-family="Helvetica,Arial" font-size="20px" font-style="normal" font-weight="normal" text-decoration="normal" x="251.5" y="83.6" text-anchor="middle" dominant-baseline="alphabetic">4</text><text fill="none" stroke="rgb(255,255,255)" font-family="Helvetica,Arial" font-size="20px" font-style="normal" font-weight="normal" text-decoration="normal" x="101.5" y="133.6" text-anchor="middle" dominant-baseline="alphabetic" stroke-opacity="0" stroke-miterlimit="10" stroke-width="2">7</text><text fill="#000000" stroke="none" font-family="Helvetica,Arial" font-size="20px" font-style="normal" font-weight="normal" text-decoration="normal" x="101.5" y="133.6" text-anchor="middle" dominant-baseline="alphabetic">7</text><text fill="none" stroke="rgb(255,255,255)" font-family="Helvetica,Arial" font-size="20px" font-style="normal" font-weight="normal" text-decoration="normal" x="151.5" y="133.6" text-anchor="middle" dominant-baseline="alphabetic" stroke-opacity="0" stroke-miterlimit="10" stroke-width="2">4</text><text fill="#000000" stroke="none" font-family="Helvetica,Arial" font-size="20px" font-style="normal" font-weight="normal" text-decoration="normal" x="151.5" y="133.6" text-anchor="middle" dominant-baseline="alphabetic">4</text><text fill="none" stroke="rgb(255,255,255)" font-family="Helvetica,Arial" font-size="20px" font-style="normal" font-weight="normal" text-decoration="normal" x="251.5" y="133.6" text-anchor="middle" dominant-baseline="alphabetic" stroke-opacity="0" stroke-miterlimit="10" stroke-width="2">7</text><text fill="#000000" stroke="none" font-family="Helvetica,Arial" font-size="20px" font-style="normal" font-weight="normal" text-decoration="normal" x="251.5" y="133.6" text-anchor="middle" dominant-baseline="alphabetic">7</text><text fill="none" stroke="rgb(255,255,255)" font-family="Helvetica,Arial" font-size="20px" font-style="normal" font-weight="normal" text-decoration="normal" x="101.5" y="233.6" text-anchor="middle" dominant-baseline="alphabetic" stroke-opacity="0" stroke-miterlimit="10" stroke-width="2">2</text><text fill="#000000" stroke="none" font-family="Helvetica,Arial" font-size="20px" font-style="normal" font-weight="normal" text-decoration="normal" x="101.5" y="233.6" text-anchor="middle" dominant-baseline="alphabetic">2</text><text fill="none" stroke="rgb(255,255,255)" font-family="Helvetica,Arial" font-size="20px" font-style="normal" font-weight="normal" text-decoration="normal" x="201.5" y="233.6" text-anchor="middle" dominant-baseline="alphabetic" stroke-opacity="0" stroke-miterlimit="10" stroke-width="2">5</text><text fill="#000000" stroke="none" font-family="Helvetica,Arial" font-size="20px" font-style="normal" font-weight="normal" text-decoration="normal" x="201.5" y="233.6" text-anchor="middle" dominant-baseline="alphabetic">5</text><text fill="none" stroke="rgb(255,255,255)" font-family="Helvetica,Arial" font-size="20px" font-style="normal" font-weight="normal" text-decoration="normal" x="251.5" y="233.6" text-anchor="middle" dominant-baseline="alphabetic" stroke-opacity="0" stroke-miterlimit="10" stroke-width="2">5</text><text fill="#000000" stroke="none" font-family="Helvetica,Arial" font-size="20px" font-style="normal" font-weight="normal" text-decoration="normal" x="251.5" y="233.6" text-anchor="middle" dominant-baseline="alphabetic">5</text><text fill="none" stroke="rgb(255,255,255)" font-family="Helvetica,Arial" font-size="20px" font-style="normal" font-weight="normal" text-decoration="normal" x="101.5" y="283.6" text-anchor="middle" dominant-baseline="alphabetic" stroke-opacity="0" stroke-miterlimit="10" stroke-width="2">5</text><text fill="#000000" stroke="none" font-family="Helvetica,Arial" font-size="20px" font-style="normal" font-weight="normal" text-decoration="normal" x="101.5" y="283.6" text-anchor="middle" dominant-baseline="alphabetic">5</text><text fill="none" stroke="rgb(255,255,255)" font-family="Helvetica,Arial" font-size="35px" font-style="normal" font-weight="normal" text-decoration="normal" x="276.5" y="89.3" text-anchor="middle" dominant-baseline="alphabetic" stroke-opacity="0" stroke-miterlimit="10" stroke-width="2">1</text><text fill="#4c9900" stroke="none" font-family="Helvetica,Arial" font-size="35px" font-style="normal" font-weight="normal" text-decoration="normal" x="276.5" y="89.3" text-anchor="middle" dominant-baseline="alphabetic">1</text><text fill="none" stroke="rgb(255,255,255)" font-family="Helvetica,Arial" font-size="35px" font-style="normal" font-weight="normal" text-decoration="normal" x="76.5" y="139.3" text-anchor="middle" dominant-baseline="alphabetic" stroke-opacity="0" stroke-miterlimit="10" stroke-width="2">4</text><text fill="#4c9900" stroke="none" font-family="Helvetica,Arial" font-size="35px" font-style="normal" font-weight="normal" text-decoration="normal" x="76.5" y="139.3" text-anchor="middle" dominant-baseline="alphabetic">4</text><text fill="none" stroke="rgb(255,255,255)" font-family="Helvetica,Arial" font-size="35px" font-style="normal" font-weight="normal" text-decoration="normal" x="176.5" y="139.3" text-anchor="middle" dominant-baseline="alphabetic" stroke-opacity="0" stroke-miterlimit="10" stroke-width="2">1</text><text fill="#4c9900" stroke="none" font-family="Helvetica,Arial" font-size="35px" font-style="normal" font-weight="normal" text-decoration="normal" x="176.5" y="139.3" text-anchor="middle" dominant-baseline="alphabetic">1</text><text fill="none" stroke="rgb(255,255,255)" font-family="Helvetica,Arial" font-size="35px" font-style="normal" font-weight="normal" text-decoration="normal" x="276.5" y="139.3" text-anchor="middle" dominant-baseline="alphabetic" stroke-opacity="0" stroke-miterlimit="10" stroke-width="2">2</text><text fill="#4c9900" stroke="none" font-family="Helvetica,Arial" font-size="35px" font-style="normal" font-weight="normal" text-decoration="normal" x="276.5" y="139.3" text-anchor="middle" dominant-baseline="alphabetic">2</text><text fill="none" stroke="rgb(255,255,255)" font-family="Helvetica,Arial" font-size="35px" font-style="normal" font-weight="normal" text-decoration="normal" x="126.5" y="189.3" text-anchor="middle" dominant-baseline="alphabetic" stroke-opacity="0" stroke-miterlimit="10" stroke-width="2">2</text><text fill="#4c9900" stroke="none" font-family="Helvetica,Arial" font-size="35px" font-style="normal" font-weight="normal" text-decoration="normal" x="126.5" y="189.3" text-anchor="middle" dominant-baseline="alphabetic">2</text><text fill="none" stroke="rgb(255,255,255)" font-family="Helvetica,Arial" font-size="35px" font-style="normal" font-weight="normal" text-decoration="normal" x="226.5" y="189.3" text-anchor="middle" dominant-baseline="alphabetic" stroke-opacity="0" stroke-miterlimit="10" stroke-width="2">2</text><text fill="#4c9900" stroke="none" font-family="Helvetica,Arial" font-size="35px" font-style="normal" font-weight="normal" text-decoration="normal" x="226.5" y="189.3" text-anchor="middle" dominant-baseline="alphabetic">2</text><text fill="none" stroke="rgb(255,255,255)" font-family="Helvetica,Arial" font-size="35px" font-style="normal" font-weight="normal" text-decoration="normal" x="176.5" y="239.3" text-anchor="middle" dominant-baseline="alphabetic" stroke-opacity="0" stroke-miterlimit="10" stroke-width="2">3</text><text fill="#4c9900" stroke="none" font-family="Helvetica,Arial" font-size="35px" font-style="normal" font-weight="normal" text-decoration="normal" x="176.5" y="239.3" text-anchor="middle" dominant-baseline="alphabetic">3</text><text fill="none" stroke="rgb(255,255,255)" font-family="Helvetica,Arial" font-size="35px" font-style="normal" font-weight="normal" text-decoration="normal" x="276.5" y="239.3" text-anchor="middle" dominant-baseline="alphabetic" stroke-opacity="0" stroke-miterlimit="10" stroke-width="2">2</text><text fill="#4c9900" stroke="none" font-family="Helvetica,Arial" font-size="35px" font-style="normal" font-weight="normal" text-decoration="normal" x="276.5" y="239.3" text-anchor="middle" dominant-baseline="alphabetic">2</text><text fill="none" stroke="rgb(255,255,255)" font-family="Helvetica,Arial" font-size="35px" font-style="normal" font-weight="normal" text-decoration="normal" x="76.5" y="289.3" text-anchor="middle" dominant-baseline="alphabetic" stroke-opacity="0" stroke-miterlimit="10" stroke-width="2">2</text><text fill="#4c9900" stroke="none" font-family="Helvetica,Arial" font-size="35px" font-style="normal" font-weight="normal" text-decoration="normal" x="76.5" y="289.3" text-anchor="middle" dominant-baseline="alphabetic">2</text><text fill="none" stroke="rgb(255,255,255)" font-family="Helvetica,Arial" font-size="35px" font-style="normal" font-weight="normal" text-decoration="normal" x="126.5" y="289.3" text-anchor="middle" dominant-baseline="alphabetic" stroke-opacity="0" stroke-miterlimit="10" stroke-width="2">3</text><text fill="#4c9900" stroke="none" font-family="Helvetica,Arial" font-size="35px" font-style="normal" font-weight="normal" text-decoration="normal" x="126.5" y="289.3" text-anchor="middle" dominant-baseline="alphabetic">3</text></g></svg>