<svg version="1.1" xmlns="http://www.w3.org/2000/svg" xmlns:xlink="http://www.w3.org/1999/xlink" width="353.2" height="353.2"><defs/><g><rect fill="rgb(255,255,255)" stroke="none" x="0" y="0" width="353.2" height="353.2" fill-opacity="0"/><path fill="none" stroke="#000000" paint-order="fill stroke markers" d=" M 51.5 1.5 L 101.5 1.5" stroke-linecap="round" stroke-miterlimit="10" stroke-width="3"/><path fill="none" stroke="#000000" paint-order="fill stroke markers" d=" M 51.5 1.5 L 51.5 51.5" stroke-linecap="round" stroke-miterlimit="10" stroke-width="3"/><path fill="none" stroke="#000000" paint-order="fill stroke markers" d=" M 101.5 1.5 L 151.5 1.5" stroke-linecap="round" stroke-miterlimit="10" stroke-width="3"/><path fill="none" stroke="#000000" paint-order="fill stroke markers" d=" M 151.5 1.5 L 201.5 1.5" stroke-linecap="round" stroke-miterlimit="10" stroke-width="3"/><path fill="none" stroke="#000000" paint-order="fill stroke markers" d=" M 201.5 1.5 L 251.5 1.5" stroke-linecap="round" stroke-miterlimit="10" stroke-width="3"/><path fill="none" stroke="#000000" paint-order="fill stroke markers" d=" M 251.5 1.5 L 301.5 1.5" stroke-linecap="round" stroke-miterlimit="10" stroke-width="3"/><path fill="none" stroke="#000000" paint-order="fill stroke markers" d=" M 301.5 1.5 L 301.5 51.5" stroke-linecap="round" stroke-miterlimit="10" stroke-width="3"/><path fill="none" stroke="#000000" paint-order="fill stroke markers" d=" M 1.5 51.5 L 51.5 51.5" stroke-linecap="round" stroke-miterlimit="10" stroke-width="3"/><path fill="none" stroke="#000000" paint-order="fill stroke markers" d=" M 1.5 51.5 L 1.5 101.5" stroke-linecap="round" stroke-miterlimit="10" stroke-width="3"/><path fill="none" stroke="#000000" paint-order="fill stroke markers" d=" M 301.5 51.5 L 351.5 51.5" stroke-linecap="round" stroke-miterlimit="10" stroke-width="3"/><path fill="none" stroke="#000000" paint-order="fill stroke markers" d=" M 351.5 51.5 L 351.5 101.5" stroke-linecap="round" stroke-miterlimit="10" stroke-width="3"/><path fill="none" stroke="#000000" paint-order="fill stroke markers" d=" M 1.5 101.5 L 1.5 151.5" stroke-linecap="round" stroke-miterlimit="10" stroke-width="3"/><path fill="none" stroke="#000000" paint-order="fill stroke markers" d=" M 351.5 101.5 L 351.5 151.5" stroke-linecap="round" stroke-miterlimit="10" stroke-width="3"/><path fill="none" stroke="#000000" paint-order="fill stroke markers" d=" M 1.5 151.5 L 1.5 201.5" stroke-linecap="round" stroke-miterlimit="10" stroke-width="3"/><path fill="none" stroke="#000000" paint-order="fill stroke markers" d=" M 351.5 151.5 L 351.5 201.5" stroke-linecap="round" stroke-miterlimit="10" stroke-width="3"/><path fill="none" stroke="#000000" paint-order="fill stroke markers" d=" M 1.5 201.5 L 1.5 251.5" stroke-linecap="round" stroke-miterlimit="10" stroke-width="3"/><path fill="none" stroke="#000000" paint-order="fill stroke markers" d=" M 351.5 201.5 L 351.5 251.5" stroke-linecap="round" stroke-miterlimit="10" stroke-width="3"/><path fill="none" stroke="#000000" paint-order="fill stroke markers" d=" M 1.5 301.5 L 51.5 301.5" stroke-linecap="round" stroke-miterlimit="10" stroke-width="3"/><path fill="none" stroke="#000000" paint-order="fill stroke markers" d=" M 1.5 251.5 L 1.5 301.5" stroke-linecap="round" stroke-miterlimit="10" stroke-width="3"/><path fill="none" stroke="#000000" paint-order="fill stroke markers" d=" M 351.5 251.5 L 351.5 301.5" stroke-linecap="round" stroke-miterlimit="10" stroke-width="3"/><path fill="none" stroke="#000000" paint-order="fill stroke markers" d=" M 301.5 301.5 L 351.5 301.5" stroke-linecap="round" stroke-miterlimit="10" stroke-width="3"/><path fill="none" stroke="#000000" paint-order="fill stroke markers" d=" M 51.5 351.5 L 101.5 351.5" stroke-linecap="round" stroke-miterlimit="10" stroke-width="3"/><path fill="none" stroke="#000000" paint-order="fill stroke markers" d=" M 51.5 301.5 L 51.5 351.5" stroke-linecap="round" stroke-miterlimit="10" stroke-width="3"/><path fill="none" stroke="#000000" paint-order="fill stroke markers" d=" M 101.5 351.5 L 151.5 351.5" stroke-linecap="round" stroke-miterlimit="10" stroke-width="3"/><path fill="none" stroke="#000000" paint-order="fill stroke markers" d=" M 151.5 351.5 L 201.5 351.5" stroke-linecap="round" stroke-miterlimit="10" stroke-width="3"/><path fill="none" stroke="#000000" paint-order="fill stroke markers" d=" M 201.5 351.5 L 251.5 351.5" stroke-linecap="round" stroke-miterlimit="10" stroke-width="3"/><path fill="none" stroke="#000000" paint-order="fill stroke markers" d=" M 301.5 301.5 L 301.5 351.5" stroke-linecap="round" stroke-miterlimit="10" stroke-width="3"/><path fill="none" stroke="#000000" paint-order="fill stroke markers" d=" M 251.5 351.5 L 301.5 351.5" stroke-linecap="round" stroke-miterlimit="10" stroke-width="3"/><path fill="#cccccc" stroke="#cccccc" paint-order="fill stroke markers" d=" M 51.5 51.5 L 101.5 51.5 L 101.5 101.5 L 51.5 101.5 Z" stroke-linecap="square" stroke-miterlimit="10" stroke-width="0.5"/><path fill="#cccccc" stroke="#cccccc" paint-order="fill stroke markers" d=" M 101.5 51.5 L 151.5 51.5 L 151.5 101.5 L 101.5 101.5 Z" stroke-linecap="square" stroke-miterlimit="10" stroke-width="0.5"/><path fill="#cccccc" stroke="#cccccc" paint-order="fill stroke markers" d=" M 151.5 51.5 L 201.5 51.5 L 201.5 101.5 L 151.5 101.5 Z" stroke-linecap="square" stroke-miterlimit="10" stroke-width="0.5"/><path fill="#cccccc" stroke="#cccccc" paint-order="fill stroke markers" d=" M 201.5 51.5 L 251.5 51.5 L 251.5 101.5 L 201.5 101.5 Z" stroke-linecap="square" stroke-miterlimit="10" stroke-width="0.5"/><path fill="#cccccc" stroke="#cccccc" paint-order="fill stroke markers" d=" M 251.5 51.5 L 301.5 51.5 L 301.5 101.5 L 251.5 101.5 Z" stroke-linecap="square" stroke-miterlimit="10" stroke-width="0.5"/><path fill="#cccccc" stroke="#cccccc" paint-order="fill stroke markers" d=" M 51.5 101.5 L 101.5 101.5 L 101.5 151.5 L 51.5 151.5 Z" stroke-linecap="square" stroke-miterlimit="10" stroke-width="0.5"/><path fill="#cccccc" stroke="#cccccc" paint-order="fill stroke markers" d=" M 101.5 101.5 L 151.5 101.5 L 151.5 151.5 L 101.5 151.5 Z" stroke-linecap="square" stroke-miterlimit="10" stroke-width="0.5"/><path fill="#cccccc" stroke="#cccccc" paint-order="fill stroke markers" d=" M 151.5 101.5 L 201.5 101.5 L 201.5 151.5 L 151.5 151.5 Z" stroke-linecap="square" stroke-miterlimit="10" stroke-width="0.5"/><path fill="#cccccc" stroke="#cccccc" paint-order="fill stroke markers" d=" M 201.5 101.5 L 251.5 101.5 L 251.5 151.5 L 201.5 151.5 Z" stroke-linecap="square" stroke-miterlimit="10" stroke-width="0.5"/><path fill="#cccccc" stroke="#cccccc" paint-order="fill stroke markers" d=" M 251.5 101.5 L 301.5 101.5 L 301.5 151.5 L 251.5 151.5 Z" stroke-linecap="square" stroke-miterlimit="10" stroke-width="0.5"/><path fill="#cccccc" stroke="#cccccc" paint-order="fill stroke markers" d=" M 51.5 151.5 L 101.5 151.5 L 101.5 201.5 L 51.5 201.5 Z" stroke-linecap="square" stroke-miterlimit="10" stroke-width="0.5"/><path fill="#cccccc" stroke="#cccccc" paint-order="fill stroke markers" d=" M 101.5 151.5 L 151.5 151.5 L 151.5 201.5 L 101.5 201.5 Z" stroke-linecap="square" stroke-miterlimit="10" stroke-width="0.5"/><path fill="#cccccc" stroke="#cccccc" paint-order="fill stroke markers" d=" M 151.5 151.5 L 201.5 151.5 L 201.5 201.5 L 151.5 201.5 Z" stroke-linecap="square" stroke-miterlimit="10" stroke-width="0.5"/><path fill="#cccccc" stroke="#cccccc" paint-order="fill stroke markers" d=" M 201.5 151.5 L 251.5 151.5 L 251.5 201.5 L 201.5 201.5 Z" stroke-linecap="square" stroke-miterlimit="10" stroke-width="0.5"/><path fill="#cccccc" stroke="#cccccc" paint-order="fill stroke markers" d=" M 251.5 151.5 L 301.5 151.5 L 301.5 201.5 L 251.5 201.5 Z" stroke-linecap="square" stroke-miterlimit="10" stroke-width="0.5"/><path fill="#cccccc" stroke="#cccccc" paint-order="fill stroke markers" d=" M 51.5 201.5 L 101.5 201.5 L 101.5 251.5 L 51.5 251.5 Z" stroke-linecap="square" stroke-miterlimit="10" stroke-width="0.5"/><path fill="#cccccc" stroke="#cccccc" paint-order="fill stroke markers" d=" M 101.5 201.5 L 151.5 201.5 L 151.5 251.5 L 101.5 251.5 Z" stroke-linecap="square" stroke-miterlimit="10" stroke-width="0.5"/><path fill="#cccccc" stroke="#cccccc" paint-order="fill stroke markers" d=" M 151.5 201.5 L 201.5 201.5 L 201.5 251.5 L 151.5 251.5 Z" stroke-linecap="square" stroke-miterlimit="10" stroke-width="0.5"/><path fill="#cccccc" stroke="#cccccc" paint-order="fill stroke markers" d=" M 201.5 201.5 L 251.5 201.5 L 251.5 251.5 L 201.5 251.5 Z" stroke-linecap="square" stroke-miterlimit="10" stroke-width="0.5"/><path fill="#cccccc" stroke="#cccccc" paint-order="fill stroke markers" d=" M 251.5 201.5 L 301.5 201.5 L 301.5 251.5 L 251.5 251.5 Z" stroke-linecap="square" stroke-miterlimit="10" stroke-width="0.5"/><path fill="#cccccc" stroke="#cccccc" paint-order="fill stroke markers" d=" M 51.5 251.5 L 101.5 251.5 L 101.5 301.5 L 51.5 301.5 Z" stroke-linecap="square" stroke-miterlimit="10" stroke-width="0.5"/><path fill="#cccccc" stroke="#cccccc" paint-order="fill stroke markers" d=" M 101.5 251.5 L 151.5 251.5 L 151.5 301.5 L 101.5 301.5 Z" stroke-linecap="square" stroke-miterlimit="10" stroke-width="0.5"/><path fill="#cccccc" stroke="#cccccc" paint-order="fill stroke markers" d=" M 151.5 251.5 L 201.5 251.5 L 201.5 301.5 L 151.5 301.5 Z" stroke-linecap="square" stroke-miterlimit="10" stroke-width="0.5"/><path fill="#cccccc" stroke="#cccccc" paint-order="fill stroke markers" d=" M 201.5 251.5 L 251.5 251.5 L 251.5 301.5 L 201.5 301.5 Z" stroke-linecap="square" stroke-miterlimit="10" stroke-width="0.5"/><path fill="#cccccc" stroke="#cccccc" paint-order="fill stroke markers" d=" M 251.5 251.5 L 301.5 251.5 L 301.5 301.5 L 251.5 301.5 Z" stroke-linecap="square" stroke-miterlimit="10" stroke-width="0.5"/><path fill="#b3ffb3" stroke="#b3ffb3" paint-order="fill stroke markers" d=" M 51.5 1.5 L 101.5 1.5 L 101.5 51.5 L 51.5 51.5 Z" stroke-linecap="square" stroke-miterlimit="10" stroke-width="0.5"/><path fill="#b3ffb3" stroke="#b3ffb3" paint-order="fill stroke markers" d=" M 1.5 101.5 L 51.5 101.5 L 51.5 151.5 L 1.5 151.5 Z" stroke-linecap="square" stroke-miterlimit="10" stroke-width="0.5"/><path fill="#ffffa3" stroke="#ffffa3" paint-order="fill stroke markers" d=" M 51.5 151.5 L 101.5 151.5 L 101.5 201.5 L 51.5 201.5 Z" stroke-linecap="square" stroke-miterlimit="10" stroke-width="0.5"/><path fill="#cc99ff" stroke="#cc99ff" paint-order="fill stroke markers" d=" M 1.5 201.5 L 51.5 201.5 L 51.5 251.5 L 1.5 251.5 Z" stroke-linecap="square" stroke-miterlimit="10" stroke-width="0.5"/><path fill="#ffa3a3" stroke="#ffa3a3" paint-order="fill stroke markers" d=" M 101.5 201.5 L 151.5 201.5 L 151.5 251.5 L 101.5 251.5 Z" stroke-linecap="square" stroke-miterlimit="10" stroke-width="0.5"/><path fill="#ffa3a3" stroke="#ffa3a3" paint-order="fill stroke markers" d=" M 301.5 201.5 L 351.5 201.5 L 351.5 251.5 L 301.5 251.5 Z" stroke-linecap="square" stroke-miterlimit="10" stroke-width="0.5"/><path fill="#c0e0ff" stroke="#c0e0ff" paint-order="fill stroke markers" d=" M 51.5 251.5 L 101.5 251.5 L 101.5 301.5 L 51.5 301.5 Z" stroke-linecap="square" stroke-miterlimit="10" stroke-width="0.5"/><path fill="#444444" stroke="#444444" paint-order="fill stroke markers" d=" M 101.5 251.5 L 151.5 251.5 L 151.5 301.5 L 101.5 301.5 Z" stroke-linecap="square" stroke-miterlimit="10" stroke-width="0.5"/><path fill="#b3ffb3" stroke="#b3ffb3" paint-order="fill stroke markers" d=" M 51.5 301.5 L 101.5 301.5 L 101.5 351.5 L 51.5 351.5 Z" stroke-linecap="square" stroke-miterlimit="10" stroke-width="0.5"/><path fill="#c0e0ff" stroke="#c0e0ff" paint-order="fill stroke markers" d=" M 101.5 301.5 L 151.5 301.5 L 151.5 351.5 L 101.5 351.5 Z" stroke-linecap="square" stroke-miterlimit="10" stroke-width="0.5"/><path fill="#b3ffb3" stroke="#b3ffb3" paint-order="fill stroke markers" d=" M 201.5 301.5 L 251.5 301.5 L 251.5 351.5 L 201.5 351.5 Z" stroke-linecap="square" stroke-miterlimit="10" stroke-width="0.5"/><path fill="#000000" stroke="#000000" paint-order="fill stroke markers" d=" M 76.5 36.5 L 75.25 36.5 L 75.25 41.5 L 71.5 41.5 L 76.5 49 L 81.5 41.5 L 77.75 41.5 L 77.75 36.5 L 76.5 36.5" stroke-miterlimit="10"/><path fill="#000000" stroke="#000000" paint-order="fill stroke markers" d=" M 276.5 11.5 L 275.5 11.5 L 275.5 32.5 L 270.5 32.5 L 276.5 42.5 L 282.5 32.5 L 277.5 32.5 L 277.5 11.5 L 276.5 11.5" stroke-miterlimit="10"/><path fill="#000000" stroke="#000000" paint-order="fill stroke markers" d=" M 11.5 76.5 L 11.5 77.5 L 32.5 77.5 L 32.5 82.5 L 42.5 76.5 L 32.5 70.5 L 32.5 75.5 L 11.5 75.5 L 11.5 76.5" stroke-miterlimit="10"/><path fill="#000000" stroke="#000000" paint-order="fill stroke markers" d=" M 35.69238815542512 135.6923881554251 L 34.80850467894194 136.5762716319083 L 39.40469875665449 141.17246570962084 L 36.75304832720494 143.82411613907038 L 45.59188309203678 145.59188309203677 L 43.82411613907041 136.75304832720494 L 41.17246570962086 139.40469875665448 L 36.576271631908305 134.80850467894192 L 35.69238815542512 135.6923881554251" stroke-miterlimit="10"/><path fill="#000000" stroke="#000000" paint-order="fill stroke markers" d=" M 36.5 226.5 L 36.5 227.75 L 41.5 227.75 L 41.5 231.5 L 49 226.5 L 41.5 221.5 L 41.5 225.25 L 36.5 225.25 L 36.5 226.5" stroke-miterlimit="10"/><path fill="#000000" stroke="#000000" paint-order="fill stroke markers" d=" M 35.69238815542512 235.6923881554251 L 34.80850467894194 236.5762716319083 L 39.40469875665449 241.17246570962084 L 36.75304832720494 243.82411613907038 L 45.59188309203678 245.59188309203677 L 43.82411613907041 236.75304832720494 L 41.17246570962086 239.40469875665448 L 36.576271631908305 234.80850467894192 L 35.69238815542512 235.6923881554251" stroke-miterlimit="10"/><path fill="#000000" stroke="#000000" paint-order="fill stroke markers" d=" M 316.5 226.5 L 316.5 225.25 L 311.5 225.25 L 311.5 221.5 L 304 226.5 L 311.5 231.5 L 311.5 227.75 L 316.5 227.75 L 316.5 226.5" stroke-miterlimit="10"/><path fill="#000000" stroke="#000000" paint-order="fill stroke markers" d=" M 11.5 276.5 L 11.5 277.5 L 32.5 277.5 L 32.5 282.5 L 42.5 276.5 L 32.5 270.5 L 32.5 275.5 L 11.5 275.5 L 11.5 276.5" stroke-miterlimit="10"/><path fill="#000000" stroke="#000000" paint-order="fill stroke markers" d=" M 76.5 316.5 L 77.75 316.5 L 77.75 311.5 L 81.5 311.5 L 76.5 304 L 71.5 311.5 L 75.25 311.5 L 75.25 316.5 L 76.5 316.5" stroke-miterlimit="10"/><path fill="#000000" stroke="#000000" paint-order="fill stroke markers" d=" M 117.30761184457488 317.30761184457486 L 118.19149532105806 316.4237283680917 L 113.59530124334552 311.82753429037916 L 116.24695167279506 309.1758838609296 L 107.40811690796322 307.40811690796323 L 109.1758838609296 316.2469516727951 L 111.82753429037915 313.5953012433455 L 116.4237283680917 318.191495321058 L 117.30761184457488 317.30761184457486" stroke-miterlimit="10"/><path fill="#000000" stroke="#000000" paint-order="fill stroke markers" d=" M 217.3076118445749 317.30761184457486 L 218.19149532105808 316.4237283680917 L 213.59530124334552 311.82753429037916 L 216.2469516727951 309.1758838609296 L 207.40811690796323 307.40811690796323 L 209.17588386092962 316.2469516727951 L 211.82753429037916 313.5953012433455 L 216.4237283680917 318.191495321058 L 217.3076118445749 317.30761184457486" stroke-miterlimit="10"/><path fill="#000000" stroke="#000000" paint-order="fill stroke markers" d=" M 276.5 341.5 L 277.5 341.5 L 277.5 320.5 L 282.5 320.5 L 276.5 310.5 L 270.5 320.5 L 275.5 320.5 L 275.5 341.5 L 276.5 341.5" stroke-miterlimit="10"/><path fill="none" stroke="#000000" paint-order="fill stroke markers" d=" M 51.5 1.5 L 101.5 1.5" stroke-linecap="round" stroke-miterlimit="10" stroke-width="3"/><path fill="none" stroke="#000000" paint-order="fill stroke markers" d=" M 101.5 1.5 L 101.5 51.5" stroke-linecap="square" stroke-miterlimit="10" stroke-width="0.8"/><path fill="none" stroke="#000000" paint-order="fill stroke markers" d=" M 51.5 51.5 L 101.5 51.5" stroke-linecap="square" stroke-miterlimit="10" stroke-width="0.8"/><path fill="none" stroke="#000000" paint-order="fill stroke markers" d=" M 51.5 1.5 L 51.5 51.5" stroke-linecap="round" stroke-miterlimit="10" stroke-width="3"/><path fill="none" stroke="#000000" paint-order="fill stroke markers" d=" M 101.5 1.5 L 151.5 1.5" stroke-linecap="round" stroke-miterlimit="10" stroke-width="3"/><path fill="none" stroke="#000000" paint-order="fill stroke markers" d=" M 151.5 1.5 L 151.5 51.5" stroke-linecap="square" stroke-miterlimit="10" stroke-width="0.8"/><path fill="none" stroke="#000000" paint-order="fill stroke markers" d=" M 101.5 51.5 L 151.5 51.5" stroke-linecap="square" stroke-miterlimit="10" stroke-width="0.8"/><path fill="none" stroke="#000000" paint-order="fill stroke markers" d=" M 151.5 1.5 L 201.5 1.5" stroke-linecap="round" stroke-miterlimit="10" stroke-width="3"/><path fill="none" stroke="#000000" paint-order="fill stroke markers" d=" M 201.5 1.5 L 201.5 51.5" stroke-linecap="square" stroke-miterlimit="10" stroke-width="0.8"/><path fill="none" stroke="#000000" paint-order="fill stroke markers" d=" M 151.5 51.5 L 201.5 51.5" stroke-linecap="square" stroke-miterlimit="10" stroke-width="0.8"/><path fill="none" stroke="#000000" paint-order="fill stroke markers" d=" M 201.5 1.5 L 251.5 1.5" stroke-linecap="round" stroke-miterlimit="10" stroke-width="3"/><path fill="none" stroke="#000000" paint-order="fill stroke markers" d=" M 251.5 1.5 L 251.5 51.5" stroke-linecap="square" stroke-miterlimit="10" stroke-width="0.8"/><path fill="none" stroke="#000000" paint-order="fill stroke markers" d=" M 201.5 51.5 L 251.5 51.5" stroke-linecap="square" stroke-miterlimit="10" stroke-width="0.8"/><path fill="none" stroke="#000000" paint-order="fill stroke markers" d=" M 251.5 1.5 L 301.5 1.5" stroke-linecap="round" stroke-miterlimit="10" stroke-width="3"/><path fill="none" stroke="#000000" paint-order="fill stroke markers" d=" M 301.5 1.5 L 301.5 51.5" stroke-linecap="round" stroke-miterlimit="10" stroke-width="3"/><path fill="none" stroke="#000000" paint-order="fill stroke markers" d=" M 251.5 51.5 L 301.5 51.5" stroke-linecap="square" stroke-miterlimit="10" stroke-width="0.8"/><path fill="none" stroke="#000000" paint-order="fill stroke markers" d=" M 1.5 51.5 L 51.5 51.5" stroke-linecap="round" stroke-miterlimit="10" stroke-width="3"/><path fill="none" stroke="#000000" paint-order="fill stroke markers" d=" M 51.5 51.5 L 51.5 101.5" stroke-linecap="square" stroke-miterlimit="10" stroke-width="0.8"/><path fill="none" stroke="#000000" paint-order="fill stroke markers" d=" M 1.5 101.5 L 51.5 101.5" stroke-linecap="square" stroke-miterlimit="10" stroke-width="0.8"/><path fill="none" stroke="#000000" paint-order="fill stroke markers" d=" M 1.5 51.5 L 1.5 101.5" stroke-linecap="round" stroke-miterlimit="10" stroke-width="3"/><path fill="none" stroke="#000000" paint-order="fill stroke markers" d=" M 101.5 51.5 L 101.5 101.5" stroke-linecap="square" stroke-miterlimit="10" stroke-width="0.8"/><path fill="none" stroke="#000000" paint-order="fill stroke markers" d=" M 51.5 101.5 L 101.5 101.5" stroke-linecap="square" stroke-miterlimit="10" stroke-width="0.8"/><path fill="none" stroke="#000000" paint-order="fill stroke markers" d=" M 151.5 51.5 L 151.5 101.5" stroke-linecap="square" stroke-miterlimit="10" stroke-width="0.8"/><path fill="none" stroke="#000000" paint-order="fill stroke markers" d=" M 101.5 101.5 L 151.5 101.5" stroke-linecap="square" stroke-miterlimit="10" stroke-width="0.8"/><path fill="none" stroke="#000000" paint-order="fill stroke markers" d=" M 201.5 51.5 L 201.5 101.5" stroke-linecap="square" stroke-miterlimit="10" stroke-width="0.8"/><path fill="none" stroke="#000000" paint-order="fill stroke markers" d=" M 151.5 101.5 L 201.5 101.5" stroke-linecap="square" stroke-miterlimit="10" stroke-width="0.8"/><path fill="none" stroke="#000000" paint-order="fill stroke markers" d=" M 251.5 51.5 L 251.5 101.5" stroke-linecap="square" stroke-miterlimit="10" stroke-width="0.8"/><path fill="none" stroke="#000000" paint-order="fill stroke markers" d=" M 201.5 101.5 L 251.5 101.5" stroke-linecap="square" stroke-miterlimit="10" stroke-width="0.8"/><path fill="none" stroke="#000000" paint-order="fill stroke markers" d=" M 301.5 51.5 L 301.5 101.5" stroke-linecap="square" stroke-miterlimit="10" stroke-width="0.8"/><path fill="none" stroke="#000000" paint-order="fill stroke markers" d=" M 251.5 101.5 L 301.5 101.5" stroke-linecap="square" stroke-miterlimit="10" stroke-width="0.8"/><path fill="none" stroke="#000000" paint-order="fill stroke markers" d=" M 301.5 51.5 L 351.5 51.5" stroke-linecap="round" stroke-miterlimit="10" stroke-width="3"/><path fill="none" stroke="#000000" paint-order="fill stroke markers" d=" M 351.5 51.5 L 351.5 101.5" stroke-linecap="round" stroke-miterlimit="10" stroke-width="3"/><path fill="none" stroke="#000000" paint-order="fill stroke markers" d=" M 301.5 101.5 L 351.5 101.5" stroke-linecap="square" stroke-miterlimit="10" stroke-width="0.8"/><path fill="none" stroke="#000000" paint-order="fill stroke markers" d=" M 51.5 101.5 L 51.5 151.5" stroke-linecap="square" stroke-miterlimit="10" stroke-width="0.8"/><path fill="none" stroke="#000000" paint-order="fill stroke markers" d=" M 1.5 151.5 L 51.5 151.5" stroke-linecap="square" stroke-miterlimit="10" stroke-width="0.8"/><path fill="none" stroke="#000000" paint-order="fill stroke markers" d=" M 1.5 101.5 L 1.5 151.5" stroke-linecap="round" stroke-miterlimit="10" stroke-width="3"/><path fill="none" stroke="#000000" paint-order="fill stroke markers" d=" M 101.5 101.5 L 101.5 151.5" stroke-linecap="square" stroke-miterlimit="10" stroke-width="0.8"/><path fill="none" stroke="#000000" paint-order="fill stroke markers" d=" M 51.5 151.5 L 101.5 151.5" stroke-linecap="square" stroke-miterlimit="10" stroke-width="0.8"/><path fill="none" stroke="#000000" paint-order="fill stroke markers" d=" M 151.5 101.5 L 151.5 151.5" stroke-linecap="square" stroke-miterlimit="10" stroke-width="0.8"/><path fill="none" stroke="#000000" paint-order="fill stroke markers" d=" M 101.5 151.5 L 151.5 151.5" stroke-linecap="square" stroke-miterlimit="10" stroke-width="0.8"/><path fill="none" stroke="#000000" paint-order="fill stroke markers" d=" M 201.5 101.5 L 201.5 151.5" stroke-linecap="square" stroke-miterlimit="10" stroke-width="0.8"/><path fill="none" stroke="#000000" paint-order="fill stroke markers" d=" M 151.5 151.5 L 201.5 151.5" stroke-linecap="square" stroke-miterlimit="10" stroke-width="0.8"/><path fill="none" stroke="#000000" paint-order="fill stroke markers" d=" M 251.5 101.5 L 251.5 151.5" stroke-linecap="square" stroke-miterlimit="10" stroke-width="0.8"/><path fill="none" stroke="#000000" paint-order="fill stroke markers" d=" M 201.5 151.5 L 251.5 151.5" stroke-linecap="square" stroke-miterlimit="10" stroke-width="0.8"/><path fill="none" stroke="#000000" paint-order="fill stroke markers" d=" M 301.5 101.5 L 301.5 151.5" stroke-linecap="square" stroke-miterlimit="10" stroke-width="0.8"/><path fill="none" stroke="#000000" paint-order="fill stroke markers" d=" M 251.5 151.5 L 301.5 151.5" stroke-linecap="square" stroke-miterlimit="10" stroke-width="0.8"/><path fill="none" stroke="#000000" paint-order="fill stroke markers" d=" M 351.5 101.5 L 351.5 151.5" stroke-linecap="round" stroke-miterlimit="10" stroke-width="3"/><path fill="none" stroke="#000000" paint-order="fill stroke markers" d=" M 301.5 151.5 L 351.5 151.5" stroke-linecap="square" stroke-miterlimit="10" stroke-width="0.8"/><path fill="none" stroke="#000000" paint-order="fill stroke markers" d=" M 51.5 151.5 L 51.5 201.5" stroke-linecap="square" stroke-miterlimit="10" stroke-width="0.8"/><path fill="none" stroke="#000000" paint-order="fill stroke markers" d=" M 1.5 201.5 L 51.5 201.5" stroke-linecap="square" stroke-miterlimit="10" stroke-width="0.8"/><path fill="none" stroke="#000000" paint-order="fill stroke markers" d=" M 1.5 151.5 L 1.5 201.5" stroke-linecap="round" stroke-miterlimit="10" stroke-width="3"/><path fill="none" stroke="#000000" paint-order="fill stroke markers" d=" M 101.5 151.5 L 101.5 201.5" stroke-linecap="square" stroke-miterlimit="10" stroke-width="0.8"/><path fill="none" stroke="#000000" paint-order="fill stroke markers" d=" M 51.5 201.5 L 101.5 201.5" stroke-linecap="square" stroke-miterlimit="10" stroke-width="0.8"/><path fill="none" stroke="#000000" paint-order="fill stroke markers" d=" M 151.5 151.5 L 151.5 201.5" stroke-linecap="square" stroke-miterlimit="10" stroke-width="0.8"/><path fill="none" stroke="#000000" paint-order="fill stroke markers" d=" M 101.5 201.5 L 151.5 201.5" stroke-linecap="square" stroke-miterlimit="10" stroke-width="0.8"/><path fill="none" stroke="#000000" paint-order="fill stroke markers" d=" M 201.5 151.5 L 201.5 201.5" stroke-linecap="square" stroke-miterlimit="10" stroke-width="0.8"/><path fill="none" stroke="#000000" paint-order="fill stroke markers" d=" M 151.5 201.5 L 201.5 201.5" stroke-linecap="square" stroke-miterlimit="10" stroke-width="0.8"/><path fill="none" stroke="#000000" paint-order="fill stroke markers" d=" M 251.5 151.5 L 251.5 201.5" stroke-linecap="square" stroke-miterlimit="10" stroke-width="0.8"/><path fill="none" stroke="#000000" paint-order="fill stroke markers" d=" M 201.5 201.5 L 251.5 201.5" stroke-linecap="square" stroke-miterlimit="10" stroke-width="0.8"/><path fill="none" stroke="#000000" paint-order="fill stroke markers" d=" M 301.5 151.5 L 301.5 201.5" stroke-linecap="square" stroke-miterlimit="10" stroke-width="0.8"/><path fill="none" stroke="#000000" paint-order="fill stroke markers" d=" M 251.5 201.5 L 301.5 201.5" stroke-linecap="square" stroke-miterlimit="10" stroke-width="0.8"/><path fill="none" stroke="#000000" paint-order="fill stroke markers" d=" M 351.5 151.5 L 351.5 201.5" stroke-linecap="round" stroke-miterlimit="10" stroke-width="3"/><path fill="none" stroke="#000000" paint-order="fill stroke markers" d=" M 301.5 201.5 L 351.5 201.5" stroke-linecap="square" stroke-miterlimit="10" stroke-width="0.8"/><path fill="none" stroke="#000000" paint-order="fill stroke markers" d=" M 51.5 201.5 L 51.5 251.5" stroke-linecap="square" stroke-miterlimit="10" stroke-width="0.8"/><path fill="none" stroke="#000000" paint-order="fill stroke markers" d=" M 1.5 251.5 L 51.5 251.5" stroke-linecap="square" stroke-miterlimit="10" stroke-width="0.8"/><path fill="none" stroke="#000000" paint-order="fill stroke markers" d=" M 1.5 201.5 L 1.5 251.5" stroke-linecap="round" stroke-miterlimit="10" stroke-width="3"/><path fill="none" stroke="#000000" paint-order="fill stroke markers" d=" M 101.5 201.5 L 101.5 251.5" stroke-linecap="square" stroke-miterlimit="10" stroke-width="0.8"/><path fill="none" stroke="#000000" paint-order="fill stroke markers" d=" M 51.5 251.5 L 101.5 251.5" stroke-linecap="square" stroke-miterlimit="10" stroke-width="0.8"/><path fill="none" stroke="#000000" paint-order="fill stroke markers" d=" M 151.5 201.5 L 151.5 251.5" stroke-linecap="square" stroke-miterlimit="10" stroke-width="0.8"/><path fill="none" stroke="#000000" paint-order="fill stroke markers" d=" M 101.5 251.5 L 151.5 251.5" stroke-linecap="square" stroke-miterlimit="10" stroke-width="0.8"/><path fill="none" stroke="#000000" paint-order="fill stroke markers" d=" M 201.5 201.5 L 201.5 251.5" stroke-linecap="square" stroke-miterlimit="10" stroke-width="0.8"/><path fill="none" stroke="#000000" paint-order="fill stroke markers" d=" M 151.5 251.5 L 201.5 251.5" stroke-linecap="square" stroke-miterlimit="10" stroke-width="0.8"/><path fill="none" stroke="#000000" paint-order="fill stroke markers" d=" M 251.5 201.5 L 251.5 251.5" stroke-linecap="square" stroke-miterlimit="10" stroke-width="0.8"/><path fill="none" stroke="#000000" paint-order="fill stroke markers" d=" M 201.5 251.5 L 251.5 251.5" stroke-linecap="square" stroke-miterlimit="10" stroke-width="0.8"/><path fill="none" stroke="#000000" paint-order="fill stroke markers" d=" M 301.5 201.5 L 301.5 251.5" stroke-linecap="square" stroke-miterlimit="10" stroke-width="0.8"/><path fill="none" stroke="#000000" paint-order="fill stroke markers" d=" M 251.5 251.5 L 301.5 251.5" stroke-linecap="square" stroke-miterlimit="10" stroke-width="0.8"/><path fill="none" stroke="#000000" paint-order="fill stroke markers" d=" M 351.5 201.5 L 351.5 251.5" stroke-linecap="round" stroke-miterlimit="10" stroke-width="3"/><path fill="none" stroke="#000000" paint-order="fill stroke markers" d=" M 301.5 251.5 L 351.5 251.5" stroke-linecap="square" stroke-miterlimit="10" stroke-width="0.8"/><path fill="none" stroke="#000000" paint-order="fill stroke markers" d=" M 51.5 251.5 L 51.5 301.5" stroke-linecap="square" stroke-miterlimit="10" stroke-width="0.8"/><path fill="none" stroke="#000000" paint-order="fill stroke markers" d=" M 1.5 301.5 L 51.5 301.5" stroke-linecap="round" stroke-miterlimit="10" stroke-width="3"/><path fill="none" stroke="#000000" paint-order="fill stroke markers" d=" M 1.5 251.5 L 1.5 301.5" stroke-linecap="round" stroke-miterlimit="10" stroke-width="3"/><path fill="none" stroke="#000000" paint-order="fill stroke markers" d=" M 101.5 251.5 L 101.5 301.5" stroke-linecap="square" stroke-miterlimit="10" stroke-width="0.8"/><path fill="none" stroke="#000000" paint-order="fill stroke markers" d=" M 51.5 301.5 L 101.5 301.5" stroke-linecap="square" stroke-miterlimit="10" stroke-width="0.8"/><path fill="none" stroke="#000000" paint-order="fill stroke markers" d=" M 151.5 251.5 L 151.5 301.5" stroke-linecap="square" stroke-miterlimit="10" stroke-width="0.8"/><path fill="none" stroke="#000000" paint-order="fill stroke markers" d=" M 101.5 301.5 L 151.5 301.5" stroke-linecap="square" stroke-miterlimit="10" stroke-width="0.8"/><path fill="none" stroke="#000000" paint-order="fill stroke markers" d=" M 201.5 251.5 L 201.5 301.5" stroke-linecap="square" stroke-miterlimit="10" stroke-width="0.8"/><path fill="none" stroke="#000000" paint-order="fill stroke markers" d=" M 151.5 301.5 L 201.5 301.5" stroke-linecap="square" stroke-miterlimit="10" stroke-width="0.8"/><path fill="none" stroke="#000000" paint-order="fill stroke markers" d=" M 251.5 251.5 L 251.5 301.5" stroke-linecap="square" stroke-miterlimit="10" stroke-width="0.8"/><path fill="none" stroke="#000000" paint-order="fill stroke markers" d=" M 201.5 301.5 L 251.5 301.5" stroke-linecap="square" stroke-miterlimit="10" stroke-width="0.8"/><path fill="none" stroke="#000000" paint-order="fill stroke markers" d=" M 301.5 251.5 L 301.5 301.5" stroke-linecap="square" stroke-miterlimit="10" stroke-width="0.8"/><path fill="none" stroke="#000000" paint-order="fill stroke markers" d=" M 251.5 301.5 L 301.5 301.5" stroke-linecap="square" stroke-miterlimit="10" stroke-width="0.8"/><path fill="none" stroke="#000000" paint-order="fill stroke markers" d=" M 351.5 251.5 L 351.5 301.5" stroke-linecap="round" stroke-miterlimit="10" stroke-width="3"/><path fill="none" stroke="#000000" paint-order="fill stroke markers" d=" M 301.5 301.5 L 351.5 301.5" stroke-linecap="round" stroke-miterlimit="10" stroke-width="3"/><path fill="none" stroke="#000000" paint-order="fill stroke markers" d=" M 101.5 301.5 L 101.5 351.5" stroke-linecap="square" stroke-miterlimit="10" stroke-width="0.8"/><path fill="none" stroke="#000000" paint-order="fill stroke markers" d=" M 51.5 351.5 L 101.5 351.5" stroke-linecap="round" stroke-miterlimit="10" stroke-width="3"/><path fill="none" stroke="#000000" paint-order="fill stroke markers" d=" M 51.5 301.5 L 51.5 351.5" stroke-linecap="round" stroke-miterlimit="10" stroke-width="3"/><path fill="none" stroke="#000000" paint-order="fill stroke markers" d=" M 151.5 301.5 L 151.5 351.5" stroke-linecap="square" stroke-miterlimit="10" stroke-width="0.8"/><path fill="none" stroke="#000000" paint-order="fill stroke markers" d=" M 101.5 351.5 L 151.5 351.5" stroke-linecap="round" stroke-miterlimit="10" stroke-width="3"/><path fill="none" stroke="#000000" paint-order="fill stroke markers" d=" M 201.5 301.5 L 201.5 351.5" stroke-linecap="square" stroke-miterlimit="10" stroke-width="0.8"/><path fill="none" stroke="#000000" paint-order="fill stroke markers" d=" M 151.5 351.5 L 201.5 351.5" stroke-linecap="round" stroke-miterlimit="10" stroke-width="3"/><path fill="none" stroke="#000000" paint-order="fill stroke markers" d=" M 251.5 301.5 L 251.5 351.5" stroke-linecap="square" stroke-miterlimit="10" stroke-width="0.8"/><path fill="none" stroke="#000000" paint-order="fill stroke markers" d=" M 201.5 351.5 L 251.5 351.5" stroke-linecap="round" stroke-miterlimit="10" stroke-width="3"/><path fill="none" stroke="#000000" paint-order="fill stroke markers" d=" M 301.5 301.5 L 301.5 351.5" stroke-linecap="round" stroke-miterlimit="10" stroke-width="3"/><path fill="none" stroke="#000000" paint-order="fill stroke markers" d=" M 251.5 351.5 L 301.5 351.5" stroke-linecap="round" stroke-miterlimit="10" stroke-width="3"/><text fill="none" stroke="rgb(255,255,255)" font-family="Helvetica,Arial" font-size="35px" font-style="normal" font-weight="normal" text-decoration="normal" x="76.5" y="89.3" text-anchor="middle" dominant-baseline="alphabetic" stroke-opacity="0" stroke-linecap="round" stroke-miterlimit="10" stroke-width="3">2</text><text fill="#000000" stroke="none" font-family="Helvetica,Arial" font-size="35px" font-style="normal" font-weight="normal" text-decoration="normal" x="76.5" y="89.3" text-anchor="middle" dominant-baseline="alphabetic">2</text><text fill="none" stroke="rgb(255,255,255)" font-family="Helvetica,Arial" font-size="35px" font-style="normal" font-weight="normal" text-decoration="normal" x="176.5" y="89.3" text-anchor="middle" dominant-baseline="alphabetic" stroke-opacity="0" stroke-linecap="round" stroke-miterlimit="10" stroke-width="3">4</text><text fill="#000000" stroke="none" font-family="Helvetica,Arial" font-size="35px" font-style="normal" font-weight="normal" text-decoration="normal" x="176.5" y="89.3" text-anchor="middle" dominant-baseline="alphabetic">4</text><text fill="none" stroke="rgb(255,255,255)" font-family="Helvetica,Arial" font-size="35px" font-style="normal" font-weight="normal" text-decoration="normal" x="226.5" y="89.3" text-anchor="middle" dominant-baseline="alphabetic" stroke-opacity="0" stroke-linecap="round" stroke-miterlimit="10" stroke-width="3">2</text><text fill="#000000" stroke="none" font-family="Helvetica,Arial" font-size="35px" font-style="normal" font-weight="normal" text-decoration="normal" x="226.5" y="89.3" text-anchor="middle" dominant-baseline="alphabetic">2</text><text fill="none" stroke="rgb(255,255,255)" font-family="Helvetica,Arial" font-size="35px" font-style="normal" font-weight="normal" text-decoration="normal" x="276.5" y="89.3" text-anchor="middle" dominant-baseline="alphabetic" stroke-opacity="0" stroke-linecap="round" stroke-miterlimit="10" stroke-width="3">3</text><text fill="#000000" stroke="none" font-family="Helvetica,Arial" font-size="35px" font-style="normal" font-weight="normal" text-decoration="normal" x="276.5" y="89.3" text-anchor="middle" dominant-baseline="alphabetic">3</text><text fill="none" stroke="rgb(255,255,255)" font-family="Helvetica,Arial" font-size="35px" font-style="normal" font-weight="normal" text-decoration="normal" x="76.5" y="139.3" text-anchor="middle" dominant-baseline="alphabetic" stroke-opacity="0" stroke-linecap="round" stroke-miterlimit="10" stroke-width="3">2</text><text fill="#000000" stroke="none" font-family="Helvetica,Arial" font-size="35px" font-style="normal" font-weight="normal" text-decoration="normal" x="76.5" y="139.3" text-anchor="middle" dominant-baseline="alphabetic">2</text><text fill="none" stroke="rgb(255,255,255)" font-family="Helvetica,Arial" font-size="35px" font-style="normal" font-weight="normal" text-decoration="normal" x="126.5" y="139.3" text-anchor="middle" dominant-baseline="alphabetic" stroke-opacity="0" stroke-linecap="round" stroke-miterlimit="10" stroke-width="3">3</text><text fill="#000000" stroke="none" font-family="Helvetica,Arial" font-size="35px" font-style="normal" font-weight="normal" text-decoration="normal" x="126.5" y="139.3" text-anchor="middle" dominant-baseline="alphabetic">3</text><text fill="none" stroke="rgb(255,255,255)" font-family="Helvetica,Arial" font-size="35px" font-style="normal" font-weight="normal" text-decoration="normal" x="176.5" y="139.3" text-anchor="middle" dominant-baseline="alphabetic" stroke-opacity="0" stroke-linecap="round" stroke-miterlimit="10" stroke-width="3">5</text><text fill="#000000" stroke="none" font-family="Helvetica,Arial" font-size="35px" font-style="normal" font-weight="normal" text-decoration="normal" x="176.5" y="139.3" text-anchor="middle" dominant-baseline="alphabetic">5</text><text fill="none" stroke="rgb(255,255,255)" font-family="Helvetica,Arial" font-size="35px" font-style="normal" font-weight="normal" text-decoration="normal" x="226.5" y="139.3" text-anchor="middle" dominant-baseline="alphabetic" stroke-opacity="0" stroke-linecap="round" stroke-miterlimit="10" stroke-width="3">3</text><text fill="#000000" stroke="none" font-family="Helvetica,Arial" font-size="35px" font-style="normal" font-weight="normal" text-decoration="normal" x="226.5" y="139.3" text-anchor="middle" dominant-baseline="alphabetic">3</text><text fill="none" stroke="rgb(255,255,255)" font-family="Helvetica,Arial" font-size="35px" font-style="normal" font-weight="normal" text-decoration="normal" x="76.5" y="189.3" text-anchor="middle" dominant-baseline="alphabetic" stroke-opacity="0" stroke-linecap="round" stroke-miterlimit="10" stroke-width="3">1</text><text fill="#000000" stroke="none" font-family="Helvetica,Arial" font-size="35px" font-style="normal" font-weight="normal" text-decoration="normal" x="76.5" y="189.3" text-anchor="middle" dominant-baseline="alphabetic">1</text><text fill="none" stroke="rgb(255,255,255)" font-family="Helvetica,Arial" font-size="35px" font-style="normal" font-weight="normal" text-decoration="normal" x="126.5" y="189.3" text-anchor="middle" dominant-baseline="alphabetic" stroke-opacity="0" stroke-linecap="round" stroke-miterlimit="10" stroke-width="3">0</text><text fill="#000000" stroke="none" font-family="Helvetica,Arial" font-size="35px" font-style="normal" font-weight="normal" text-decoration="normal" x="126.5" y="189.3" text-anchor="middle" dominant-baseline="alphabetic">0</text><text fill="none" stroke="rgb(255,255,255)" font-family="Helvetica,Arial" font-size="35px" font-style="normal" font-weight="normal" text-decoration="normal" x="226.5" y="189.3" text-anchor="middle" dominant-baseline="alphabetic" stroke-opacity="0" stroke-linecap="round" stroke-miterlimit="10" stroke-width="3">4</text><text fill="#000000" stroke="none" font-family="Helvetica,Arial" font-size="35px" font-style="normal" font-weight="normal" text-decoration="normal" x="226.5" y="189.3" text-anchor="middle" dominant-baseline="alphabetic">4</text><text fill="none" stroke="rgb(255,255,255)" font-family="Helvetica,Arial" font-size="35px" font-style="normal" font-weight="normal" text-decoration="normal" x="276.5" y="189.3" text-anchor="middle" dominant-baseline="alphabetic" stroke-opacity="0" stroke-linecap="round" stroke-miterlimit="10" stroke-width="3">2</text><text fill="#000000" stroke="none" font-family="Helvetica,Arial" font-size="35px" font-style="normal" font-weight="normal" text-decoration="normal" x="276.5" y="189.3" text-anchor="middle" dominant-baseline="alphabetic">2</text><text fill="none" stroke="rgb(255,255,255)" font-family="Helvetica,Arial" font-size="35px" font-style="normal" font-weight="normal" text-decoration="normal" x="126.5" y="239.3" text-anchor="middle" dominant-baseline="alphabetic" stroke-opacity="0" stroke-linecap="round" stroke-miterlimit="10" stroke-width="3">2</text><text fill="#000000" stroke="none" font-family="Helvetica,Arial" font-size="35px" font-style="normal" font-weight="normal" text-decoration="normal" x="126.5" y="239.3" text-anchor="middle" dominant-baseline="alphabetic">2</text><text fill="none" stroke="rgb(255,255,255)" font-family="Helvetica,Arial" font-size="35px" font-style="normal" font-weight="normal" text-decoration="normal" x="176.5" y="239.3" text-anchor="middle" dominant-baseline="alphabetic" stroke-opacity="0" stroke-linecap="round" stroke-miterlimit="10" stroke-width="3">4</text><text fill="#000000" stroke="none" font-family="Helvetica,Arial" font-size="35px" font-style="normal" font-weight="normal" text-decoration="normal" x="176.5" y="239.3" text-anchor="middle" dominant-baseline="alphabetic">4</text><text fill="none" stroke="rgb(255,255,255)" font-family="Helvetica,Arial" font-size="35px" font-style="normal" font-weight="normal" text-decoration="normal" x="226.5" y="239.3" text-anchor="middle" dominant-baseline="alphabetic" stroke-opacity="0" stroke-linecap="round" stroke-miterlimit="10" stroke-width="3">1</text><text fill="#000000" stroke="none" font-family="Helvetica,Arial" font-size="35px" font-style="normal" font-weight="normal" text-decoration="normal" x="226.5" y="239.3" text-anchor="middle" dominant-baseline="alphabetic">1</text><text fill="none" stroke="rgb(255,255,255)" font-family="Helvetica,Arial" font-size="35px" font-style="normal" font-weight="normal" text-decoration="normal" x="276.5" y="239.3" text-anchor="middle" dominant-baseline="alphabetic" stroke-opacity="0" stroke-linecap="round" stroke-miterlimit="10" stroke-width="3">6</text><text fill="#000000" stroke="none" font-family="Helvetica,Arial" font-size="35px" font-style="normal" font-weight="normal" text-decoration="normal" x="276.5" y="239.3" text-anchor="middle" dominant-baseline="alphabetic">6</text><text fill="none" stroke="rgb(255,255,255)" font-family="Helvetica,Arial" font-size="35px" font-style="normal" font-weight="normal" text-decoration="normal" x="76.5" y="289.3" text-anchor="middle" dominant-baseline="alphabetic" stroke-opacity="0" stroke-linecap="round" stroke-miterlimit="10" stroke-width="3">3</text><text fill="#000000" stroke="none" font-family="Helvetica,Arial" font-size="35px" font-style="normal" font-weight="normal" text-decoration="normal" x="76.5" y="289.3" text-anchor="middle" dominant-baseline="alphabetic">3</text><text fill="none" stroke="rgb(255,255,255)" font-family="Helvetica,Arial" font-size="35px" font-style="normal" font-weight="normal" text-decoration="normal" x="126.5" y="289.3" text-anchor="middle" dominant-baseline="alphabetic" stroke-opacity="0" stroke-linecap="round" stroke-miterlimit="10" stroke-width="3">0</text><text fill="#000000" stroke="none" font-family="Helvetica,Arial" font-size="35px" font-style="normal" font-weight="normal" text-decoration="normal" x="126.5" y="289.3" text-anchor="middle" dominant-baseline="alphabetic">0</text><text fill="none" stroke="rgb(255,255,255)" font-family="Helvetica,Arial" font-size="35px" font-style="normal" font-weight="normal" text-decoration="normal" x="176.5" y="289.3" text-anchor="middle" dominant-baseline="alphabetic" stroke-opacity="0" stroke-linecap="round" stroke-miterlimit="10" stroke-width="3">3</text><text fill="#000000" stroke="none" font-family="Helvetica,Arial" font-size="35px" font-style="normal" font-weight="normal" text-decoration="normal" x="176.5" y="289.3" text-anchor="middle" dominant-baseline="alphabetic">3</text><text fill="none" stroke="rgb(255,255,255)" font-family="Helvetica,Arial" font-size="35px" font-style="normal" font-weight="normal" text-decoration="normal" x="276.5" y="289.3" text-anchor="middle" dominant-baseline="alphabetic" stroke-opacity="0" stroke-linecap="round" stroke-miterlimit="10" stroke-width="3">3</text><text fill="#000000" stroke="none" font-family="Helvetica,Arial" font-size="35px" font-style="normal" font-weight="normal" text-decoration="normal" x="276.5" y="289.3" text-anchor="middle" dominant-baseline="alphabetic">3</text></g></svg>