<svg version="1.1" xmlns="http://www.w3.org/2000/svg" xmlns:xlink="http://www.w3.org/1999/xlink" width="353.2" height="353.2"><defs/><g><rect fill="rgb(255,255,255)" stroke="none" x="0" y="0" width="353.2" height="353.2" fill-opacity="0"/><path fill="none" stroke="#000000" paint-order="fill stroke markers" d=" M 51.5 1.5 L 101.5 1.5" stroke-linecap="round" stroke-miterlimit="10" stroke-width="3"/><path fill="none" stroke="#000000" paint-order="fill stroke markers" d=" M 51.5 1.5 L 51.5 51.5" stroke-linecap="round" stroke-miterlimit="10" stroke-width="3"/><path fill="none" stroke="#000000" paint-order="fill stroke markers" d=" M 101.5 1.5 L 151.5 1.5" stroke-linecap="round" stroke-miterlimit="10" stroke-width="3"/><path fill="none" stroke="#000000" paint-order="fill stroke markers" d=" M 151.5 1.5 L 201.5 1.5" stroke-linecap="round" stroke-miterlimit="10" stroke-width="3"/><path fill="none" stroke="#000000" paint-order="fill stroke markers" d=" M 201.5 1.5 L 251.5 1.5" stroke-linecap="round" stroke-miterlimit="10" stroke-width="3"/><path fill="none" stroke="#000000" paint-order="fill stroke markers" d=" M 251.5 1.5 L 301.5 1.5" stroke-linecap="round" stroke-miterlimit="10" stroke-width="3"/><path fill="none" stroke="#000000" paint-order="fill stroke markers" d=" M 301.5 1.5 L 301.5 51.5" stroke-linecap="round" stroke-miterlimit="10" stroke-width="3"/><path fill="none" stroke="#000000" paint-order="fill stroke markers" d=" M 1.5 51.5 L 51.5 51.5" stroke-linecap="round" stroke-miterlimit="10" stroke-width="3"/><path fill="none" stroke="#000000" paint-order="fill stroke markers" d=" M 1.5 51.5 L 1.5 101.5" stroke-linecap="round" stroke-miterlimit="10" stroke-width="3"/><path fill="none" stroke="#000000" paint-order="fill stroke markers" d=" M 301.5 51.5 L 351.5 51.5" stroke-linecap="round" stroke-miterlimit="10" stroke-width="3"/><path fill="none" stroke="#000000" paint-order="fill stroke markers" d=" M 351.5 51.5 L 351.5 101.5" stroke-linecap="round" stroke-miterlimit="10" stroke-width="3"/><path fill="none" stroke="#000000" paint-order="fill stroke markers" d=" M 1.5 101.5 L 1.5 151.5" stroke-linecap="round" stroke-miterlimit="10" stroke-width="3"/><path fill="none" stroke="#000000" paint-order="fill stroke markers" d=" M 351.5 101.5 L 351.5 151.5" stroke-linecap="round" stroke-miterlimit="10" stroke-width="3"/><path fill="none" stroke="#000000" paint-order="fill stroke markers" d=" M 1.5 151.5 L 1.5 201.5" stroke-linecap="round" stroke-miterlimit="10" stroke-width="3"/><path fill="none" stroke="#000000" paint-order="fill stroke markers" d=" M 351.5 151.5 L 351.5 201.5" stroke-linecap="round" stroke-miterlimit="10" stroke-width="3"/><path fill="none" stroke="#000000" paint-order="fill stroke markers" d=" M 1.5 201.5 L 1.5 251.5" stroke-linecap="round" stroke-miterlimit="10" stroke-width="3"/><path fill="none" stroke="#000000" paint-order="fill stroke markers" d=" M 351.5 201.5 L 351.5 251.5" stroke-linecap="round" stroke-miterlimit="10" stroke-width="3"/><path fill="none" stroke="#000000" paint-order="fill stroke markers" d=" M 1.5 301.5 L 51.5 301.5" stroke-linecap="round" stroke-miterlimit="10" stroke-width="3"/><path fill="none" stroke="#000000" paint-order="fill stroke markers" d=" M 1.5 251.5 L 1.5 301.5" stroke-linecap="round" stroke-miterlimit="10" stroke-width="3"/><path fill="none" stroke="#000000" paint-order="fill stroke markers" d=" M 351.5 251.5 L 351.5 301.5" stroke-linecap="round" stroke-miterlimit="10" stroke-width="3"/><path fill="none" stroke="#000000" paint-order="fill stroke markers" d=" M 301.5 301.5 L 351.5 301.5" stroke-linecap="round" stroke-miterlimit="10" stroke-width="3"/><path fill="none" stroke="#000000" paint-order="fill stroke markers" d=" M 51.5 351.5 L 101.5 351.5" stroke-linecap="round" stroke-miterlimit="10" stroke-width="3"/><path fill="none" stroke="#000000" paint-order="fill stroke markers" d=" M 51.5 301.5 L 51.5 351.5" stroke-linecap="round" stroke-miterlimit="10" stroke-width="3"/><path fill="none" stroke="#000000" paint-order="fill stroke markers" d=" M 101.5 351.5 L 151.5 351.5" stroke-linecap="round" stroke-miterlimit="10" stroke-width="3"/><path fill="none" stroke="#000000" paint-order="fill stroke markers" d=" M 151.5 351.5 L 201.5 351.5" stroke-linecap="round" stroke-miterlimit="10" stroke-width="3"/><path fill="none" stroke="#000000" paint-order="fill stroke markers" d=" M 201.5 351.5 L 251.5 351.5" stroke-linecap="round" stroke-miterlimit="10" stroke-width="3"/><path fill="none" stroke="#000000" paint-order="fill stroke markers" d=" M 301.5 301.5 L 301.5 351.5" stroke-linecap="round" stroke-miterlimit="10" stroke-width="3"/><path fill="none" stroke="#000000" paint-order="fill stroke markers" d=" M 251.5 351.5 L 301.5 351.5" stroke-linecap="round" stroke-miterlimit="10" stroke-width="3"/><path fill="#cccccc" stroke="#cccccc" paint-order="fill stroke markers" d=" M 51.5 51.5 L 101.5 51.5 L 101.5 101.5 L 51.5 101.5 Z" stroke-linecap="square" stroke-miterlimit="10" stroke-width="0.5"/><path fill="#cccccc" stroke="#cccccc" paint-order="fill stroke markers" d=" M 101.5 51.5 L 151.5 51.5 L 151.5 101.5 L 101.5 101.5 Z" stroke-linecap="square" stroke-miterlimit="10" stroke-width="0.5"/><path fill="#cccccc" stroke="#cccccc" paint-order="fill stroke markers" d=" M 151.5 51.5 L 201.5 51.5 L 201.5 101.5 L 151.5 101.5 Z" stroke-linecap="square" stroke-miterlimit="10" stroke-width="0.5"/><path fill="#cccccc" stroke="#cccccc" paint-order="fill stroke markers" d=" M 201.5 51.5 L 251.5 51.5 L 251.5 101.5 L 201.5 101.5 Z" stroke-linecap="square" stroke-miterlimit="10" stroke-width="0.5"/><path fill="#cccccc" stroke="#cccccc" paint-order="fill stroke markers" d=" M 251.5 51.5 L 301.5 51.5 L 301.5 101.5 L 251.5 101.5 Z" stroke-linecap="square" stroke-miterlimit="10" stroke-width="0.5"/><path fill="#cccccc" stroke="#cccccc" paint-order="fill stroke markers" d=" M 51.5 101.5 L 101.5 101.5 L 101.5 151.5 L 51.5 151.5 Z" stroke-linecap="square" stroke-miterlimit="10" stroke-width="0.5"/><path fill="#cccccc" stroke="#cccccc" paint-order="fill stroke markers" d=" M 101.5 101.5 L 151.5 101.5 L 151.5 151.5 L 101.5 151.5 Z" stroke-linecap="square" stroke-miterlimit="10" stroke-width="0.5"/><path fill="#cccccc" stroke="#cccccc" paint-order="fill stroke markers" d=" M 151.5 101.5 L 201.5 101.5 L 201.5 151.5 L 151.5 151.5 Z" stroke-linecap="square" stroke-miterlimit="10" stroke-width="0.5"/><path fill="#cccccc" stroke="#cccccc" paint-order="fill stroke markers" d=" M 201.5 101.5 L 251.5 101.5 L 251.5 151.5 L 201.5 151.5 Z" stroke-linecap="square" stroke-miterlimit="10" stroke-width="0.5"/><path fill="#cccccc" stroke="#cccccc" paint-order="fill stroke markers" d=" M 251.5 101.5 L 301.5 101.5 L 301.5 151.5 L 251.5 151.5 Z" stroke-linecap="square" stroke-miterlimit="10" stroke-width="0.5"/><path fill="#cccccc" stroke="#cccccc" paint-order="fill stroke markers" d=" M 51.5 151.5 L 101.5 151.5 L 101.5 201.5 L 51.5 201.5 Z" stroke-linecap="square" stroke-miterlimit="10" stroke-width="0.5"/><path fill="#cccccc" stroke="#cccccc" paint-order="fill stroke markers" d=" M 101.5 151.5 L 151.5 151.5 L 151.5 201.5 L 101.5 201.5 Z" stroke-linecap="square" stroke-miterlimit="10" stroke-width="0.5"/><path fill="#cccccc" stroke="#cccccc" paint-order="fill stroke markers" d=" M 151.5 151.5 L 201.5 151.5 L 201.5 201.5 L 151.5 201.5 Z" stroke-linecap="square" stroke-miterlimit="10" stroke-width="0.5"/><path fill="#cccccc" stroke="#cccccc" paint-order="fill stroke markers" d=" M 201.5 151.5 L 251.5 151.5 L 251.5 201.5 L 201.5 201.5 Z" stroke-linecap="square" stroke-miterlimit="10" stroke-width="0.5"/><path fill="#cccccc" stroke="#cccccc" paint-order="fill stroke markers" d=" M 251.5 151.5 L 301.5 151.5 L 301.5 201.5 L 251.5 201.5 Z" stroke-linecap="square" stroke-miterlimit="10" stroke-width="0.5"/><path fill="#cccccc" stroke="#cccccc" paint-order="fill stroke markers" d=" M 51.5 201.5 L 101.5 201.5 L 101.5 251.5 L 51.5 251.5 Z" stroke-linecap="square" stroke-miterlimit="10" stroke-width="0.5"/><path fill="#cccccc" stroke="#cccccc" paint-order="fill stroke markers" d=" M 101.5 201.5 L 151.5 201.5 L 151.5 251.5 L 101.5 251.5 Z" stroke-linecap="square" stroke-miterlimit="10" stroke-width="0.5"/><path fill="#cccccc" stroke="#cccccc" paint-order="fill stroke markers" d=" M 151.5 201.5 L 201.5 201.5 L 201.5 251.5 L 151.5 251.5 Z" stroke-linecap="square" stroke-miterlimit="10" stroke-width="0.5"/><path fill="#cccccc" stroke="#cccccc" paint-order="fill stroke markers" d=" M 201.5 201.5 L 251.5 201.5 L 251.5 251.5 L 201.5 251.5 Z" stroke-linecap="square" stroke-miterlimit="10" stroke-width="0.5"/><path fill="#cccccc" stroke="#cccccc" paint-order="fill stroke markers" d=" M 251.5 201.5 L 301.5 201.5 L 301.5 251.5 L 251.5 251.5 Z" stroke-linecap="square" stroke-miterlimit="10" stroke-width="0.5"/><path fill="#cccccc" stroke="#cccccc" paint-order="fill stroke markers" d=" M 51.5 251.5 L 101.5 251.5 L 101.5 301.5 L 51.5 301.5 Z" stroke-linecap="square" stroke-miterlimit="10" stroke-width="0.5"/><path fill="#cccccc" stroke="#cccccc" paint-order="fill stroke markers" d=" M 101.5 251.5 L 151.5 251.5 L 151.5 301.5 L 101.5 301.5 Z" stroke-linecap="square" stroke-miterlimit="10" stroke-width="0.5"/><path fill="#cccccc" stroke="#cccccc" paint-order="fill stroke markers" d=" M 151.5 251.5 L 201.5 251.5 L 201.5 301.5 L 151.5 301.5 Z" stroke-linecap="square" stroke-miterlimit="10" stroke-width="0.5"/><path fill="#cccccc" stroke="#cccccc" paint-order="fill stroke markers" d=" M 201.5 251.5 L 251.5 251.5 L 251.5 301.5 L 201.5 301.5 Z" stroke-linecap="square" stroke-miterlimit="10" stroke-width="0.5"/><path fill="#cccccc" stroke="#cccccc" paint-order="fill stroke markers" d=" M 251.5 251.5 L 301.5 251.5 L 301.5 301.5 L 251.5 301.5 Z" stroke-linecap="square" stroke-miterlimit="10" stroke-width="0.5"/><path fill="#ffffa3" stroke="#ffffa3" paint-order="fill stroke markers" d=" M 151.5 1.5 L 201.5 1.5 L 201.5 51.5 L 151.5 51.5 Z" stroke-linecap="square" stroke-miterlimit="10" stroke-width="0.5"/><path fill="#ffffa3" stroke="#ffffa3" paint-order="fill stroke markers" d=" M 251.5 1.5 L 301.5 1.5 L 301.5 51.5 L 251.5 51.5 Z" stroke-linecap="square" stroke-miterlimit="10" stroke-width="0.5"/><path fill="#c0e0ff" stroke="#c0e0ff" paint-order="fill stroke markers" d=" M 201.5 51.5 L 251.5 51.5 L 251.5 101.5 L 201.5 101.5 Z" stroke-linecap="square" stroke-miterlimit="10" stroke-width="0.5"/><path fill="#ffffa3" stroke="#ffffa3" paint-order="fill stroke markers" d=" M 301.5 51.5 L 351.5 51.5 L 351.5 101.5 L 301.5 101.5 Z" stroke-linecap="square" stroke-miterlimit="10" stroke-width="0.5"/><path fill="#b3ffb3" stroke="#b3ffb3" paint-order="fill stroke markers" d=" M 51.5 101.5 L 101.5 101.5 L 101.5 151.5 L 51.5 151.5 Z" stroke-linecap="square" stroke-miterlimit="10" stroke-width="0.5"/><path fill="#c0e0ff" stroke="#c0e0ff" paint-order="fill stroke markers" d=" M 151.5 101.5 L 201.5 101.5 L 201.5 151.5 L 151.5 151.5 Z" stroke-linecap="square" stroke-miterlimit="10" stroke-width="0.5"/><path fill="#ffcc80" stroke="#ffcc80" paint-order="fill stroke markers" d=" M 251.5 101.5 L 301.5 101.5 L 301.5 151.5 L 251.5 151.5 Z" stroke-linecap="square" stroke-miterlimit="10" stroke-width="0.5"/><path fill="#ffa3a3" stroke="#ffa3a3" paint-order="fill stroke markers" d=" M 101.5 151.5 L 151.5 151.5 L 151.5 201.5 L 101.5 201.5 Z" stroke-linecap="square" stroke-miterlimit="10" stroke-width="0.5"/><path fill="#ffa3a3" stroke="#ffa3a3" paint-order="fill stroke markers" d=" M 201.5 151.5 L 251.5 151.5 L 251.5 201.5 L 201.5 201.5 Z" stroke-linecap="square" stroke-miterlimit="10" stroke-width="0.5"/><path fill="#ffffa3" stroke="#ffffa3" paint-order="fill stroke markers" d=" M 301.5 151.5 L 351.5 151.5 L 351.5 201.5 L 301.5 201.5 Z" stroke-linecap="square" stroke-miterlimit="10" stroke-width="0.5"/><path fill="#c0e0ff" stroke="#c0e0ff" paint-order="fill stroke markers" d=" M 151.5 201.5 L 201.5 201.5 L 201.5 251.5 L 151.5 251.5 Z" stroke-linecap="square" stroke-miterlimit="10" stroke-width="0.5"/><path fill="#ffcc80" stroke="#ffcc80" paint-order="fill stroke markers" d=" M 251.5 201.5 L 301.5 201.5 L 301.5 251.5 L 251.5 251.5 Z" stroke-linecap="square" stroke-miterlimit="10" stroke-width="0.5"/><path fill="#c0e0ff" stroke="#c0e0ff" paint-order="fill stroke markers" d=" M 101.5 251.5 L 151.5 251.5 L 151.5 301.5 L 101.5 301.5 Z" stroke-linecap="square" stroke-miterlimit="10" stroke-width="0.5"/><path fill="#ffffa3" stroke="#ffffa3" paint-order="fill stroke markers" d=" M 51.5 301.5 L 101.5 301.5 L 101.5 351.5 L 51.5 351.5 Z" stroke-linecap="square" stroke-miterlimit="10" stroke-width="0.5"/><path fill="#ffffa3" stroke="#ffffa3" paint-order="fill stroke markers" d=" M 251.5 301.5 L 301.5 301.5 L 301.5 351.5 L 251.5 351.5 Z" stroke-linecap="square" stroke-miterlimit="10" stroke-width="0.5"/><path fill="#000000" stroke="#000000" paint-order="fill stroke markers" d=" M 76.5 11.5 L 75.5 11.5 L 75.5 32.5 L 70.5 32.5 L 76.5 42.5 L 82.5 32.5 L 77.5 32.5 L 77.5 11.5 L 76.5 11.5" stroke-miterlimit="10"/><path fill="#000000" stroke="#000000" paint-order="fill stroke markers" d=" M 15.893398282201787 65.89339828220179 L 15.186291501015239 66.60050506338834 L 30.035533905932738 81.44974746830584 L 26.5 84.98528137423858 L 37.81370849898476 87.81370849898477 L 34.98528137423857 76.5 L 31.449747468305834 80.03553390593274 L 16.600505063388333 65.18629150101523 L 15.893398282201787 65.89339828220179" stroke-miterlimit="10"/><path fill="rgb(255,255,255)" stroke="#000000" paint-order="fill stroke markers" d=" M 244 76.5 A 17.5 17.5 0 1 1 243.99999125000073 76.48250000291665" fill-opacity="0" stroke-miterlimit="10" stroke-dasharray="4,4"/><path fill="#000000" stroke="#000000" paint-order="fill stroke markers" d=" M 94 126.5 A 17.5 17.5 0 1 1 93.99999125000073 126.48250000291665" stroke-miterlimit="10"/><path fill="rgb(255,255,255)" stroke="#000000" paint-order="fill stroke markers" d=" M 194 126.5 A 17.5 17.5 0 1 1 193.99999125000073 126.48250000291665" fill-opacity="0" stroke-miterlimit="10" stroke-dasharray="4,4"/><path fill="#000000" stroke="#000000" paint-order="fill stroke markers" d=" M 15.893398282201787 187.1066017177982 L 16.600505063388333 187.81370849898477 L 31.449747468305834 172.96446609406726 L 34.98528137423857 176.5 L 37.81370849898476 165.18629150101523 L 26.5 168.01471862576142 L 30.035533905932738 171.55025253169416 L 15.186291501015239 186.39949493661166 L 15.893398282201787 187.1066017177982" stroke-miterlimit="10"/><path fill="rgb(255,255,255)" stroke="#000000" paint-order="fill stroke markers" d=" M 144 176.5 A 17.5 17.5 0 1 1 143.99999125000073 176.48250000291665" fill-opacity="0" stroke-miterlimit="10" stroke-dasharray="4,4"/><path fill="rgb(255,255,255)" stroke="#000000" paint-order="fill stroke markers" d=" M 244 176.5 A 17.5 17.5 0 1 1 243.99999125000073 176.48250000291665" fill-opacity="0" stroke-miterlimit="10" stroke-dasharray="4,4"/><path fill="rgb(255,255,255)" stroke="#000000" paint-order="fill stroke markers" d=" M 194 226.5 A 17.5 17.5 0 1 1 193.99999125000073 226.48250000291665" fill-opacity="0" stroke-miterlimit="10" stroke-dasharray="4,4"/><path fill="rgb(255,255,255)" stroke="#000000" paint-order="fill stroke markers" d=" M 294 226.5 A 17.5 17.5 0 1 1 293.99999125000073 226.48250000291665" fill-opacity="0" stroke-miterlimit="10" stroke-dasharray="4,4"/><path fill="rgb(255,255,255)" stroke="#000000" paint-order="fill stroke markers" d=" M 144 276.5 A 17.5 17.5 0 1 1 143.99999125000073 276.48250000291665" fill-opacity="0" stroke-miterlimit="10" stroke-dasharray="4,4"/><path fill="none" stroke="#000000" paint-order="fill stroke markers" d=" M 51.5 1.5 L 101.5 1.5" stroke-linecap="round" stroke-miterlimit="10" stroke-width="3"/><path fill="none" stroke="#000000" paint-order="fill stroke markers" d=" M 101.5 1.5 L 101.5 51.5" stroke-linecap="square" stroke-miterlimit="10" stroke-width="0.8"/><path fill="none" stroke="#000000" paint-order="fill stroke markers" d=" M 51.5 51.5 L 101.5 51.5" stroke-linecap="square" stroke-miterlimit="10" stroke-width="0.8"/><path fill="none" stroke="#000000" paint-order="fill stroke markers" d=" M 51.5 1.5 L 51.5 51.5" stroke-linecap="round" stroke-miterlimit="10" stroke-width="3"/><path fill="none" stroke="#000000" paint-order="fill stroke markers" d=" M 101.5 1.5 L 151.5 1.5" stroke-linecap="round" stroke-miterlimit="10" stroke-width="3"/><path fill="none" stroke="#000000" paint-order="fill stroke markers" d=" M 151.5 1.5 L 151.5 51.5" stroke-linecap="square" stroke-miterlimit="10" stroke-width="0.8"/><path fill="none" stroke="#000000" paint-order="fill stroke markers" d=" M 101.5 51.5 L 151.5 51.5" stroke-linecap="square" stroke-miterlimit="10" stroke-width="0.8"/><path fill="none" stroke="#000000" paint-order="fill stroke markers" d=" M 151.5 1.5 L 201.5 1.5" stroke-linecap="round" stroke-miterlimit="10" stroke-width="3"/><path fill="none" stroke="#000000" paint-order="fill stroke markers" d=" M 201.5 1.5 L 201.5 51.5" stroke-linecap="square" stroke-miterlimit="10" stroke-width="0.8"/><path fill="none" stroke="#000000" paint-order="fill stroke markers" d=" M 151.5 51.5 L 201.5 51.5" stroke-linecap="square" stroke-miterlimit="10" stroke-width="0.8"/><path fill="none" stroke="#000000" paint-order="fill stroke markers" d=" M 201.5 1.5 L 251.5 1.5" stroke-linecap="round" stroke-miterlimit="10" stroke-width="3"/><path fill="none" stroke="#000000" paint-order="fill stroke markers" d=" M 251.5 1.5 L 251.5 51.5" stroke-linecap="square" stroke-miterlimit="10" stroke-width="0.8"/><path fill="none" stroke="#000000" paint-order="fill stroke markers" d=" M 201.5 51.5 L 251.5 51.5" stroke-linecap="square" stroke-miterlimit="10" stroke-width="0.8"/><path fill="none" stroke="#000000" paint-order="fill stroke markers" d=" M 251.5 1.5 L 301.5 1.5" stroke-linecap="round" stroke-miterlimit="10" stroke-width="3"/><path fill="none" stroke="#000000" paint-order="fill stroke markers" d=" M 301.5 1.5 L 301.5 51.5" stroke-linecap="round" stroke-miterlimit="10" stroke-width="3"/><path fill="none" stroke="#000000" paint-order="fill stroke markers" d=" M 251.5 51.5 L 301.5 51.5" stroke-linecap="square" stroke-miterlimit="10" stroke-width="0.8"/><path fill="none" stroke="#000000" paint-order="fill stroke markers" d=" M 1.5 51.5 L 51.5 51.5" stroke-linecap="round" stroke-miterlimit="10" stroke-width="3"/><path fill="none" stroke="#000000" paint-order="fill stroke markers" d=" M 51.5 51.5 L 51.5 101.5" stroke-linecap="square" stroke-miterlimit="10" stroke-width="0.8"/><path fill="none" stroke="#000000" paint-order="fill stroke markers" d=" M 1.5 101.5 L 51.5 101.5" stroke-linecap="square" stroke-miterlimit="10" stroke-width="0.8"/><path fill="none" stroke="#000000" paint-order="fill stroke markers" d=" M 1.5 51.5 L 1.5 101.5" stroke-linecap="round" stroke-miterlimit="10" stroke-width="3"/><path fill="none" stroke="#000000" paint-order="fill stroke markers" d=" M 101.5 51.5 L 101.5 101.5" stroke-linecap="square" stroke-miterlimit="10" stroke-width="0.8"/><path fill="none" stroke="#000000" paint-order="fill stroke markers" d=" M 51.5 101.5 L 101.5 101.5" stroke-linecap="square" stroke-miterlimit="10" stroke-width="0.8"/><path fill="none" stroke="#000000" paint-order="fill stroke markers" d=" M 151.5 51.5 L 151.5 101.5" stroke-linecap="square" stroke-miterlimit="10" stroke-width="0.8"/><path fill="none" stroke="#000000" paint-order="fill stroke markers" d=" M 101.5 101.5 L 151.5 101.5" stroke-linecap="square" stroke-miterlimit="10" stroke-width="0.8"/><path fill="none" stroke="#000000" paint-order="fill stroke markers" d=" M 201.5 51.5 L 201.5 101.5" stroke-linecap="square" stroke-miterlimit="10" stroke-width="0.8"/><path fill="none" stroke="#000000" paint-order="fill stroke markers" d=" M 151.5 101.5 L 201.5 101.5" stroke-linecap="square" stroke-miterlimit="10" stroke-width="0.8"/><path fill="none" stroke="#000000" paint-order="fill stroke markers" d=" M 251.5 51.5 L 251.5 101.5" stroke-linecap="square" stroke-miterlimit="10" stroke-width="0.8"/><path fill="none" stroke="#000000" paint-order="fill stroke markers" d=" M 201.5 101.5 L 251.5 101.5" stroke-linecap="square" stroke-miterlimit="10" stroke-width="0.8"/><path fill="none" stroke="#000000" paint-order="fill stroke markers" d=" M 301.5 51.5 L 301.5 101.5" stroke-linecap="square" stroke-miterlimit="10" stroke-width="0.8"/><path fill="none" stroke="#000000" paint-order="fill stroke markers" d=" M 251.5 101.5 L 301.5 101.5" stroke-linecap="square" stroke-miterlimit="10" stroke-width="0.8"/><path fill="none" stroke="#000000" paint-order="fill stroke markers" d=" M 301.5 51.5 L 351.5 51.5" stroke-linecap="round" stroke-miterlimit="10" stroke-width="3"/><path fill="none" stroke="#000000" paint-order="fill stroke markers" d=" M 351.5 51.5 L 351.5 101.5" stroke-linecap="round" stroke-miterlimit="10" stroke-width="3"/><path fill="none" stroke="#000000" paint-order="fill stroke markers" d=" M 301.5 101.5 L 351.5 101.5" stroke-linecap="square" stroke-miterlimit="10" stroke-width="0.8"/><path fill="none" stroke="#000000" paint-order="fill stroke markers" d=" M 51.5 101.5 L 51.5 151.5" stroke-linecap="square" stroke-miterlimit="10" stroke-width="0.8"/><path fill="none" stroke="#000000" paint-order="fill stroke markers" d=" M 1.5 151.5 L 51.5 151.5" stroke-linecap="square" stroke-miterlimit="10" stroke-width="0.8"/><path fill="none" stroke="#000000" paint-order="fill stroke markers" d=" M 1.5 101.5 L 1.5 151.5" stroke-linecap="round" stroke-miterlimit="10" stroke-width="3"/><path fill="none" stroke="#000000" paint-order="fill stroke markers" d=" M 101.5 101.5 L 101.5 151.5" stroke-linecap="square" stroke-miterlimit="10" stroke-width="0.8"/><path fill="none" stroke="#000000" paint-order="fill stroke markers" d=" M 51.5 151.5 L 101.5 151.5" stroke-linecap="square" stroke-miterlimit="10" stroke-width="0.8"/><path fill="none" stroke="#000000" paint-order="fill stroke markers" d=" M 151.5 101.5 L 151.5 151.5" stroke-linecap="square" stroke-miterlimit="10" stroke-width="0.8"/><path fill="none" stroke="#000000" paint-order="fill stroke markers" d=" M 101.5 151.5 L 151.5 151.5" stroke-linecap="square" stroke-miterlimit="10" stroke-width="0.8"/><path fill="none" stroke="#000000" paint-order="fill stroke markers" d=" M 201.5 101.5 L 201.5 151.5" stroke-linecap="square" stroke-miterlimit="10" stroke-width="0.8"/><path fill="none" stroke="#000000" paint-order="fill stroke markers" d=" M 151.5 151.5 L 201.5 151.5" stroke-linecap="square" stroke-miterlimit="10" stroke-width="0.8"/><path fill="none" stroke="#000000" paint-order="fill stroke markers" d=" M 251.5 101.5 L 251.5 151.5" stroke-linecap="square" stroke-miterlimit="10" stroke-width="0.8"/><path fill="none" stroke="#000000" paint-order="fill stroke markers" d=" M 201.5 151.5 L 251.5 151.5" stroke-linecap="square" stroke-miterlimit="10" stroke-width="0.8"/><path fill="none" stroke="#000000" paint-order="fill stroke markers" d=" M 301.5 101.5 L 301.5 151.5" stroke-linecap="square" stroke-miterlimit="10" stroke-width="0.8"/><path fill="none" stroke="#000000" paint-order="fill stroke markers" d=" M 251.5 151.5 L 301.5 151.5" stroke-linecap="square" stroke-miterlimit="10" stroke-width="0.8"/><path fill="none" stroke="#000000" paint-order="fill stroke markers" d=" M 351.5 101.5 L 351.5 151.5" stroke-linecap="round" stroke-miterlimit="10" stroke-width="3"/><path fill="none" stroke="#000000" paint-order="fill stroke markers" d=" M 301.5 151.5 L 351.5 151.5" stroke-linecap="square" stroke-miterlimit="10" stroke-width="0.8"/><path fill="none" stroke="#000000" paint-order="fill stroke markers" d=" M 51.5 151.5 L 51.5 201.5" stroke-linecap="square" stroke-miterlimit="10" stroke-width="0.8"/><path fill="none" stroke="#000000" paint-order="fill stroke markers" d=" M 1.5 201.5 L 51.5 201.5" stroke-linecap="square" stroke-miterlimit="10" stroke-width="0.8"/><path fill="none" stroke="#000000" paint-order="fill stroke markers" d=" M 1.5 151.5 L 1.5 201.5" stroke-linecap="round" stroke-miterlimit="10" stroke-width="3"/><path fill="none" stroke="#000000" paint-order="fill stroke markers" d=" M 101.5 151.5 L 101.5 201.5" stroke-linecap="square" stroke-miterlimit="10" stroke-width="0.8"/><path fill="none" stroke="#000000" paint-order="fill stroke markers" d=" M 51.5 201.5 L 101.5 201.5" stroke-linecap="square" stroke-miterlimit="10" stroke-width="0.8"/><path fill="none" stroke="#000000" paint-order="fill stroke markers" d=" M 151.5 151.5 L 151.5 201.5" stroke-linecap="square" stroke-miterlimit="10" stroke-width="0.8"/><path fill="none" stroke="#000000" paint-order="fill stroke markers" d=" M 101.5 201.5 L 151.5 201.5" stroke-linecap="square" stroke-miterlimit="10" stroke-width="0.8"/><path fill="none" stroke="#000000" paint-order="fill stroke markers" d=" M 201.5 151.5 L 201.5 201.5" stroke-linecap="square" stroke-miterlimit="10" stroke-width="0.8"/><path fill="none" stroke="#000000" paint-order="fill stroke markers" d=" M 151.5 201.5 L 201.5 201.5" stroke-linecap="square" stroke-miterlimit="10" stroke-width="0.8"/><path fill="none" stroke="#000000" paint-order="fill stroke markers" d=" M 251.5 151.5 L 251.5 201.5" stroke-linecap="square" stroke-miterlimit="10" stroke-width="0.8"/><path fill="none" stroke="#000000" paint-order="fill stroke markers" d=" M 201.5 201.5 L 251.5 201.5" stroke-linecap="square" stroke-miterlimit="10" stroke-width="0.8"/><path fill="none" stroke="#000000" paint-order="fill stroke markers" d=" M 301.5 151.5 L 301.5 201.5" stroke-linecap="square" stroke-miterlimit="10" stroke-width="0.8"/><path fill="none" stroke="#000000" paint-order="fill stroke markers" d=" M 251.5 201.5 L 301.5 201.5" stroke-linecap="square" stroke-miterlimit="10" stroke-width="0.8"/><path fill="none" stroke="#000000" paint-order="fill stroke markers" d=" M 351.5 151.5 L 351.5 201.5" stroke-linecap="round" stroke-miterlimit="10" stroke-width="3"/><path fill="none" stroke="#000000" paint-order="fill stroke markers" d=" M 301.5 201.5 L 351.5 201.5" stroke-linecap="square" stroke-miterlimit="10" stroke-width="0.8"/><path fill="none" stroke="#000000" paint-order="fill stroke markers" d=" M 51.5 201.5 L 51.5 251.5" stroke-linecap="square" stroke-miterlimit="10" stroke-width="0.8"/><path fill="none" stroke="#000000" paint-order="fill stroke markers" d=" M 1.5 251.5 L 51.5 251.5" stroke-linecap="square" stroke-miterlimit="10" stroke-width="0.8"/><path fill="none" stroke="#000000" paint-order="fill stroke markers" d=" M 1.5 201.5 L 1.5 251.5" stroke-linecap="round" stroke-miterlimit="10" stroke-width="3"/><path fill="none" stroke="#000000" paint-order="fill stroke markers" d=" M 101.5 201.5 L 101.5 251.5" stroke-linecap="square" stroke-miterlimit="10" stroke-width="0.8"/><path fill="none" stroke="#000000" paint-order="fill stroke markers" d=" M 51.5 251.5 L 101.5 251.5" stroke-linecap="square" stroke-miterlimit="10" stroke-width="0.8"/><path fill="none" stroke="#000000" paint-order="fill stroke markers" d=" M 151.5 201.5 L 151.5 251.5" stroke-linecap="square" stroke-miterlimit="10" stroke-width="0.8"/><path fill="none" stroke="#000000" paint-order="fill stroke markers" d=" M 101.5 251.5 L 151.5 251.5" stroke-linecap="square" stroke-miterlimit="10" stroke-width="0.8"/><path fill="none" stroke="#000000" paint-order="fill stroke markers" d=" M 201.5 201.5 L 201.5 251.5" stroke-linecap="square" stroke-miterlimit="10" stroke-width="0.8"/><path fill="none" stroke="#000000" paint-order="fill stroke markers" d=" M 151.5 251.5 L 201.5 251.5" stroke-linecap="square" stroke-miterlimit="10" stroke-width="0.8"/><path fill="none" stroke="#000000" paint-order="fill stroke markers" d=" M 251.5 201.5 L 251.5 251.5" stroke-linecap="square" stroke-miterlimit="10" stroke-width="0.8"/><path fill="none" stroke="#000000" paint-order="fill stroke markers" d=" M 201.5 251.5 L 251.5 251.5" stroke-linecap="square" stroke-miterlimit="10" stroke-width="0.8"/><path fill="none" stroke="#000000" paint-order="fill stroke markers" d=" M 301.5 201.5 L 301.5 251.5" stroke-linecap="square" stroke-miterlimit="10" stroke-width="0.8"/><path fill="none" stroke="#000000" paint-order="fill stroke markers" d=" M 251.5 251.5 L 301.5 251.5" stroke-linecap="square" stroke-miterlimit="10" stroke-width="0.8"/><path fill="none" stroke="#000000" paint-order="fill stroke markers" d=" M 351.5 201.5 L 351.5 251.5" stroke-linecap="round" stroke-miterlimit="10" stroke-width="3"/><path fill="none" stroke="#000000" paint-order="fill stroke markers" d=" M 301.5 251.5 L 351.5 251.5" stroke-linecap="square" stroke-miterlimit="10" stroke-width="0.8"/><path fill="none" stroke="#000000" paint-order="fill stroke markers" d=" M 51.5 251.5 L 51.5 301.5" stroke-linecap="square" stroke-miterlimit="10" stroke-width="0.8"/><path fill="none" stroke="#000000" paint-order="fill stroke markers" d=" M 1.5 301.5 L 51.5 301.5" stroke-linecap="round" stroke-miterlimit="10" stroke-width="3"/><path fill="none" stroke="#000000" paint-order="fill stroke markers" d=" M 1.5 251.5 L 1.5 301.5" stroke-linecap="round" stroke-miterlimit="10" stroke-width="3"/><path fill="none" stroke="#000000" paint-order="fill stroke markers" d=" M 101.5 251.5 L 101.5 301.5" stroke-linecap="square" stroke-miterlimit="10" stroke-width="0.8"/><path fill="none" stroke="#000000" paint-order="fill stroke markers" d=" M 51.5 301.5 L 101.5 301.5" stroke-linecap="square" stroke-miterlimit="10" stroke-width="0.8"/><path fill="none" stroke="#000000" paint-order="fill stroke markers" d=" M 151.5 251.5 L 151.5 301.5" stroke-linecap="square" stroke-miterlimit="10" stroke-width="0.8"/><path fill="none" stroke="#000000" paint-order="fill stroke markers" d=" M 101.5 301.5 L 151.5 301.5" stroke-linecap="square" stroke-miterlimit="10" stroke-width="0.8"/><path fill="none" stroke="#000000" paint-order="fill stroke markers" d=" M 201.5 251.5 L 201.5 301.5" stroke-linecap="square" stroke-miterlimit="10" stroke-width="0.8"/><path fill="none" stroke="#000000" paint-order="fill stroke markers" d=" M 151.5 301.5 L 201.5 301.5" stroke-linecap="square" stroke-miterlimit="10" stroke-width="0.8"/><path fill="none" stroke="#000000" paint-order="fill stroke markers" d=" M 251.5 251.5 L 251.5 301.5" stroke-linecap="square" stroke-miterlimit="10" stroke-width="0.8"/><path fill="none" stroke="#000000" paint-order="fill stroke markers" d=" M 201.5 301.5 L 251.5 301.5" stroke-linecap="square" stroke-miterlimit="10" stroke-width="0.8"/><path fill="none" stroke="#000000" paint-order="fill stroke markers" d=" M 301.5 251.5 L 301.5 301.5" stroke-linecap="square" stroke-miterlimit="10" stroke-width="0.8"/><path fill="none" stroke="#000000" paint-order="fill stroke markers" d=" M 251.5 301.5 L 301.5 301.5" stroke-linecap="square" stroke-miterlimit="10" stroke-width="0.8"/><path fill="none" stroke="#000000" paint-order="fill stroke markers" d=" M 351.5 251.5 L 351.5 301.5" stroke-linecap="round" stroke-miterlimit="10" stroke-width="3"/><path fill="none" stroke="#000000" paint-order="fill stroke markers" d=" M 301.5 301.5 L 351.5 301.5" stroke-linecap="round" stroke-miterlimit="10" stroke-width="3"/><path fill="none" stroke="#000000" paint-order="fill stroke markers" d=" M 101.5 301.5 L 101.5 351.5" stroke-linecap="square" stroke-miterlimit="10" stroke-width="0.8"/><path fill="none" stroke="#000000" paint-order="fill stroke markers" d=" M 51.5 351.5 L 101.5 351.5" stroke-linecap="round" stroke-miterlimit="10" stroke-width="3"/><path fill="none" stroke="#000000" paint-order="fill stroke markers" d=" M 51.5 301.5 L 51.5 351.5" stroke-linecap="round" stroke-miterlimit="10" stroke-width="3"/><path fill="none" stroke="#000000" paint-order="fill stroke markers" d=" M 151.5 301.5 L 151.5 351.5" stroke-linecap="square" stroke-miterlimit="10" stroke-width="0.8"/><path fill="none" stroke="#000000" paint-order="fill stroke markers" d=" M 101.5 351.5 L 151.5 351.5" stroke-linecap="round" stroke-miterlimit="10" stroke-width="3"/><path fill="none" stroke="#000000" paint-order="fill stroke markers" d=" M 201.5 301.5 L 201.5 351.5" stroke-linecap="square" stroke-miterlimit="10" stroke-width="0.8"/><path fill="none" stroke="#000000" paint-order="fill stroke markers" d=" M 151.5 351.5 L 201.5 351.5" stroke-linecap="round" stroke-miterlimit="10" stroke-width="3"/><path fill="none" stroke="#000000" paint-order="fill stroke markers" d=" M 251.5 301.5 L 251.5 351.5" stroke-linecap="square" stroke-miterlimit="10" stroke-width="0.8"/><path fill="none" stroke="#000000" paint-order="fill stroke markers" d=" M 201.5 351.5 L 251.5 351.5" stroke-linecap="round" stroke-miterlimit="10" stroke-width="3"/><path fill="none" stroke="#000000" paint-order="fill stroke markers" d=" M 301.5 301.5 L 301.5 351.5" stroke-linecap="round" stroke-miterlimit="10" stroke-width="3"/><path fill="none" stroke="#000000" paint-order="fill stroke markers" d=" M 251.5 351.5 L 301.5 351.5" stroke-linecap="round" stroke-miterlimit="10" stroke-width="3"/><text fill="none" stroke="rgb(255,255,255)" font-family="Helvetica,Arial" font-size="35px" font-style="normal" font-weight="normal" text-decoration="normal" x="126.5" y="89.3" text-anchor="middle" dominant-baseline="alphabetic" stroke-opacity="0" stroke-linecap="round" stroke-miterlimit="10" stroke-width="3">1</text><text fill="#000000" stroke="none" font-family="Helvetica,Arial" font-size="35px" font-style="normal" font-weight="normal" text-decoration="normal" x="126.5" y="89.3" text-anchor="middle" dominant-baseline="alphabetic">1</text><text fill="none" stroke="rgb(255,255,255)" font-family="Helvetica,Arial" font-size="35px" font-style="normal" font-weight="normal" text-decoration="normal" x="276.5" y="89.3" text-anchor="middle" dominant-baseline="alphabetic" stroke-opacity="0" stroke-linecap="round" stroke-miterlimit="10" stroke-width="3">4</text><text fill="#000000" stroke="none" font-family="Helvetica,Arial" font-size="35px" font-style="normal" font-weight="normal" text-decoration="normal" x="276.5" y="89.3" text-anchor="middle" dominant-baseline="alphabetic">4</text><text fill="none" stroke="rgb(255,255,255)" font-family="Helvetica,Arial" font-size="35px" font-style="normal" font-weight="normal" text-decoration="normal" x="276.5" y="139.3" text-anchor="middle" dominant-baseline="alphabetic" stroke-opacity="0" stroke-linecap="round" stroke-miterlimit="10" stroke-width="3">2</text><text fill="#000000" stroke="none" font-family="Helvetica,Arial" font-size="35px" font-style="normal" font-weight="normal" text-decoration="normal" x="276.5" y="139.3" text-anchor="middle" dominant-baseline="alphabetic">2</text><text fill="none" stroke="rgb(255,255,255)" font-family="Helvetica,Arial" font-size="35px" font-style="normal" font-weight="normal" text-decoration="normal" x="76.5" y="189.3" text-anchor="middle" dominant-baseline="alphabetic" stroke-opacity="0" stroke-linecap="round" stroke-miterlimit="10" stroke-width="3">5</text><text fill="#000000" stroke="none" font-family="Helvetica,Arial" font-size="35px" font-style="normal" font-weight="normal" text-decoration="normal" x="76.5" y="189.3" text-anchor="middle" dominant-baseline="alphabetic">5</text><text fill="none" stroke="rgb(255,255,255)" font-family="Helvetica,Arial" font-size="35px" font-style="normal" font-weight="normal" text-decoration="normal" x="126.5" y="189.3" text-anchor="middle" dominant-baseline="alphabetic" stroke-opacity="0" stroke-linecap="round" stroke-miterlimit="10" stroke-width="3">2</text><text fill="#000000" stroke="none" font-family="Helvetica,Arial" font-size="35px" font-style="normal" font-weight="normal" text-decoration="normal" x="126.5" y="189.3" text-anchor="middle" dominant-baseline="alphabetic">2</text><text fill="none" stroke="rgb(255,255,255)" font-family="Helvetica,Arial" font-size="35px" font-style="normal" font-weight="normal" text-decoration="normal" x="176.5" y="189.3" text-anchor="middle" dominant-baseline="alphabetic" stroke-opacity="0" stroke-linecap="round" stroke-miterlimit="10" stroke-width="3">3</text><text fill="#000000" stroke="none" font-family="Helvetica,Arial" font-size="35px" font-style="normal" font-weight="normal" text-decoration="normal" x="176.5" y="189.3" text-anchor="middle" dominant-baseline="alphabetic">3</text><text fill="none" stroke="rgb(255,255,255)" font-family="Helvetica,Arial" font-size="35px" font-style="normal" font-weight="normal" text-decoration="normal" x="226.5" y="189.3" text-anchor="middle" dominant-baseline="alphabetic" stroke-opacity="0" stroke-linecap="round" stroke-miterlimit="10" stroke-width="3">1</text><text fill="#000000" stroke="none" font-family="Helvetica,Arial" font-size="35px" font-style="normal" font-weight="normal" text-decoration="normal" x="226.5" y="189.3" text-anchor="middle" dominant-baseline="alphabetic">1</text><text fill="none" stroke="rgb(255,255,255)" font-family="Helvetica,Arial" font-size="35px" font-style="normal" font-weight="normal" text-decoration="normal" x="276.5" y="189.3" text-anchor="middle" dominant-baseline="alphabetic" stroke-opacity="0" stroke-linecap="round" stroke-miterlimit="10" stroke-width="3">5</text><text fill="#000000" stroke="none" font-family="Helvetica,Arial" font-size="35px" font-style="normal" font-weight="normal" text-decoration="normal" x="276.5" y="189.3" text-anchor="middle" dominant-baseline="alphabetic">5</text><text fill="none" stroke="rgb(255,255,255)" font-family="Helvetica,Arial" font-size="35px" font-style="normal" font-weight="normal" text-decoration="normal" x="76.5" y="239.3" text-anchor="middle" dominant-baseline="alphabetic" stroke-opacity="0" stroke-linecap="round" stroke-miterlimit="10" stroke-width="3">2</text><text fill="#000000" stroke="none" font-family="Helvetica,Arial" font-size="35px" font-style="normal" font-weight="normal" text-decoration="normal" x="76.5" y="239.3" text-anchor="middle" dominant-baseline="alphabetic">2</text><text fill="none" stroke="rgb(255,255,255)" font-family="Helvetica,Arial" font-size="35px" font-style="normal" font-weight="normal" text-decoration="normal" x="76.5" y="289.3" text-anchor="middle" dominant-baseline="alphabetic" stroke-opacity="0" stroke-linecap="round" stroke-miterlimit="10" stroke-width="3">4</text><text fill="#000000" stroke="none" font-family="Helvetica,Arial" font-size="35px" font-style="normal" font-weight="normal" text-decoration="normal" x="76.5" y="289.3" text-anchor="middle" dominant-baseline="alphabetic">4</text><text fill="none" stroke="rgb(255,255,255)" font-family="Helvetica,Arial" font-size="35px" font-style="normal" font-weight="normal" text-decoration="normal" x="226.5" y="289.3" text-anchor="middle" dominant-baseline="alphabetic" stroke-opacity="0" stroke-linecap="round" stroke-miterlimit="10" stroke-width="3">1</text><text fill="#000000" stroke="none" font-family="Helvetica,Arial" font-size="35px" font-style="normal" font-weight="normal" text-decoration="normal" x="226.5" y="289.3" text-anchor="middle" dominant-baseline="alphabetic">1</text></g></svg>