<svg version="1.1" xmlns="http://www.w3.org/2000/svg" xmlns:xlink="http://www.w3.org/1999/xlink" width="358" height="533.2"><defs/><g><rect fill="rgb(255,255,255)" stroke="none" x="0" y="0" width="358" height="533.2" fill-opacity="0"/><path fill="none" stroke="#000000" paint-order="fill stroke markers" d=" M 36.5 36.5 L 76.5 36.5" stroke-linecap="round" stroke-miterlimit="10" stroke-width="3"/><path fill="none" stroke="#000000" paint-order="fill stroke markers" d=" M 36.5 36.5 L 36.5 76.5" stroke-linecap="round" stroke-miterlimit="10" stroke-width="3"/><path fill="none" stroke="#000000" paint-order="fill stroke markers" d=" M 76.5 36.5 L 116.5 36.5" stroke-linecap="round" stroke-miterlimit="10" stroke-width="3"/><path fill="none" stroke="#000000" paint-order="fill stroke markers" d=" M 116.5 36.5 L 156.5 36.5" stroke-linecap="round" stroke-miterlimit="10" stroke-width="3"/><path fill="none" stroke="#000000" paint-order="fill stroke markers" d=" M 156.5 36.5 L 196.5 36.5" stroke-linecap="round" stroke-miterlimit="10" stroke-width="3"/><path fill="none" stroke="#000000" paint-order="fill stroke markers" d=" M 196.5 36.5 L 236.5 36.5" stroke-linecap="round" stroke-miterlimit="10" stroke-width="3"/><path fill="none" stroke="#000000" paint-order="fill stroke markers" d=" M 236.5 36.5 L 276.5 36.5" stroke-linecap="round" stroke-miterlimit="10" stroke-width="3"/><path fill="none" stroke="#000000" paint-order="fill stroke markers" d=" M 276.5 36.5 L 316.5 36.5" stroke-linecap="round" stroke-miterlimit="10" stroke-width="3"/><path fill="none" stroke="#000000" paint-order="fill stroke markers" d=" M 316.5 36.5 L 356.5 36.5" stroke-linecap="round" stroke-miterlimit="10" stroke-width="3"/><path fill="none" stroke="#000000" paint-order="fill stroke markers" d=" M 356.5 36.5 L 356.5 76.5" stroke-linecap="round" stroke-miterlimit="10" stroke-width="3"/><path fill="none" stroke="#000000" paint-order="fill stroke markers" d=" M 36.5 76.5 L 36.5 116.5" stroke-linecap="round" stroke-miterlimit="10" stroke-width="3"/><path fill="none" stroke="#000000" paint-order="fill stroke markers" d=" M 356.5 76.5 L 356.5 116.5" stroke-linecap="round" stroke-miterlimit="10" stroke-width="3"/><path fill="none" stroke="#000000" paint-order="fill stroke markers" d=" M 36.5 116.5 L 36.5 156.5" stroke-linecap="round" stroke-miterlimit="10" stroke-width="3"/><path fill="none" stroke="#000000" paint-order="fill stroke markers" d=" M 356.5 116.5 L 356.5 156.5" stroke-linecap="round" stroke-miterlimit="10" stroke-width="3"/><path fill="none" stroke="#000000" paint-order="fill stroke markers" d=" M 36.5 156.5 L 36.5 196.5" stroke-linecap="round" stroke-miterlimit="10" stroke-width="3"/><path fill="none" stroke="#000000" paint-order="fill stroke markers" d=" M 356.5 156.5 L 356.5 196.5" stroke-linecap="round" stroke-miterlimit="10" stroke-width="3"/><path fill="none" stroke="#000000" paint-order="fill stroke markers" d=" M 36.5 196.5 L 36.5 236.5" stroke-linecap="round" stroke-miterlimit="10" stroke-width="3"/><path fill="none" stroke="#000000" paint-order="fill stroke markers" d=" M 356.5 196.5 L 356.5 236.5" stroke-linecap="round" stroke-miterlimit="10" stroke-width="3"/><path fill="none" stroke="#000000" paint-order="fill stroke markers" d=" M 36.5 236.5 L 36.5 276.5" stroke-linecap="round" stroke-miterlimit="10" stroke-width="3"/><path fill="none" stroke="#000000" paint-order="fill stroke markers" d=" M 356.5 236.5 L 356.5 276.5" stroke-linecap="round" stroke-miterlimit="10" stroke-width="3"/><path fill="none" stroke="#000000" paint-order="fill stroke markers" d=" M 36.5 276.5 L 36.5 316.5" stroke-linecap="round" stroke-miterlimit="10" stroke-width="3"/><path fill="none" stroke="#000000" paint-order="fill stroke markers" d=" M 356.5 276.5 L 356.5 316.5" stroke-linecap="round" stroke-miterlimit="10" stroke-width="3"/><path fill="none" stroke="#000000" paint-order="fill stroke markers" d=" M 36.5 356.5 L 76.5 356.5" stroke-linecap="round" stroke-miterlimit="10" stroke-width="3"/><path fill="none" stroke="#000000" paint-order="fill stroke markers" d=" M 36.5 316.5 L 36.5 356.5" stroke-linecap="round" stroke-miterlimit="10" stroke-width="3"/><path fill="none" stroke="#000000" paint-order="fill stroke markers" d=" M 76.5 356.5 L 116.5 356.5" stroke-linecap="round" stroke-miterlimit="10" stroke-width="3"/><path fill="none" stroke="#000000" paint-order="fill stroke markers" d=" M 116.5 356.5 L 156.5 356.5" stroke-linecap="round" stroke-miterlimit="10" stroke-width="3"/><path fill="none" stroke="#000000" paint-order="fill stroke markers" d=" M 156.5 356.5 L 196.5 356.5" stroke-linecap="round" stroke-miterlimit="10" stroke-width="3"/><path fill="none" stroke="#000000" paint-order="fill stroke markers" d=" M 196.5 356.5 L 236.5 356.5" stroke-linecap="round" stroke-miterlimit="10" stroke-width="3"/><path fill="none" stroke="#000000" paint-order="fill stroke markers" d=" M 236.5 356.5 L 276.5 356.5" stroke-linecap="round" stroke-miterlimit="10" stroke-width="3"/><path fill="none" stroke="#000000" paint-order="fill stroke markers" d=" M 276.5 356.5 L 316.5 356.5" stroke-linecap="round" stroke-miterlimit="10" stroke-width="3"/><path fill="none" stroke="#000000" paint-order="fill stroke markers" d=" M 356.5 316.5 L 356.5 356.5" stroke-linecap="round" stroke-miterlimit="10" stroke-width="3"/><path fill="none" stroke="#000000" paint-order="fill stroke markers" d=" M 316.5 356.5 L 356.5 356.5" stroke-linecap="round" stroke-miterlimit="10" stroke-width="3"/><path fill="#000000" stroke="#000000" paint-order="fill stroke markers" d=" M 42.1 16.5 A 14.399999999999999 14.399999999999999 0 0 1 70.9 16.5 M 70.9 16.5 L 70.9 30.9 L 42.1 30.900000000000002 L 42.1 16.500000000000004" stroke-miterlimit="10"/><path fill="#000000" stroke="#000000" paint-order="fill stroke markers" d=" M 112.5 16.5 A 16 16 0 1 1 112.49999200000067 16.484000002666658" stroke-miterlimit="10"/><path fill="#000000" stroke="#000000" paint-order="fill stroke markers" d=" M 122.1 16.5 A 14.399999999999999 14.399999999999999 0 0 1 150.9 16.5 M 150.9 16.5 L 150.9 30.9 L 122.1 30.900000000000002 L 122.1 16.500000000000004" stroke-miterlimit="10"/><path fill="#000000" stroke="#000000" paint-order="fill stroke markers" d=" M 176.5 2.1000000000000014 A 14.399999999999999 14.399999999999999 0 0 1 176.5 30.9 M 176.5 30.9 L 162.1 30.900000000000002 L 162.1 2.100000000000005 L 176.5 2.1000000000000014" stroke-miterlimit="10"/><path fill="#000000" stroke="#000000" paint-order="fill stroke markers" d=" M 216.5 2.1000000000000014 A 14.399999999999999 14.399999999999999 0 0 1 216.5 30.9 M 216.5 30.9 L 202.1 30.900000000000002 L 202.1 2.100000000000005 L 216.5 2.1000000000000014" stroke-miterlimit="10"/><path fill="#000000" stroke="#000000" paint-order="fill stroke markers" d=" M 242.1 16.5 A 14.399999999999999 14.399999999999999 0 0 1 270.9 16.5 M 270.9 16.5 L 270.9 30.9 L 242.1 30.900000000000002 L 242.1 16.500000000000004" stroke-miterlimit="10"/><path fill="#000000" stroke="#000000" paint-order="fill stroke markers" d=" M 312.5 16.5 A 16 16 0 1 1 312.49999200000065 16.484000002666658" stroke-miterlimit="10"/><path fill="#000000" stroke="#000000" paint-order="fill stroke markers" d=" M 352.5 16.5 A 16 16 0 1 1 352.49999200000065 16.484000002666658" stroke-miterlimit="10"/><path fill="#000000" stroke="#000000" paint-order="fill stroke markers" d=" M 2.1000000000000014 56.5 A 14.399999999999999 14.399999999999999 0 0 1 30.9 56.5 M 30.9 56.5 L 30.9 70.9 L 2.1000000000000014 70.9 L 2.1000000000000014 56.5" stroke-miterlimit="10"/><text fill="none" stroke="rgb(255,255,255)" font-family="Helvetica,Arial" font-size="32px" font-style="normal" font-weight="normal" text-decoration="normal" x="56.5" y="61.06" text-anchor="middle" dominant-baseline="alphabetic" stroke-opacity="0" stroke-miterlimit="10">～</text><text fill="#000000" stroke="none" font-family="Helvetica,Arial" font-size="32px" font-style="normal" font-weight="normal" text-decoration="normal" x="56.5" y="61.06" text-anchor="middle" dominant-baseline="alphabetic">～</text><text fill="none" stroke="rgb(255,255,255)" font-family="Helvetica,Arial" font-size="32px" font-style="normal" font-weight="normal" text-decoration="normal" x="56.5" y="69.06" text-anchor="middle" dominant-baseline="alphabetic" stroke-opacity="0" stroke-miterlimit="10">～</text><text fill="#000000" stroke="none" font-family="Helvetica,Arial" font-size="32px" font-style="normal" font-weight="normal" text-decoration="normal" x="56.5" y="69.06" text-anchor="middle" dominant-baseline="alphabetic">～</text><text fill="none" stroke="rgb(255,255,255)" font-family="Helvetica,Arial" font-size="32px" font-style="normal" font-weight="normal" text-decoration="normal" x="56.5" y="77.06" text-anchor="middle" dominant-baseline="alphabetic" stroke-opacity="0" stroke-miterlimit="10">～</text><text fill="#000000" stroke="none" font-family="Helvetica,Arial" font-size="32px" font-style="normal" font-weight="normal" text-decoration="normal" x="56.5" y="77.06" text-anchor="middle" dominant-baseline="alphabetic">～</text><text fill="none" stroke="rgb(255,255,255)" font-family="Helvetica,Arial" font-size="32px" font-style="normal" font-weight="normal" text-decoration="normal" x="336.5" y="61.06" text-anchor="middle" dominant-baseline="alphabetic" stroke-opacity="0" stroke-miterlimit="10">～</text><text fill="#000000" stroke="none" font-family="Helvetica,Arial" font-size="32px" font-style="normal" font-weight="normal" text-decoration="normal" x="336.5" y="61.06" text-anchor="middle" dominant-baseline="alphabetic">～</text><text fill="none" stroke="rgb(255,255,255)" font-family="Helvetica,Arial" font-size="32px" font-style="normal" font-weight="normal" text-decoration="normal" x="336.5" y="69.06" text-anchor="middle" dominant-baseline="alphabetic" stroke-opacity="0" stroke-miterlimit="10">～</text><text fill="#000000" stroke="none" font-family="Helvetica,Arial" font-size="32px" font-style="normal" font-weight="normal" text-decoration="normal" x="336.5" y="69.06" text-anchor="middle" dominant-baseline="alphabetic">～</text><text fill="none" stroke="rgb(255,255,255)" font-family="Helvetica,Arial" font-size="32px" font-style="normal" font-weight="normal" text-decoration="normal" x="336.5" y="77.06" text-anchor="middle" dominant-baseline="alphabetic" stroke-opacity="0" stroke-miterlimit="10">～</text><text fill="#000000" stroke="none" font-family="Helvetica,Arial" font-size="32px" font-style="normal" font-weight="normal" text-decoration="normal" x="336.5" y="77.06" text-anchor="middle" dominant-baseline="alphabetic">～</text><path fill="#000000" stroke="#000000" paint-order="fill stroke markers" d=" M 32.5 96.5 A 16 16 0 1 1 32.49999200000067 96.48400000266666" stroke-miterlimit="10"/><path fill="#000000" stroke="#000000" paint-order="fill stroke markers" d=" M 16.5 150.9 A 14.399999999999999 14.399999999999999 0 0 1 16.499999999999996 122.1 M 16.5 122.1 L 30.9 122.1 L 30.9 150.9 L 16.5 150.9" stroke-miterlimit="10"/><path fill="#000000" stroke="#000000" paint-order="fill stroke markers" d=" M 32.5 176.5 A 16 16 0 1 1 32.49999200000067 176.48400000266665" stroke-miterlimit="10"/><path fill="#000000" stroke="#000000" paint-order="fill stroke markers" d=" M 16.5 230.9 A 14.399999999999999 14.399999999999999 0 0 1 16.499999999999996 202.1 M 16.5 202.1 L 30.9 202.1 L 30.9 230.9 L 16.5 230.9" stroke-miterlimit="10"/><path fill="#000000" stroke="#000000" paint-order="fill stroke markers" d=" M 16.5 270.9 A 14.399999999999999 14.399999999999999 0 0 1 16.499999999999996 242.1 M 16.5 242.1 L 30.9 242.1 L 30.9 270.9 L 16.5 270.9" stroke-miterlimit="10"/><path fill="#000000" stroke="#000000" paint-order="fill stroke markers" d=" M 32.5 296.5 A 16 16 0 1 1 32.49999200000067 296.4840000026667" stroke-miterlimit="10"/><path fill="#000000" stroke="#000000" paint-order="fill stroke markers" d=" M 30.9 336.5 A 14.399999999999999 14.399999999999999 0 0 1 2.1000000000000014 336.5 M 2.1000000000000014 336.5 L 2.099999999999998 322.1 L 30.899999999999995 322.1 L 30.9 336.5" stroke-miterlimit="10"/><text fill="none" stroke="rgb(255,255,255)" font-family="Helvetica,Arial" font-size="32px" font-style="normal" font-weight="normal" text-decoration="normal" x="56.5" y="341.06" text-anchor="middle" dominant-baseline="alphabetic" stroke-opacity="0" stroke-miterlimit="10">～</text><text fill="#000000" stroke="none" font-family="Helvetica,Arial" font-size="32px" font-style="normal" font-weight="normal" text-decoration="normal" x="56.5" y="341.06" text-anchor="middle" dominant-baseline="alphabetic">～</text><text fill="none" stroke="rgb(255,255,255)" font-family="Helvetica,Arial" font-size="32px" font-style="normal" font-weight="normal" text-decoration="normal" x="56.5" y="349.06" text-anchor="middle" dominant-baseline="alphabetic" stroke-opacity="0" stroke-miterlimit="10">～</text><text fill="#000000" stroke="none" font-family="Helvetica,Arial" font-size="32px" font-style="normal" font-weight="normal" text-decoration="normal" x="56.5" y="349.06" text-anchor="middle" dominant-baseline="alphabetic">～</text><text fill="none" stroke="rgb(255,255,255)" font-family="Helvetica,Arial" font-size="32px" font-style="normal" font-weight="normal" text-decoration="normal" x="56.5" y="357.06" text-anchor="middle" dominant-baseline="alphabetic" stroke-opacity="0" stroke-miterlimit="10">～</text><text fill="#000000" stroke="none" font-family="Helvetica,Arial" font-size="32px" font-style="normal" font-weight="normal" text-decoration="normal" x="56.5" y="357.06" text-anchor="middle" dominant-baseline="alphabetic">～</text><text fill="none" stroke="rgb(255,255,255)" font-family="Helvetica,Arial" font-size="32px" font-style="normal" font-weight="normal" text-decoration="normal" x="336.5" y="341.06" text-anchor="middle" dominant-baseline="alphabetic" stroke-opacity="0" stroke-miterlimit="10">～</text><text fill="#000000" stroke="none" font-family="Helvetica,Arial" font-size="32px" font-style="normal" font-weight="normal" text-decoration="normal" x="336.5" y="341.06" text-anchor="middle" dominant-baseline="alphabetic">～</text><text fill="none" stroke="rgb(255,255,255)" font-family="Helvetica,Arial" font-size="32px" font-style="normal" font-weight="normal" text-decoration="normal" x="336.5" y="349.06" text-anchor="middle" dominant-baseline="alphabetic" stroke-opacity="0" stroke-miterlimit="10">～</text><text fill="#000000" stroke="none" font-family="Helvetica,Arial" font-size="32px" font-style="normal" font-weight="normal" text-decoration="normal" x="336.5" y="349.06" text-anchor="middle" dominant-baseline="alphabetic">～</text><text fill="none" stroke="rgb(255,255,255)" font-family="Helvetica,Arial" font-size="32px" font-style="normal" font-weight="normal" text-decoration="normal" x="336.5" y="357.06" text-anchor="middle" dominant-baseline="alphabetic" stroke-opacity="0" stroke-miterlimit="10">～</text><text fill="#000000" stroke="none" font-family="Helvetica,Arial" font-size="32px" font-style="normal" font-weight="normal" text-decoration="normal" x="336.5" y="357.06" text-anchor="middle" dominant-baseline="alphabetic">～</text><path fill="#000000" stroke="#000000" paint-order="fill stroke markers" d=" M 116.5 410.9 A 14.399999999999999 14.399999999999999 0 0 1 116.5 382.1 M 116.5 382.1 L 130.9 382.1 L 130.9 410.9 L 116.5 410.9" stroke-miterlimit="10"/><path fill="#000000" stroke="#000000" paint-order="fill stroke markers" d=" M 142.1 382.1 L 170.9 382.1 L 170.9 410.9 L 142.1 410.9 Z" stroke-miterlimit="10"/><path fill="#000000" stroke="#000000" paint-order="fill stroke markers" d=" M 182.1 382.1 L 210.9 382.1 L 210.9 410.9 L 182.1 410.9 Z" stroke-miterlimit="10"/><path fill="#000000" stroke="#000000" paint-order="fill stroke markers" d=" M 236.5 382.1 A 14.399999999999999 14.399999999999999 0 0 1 236.5 410.9 M 236.5 410.9 L 222.1 410.9 L 222.1 382.1 L 236.5 382.1" stroke-miterlimit="10"/><path fill="#000000" stroke="#000000" paint-order="fill stroke markers" d=" M 36.5 490.9 A 14.399999999999999 14.399999999999999 0 0 1 36.5 462.1 M 36.5 462.1 L 50.9 462.1 L 50.9 490.9 L 36.5 490.9" stroke-miterlimit="10"/><path fill="#000000" stroke="#000000" paint-order="fill stroke markers" d=" M 76.5 462.1 A 14.399999999999999 14.399999999999999 0 0 1 76.5 490.9 M 76.5 490.9 L 62.1 490.9 L 62.099999999999994 462.1 L 76.5 462.1" stroke-miterlimit="10"/><path fill="#000000" stroke="#000000" paint-order="fill stroke markers" d=" M 156.5 490.9 A 14.399999999999999 14.399999999999999 0 0 1 156.5 462.1 M 156.5 462.1 L 170.9 462.1 L 170.9 490.9 L 156.5 490.9" stroke-miterlimit="10"/><path fill="#000000" stroke="#000000" paint-order="fill stroke markers" d=" M 196.5 462.1 A 14.399999999999999 14.399999999999999 0 0 1 196.5 490.9 M 196.5 490.9 L 182.1 490.9 L 182.1 462.1 L 196.5 462.1" stroke-miterlimit="10"/><path fill="#000000" stroke="#000000" paint-order="fill stroke markers" d=" M 276.5 490.9 A 14.399999999999999 14.399999999999999 0 0 1 276.5 462.1 M 276.5 462.1 L 290.9 462.1 L 290.9 490.9 L 276.5 490.9" stroke-miterlimit="10"/><path fill="#000000" stroke="#000000" paint-order="fill stroke markers" d=" M 316.5 462.1 A 14.399999999999999 14.399999999999999 0 0 1 316.5 490.9 M 316.5 490.9 L 302.1 490.9 L 302.1 462.1 L 316.5 462.1" stroke-miterlimit="10"/><path fill="#000000" stroke="#000000" paint-order="fill stroke markers" d=" M 56.5 450.9 A 14.399999999999999 14.399999999999999 0 0 1 56.5 422.1 M 56.5 422.1 L 70.9 422.1 L 70.9 450.9 L 56.5 450.9" stroke-miterlimit="10"/><path fill="#000000" stroke="#000000" paint-order="fill stroke markers" d=" M 82.1 422.1 L 110.89999999999999 422.1 L 110.9 450.9 L 82.10000000000001 450.9 Z" stroke-miterlimit="10"/><path fill="#000000" stroke="#000000" paint-order="fill stroke markers" d=" M 136.5 422.1 A 14.399999999999999 14.399999999999999 0 0 1 136.5 450.9 M 136.5 450.9 L 122.1 450.9 L 122.1 422.1 L 136.5 422.1" stroke-miterlimit="10"/><path fill="#000000" stroke="#000000" paint-order="fill stroke markers" d=" M 216.5 450.9 A 14.399999999999999 14.399999999999999 0 0 1 216.5 422.1 M 216.5 422.1 L 230.9 422.1 L 230.9 450.9 L 216.5 450.9" stroke-miterlimit="10"/><path fill="#000000" stroke="#000000" paint-order="fill stroke markers" d=" M 242.1 422.1 L 270.9 422.1 L 270.9 450.9 L 242.1 450.9 Z" stroke-miterlimit="10"/><path fill="#000000" stroke="#000000" paint-order="fill stroke markers" d=" M 296.5 422.1 A 14.399999999999999 14.399999999999999 0 0 1 296.5 450.9 M 296.5 450.9 L 282.1 450.9 L 282.1 422.1 L 296.5 422.1" stroke-miterlimit="10"/><path fill="#000000" stroke="#000000" paint-order="fill stroke markers" d=" M 72.5 516.5 A 16 16 0 1 1 72.49999200000067 516.4840000026667" stroke-miterlimit="10"/><path fill="#000000" stroke="#000000" paint-order="fill stroke markers" d=" M 152.5 516.5 A 16 16 0 1 1 152.49999200000067 516.4840000026667" stroke-miterlimit="10"/><path fill="#000000" stroke="#000000" paint-order="fill stroke markers" d=" M 232.5 516.5 A 16 16 0 1 1 232.49999200000067 516.4840000026667" stroke-miterlimit="10"/><path fill="#000000" stroke="#000000" paint-order="fill stroke markers" d=" M 312.5 516.5 A 16 16 0 1 1 312.49999200000065 516.4840000026667" stroke-miterlimit="10"/><path fill="none" stroke="#000000" paint-order="fill stroke markers" d=" M 36.5 36.5 L 76.5 36.5" stroke-linecap="round" stroke-miterlimit="10" stroke-width="3"/><path fill="none" stroke="#000000" paint-order="fill stroke markers" d=" M 76.5 36.5 L 76.5 76.5" stroke-linecap="square" stroke-miterlimit="10" stroke-width="0.8"/><path fill="none" stroke="#000000" paint-order="fill stroke markers" d=" M 36.5 76.5 L 76.5 76.5" stroke-linecap="square" stroke-miterlimit="10" stroke-width="0.8"/><path fill="none" stroke="#000000" paint-order="fill stroke markers" d=" M 36.5 36.5 L 36.5 76.5" stroke-linecap="round" stroke-miterlimit="10" stroke-width="3"/><path fill="none" stroke="#000000" paint-order="fill stroke markers" d=" M 76.5 36.5 L 116.5 36.5" stroke-linecap="round" stroke-miterlimit="10" stroke-width="3"/><path fill="none" stroke="#000000" paint-order="fill stroke markers" d=" M 116.5 36.5 L 116.5 76.5" stroke-linecap="square" stroke-miterlimit="10" stroke-width="0.8"/><path fill="none" stroke="#000000" paint-order="fill stroke markers" d=" M 76.5 76.5 L 116.5 76.5" stroke-linecap="square" stroke-miterlimit="10" stroke-width="0.8"/><path fill="none" stroke="#000000" paint-order="fill stroke markers" d=" M 116.5 36.5 L 156.5 36.5" stroke-linecap="round" stroke-miterlimit="10" stroke-width="3"/><path fill="none" stroke="#000000" paint-order="fill stroke markers" d=" M 156.5 36.5 L 156.5 76.5" stroke-linecap="square" stroke-miterlimit="10" stroke-width="0.8"/><path fill="none" stroke="#000000" paint-order="fill stroke markers" d=" M 116.5 76.5 L 156.5 76.5" stroke-linecap="square" stroke-miterlimit="10" stroke-width="0.8"/><path fill="none" stroke="#000000" paint-order="fill stroke markers" d=" M 156.5 36.5 L 196.5 36.5" stroke-linecap="round" stroke-miterlimit="10" stroke-width="3"/><path fill="none" stroke="#000000" paint-order="fill stroke markers" d=" M 196.5 36.5 L 196.5 76.5" stroke-linecap="square" stroke-miterlimit="10" stroke-width="0.8"/><path fill="none" stroke="#000000" paint-order="fill stroke markers" d=" M 156.5 76.5 L 196.5 76.5" stroke-linecap="square" stroke-miterlimit="10" stroke-width="0.8"/><path fill="none" stroke="#000000" paint-order="fill stroke markers" d=" M 196.5 36.5 L 236.5 36.5" stroke-linecap="round" stroke-miterlimit="10" stroke-width="3"/><path fill="none" stroke="#000000" paint-order="fill stroke markers" d=" M 236.5 36.5 L 236.5 76.5" stroke-linecap="square" stroke-miterlimit="10" stroke-width="0.8"/><path fill="none" stroke="#000000" paint-order="fill stroke markers" d=" M 196.5 76.5 L 236.5 76.5" stroke-linecap="square" stroke-miterlimit="10" stroke-width="0.8"/><path fill="none" stroke="#000000" paint-order="fill stroke markers" d=" M 236.5 36.5 L 276.5 36.5" stroke-linecap="round" stroke-miterlimit="10" stroke-width="3"/><path fill="none" stroke="#000000" paint-order="fill stroke markers" d=" M 276.5 36.5 L 276.5 76.5" stroke-linecap="square" stroke-miterlimit="10" stroke-width="0.8"/><path fill="none" stroke="#000000" paint-order="fill stroke markers" d=" M 236.5 76.5 L 276.5 76.5" stroke-linecap="square" stroke-miterlimit="10" stroke-width="0.8"/><path fill="none" stroke="#000000" paint-order="fill stroke markers" d=" M 276.5 36.5 L 316.5 36.5" stroke-linecap="round" stroke-miterlimit="10" stroke-width="3"/><path fill="none" stroke="#000000" paint-order="fill stroke markers" d=" M 316.5 36.5 L 316.5 76.5" stroke-linecap="square" stroke-miterlimit="10" stroke-width="0.8"/><path fill="none" stroke="#000000" paint-order="fill stroke markers" d=" M 276.5 76.5 L 316.5 76.5" stroke-linecap="square" stroke-miterlimit="10" stroke-width="0.8"/><path fill="none" stroke="#000000" paint-order="fill stroke markers" d=" M 316.5 36.5 L 356.5 36.5" stroke-linecap="round" stroke-miterlimit="10" stroke-width="3"/><path fill="none" stroke="#000000" paint-order="fill stroke markers" d=" M 356.5 36.5 L 356.5 76.5" stroke-linecap="round" stroke-miterlimit="10" stroke-width="3"/><path fill="none" stroke="#000000" paint-order="fill stroke markers" d=" M 316.5 76.5 L 356.5 76.5" stroke-linecap="square" stroke-miterlimit="10" stroke-width="0.8"/><path fill="none" stroke="#000000" paint-order="fill stroke markers" d=" M 76.5 76.5 L 76.5 116.5" stroke-linecap="square" stroke-miterlimit="10" stroke-width="0.8"/><path fill="none" stroke="#000000" paint-order="fill stroke markers" d=" M 36.5 116.5 L 76.5 116.5" stroke-linecap="square" stroke-miterlimit="10" stroke-width="0.8"/><path fill="none" stroke="#000000" paint-order="fill stroke markers" d=" M 36.5 76.5 L 36.5 116.5" stroke-linecap="round" stroke-miterlimit="10" stroke-width="3"/><path fill="none" stroke="#000000" paint-order="fill stroke markers" d=" M 116.5 76.5 L 116.5 116.5" stroke-linecap="square" stroke-miterlimit="10" stroke-width="0.8"/><path fill="none" stroke="#000000" paint-order="fill stroke markers" d=" M 76.5 116.5 L 116.5 116.5" stroke-linecap="square" stroke-miterlimit="10" stroke-width="0.8"/><path fill="none" stroke="#000000" paint-order="fill stroke markers" d=" M 156.5 76.5 L 156.5 116.5" stroke-linecap="square" stroke-miterlimit="10" stroke-width="0.8"/><path fill="none" stroke="#000000" paint-order="fill stroke markers" d=" M 116.5 116.5 L 156.5 116.5" stroke-linecap="square" stroke-miterlimit="10" stroke-width="0.8"/><path fill="none" stroke="#000000" paint-order="fill stroke markers" d=" M 196.5 76.5 L 196.5 116.5" stroke-linecap="square" stroke-miterlimit="10" stroke-width="0.8"/><path fill="none" stroke="#000000" paint-order="fill stroke markers" d=" M 156.5 116.5 L 196.5 116.5" stroke-linecap="square" stroke-miterlimit="10" stroke-width="0.8"/><path fill="none" stroke="#000000" paint-order="fill stroke markers" d=" M 236.5 76.5 L 236.5 116.5" stroke-linecap="square" stroke-miterlimit="10" stroke-width="0.8"/><path fill="none" stroke="#000000" paint-order="fill stroke markers" d=" M 196.5 116.5 L 236.5 116.5" stroke-linecap="square" stroke-miterlimit="10" stroke-width="0.8"/><path fill="none" stroke="#000000" paint-order="fill stroke markers" d=" M 276.5 76.5 L 276.5 116.5" stroke-linecap="square" stroke-miterlimit="10" stroke-width="0.8"/><path fill="none" stroke="#000000" paint-order="fill stroke markers" d=" M 236.5 116.5 L 276.5 116.5" stroke-linecap="square" stroke-miterlimit="10" stroke-width="0.8"/><path fill="none" stroke="#000000" paint-order="fill stroke markers" d=" M 316.5 76.5 L 316.5 116.5" stroke-linecap="square" stroke-miterlimit="10" stroke-width="0.8"/><path fill="none" stroke="#000000" paint-order="fill stroke markers" d=" M 276.5 116.5 L 316.5 116.5" stroke-linecap="square" stroke-miterlimit="10" stroke-width="0.8"/><path fill="none" stroke="#000000" paint-order="fill stroke markers" d=" M 356.5 76.5 L 356.5 116.5" stroke-linecap="round" stroke-miterlimit="10" stroke-width="3"/><path fill="none" stroke="#000000" paint-order="fill stroke markers" d=" M 316.5 116.5 L 356.5 116.5" stroke-linecap="square" stroke-miterlimit="10" stroke-width="0.8"/><path fill="none" stroke="#000000" paint-order="fill stroke markers" d=" M 76.5 116.5 L 76.5 156.5" stroke-linecap="square" stroke-miterlimit="10" stroke-width="0.8"/><path fill="none" stroke="#000000" paint-order="fill stroke markers" d=" M 36.5 156.5 L 76.5 156.5" stroke-linecap="square" stroke-miterlimit="10" stroke-width="0.8"/><path fill="none" stroke="#000000" paint-order="fill stroke markers" d=" M 36.5 116.5 L 36.5 156.5" stroke-linecap="round" stroke-miterlimit="10" stroke-width="3"/><path fill="none" stroke="#000000" paint-order="fill stroke markers" d=" M 116.5 116.5 L 116.5 156.5" stroke-linecap="square" stroke-miterlimit="10" stroke-width="0.8"/><path fill="none" stroke="#000000" paint-order="fill stroke markers" d=" M 76.5 156.5 L 116.5 156.5" stroke-linecap="square" stroke-miterlimit="10" stroke-width="0.8"/><path fill="none" stroke="#000000" paint-order="fill stroke markers" d=" M 156.5 116.5 L 156.5 156.5" stroke-linecap="square" stroke-miterlimit="10" stroke-width="0.8"/><path fill="none" stroke="#000000" paint-order="fill stroke markers" d=" M 116.5 156.5 L 156.5 156.5" stroke-linecap="square" stroke-miterlimit="10" stroke-width="0.8"/><path fill="none" stroke="#000000" paint-order="fill stroke markers" d=" M 196.5 116.5 L 196.5 156.5" stroke-linecap="square" stroke-miterlimit="10" stroke-width="0.8"/><path fill="none" stroke="#000000" paint-order="fill stroke markers" d=" M 156.5 156.5 L 196.5 156.5" stroke-linecap="square" stroke-miterlimit="10" stroke-width="0.8"/><path fill="none" stroke="#000000" paint-order="fill stroke markers" d=" M 236.5 116.5 L 236.5 156.5" stroke-linecap="square" stroke-miterlimit="10" stroke-width="0.8"/><path fill="none" stroke="#000000" paint-order="fill stroke markers" d=" M 196.5 156.5 L 236.5 156.5" stroke-linecap="square" stroke-miterlimit="10" stroke-width="0.8"/><path fill="none" stroke="#000000" paint-order="fill stroke markers" d=" M 276.5 116.5 L 276.5 156.5" stroke-linecap="square" stroke-miterlimit="10" stroke-width="0.8"/><path fill="none" stroke="#000000" paint-order="fill stroke markers" d=" M 236.5 156.5 L 276.5 156.5" stroke-linecap="square" stroke-miterlimit="10" stroke-width="0.8"/><path fill="none" stroke="#000000" paint-order="fill stroke markers" d=" M 316.5 116.5 L 316.5 156.5" stroke-linecap="square" stroke-miterlimit="10" stroke-width="0.8"/><path fill="none" stroke="#000000" paint-order="fill stroke markers" d=" M 276.5 156.5 L 316.5 156.5" stroke-linecap="square" stroke-miterlimit="10" stroke-width="0.8"/><path fill="none" stroke="#000000" paint-order="fill stroke markers" d=" M 356.5 116.5 L 356.5 156.5" stroke-linecap="round" stroke-miterlimit="10" stroke-width="3"/><path fill="none" stroke="#000000" paint-order="fill stroke markers" d=" M 316.5 156.5 L 356.5 156.5" stroke-linecap="square" stroke-miterlimit="10" stroke-width="0.8"/><path fill="none" stroke="#000000" paint-order="fill stroke markers" d=" M 76.5 156.5 L 76.5 196.5" stroke-linecap="square" stroke-miterlimit="10" stroke-width="0.8"/><path fill="none" stroke="#000000" paint-order="fill stroke markers" d=" M 36.5 196.5 L 76.5 196.5" stroke-linecap="square" stroke-miterlimit="10" stroke-width="0.8"/><path fill="none" stroke="#000000" paint-order="fill stroke markers" d=" M 36.5 156.5 L 36.5 196.5" stroke-linecap="round" stroke-miterlimit="10" stroke-width="3"/><path fill="none" stroke="#000000" paint-order="fill stroke markers" d=" M 116.5 156.5 L 116.5 196.5" stroke-linecap="square" stroke-miterlimit="10" stroke-width="0.8"/><path fill="none" stroke="#000000" paint-order="fill stroke markers" d=" M 76.5 196.5 L 116.5 196.5" stroke-linecap="square" stroke-miterlimit="10" stroke-width="0.8"/><path fill="none" stroke="#000000" paint-order="fill stroke markers" d=" M 156.5 156.5 L 156.5 196.5" stroke-linecap="square" stroke-miterlimit="10" stroke-width="0.8"/><path fill="none" stroke="#000000" paint-order="fill stroke markers" d=" M 116.5 196.5 L 156.5 196.5" stroke-linecap="square" stroke-miterlimit="10" stroke-width="0.8"/><path fill="none" stroke="#000000" paint-order="fill stroke markers" d=" M 196.5 156.5 L 196.5 196.5" stroke-linecap="square" stroke-miterlimit="10" stroke-width="0.8"/><path fill="none" stroke="#000000" paint-order="fill stroke markers" d=" M 156.5 196.5 L 196.5 196.5" stroke-linecap="square" stroke-miterlimit="10" stroke-width="0.8"/><path fill="none" stroke="#000000" paint-order="fill stroke markers" d=" M 236.5 156.5 L 236.5 196.5" stroke-linecap="square" stroke-miterlimit="10" stroke-width="0.8"/><path fill="none" stroke="#000000" paint-order="fill stroke markers" d=" M 196.5 196.5 L 236.5 196.5" stroke-linecap="square" stroke-miterlimit="10" stroke-width="0.8"/><path fill="none" stroke="#000000" paint-order="fill stroke markers" d=" M 276.5 156.5 L 276.5 196.5" stroke-linecap="square" stroke-miterlimit="10" stroke-width="0.8"/><path fill="none" stroke="#000000" paint-order="fill stroke markers" d=" M 236.5 196.5 L 276.5 196.5" stroke-linecap="square" stroke-miterlimit="10" stroke-width="0.8"/><path fill="none" stroke="#000000" paint-order="fill stroke markers" d=" M 316.5 156.5 L 316.5 196.5" stroke-linecap="square" stroke-miterlimit="10" stroke-width="0.8"/><path fill="none" stroke="#000000" paint-order="fill stroke markers" d=" M 276.5 196.5 L 316.5 196.5" stroke-linecap="square" stroke-miterlimit="10" stroke-width="0.8"/><path fill="none" stroke="#000000" paint-order="fill stroke markers" d=" M 356.5 156.5 L 356.5 196.5" stroke-linecap="round" stroke-miterlimit="10" stroke-width="3"/><path fill="none" stroke="#000000" paint-order="fill stroke markers" d=" M 316.5 196.5 L 356.5 196.5" stroke-linecap="square" stroke-miterlimit="10" stroke-width="0.8"/><path fill="none" stroke="#000000" paint-order="fill stroke markers" d=" M 76.5 196.5 L 76.5 236.5" stroke-linecap="square" stroke-miterlimit="10" stroke-width="0.8"/><path fill="none" stroke="#000000" paint-order="fill stroke markers" d=" M 36.5 236.5 L 76.5 236.5" stroke-linecap="square" stroke-miterlimit="10" stroke-width="0.8"/><path fill="none" stroke="#000000" paint-order="fill stroke markers" d=" M 36.5 196.5 L 36.5 236.5" stroke-linecap="round" stroke-miterlimit="10" stroke-width="3"/><path fill="none" stroke="#000000" paint-order="fill stroke markers" d=" M 116.5 196.5 L 116.5 236.5" stroke-linecap="square" stroke-miterlimit="10" stroke-width="0.8"/><path fill="none" stroke="#000000" paint-order="fill stroke markers" d=" M 76.5 236.5 L 116.5 236.5" stroke-linecap="square" stroke-miterlimit="10" stroke-width="0.8"/><path fill="none" stroke="#000000" paint-order="fill stroke markers" d=" M 156.5 196.5 L 156.5 236.5" stroke-linecap="square" stroke-miterlimit="10" stroke-width="0.8"/><path fill="none" stroke="#000000" paint-order="fill stroke markers" d=" M 116.5 236.5 L 156.5 236.5" stroke-linecap="square" stroke-miterlimit="10" stroke-width="0.8"/><path fill="none" stroke="#000000" paint-order="fill stroke markers" d=" M 196.5 196.5 L 196.5 236.5" stroke-linecap="square" stroke-miterlimit="10" stroke-width="0.8"/><path fill="none" stroke="#000000" paint-order="fill stroke markers" d=" M 156.5 236.5 L 196.5 236.5" stroke-linecap="square" stroke-miterlimit="10" stroke-width="0.8"/><path fill="none" stroke="#000000" paint-order="fill stroke markers" d=" M 236.5 196.5 L 236.5 236.5" stroke-linecap="square" stroke-miterlimit="10" stroke-width="0.8"/><path fill="none" stroke="#000000" paint-order="fill stroke markers" d=" M 196.5 236.5 L 236.5 236.5" stroke-linecap="square" stroke-miterlimit="10" stroke-width="0.8"/><path fill="none" stroke="#000000" paint-order="fill stroke markers" d=" M 276.5 196.5 L 276.5 236.5" stroke-linecap="square" stroke-miterlimit="10" stroke-width="0.8"/><path fill="none" stroke="#000000" paint-order="fill stroke markers" d=" M 236.5 236.5 L 276.5 236.5" stroke-linecap="square" stroke-miterlimit="10" stroke-width="0.8"/><path fill="none" stroke="#000000" paint-order="fill stroke markers" d=" M 316.5 196.5 L 316.5 236.5" stroke-linecap="square" stroke-miterlimit="10" stroke-width="0.8"/><path fill="none" stroke="#000000" paint-order="fill stroke markers" d=" M 276.5 236.5 L 316.5 236.5" stroke-linecap="square" stroke-miterlimit="10" stroke-width="0.8"/><path fill="none" stroke="#000000" paint-order="fill stroke markers" d=" M 356.5 196.5 L 356.5 236.5" stroke-linecap="round" stroke-miterlimit="10" stroke-width="3"/><path fill="none" stroke="#000000" paint-order="fill stroke markers" d=" M 316.5 236.5 L 356.5 236.5" stroke-linecap="square" stroke-miterlimit="10" stroke-width="0.8"/><path fill="none" stroke="#000000" paint-order="fill stroke markers" d=" M 76.5 236.5 L 76.5 276.5" stroke-linecap="square" stroke-miterlimit="10" stroke-width="0.8"/><path fill="none" stroke="#000000" paint-order="fill stroke markers" d=" M 36.5 276.5 L 76.5 276.5" stroke-linecap="square" stroke-miterlimit="10" stroke-width="0.8"/><path fill="none" stroke="#000000" paint-order="fill stroke markers" d=" M 36.5 236.5 L 36.5 276.5" stroke-linecap="round" stroke-miterlimit="10" stroke-width="3"/><path fill="none" stroke="#000000" paint-order="fill stroke markers" d=" M 116.5 236.5 L 116.5 276.5" stroke-linecap="square" stroke-miterlimit="10" stroke-width="0.8"/><path fill="none" stroke="#000000" paint-order="fill stroke markers" d=" M 76.5 276.5 L 116.5 276.5" stroke-linecap="square" stroke-miterlimit="10" stroke-width="0.8"/><path fill="none" stroke="#000000" paint-order="fill stroke markers" d=" M 156.5 236.5 L 156.5 276.5" stroke-linecap="square" stroke-miterlimit="10" stroke-width="0.8"/><path fill="none" stroke="#000000" paint-order="fill stroke markers" d=" M 116.5 276.5 L 156.5 276.5" stroke-linecap="square" stroke-miterlimit="10" stroke-width="0.8"/><path fill="none" stroke="#000000" paint-order="fill stroke markers" d=" M 196.5 236.5 L 196.5 276.5" stroke-linecap="square" stroke-miterlimit="10" stroke-width="0.8"/><path fill="none" stroke="#000000" paint-order="fill stroke markers" d=" M 156.5 276.5 L 196.5 276.5" stroke-linecap="square" stroke-miterlimit="10" stroke-width="0.8"/><path fill="none" stroke="#000000" paint-order="fill stroke markers" d=" M 236.5 236.5 L 236.5 276.5" stroke-linecap="square" stroke-miterlimit="10" stroke-width="0.8"/><path fill="none" stroke="#000000" paint-order="fill stroke markers" d=" M 196.5 276.5 L 236.5 276.5" stroke-linecap="square" stroke-miterlimit="10" stroke-width="0.8"/><path fill="none" stroke="#000000" paint-order="fill stroke markers" d=" M 276.5 236.5 L 276.5 276.5" stroke-linecap="square" stroke-miterlimit="10" stroke-width="0.8"/><path fill="none" stroke="#000000" paint-order="fill stroke markers" d=" M 236.5 276.5 L 276.5 276.5" stroke-linecap="square" stroke-miterlimit="10" stroke-width="0.8"/><path fill="none" stroke="#000000" paint-order="fill stroke markers" d=" M 316.5 236.5 L 316.5 276.5" stroke-linecap="square" stroke-miterlimit="10" stroke-width="0.8"/><path fill="none" stroke="#000000" paint-order="fill stroke markers" d=" M 276.5 276.5 L 316.5 276.5" stroke-linecap="square" stroke-miterlimit="10" stroke-width="0.8"/><path fill="none" stroke="#000000" paint-order="fill stroke markers" d=" M 356.5 236.5 L 356.5 276.5" stroke-linecap="round" stroke-miterlimit="10" stroke-width="3"/><path fill="none" stroke="#000000" paint-order="fill stroke markers" d=" M 316.5 276.5 L 356.5 276.5" stroke-linecap="square" stroke-miterlimit="10" stroke-width="0.8"/><path fill="none" stroke="#000000" paint-order="fill stroke markers" d=" M 76.5 276.5 L 76.5 316.5" stroke-linecap="square" stroke-miterlimit="10" stroke-width="0.8"/><path fill="none" stroke="#000000" paint-order="fill stroke markers" d=" M 36.5 316.5 L 76.5 316.5" stroke-linecap="square" stroke-miterlimit="10" stroke-width="0.8"/><path fill="none" stroke="#000000" paint-order="fill stroke markers" d=" M 36.5 276.5 L 36.5 316.5" stroke-linecap="round" stroke-miterlimit="10" stroke-width="3"/><path fill="none" stroke="#000000" paint-order="fill stroke markers" d=" M 116.5 276.5 L 116.5 316.5" stroke-linecap="square" stroke-miterlimit="10" stroke-width="0.8"/><path fill="none" stroke="#000000" paint-order="fill stroke markers" d=" M 76.5 316.5 L 116.5 316.5" stroke-linecap="square" stroke-miterlimit="10" stroke-width="0.8"/><path fill="none" stroke="#000000" paint-order="fill stroke markers" d=" M 156.5 276.5 L 156.5 316.5" stroke-linecap="square" stroke-miterlimit="10" stroke-width="0.8"/><path fill="none" stroke="#000000" paint-order="fill stroke markers" d=" M 116.5 316.5 L 156.5 316.5" stroke-linecap="square" stroke-miterlimit="10" stroke-width="0.8"/><path fill="none" stroke="#000000" paint-order="fill stroke markers" d=" M 196.5 276.5 L 196.5 316.5" stroke-linecap="square" stroke-miterlimit="10" stroke-width="0.8"/><path fill="none" stroke="#000000" paint-order="fill stroke markers" d=" M 156.5 316.5 L 196.5 316.5" stroke-linecap="square" stroke-miterlimit="10" stroke-width="0.8"/><path fill="none" stroke="#000000" paint-order="fill stroke markers" d=" M 236.5 276.5 L 236.5 316.5" stroke-linecap="square" stroke-miterlimit="10" stroke-width="0.8"/><path fill="none" stroke="#000000" paint-order="fill stroke markers" d=" M 196.5 316.5 L 236.5 316.5" stroke-linecap="square" stroke-miterlimit="10" stroke-width="0.8"/><path fill="none" stroke="#000000" paint-order="fill stroke markers" d=" M 276.5 276.5 L 276.5 316.5" stroke-linecap="square" stroke-miterlimit="10" stroke-width="0.8"/><path fill="none" stroke="#000000" paint-order="fill stroke markers" d=" M 236.5 316.5 L 276.5 316.5" stroke-linecap="square" stroke-miterlimit="10" stroke-width="0.8"/><path fill="none" stroke="#000000" paint-order="fill stroke markers" d=" M 316.5 276.5 L 316.5 316.5" stroke-linecap="square" stroke-miterlimit="10" stroke-width="0.8"/><path fill="none" stroke="#000000" paint-order="fill stroke markers" d=" M 276.5 316.5 L 316.5 316.5" stroke-linecap="square" stroke-miterlimit="10" stroke-width="0.8"/><path fill="none" stroke="#000000" paint-order="fill stroke markers" d=" M 356.5 276.5 L 356.5 316.5" stroke-linecap="round" stroke-miterlimit="10" stroke-width="3"/><path fill="none" stroke="#000000" paint-order="fill stroke markers" d=" M 316.5 316.5 L 356.5 316.5" stroke-linecap="square" stroke-miterlimit="10" stroke-width="0.8"/><path fill="none" stroke="#000000" paint-order="fill stroke markers" d=" M 76.5 316.5 L 76.5 356.5" stroke-linecap="square" stroke-miterlimit="10" stroke-width="0.8"/><path fill="none" stroke="#000000" paint-order="fill stroke markers" d=" M 36.5 356.5 L 76.5 356.5" stroke-linecap="round" stroke-miterlimit="10" stroke-width="3"/><path fill="none" stroke="#000000" paint-order="fill stroke markers" d=" M 36.5 316.5 L 36.5 356.5" stroke-linecap="round" stroke-miterlimit="10" stroke-width="3"/><path fill="none" stroke="#000000" paint-order="fill stroke markers" d=" M 116.5 316.5 L 116.5 356.5" stroke-linecap="square" stroke-miterlimit="10" stroke-width="0.8"/><path fill="none" stroke="#000000" paint-order="fill stroke markers" d=" M 76.5 356.5 L 116.5 356.5" stroke-linecap="round" stroke-miterlimit="10" stroke-width="3"/><path fill="none" stroke="#000000" paint-order="fill stroke markers" d=" M 156.5 316.5 L 156.5 356.5" stroke-linecap="square" stroke-miterlimit="10" stroke-width="0.8"/><path fill="none" stroke="#000000" paint-order="fill stroke markers" d=" M 116.5 356.5 L 156.5 356.5" stroke-linecap="round" stroke-miterlimit="10" stroke-width="3"/><path fill="none" stroke="#000000" paint-order="fill stroke markers" d=" M 196.5 316.5 L 196.5 356.5" stroke-linecap="square" stroke-miterlimit="10" stroke-width="0.8"/><path fill="none" stroke="#000000" paint-order="fill stroke markers" d=" M 156.5 356.5 L 196.5 356.5" stroke-linecap="round" stroke-miterlimit="10" stroke-width="3"/><path fill="none" stroke="#000000" paint-order="fill stroke markers" d=" M 236.5 316.5 L 236.5 356.5" stroke-linecap="square" stroke-miterlimit="10" stroke-width="0.8"/><path fill="none" stroke="#000000" paint-order="fill stroke markers" d=" M 196.5 356.5 L 236.5 356.5" stroke-linecap="round" stroke-miterlimit="10" stroke-width="3"/><path fill="none" stroke="#000000" paint-order="fill stroke markers" d=" M 276.5 316.5 L 276.5 356.5" stroke-linecap="square" stroke-miterlimit="10" stroke-width="0.8"/><path fill="none" stroke="#000000" paint-order="fill stroke markers" d=" M 236.5 356.5 L 276.5 356.5" stroke-linecap="round" stroke-miterlimit="10" stroke-width="3"/><path fill="none" stroke="#000000" paint-order="fill stroke markers" d=" M 316.5 316.5 L 316.5 356.5" stroke-linecap="square" stroke-miterlimit="10" stroke-width="0.8"/><path fill="none" stroke="#000000" paint-order="fill stroke markers" d=" M 276.5 356.5 L 316.5 356.5" stroke-linecap="round" stroke-miterlimit="10" stroke-width="3"/><path fill="none" stroke="#000000" paint-order="fill stroke markers" d=" M 356.5 316.5 L 356.5 356.5" stroke-linecap="round" stroke-miterlimit="10" stroke-width="3"/><path fill="none" stroke="#000000" paint-order="fill stroke markers" d=" M 316.5 356.5 L 356.5 356.5" stroke-linecap="round" stroke-miterlimit="10" stroke-width="3"/></g></svg>