<svg version="1.1" xmlns="http://www.w3.org/2000/svg" xmlns:xlink="http://www.w3.org/1999/xlink" width="552.4000000000001" height="252"><defs/><g><rect fill="rgb(255,255,255)" stroke="none" x="0" y="0" width="552.4000000000001" height="252" fill-opacity="0"/><path fill="#000000" stroke="#000000" paint-order="fill stroke markers" d=" M 208.2 59 L 243.2 59 L 243.2 94 L 208.2 94 Z" stroke-miterlimit="10"/><path fill="#000000" stroke="#000000" paint-order="fill stroke markers" d=" M 508.20000000000005 59 L 543.2 59 L 543.2 94 L 508.20000000000005 94 Z" stroke-miterlimit="10"/><path fill="#000000" stroke="#000000" paint-order="fill stroke markers" d=" M 108.19999999999999 109 L 143.2 109 L 143.2 144 L 108.19999999999999 144 Z" stroke-miterlimit="10"/><path fill="#000000" stroke="#000000" paint-order="fill stroke markers" d=" M 408.2 109 L 443.2 109 L 443.2 144 L 408.2 144 Z" stroke-miterlimit="10"/><path fill="#000000" stroke="#000000" paint-order="fill stroke markers" d=" M 58.19999999999999 159 L 93.19999999999999 159 L 93.19999999999999 194 L 58.19999999999999 194 Z" stroke-miterlimit="10"/><path fill="#000000" stroke="#000000" paint-order="fill stroke markers" d=" M 108.19999999999999 159 L 143.2 159 L 143.2 194 L 108.19999999999999 194 Z" stroke-miterlimit="10"/><path fill="#000000" stroke="#000000" paint-order="fill stroke markers" d=" M 358.2 159 L 393.2 159 L 393.2 194 L 358.2 194 Z" stroke-miterlimit="10"/><path fill="#000000" stroke="#000000" paint-order="fill stroke markers" d=" M 408.2 159 L 443.2 159 L 443.2 194 L 408.2 194 Z" stroke-miterlimit="10"/><path fill="#000000" stroke="#000000" paint-order="fill stroke markers" d=" M 8.199999999999989 209 L 43.19999999999999 209 L 43.19999999999999 244 L 8.199999999999992 244 Z" stroke-miterlimit="10"/><path fill="#000000" stroke="#000000" paint-order="fill stroke markers" d=" M 308.2 209 L 343.2 209 L 343.2 244 L 308.2 244 Z" stroke-miterlimit="10"/><path fill="#000000" stroke="#000000" paint-order="fill stroke markers" d=" M 325.7 51.5 L 325.7 51.5 L 325.7 51.5 L 335.7 51.5 L 325.7 39 L 315.7 51.5 L 325.7 51.5 L 325.7 51.5 L 325.7 51.5" stroke-miterlimit="10"/><path fill="#000000" stroke="#000000" paint-order="fill stroke markers" d=" M 400.7 26.499999999999996 L 400.7 26.499999999999996 L 400.7 26.499999999999996 L 400.7 16.499999999999996 L 388.2 26.5 L 400.7 36.5 L 400.7 26.499999999999996 L 400.7 26.499999999999996 L 400.7 26.499999999999996" stroke-miterlimit="10"/><path fill="#000000" stroke="#000000" paint-order="fill stroke markers" d=" M 425.7 1.5 L 425.7 1.5 L 425.7 1.5 L 415.7 1.5 L 425.7 14 L 435.7 1.5 L 425.7 1.5 L 425.7 1.5 L 425.7 1.5" stroke-miterlimit="10"/><path fill="#000000" stroke="#000000" paint-order="fill stroke markers" d=" M 475.7 1.5 L 475.7 1.5 L 475.7 1.5 L 465.7 1.5 L 475.7 14 L 485.7 1.5 L 475.7 1.5 L 475.7 1.5 L 475.7 1.5" stroke-miterlimit="10"/><path fill="#000000" stroke="#000000" paint-order="fill stroke markers" d=" M 500.70000000000005 26.5 L 500.70000000000005 26.5 L 500.70000000000005 26.5 L 500.70000000000005 36.5 L 513.2 26.5 L 500.70000000000005 16.5 L 500.70000000000005 26.5 L 500.70000000000005 26.5 L 500.70000000000005 26.5" stroke-miterlimit="10"/><path fill="#000000" stroke="#000000" paint-order="fill stroke markers" d=" M 300.7 76.5 L 300.7 76.5 L 300.7 76.5 L 300.7 86.5 L 313.2 76.5 L 300.7 66.5 L 300.7 76.5 L 300.7 76.5 L 300.7 76.5" stroke-miterlimit="10"/><path fill="#000000" stroke="#000000" paint-order="fill stroke markers" d=" M 375.7 51.5 L 375.7 51.5 L 375.7 51.5 L 365.7 51.5 L 375.7 64 L 385.7 51.5 L 375.7 51.5 L 375.7 51.5 L 375.7 51.5" stroke-miterlimit="10"/><path fill="#000000" stroke="#000000" paint-order="fill stroke markers" d=" M 450.7 76.5 L 450.7 76.5 L 450.7 76.5 L 450.7 66.5 L 438.2 76.5 L 450.7 86.5 L 450.7 76.5 L 450.7 76.5 L 450.7 76.5" stroke-miterlimit="10"/><path fill="#000000" stroke="#000000" paint-order="fill stroke markers" d=" M 475.7 51.5 L 475.7 51.5 L 475.7 51.5 L 465.7 51.5 L 475.7 64 L 485.7 51.5 L 475.7 51.5 L 475.7 51.5 L 475.7 51.5" stroke-miterlimit="10"/><path fill="#000000" stroke="#000000" paint-order="fill stroke markers" d=" M 325.7 101.5 L 325.7 101.5 L 325.7 101.5 L 315.7 101.5 L 325.7 114 L 335.7 101.5 L 325.7 101.5 L 325.7 101.5 L 325.7 101.5" stroke-miterlimit="10"/><path fill="#000000" stroke="#000000" paint-order="fill stroke markers" d=" M 350.7 126.5 L 350.7 126.5 L 350.7 126.5 L 350.7 136.5 L 363.2 126.5 L 350.7 116.5 L 350.7 126.5 L 350.7 126.5 L 350.7 126.5" stroke-miterlimit="10"/><path fill="#000000" stroke="#000000" paint-order="fill stroke markers" d=" M 450.7 126.5 L 450.7 126.5 L 450.7 126.5 L 450.7 136.5 L 463.2 126.5 L 450.7 116.5 L 450.7 126.5 L 450.7 126.5 L 450.7 126.5" stroke-miterlimit="10"/><path fill="#000000" stroke="#000000" paint-order="fill stroke markers" d=" M 525.7 151.5 L 525.7 151.5 L 525.7 151.5 L 535.7 151.5 L 525.7 139 L 515.7 151.5 L 525.7 151.5 L 525.7 151.5 L 525.7 151.5" stroke-miterlimit="10"/><path fill="#000000" stroke="#000000" paint-order="fill stroke markers" d=" M 350.7 176.5 L 350.7 176.5 L 350.7 176.5 L 350.7 166.5 L 338.2 176.5 L 350.7 186.5 L 350.7 176.5 L 350.7 176.5 L 350.7 176.5" stroke-miterlimit="10"/><path fill="#000000" stroke="#000000" paint-order="fill stroke markers" d=" M 475.7 151.5 L 475.7 151.5 L 475.7 151.5 L 465.7 151.5 L 475.7 164 L 485.7 151.5 L 475.7 151.5 L 475.7 151.5 L 475.7 151.5" stroke-miterlimit="10"/><path fill="#000000" stroke="#000000" paint-order="fill stroke markers" d=" M 550.7 176.5 L 550.7 176.5 L 550.7 176.5 L 550.7 166.5 L 538.2 176.5 L 550.7 186.5 L 550.7 176.5 L 550.7 176.5 L 550.7 176.5" stroke-miterlimit="10"/><path fill="#000000" stroke="#000000" paint-order="fill stroke markers" d=" M 375.7 201.5 L 375.7 201.5 L 375.7 201.5 L 365.7 201.5 L 375.7 214 L 385.7 201.5 L 375.7 201.5 L 375.7 201.5 L 375.7 201.5" stroke-miterlimit="10"/><path fill="#000000" stroke="#000000" paint-order="fill stroke markers" d=" M 425.7 201.5 L 425.7 201.5 L 425.7 201.5 L 415.7 201.5 L 425.7 214 L 435.7 201.5 L 425.7 201.5 L 425.7 201.5 L 425.7 201.5" stroke-miterlimit="10"/><path fill="#000000" stroke="#000000" paint-order="fill stroke markers" d=" M 475.7 201.5 L 475.7 201.5 L 475.7 201.5 L 465.7 201.5 L 475.7 214 L 485.7 201.5 L 475.7 201.5 L 475.7 201.5 L 475.7 201.5" stroke-miterlimit="10"/><path fill="#000000" stroke="#000000" paint-order="fill stroke markers" d=" M 525.7 201.5 L 525.7 201.5 L 525.7 201.5 L 515.7 201.5 L 525.7 214 L 535.7 201.5 L 525.7 201.5 L 525.7 201.5 L 525.7 201.5" stroke-miterlimit="10"/><path fill="none" stroke="#000000" paint-order="fill stroke markers" d=" M 0.6999999999999886 1.5 L 50.69999999999999 1.5" stroke-linecap="square" stroke-miterlimit="10" stroke-dasharray="3,7.000000000000001" stroke-dashoffset="1.5"/><path fill="none" stroke="#000000" paint-order="fill stroke markers" d=" M 50.69999999999999 1.5 L 50.69999999999999 51.5" stroke-linecap="square" stroke-miterlimit="10" stroke-dasharray="3,7.000000000000001" stroke-dashoffset="1.5"/><path fill="none" stroke="#000000" paint-order="fill stroke markers" d=" M 0.6999999999999886 51.5 L 50.69999999999999 51.5" stroke-linecap="square" stroke-miterlimit="10" stroke-dasharray="3,7.000000000000001" stroke-dashoffset="1.5"/><path fill="none" stroke="#000000" paint-order="fill stroke markers" d=" M 0.6999999999999886 1.5 L 0.6999999999999886 51.5" stroke-linecap="square" stroke-miterlimit="10" stroke-dasharray="3,7.000000000000001" stroke-dashoffset="1.5"/><path fill="none" stroke="#000000" paint-order="fill stroke markers" d=" M 50.69999999999999 1.5 L 100.69999999999999 1.5" stroke-linecap="square" stroke-miterlimit="10" stroke-dasharray="3,7.000000000000001" stroke-dashoffset="1.5"/><path fill="none" stroke="#000000" paint-order="fill stroke markers" d=" M 100.69999999999999 1.5 L 100.69999999999999 51.5" stroke-linecap="square" stroke-miterlimit="10" stroke-dasharray="3,7.000000000000001" stroke-dashoffset="1.5"/><path fill="none" stroke="#000000" paint-order="fill stroke markers" d=" M 50.69999999999999 51.5 L 100.69999999999999 51.5" stroke-linecap="square" stroke-miterlimit="10" stroke-dasharray="3,7.000000000000001" stroke-dashoffset="1.5"/><path fill="none" stroke="#000000" paint-order="fill stroke markers" d=" M 100.69999999999999 1.5 L 150.7 1.5" stroke-linecap="square" stroke-miterlimit="10" stroke-dasharray="3,7.000000000000001" stroke-dashoffset="1.5"/><path fill="none" stroke="#000000" paint-order="fill stroke markers" d=" M 150.7 1.5 L 150.7 51.5" stroke-linecap="square" stroke-miterlimit="10" stroke-dasharray="3,7.000000000000001" stroke-dashoffset="1.5"/><path fill="none" stroke="#000000" paint-order="fill stroke markers" d=" M 100.69999999999999 51.5 L 150.7 51.5" stroke-linecap="square" stroke-miterlimit="10" stroke-dasharray="3,7.000000000000001" stroke-dashoffset="1.5"/><path fill="none" stroke="#000000" paint-order="fill stroke markers" d=" M 150.7 1.5 L 200.7 1.5" stroke-linecap="square" stroke-miterlimit="10" stroke-dasharray="3,7.000000000000001" stroke-dashoffset="1.5"/><path fill="none" stroke="#000000" paint-order="fill stroke markers" d=" M 200.7 1.5 L 200.7 51.5" stroke-linecap="square" stroke-miterlimit="10" stroke-dasharray="3,7.000000000000001" stroke-dashoffset="1.5"/><path fill="none" stroke="#000000" paint-order="fill stroke markers" d=" M 150.7 51.5 L 200.7 51.5" stroke-linecap="square" stroke-miterlimit="10" stroke-dasharray="3,7.000000000000001" stroke-dashoffset="1.5"/><path fill="none" stroke="#000000" paint-order="fill stroke markers" d=" M 200.7 1.5 L 250.7 1.5" stroke-linecap="square" stroke-miterlimit="10" stroke-dasharray="3,7.000000000000001" stroke-dashoffset="1.5"/><path fill="none" stroke="#000000" paint-order="fill stroke markers" d=" M 250.7 1.5 L 250.7 51.5" stroke-linecap="square" stroke-miterlimit="10" stroke-dasharray="3,7.000000000000001" stroke-dashoffset="1.5"/><path fill="none" stroke="#000000" paint-order="fill stroke markers" d=" M 200.7 51.5 L 250.7 51.5" stroke-linecap="square" stroke-miterlimit="10" stroke-dasharray="3,7.000000000000001" stroke-dashoffset="1.5"/><path fill="none" stroke="#000000" paint-order="fill stroke markers" d=" M 300.7 1.5 L 350.7 1.5" stroke-linecap="square" stroke-miterlimit="10" stroke-dasharray="3,7.000000000000001" stroke-dashoffset="1.5"/><path fill="none" stroke="#000000" paint-order="fill stroke markers" d=" M 350.7 1.5 L 350.7 51.5" stroke-linecap="square" stroke-miterlimit="10" stroke-dasharray="3,7.000000000000001" stroke-dashoffset="1.5"/><path fill="none" stroke="#000000" paint-order="fill stroke markers" d=" M 300.7 51.5 L 350.7 51.5" stroke-linecap="square" stroke-miterlimit="10" stroke-dasharray="3,7.000000000000001" stroke-dashoffset="1.5"/><path fill="none" stroke="#000000" paint-order="fill stroke markers" d=" M 300.7 1.5 L 300.7 51.5" stroke-linecap="square" stroke-miterlimit="10" stroke-dasharray="3,7.000000000000001" stroke-dashoffset="1.5"/><path fill="none" stroke="#000000" paint-order="fill stroke markers" d=" M 350.7 1.5 L 400.7 1.5" stroke-linecap="square" stroke-miterlimit="10" stroke-dasharray="3,7.000000000000001" stroke-dashoffset="1.5"/><path fill="none" stroke="#000000" paint-order="fill stroke markers" d=" M 400.7 1.5 L 400.7 51.5" stroke-linecap="square" stroke-miterlimit="10" stroke-dasharray="3,7.000000000000001" stroke-dashoffset="1.5"/><path fill="none" stroke="#000000" paint-order="fill stroke markers" d=" M 350.7 51.5 L 400.7 51.5" stroke-linecap="square" stroke-miterlimit="10" stroke-dasharray="3,7.000000000000001" stroke-dashoffset="1.5"/><path fill="none" stroke="#000000" paint-order="fill stroke markers" d=" M 400.7 1.5 L 450.7 1.5" stroke-linecap="square" stroke-miterlimit="10" stroke-dasharray="3,7.000000000000001" stroke-dashoffset="1.5"/><path fill="none" stroke="#000000" paint-order="fill stroke markers" d=" M 450.7 1.5 L 450.7 51.5" stroke-linecap="square" stroke-miterlimit="10" stroke-dasharray="3,7.000000000000001" stroke-dashoffset="1.5"/><path fill="none" stroke="#000000" paint-order="fill stroke markers" d=" M 400.7 51.5 L 450.7 51.5" stroke-linecap="square" stroke-miterlimit="10" stroke-dasharray="3,7.000000000000001" stroke-dashoffset="1.5"/><path fill="none" stroke="#000000" paint-order="fill stroke markers" d=" M 450.7 1.5 L 500.7 1.5" stroke-linecap="square" stroke-miterlimit="10" stroke-dasharray="3,7.000000000000001" stroke-dashoffset="1.5"/><path fill="none" stroke="#000000" paint-order="fill stroke markers" d=" M 500.7 1.5 L 500.7 51.5" stroke-linecap="square" stroke-miterlimit="10" stroke-dasharray="3,7.000000000000001" stroke-dashoffset="1.5"/><path fill="none" stroke="#000000" paint-order="fill stroke markers" d=" M 450.7 51.5 L 500.7 51.5" stroke-linecap="square" stroke-miterlimit="10" stroke-dasharray="3,7.000000000000001" stroke-dashoffset="1.5"/><path fill="none" stroke="#000000" paint-order="fill stroke markers" d=" M 500.7 1.5 L 550.7 1.5" stroke-linecap="square" stroke-miterlimit="10" stroke-dasharray="3,7.000000000000001" stroke-dashoffset="1.5"/><path fill="none" stroke="#000000" paint-order="fill stroke markers" d=" M 550.7 1.5 L 550.7 51.5" stroke-linecap="square" stroke-miterlimit="10" stroke-dasharray="3,7.000000000000001" stroke-dashoffset="1.5"/><path fill="none" stroke="#000000" paint-order="fill stroke markers" d=" M 500.7 51.5 L 550.7 51.5" stroke-linecap="square" stroke-miterlimit="10" stroke-dasharray="3,7.000000000000001" stroke-dashoffset="1.5"/><path fill="none" stroke="#000000" paint-order="fill stroke markers" d=" M 50.69999999999999 51.5 L 50.69999999999999 101.5" stroke-linecap="square" stroke-miterlimit="10" stroke-dasharray="3,7.000000000000001" stroke-dashoffset="1.5"/><path fill="none" stroke="#000000" paint-order="fill stroke markers" d=" M 0.6999999999999886 101.5 L 50.69999999999999 101.5" stroke-linecap="square" stroke-miterlimit="10" stroke-dasharray="3,7.000000000000001" stroke-dashoffset="1.5"/><path fill="none" stroke="#000000" paint-order="fill stroke markers" d=" M 0.6999999999999886 51.5 L 0.6999999999999886 101.5" stroke-linecap="square" stroke-miterlimit="10" stroke-dasharray="3,7.000000000000001" stroke-dashoffset="1.5"/><path fill="none" stroke="#000000" paint-order="fill stroke markers" d=" M 100.69999999999999 51.5 L 100.69999999999999 101.5" stroke-linecap="square" stroke-miterlimit="10" stroke-dasharray="3,7.000000000000001" stroke-dashoffset="1.5"/><path fill="none" stroke="#000000" paint-order="fill stroke markers" d=" M 50.69999999999999 101.5 L 100.69999999999999 101.5" stroke-linecap="square" stroke-miterlimit="10" stroke-dasharray="3,7.000000000000001" stroke-dashoffset="1.5"/><path fill="none" stroke="#000000" paint-order="fill stroke markers" d=" M 150.7 51.5 L 150.7 101.5" stroke-linecap="square" stroke-miterlimit="10" stroke-dasharray="3,7.000000000000001" stroke-dashoffset="1.5"/><path fill="none" stroke="#000000" paint-order="fill stroke markers" d=" M 100.69999999999999 101.5 L 150.7 101.5" stroke-linecap="square" stroke-miterlimit="10" stroke-dasharray="3,7.000000000000001" stroke-dashoffset="1.5"/><path fill="none" stroke="#000000" paint-order="fill stroke markers" d=" M 200.7 51.5 L 200.7 101.5" stroke-linecap="square" stroke-miterlimit="10" stroke-dasharray="3,7.000000000000001" stroke-dashoffset="1.5"/><path fill="none" stroke="#000000" paint-order="fill stroke markers" d=" M 150.7 101.5 L 200.7 101.5" stroke-linecap="square" stroke-miterlimit="10" stroke-dasharray="3,7.000000000000001" stroke-dashoffset="1.5"/><path fill="none" stroke="#000000" paint-order="fill stroke markers" d=" M 250.7 51.5 L 250.7 101.5" stroke-linecap="square" stroke-miterlimit="10" stroke-dasharray="3,7.000000000000001" stroke-dashoffset="1.5"/><path fill="none" stroke="#000000" paint-order="fill stroke markers" d=" M 200.7 101.5 L 250.7 101.5" stroke-linecap="square" stroke-miterlimit="10" stroke-dasharray="3,7.000000000000001" stroke-dashoffset="1.5"/><path fill="none" stroke="#000000" paint-order="fill stroke markers" d=" M 350.7 51.5 L 350.7 101.5" stroke-linecap="square" stroke-miterlimit="10" stroke-dasharray="3,7.000000000000001" stroke-dashoffset="1.5"/><path fill="none" stroke="#000000" paint-order="fill stroke markers" d=" M 300.7 101.5 L 350.7 101.5" stroke-linecap="square" stroke-miterlimit="10" stroke-dasharray="3,7.000000000000001" stroke-dashoffset="1.5"/><path fill="none" stroke="#000000" paint-order="fill stroke markers" d=" M 300.7 51.5 L 300.7 101.5" stroke-linecap="square" stroke-miterlimit="10" stroke-dasharray="3,7.000000000000001" stroke-dashoffset="1.5"/><path fill="none" stroke="#000000" paint-order="fill stroke markers" d=" M 400.7 51.5 L 400.7 101.5" stroke-linecap="square" stroke-miterlimit="10" stroke-dasharray="3,7.000000000000001" stroke-dashoffset="1.5"/><path fill="none" stroke="#000000" paint-order="fill stroke markers" d=" M 350.7 101.5 L 400.7 101.5" stroke-linecap="square" stroke-miterlimit="10" stroke-dasharray="3,7.000000000000001" stroke-dashoffset="1.5"/><path fill="none" stroke="#000000" paint-order="fill stroke markers" d=" M 450.7 51.5 L 450.7 101.5" stroke-linecap="square" stroke-miterlimit="10" stroke-dasharray="3,7.000000000000001" stroke-dashoffset="1.5"/><path fill="none" stroke="#000000" paint-order="fill stroke markers" d=" M 400.7 101.5 L 450.7 101.5" stroke-linecap="square" stroke-miterlimit="10" stroke-dasharray="3,7.000000000000001" stroke-dashoffset="1.5"/><path fill="none" stroke="#000000" paint-order="fill stroke markers" d=" M 500.7 51.5 L 500.7 101.5" stroke-linecap="square" stroke-miterlimit="10" stroke-dasharray="3,7.000000000000001" stroke-dashoffset="1.5"/><path fill="none" stroke="#000000" paint-order="fill stroke markers" d=" M 450.7 101.5 L 500.7 101.5" stroke-linecap="square" stroke-miterlimit="10" stroke-dasharray="3,7.000000000000001" stroke-dashoffset="1.5"/><path fill="none" stroke="#000000" paint-order="fill stroke markers" d=" M 550.7 51.5 L 550.7 101.5" stroke-linecap="square" stroke-miterlimit="10" stroke-dasharray="3,7.000000000000001" stroke-dashoffset="1.5"/><path fill="none" stroke="#000000" paint-order="fill stroke markers" d=" M 500.7 101.5 L 550.7 101.5" stroke-linecap="square" stroke-miterlimit="10" stroke-dasharray="3,7.000000000000001" stroke-dashoffset="1.5"/><path fill="none" stroke="#000000" paint-order="fill stroke markers" d=" M 50.69999999999999 101.5 L 50.69999999999999 151.5" stroke-linecap="square" stroke-miterlimit="10" stroke-dasharray="3,7.000000000000001" stroke-dashoffset="1.5"/><path fill="none" stroke="#000000" paint-order="fill stroke markers" d=" M 0.6999999999999886 151.5 L 50.69999999999999 151.5" stroke-linecap="square" stroke-miterlimit="10" stroke-dasharray="3,7.000000000000001" stroke-dashoffset="1.5"/><path fill="none" stroke="#000000" paint-order="fill stroke markers" d=" M 0.6999999999999886 101.5 L 0.6999999999999886 151.5" stroke-linecap="square" stroke-miterlimit="10" stroke-dasharray="3,7.000000000000001" stroke-dashoffset="1.5"/><path fill="none" stroke="#000000" paint-order="fill stroke markers" d=" M 100.69999999999999 101.5 L 100.69999999999999 151.5" stroke-linecap="square" stroke-miterlimit="10" stroke-dasharray="3,7.000000000000001" stroke-dashoffset="1.5"/><path fill="none" stroke="#000000" paint-order="fill stroke markers" d=" M 50.69999999999999 151.5 L 100.69999999999999 151.5" stroke-linecap="square" stroke-miterlimit="10" stroke-dasharray="3,7.000000000000001" stroke-dashoffset="1.5"/><path fill="none" stroke="#000000" paint-order="fill stroke markers" d=" M 150.7 101.5 L 150.7 151.5" stroke-linecap="square" stroke-miterlimit="10" stroke-dasharray="3,7.000000000000001" stroke-dashoffset="1.5"/><path fill="none" stroke="#000000" paint-order="fill stroke markers" d=" M 100.69999999999999 151.5 L 150.7 151.5" stroke-linecap="square" stroke-miterlimit="10" stroke-dasharray="3,7.000000000000001" stroke-dashoffset="1.5"/><path fill="none" stroke="#000000" paint-order="fill stroke markers" d=" M 200.7 101.5 L 200.7 151.5" stroke-linecap="square" stroke-miterlimit="10" stroke-dasharray="3,7.000000000000001" stroke-dashoffset="1.5"/><path fill="none" stroke="#000000" paint-order="fill stroke markers" d=" M 150.7 151.5 L 200.7 151.5" stroke-linecap="square" stroke-miterlimit="10" stroke-dasharray="3,7.000000000000001" stroke-dashoffset="1.5"/><path fill="none" stroke="#000000" paint-order="fill stroke markers" d=" M 250.7 101.5 L 250.7 151.5" stroke-linecap="square" stroke-miterlimit="10" stroke-dasharray="3,7.000000000000001" stroke-dashoffset="1.5"/><path fill="none" stroke="#000000" paint-order="fill stroke markers" d=" M 200.7 151.5 L 250.7 151.5" stroke-linecap="square" stroke-miterlimit="10" stroke-dasharray="3,7.000000000000001" stroke-dashoffset="1.5"/><path fill="none" stroke="#000000" paint-order="fill stroke markers" d=" M 350.7 101.5 L 350.7 151.5" stroke-linecap="square" stroke-miterlimit="10" stroke-dasharray="3,7.000000000000001" stroke-dashoffset="1.5"/><path fill="none" stroke="#000000" paint-order="fill stroke markers" d=" M 300.7 151.5 L 350.7 151.5" stroke-linecap="square" stroke-miterlimit="10" stroke-dasharray="3,7.000000000000001" stroke-dashoffset="1.5"/><path fill="none" stroke="#000000" paint-order="fill stroke markers" d=" M 300.7 101.5 L 300.7 151.5" stroke-linecap="square" stroke-miterlimit="10" stroke-dasharray="3,7.000000000000001" stroke-dashoffset="1.5"/><path fill="none" stroke="#000000" paint-order="fill stroke markers" d=" M 400.7 101.5 L 400.7 151.5" stroke-linecap="square" stroke-miterlimit="10" stroke-dasharray="3,7.000000000000001" stroke-dashoffset="1.5"/><path fill="none" stroke="#000000" paint-order="fill stroke markers" d=" M 350.7 151.5 L 400.7 151.5" stroke-linecap="square" stroke-miterlimit="10" stroke-dasharray="3,7.000000000000001" stroke-dashoffset="1.5"/><path fill="none" stroke="#000000" paint-order="fill stroke markers" d=" M 450.7 101.5 L 450.7 151.5" stroke-linecap="square" stroke-miterlimit="10" stroke-dasharray="3,7.000000000000001" stroke-dashoffset="1.5"/><path fill="none" stroke="#000000" paint-order="fill stroke markers" d=" M 400.7 151.5 L 450.7 151.5" stroke-linecap="square" stroke-miterlimit="10" stroke-dasharray="3,7.000000000000001" stroke-dashoffset="1.5"/><path fill="none" stroke="#000000" paint-order="fill stroke markers" d=" M 500.7 101.5 L 500.7 151.5" stroke-linecap="square" stroke-miterlimit="10" stroke-dasharray="3,7.000000000000001" stroke-dashoffset="1.5"/><path fill="none" stroke="#000000" paint-order="fill stroke markers" d=" M 450.7 151.5 L 500.7 151.5" stroke-linecap="square" stroke-miterlimit="10" stroke-dasharray="3,7.000000000000001" stroke-dashoffset="1.5"/><path fill="none" stroke="#000000" paint-order="fill stroke markers" d=" M 550.7 101.5 L 550.7 151.5" stroke-linecap="square" stroke-miterlimit="10" stroke-dasharray="3,7.000000000000001" stroke-dashoffset="1.5"/><path fill="none" stroke="#000000" paint-order="fill stroke markers" d=" M 500.7 151.5 L 550.7 151.5" stroke-linecap="square" stroke-miterlimit="10" stroke-dasharray="3,7.000000000000001" stroke-dashoffset="1.5"/><path fill="none" stroke="#000000" paint-order="fill stroke markers" d=" M 50.69999999999999 151.5 L 50.69999999999999 201.5" stroke-linecap="square" stroke-miterlimit="10" stroke-dasharray="3,7.000000000000001" stroke-dashoffset="1.5"/><path fill="none" stroke="#000000" paint-order="fill stroke markers" d=" M 0.6999999999999886 201.5 L 50.69999999999999 201.5" stroke-linecap="square" stroke-miterlimit="10" stroke-dasharray="3,7.000000000000001" stroke-dashoffset="1.5"/><path fill="none" stroke="#000000" paint-order="fill stroke markers" d=" M 0.6999999999999886 151.5 L 0.6999999999999886 201.5" stroke-linecap="square" stroke-miterlimit="10" stroke-dasharray="3,7.000000000000001" stroke-dashoffset="1.5"/><path fill="none" stroke="#000000" paint-order="fill stroke markers" d=" M 100.69999999999999 151.5 L 100.69999999999999 201.5" stroke-linecap="square" stroke-miterlimit="10" stroke-dasharray="3,7.000000000000001" stroke-dashoffset="1.5"/><path fill="none" stroke="#000000" paint-order="fill stroke markers" d=" M 50.69999999999999 201.5 L 100.69999999999999 201.5" stroke-linecap="square" stroke-miterlimit="10" stroke-dasharray="3,7.000000000000001" stroke-dashoffset="1.5"/><path fill="none" stroke="#000000" paint-order="fill stroke markers" d=" M 150.7 151.5 L 150.7 201.5" stroke-linecap="square" stroke-miterlimit="10" stroke-dasharray="3,7.000000000000001" stroke-dashoffset="1.5"/><path fill="none" stroke="#000000" paint-order="fill stroke markers" d=" M 100.69999999999999 201.5 L 150.7 201.5" stroke-linecap="square" stroke-miterlimit="10" stroke-dasharray="3,7.000000000000001" stroke-dashoffset="1.5"/><path fill="none" stroke="#000000" paint-order="fill stroke markers" d=" M 200.7 151.5 L 200.7 201.5" stroke-linecap="square" stroke-miterlimit="10" stroke-dasharray="3,7.000000000000001" stroke-dashoffset="1.5"/><path fill="none" stroke="#000000" paint-order="fill stroke markers" d=" M 150.7 201.5 L 200.7 201.5" stroke-linecap="square" stroke-miterlimit="10" stroke-dasharray="3,7.000000000000001" stroke-dashoffset="1.5"/><path fill="none" stroke="#000000" paint-order="fill stroke markers" d=" M 250.7 151.5 L 250.7 201.5" stroke-linecap="square" stroke-miterlimit="10" stroke-dasharray="3,7.000000000000001" stroke-dashoffset="1.5"/><path fill="none" stroke="#000000" paint-order="fill stroke markers" d=" M 200.7 201.5 L 250.7 201.5" stroke-linecap="square" stroke-miterlimit="10" stroke-dasharray="3,7.000000000000001" stroke-dashoffset="1.5"/><path fill="none" stroke="#000000" paint-order="fill stroke markers" d=" M 350.7 151.5 L 350.7 201.5" stroke-linecap="square" stroke-miterlimit="10" stroke-dasharray="3,7.000000000000001" stroke-dashoffset="1.5"/><path fill="none" stroke="#000000" paint-order="fill stroke markers" d=" M 300.7 201.5 L 350.7 201.5" stroke-linecap="square" stroke-miterlimit="10" stroke-dasharray="3,7.000000000000001" stroke-dashoffset="1.5"/><path fill="none" stroke="#000000" paint-order="fill stroke markers" d=" M 300.7 151.5 L 300.7 201.5" stroke-linecap="square" stroke-miterlimit="10" stroke-dasharray="3,7.000000000000001" stroke-dashoffset="1.5"/><path fill="none" stroke="#000000" paint-order="fill stroke markers" d=" M 400.7 151.5 L 400.7 201.5" stroke-linecap="square" stroke-miterlimit="10" stroke-dasharray="3,7.000000000000001" stroke-dashoffset="1.5"/><path fill="none" stroke="#000000" paint-order="fill stroke markers" d=" M 350.7 201.5 L 400.7 201.5" stroke-linecap="square" stroke-miterlimit="10" stroke-dasharray="3,7.000000000000001" stroke-dashoffset="1.5"/><path fill="none" stroke="#000000" paint-order="fill stroke markers" d=" M 450.7 151.5 L 450.7 201.5" stroke-linecap="square" stroke-miterlimit="10" stroke-dasharray="3,7.000000000000001" stroke-dashoffset="1.5"/><path fill="none" stroke="#000000" paint-order="fill stroke markers" d=" M 400.7 201.5 L 450.7 201.5" stroke-linecap="square" stroke-miterlimit="10" stroke-dasharray="3,7.000000000000001" stroke-dashoffset="1.5"/><path fill="none" stroke="#000000" paint-order="fill stroke markers" d=" M 500.7 151.5 L 500.7 201.5" stroke-linecap="square" stroke-miterlimit="10" stroke-dasharray="3,7.000000000000001" stroke-dashoffset="1.5"/><path fill="none" stroke="#000000" paint-order="fill stroke markers" d=" M 450.7 201.5 L 500.7 201.5" stroke-linecap="square" stroke-miterlimit="10" stroke-dasharray="3,7.000000000000001" stroke-dashoffset="1.5"/><path fill="none" stroke="#000000" paint-order="fill stroke markers" d=" M 550.7 151.5 L 550.7 201.5" stroke-linecap="square" stroke-miterlimit="10" stroke-dasharray="3,7.000000000000001" stroke-dashoffset="1.5"/><path fill="none" stroke="#000000" paint-order="fill stroke markers" d=" M 500.7 201.5 L 550.7 201.5" stroke-linecap="square" stroke-miterlimit="10" stroke-dasharray="3,7.000000000000001" stroke-dashoffset="1.5"/><path fill="none" stroke="#000000" paint-order="fill stroke markers" d=" M 50.69999999999999 201.5 L 50.69999999999999 251.5" stroke-linecap="square" stroke-miterlimit="10" stroke-dasharray="3,7.000000000000001" stroke-dashoffset="1.5"/><path fill="none" stroke="#000000" paint-order="fill stroke markers" d=" M 0.6999999999999886 251.5 L 50.69999999999999 251.5" stroke-linecap="square" stroke-miterlimit="10" stroke-dasharray="3,7.000000000000001" stroke-dashoffset="1.5"/><path fill="none" stroke="#000000" paint-order="fill stroke markers" d=" M 0.6999999999999886 201.5 L 0.6999999999999886 251.5" stroke-linecap="square" stroke-miterlimit="10" stroke-dasharray="3,7.000000000000001" stroke-dashoffset="1.5"/><path fill="none" stroke="#000000" paint-order="fill stroke markers" d=" M 100.69999999999999 201.5 L 100.69999999999999 251.5" stroke-linecap="square" stroke-miterlimit="10" stroke-dasharray="3,7.000000000000001" stroke-dashoffset="1.5"/><path fill="none" stroke="#000000" paint-order="fill stroke markers" d=" M 50.69999999999999 251.5 L 100.69999999999999 251.5" stroke-linecap="square" stroke-miterlimit="10" stroke-dasharray="3,7.000000000000001" stroke-dashoffset="1.5"/><path fill="none" stroke="#000000" paint-order="fill stroke markers" d=" M 150.7 201.5 L 150.7 251.5" stroke-linecap="square" stroke-miterlimit="10" stroke-dasharray="3,7.000000000000001" stroke-dashoffset="1.5"/><path fill="none" stroke="#000000" paint-order="fill stroke markers" d=" M 100.69999999999999 251.5 L 150.7 251.5" stroke-linecap="square" stroke-miterlimit="10" stroke-dasharray="3,7.000000000000001" stroke-dashoffset="1.5"/><path fill="none" stroke="#000000" paint-order="fill stroke markers" d=" M 200.7 201.5 L 200.7 251.5" stroke-linecap="square" stroke-miterlimit="10" stroke-dasharray="3,7.000000000000001" stroke-dashoffset="1.5"/><path fill="none" stroke="#000000" paint-order="fill stroke markers" d=" M 150.7 251.5 L 200.7 251.5" stroke-linecap="square" stroke-miterlimit="10" stroke-dasharray="3,7.000000000000001" stroke-dashoffset="1.5"/><path fill="none" stroke="#000000" paint-order="fill stroke markers" d=" M 250.7 201.5 L 250.7 251.5" stroke-linecap="square" stroke-miterlimit="10" stroke-dasharray="3,7.000000000000001" stroke-dashoffset="1.5"/><path fill="none" stroke="#000000" paint-order="fill stroke markers" d=" M 200.7 251.5 L 250.7 251.5" stroke-linecap="square" stroke-miterlimit="10" stroke-dasharray="3,7.000000000000001" stroke-dashoffset="1.5"/><path fill="none" stroke="#000000" paint-order="fill stroke markers" d=" M 350.7 201.5 L 350.7 251.5" stroke-linecap="square" stroke-miterlimit="10" stroke-dasharray="3,7.000000000000001" stroke-dashoffset="1.5"/><path fill="none" stroke="#000000" paint-order="fill stroke markers" d=" M 300.7 251.5 L 350.7 251.5" stroke-linecap="square" stroke-miterlimit="10" stroke-dasharray="3,7.000000000000001" stroke-dashoffset="1.5"/><path fill="none" stroke="#000000" paint-order="fill stroke markers" d=" M 300.7 201.5 L 300.7 251.5" stroke-linecap="square" stroke-miterlimit="10" stroke-dasharray="3,7.000000000000001" stroke-dashoffset="1.5"/><path fill="none" stroke="#000000" paint-order="fill stroke markers" d=" M 400.7 201.5 L 400.7 251.5" stroke-linecap="square" stroke-miterlimit="10" stroke-dasharray="3,7.000000000000001" stroke-dashoffset="1.5"/><path fill="none" stroke="#000000" paint-order="fill stroke markers" d=" M 350.7 251.5 L 400.7 251.5" stroke-linecap="square" stroke-miterlimit="10" stroke-dasharray="3,7.000000000000001" stroke-dashoffset="1.5"/><path fill="none" stroke="#000000" paint-order="fill stroke markers" d=" M 450.7 201.5 L 450.7 251.5" stroke-linecap="square" stroke-miterlimit="10" stroke-dasharray="3,7.000000000000001" stroke-dashoffset="1.5"/><path fill="none" stroke="#000000" paint-order="fill stroke markers" d=" M 400.7 251.5 L 450.7 251.5" stroke-linecap="square" stroke-miterlimit="10" stroke-dasharray="3,7.000000000000001" stroke-dashoffset="1.5"/><path fill="none" stroke="#000000" paint-order="fill stroke markers" d=" M 500.7 201.5 L 500.7 251.5" stroke-linecap="square" stroke-miterlimit="10" stroke-dasharray="3,7.000000000000001" stroke-dashoffset="1.5"/><path fill="none" stroke="#000000" paint-order="fill stroke markers" d=" M 450.7 251.5 L 500.7 251.5" stroke-linecap="square" stroke-miterlimit="10" stroke-dasharray="3,7.000000000000001" stroke-dashoffset="1.5"/><path fill="none" stroke="#000000" paint-order="fill stroke markers" d=" M 550.7 201.5 L 550.7 251.5" stroke-linecap="square" stroke-miterlimit="10" stroke-dasharray="3,7.000000000000001" stroke-dashoffset="1.5"/><path fill="none" stroke="#000000" paint-order="fill stroke markers" d=" M 500.7 251.5 L 550.7 251.5" stroke-linecap="square" stroke-miterlimit="10" stroke-dasharray="3,7.000000000000001" stroke-dashoffset="1.5"/><path fill="none" stroke="#208020" paint-order="fill stroke markers" d=" M 350.7 51.5 L 400.7 51.5" stroke-linecap="round" stroke-miterlimit="10" stroke-width="3"/><path fill="none" stroke="#208020" paint-order="fill stroke markers" d=" M 300.7 51.5 L 350.7 51.5" stroke-linecap="round" stroke-miterlimit="10" stroke-width="3"/><path fill="none" stroke="#208020" paint-order="fill stroke markers" d=" M 300.7 51.5 L 300.7 101.5" stroke-linecap="round" stroke-miterlimit="10" stroke-width="3"/><path fill="none" stroke="#208020" paint-order="fill stroke markers" d=" M 300.7 101.5 L 350.7 101.5" stroke-linecap="round" stroke-miterlimit="10" stroke-width="3"/><path fill="none" stroke="#208020" paint-order="fill stroke markers" d=" M 350.7 101.5 L 350.7 151.5" stroke-linecap="round" stroke-miterlimit="10" stroke-width="3"/><path fill="none" stroke="#208020" paint-order="fill stroke markers" d=" M 350.7 151.5 L 350.7 201.5" stroke-linecap="round" stroke-miterlimit="10" stroke-width="3"/><path fill="none" stroke="#208020" paint-order="fill stroke markers" d=" M 350.7 201.5 L 400.7 201.5" stroke-linecap="round" stroke-miterlimit="10" stroke-width="3"/><path fill="none" stroke="#208020" paint-order="fill stroke markers" d=" M 400.7 201.5 L 450.7 201.5" stroke-linecap="round" stroke-miterlimit="10" stroke-width="3"/><path fill="none" stroke="#208020" paint-order="fill stroke markers" d=" M 450.7 201.5 L 500.7 201.5" stroke-linecap="round" stroke-miterlimit="10" stroke-width="3"/><path fill="none" stroke="#208020" paint-order="fill stroke markers" d=" M 500.7 201.5 L 550.7 201.5" stroke-linecap="round" stroke-miterlimit="10" stroke-width="3"/><path fill="none" stroke="#208020" paint-order="fill stroke markers" d=" M 550.7 151.5 L 550.7 201.5" stroke-linecap="round" stroke-miterlimit="10" stroke-width="3"/><path fill="none" stroke="#208020" paint-order="fill stroke markers" d=" M 500.7 151.5 L 550.7 151.5" stroke-linecap="round" stroke-miterlimit="10" stroke-width="3"/><path fill="none" stroke="#208020" paint-order="fill stroke markers" d=" M 450.7 151.5 L 500.7 151.5" stroke-linecap="round" stroke-miterlimit="10" stroke-width="3"/><path fill="none" stroke="#208020" paint-order="fill stroke markers" d=" M 450.7 101.5 L 450.7 151.5" stroke-linecap="round" stroke-miterlimit="10" stroke-width="3"/><path fill="none" stroke="#208020" paint-order="fill stroke markers" d=" M 450.7 51.5 L 450.7 101.5" stroke-linecap="round" stroke-miterlimit="10" stroke-width="3"/><path fill="none" stroke="#208020" paint-order="fill stroke markers" d=" M 450.7 51.5 L 500.7 51.5" stroke-linecap="round" stroke-miterlimit="10" stroke-width="3"/><path fill="none" stroke="#208020" paint-order="fill stroke markers" d=" M 500.7 1.5 L 500.7 51.5" stroke-linecap="round" stroke-miterlimit="10" stroke-width="3"/><path fill="none" stroke="#208020" paint-order="fill stroke markers" d=" M 450.7 1.5 L 500.7 1.5" stroke-linecap="round" stroke-miterlimit="10" stroke-width="3"/><path fill="none" stroke="#208020" paint-order="fill stroke markers" d=" M 400.7 1.5 L 450.7 1.5" stroke-linecap="round" stroke-miterlimit="10" stroke-width="3"/><path fill="none" stroke="#208020" paint-order="fill stroke markers" d=" M 400.7 1.5 L 400.7 51.5" stroke-linecap="round" stroke-miterlimit="10" stroke-width="3"/></g></svg>