<svg version="1.1" xmlns="http://www.w3.org/2000/svg" xmlns:xlink="http://www.w3.org/1999/xlink" width="453.2" height="453.2"><defs/><g><rect fill="rgb(255,255,255)" stroke="none" x="0" y="0" width="453.2" height="453.2" fill-opacity="0"/><path fill="none" stroke="#000000" paint-order="fill stroke markers" d=" M 1.5 1.5 L 51.5 1.5" stroke-linecap="round" stroke-miterlimit="10" stroke-width="3"/><path fill="none" stroke="#000000" paint-order="fill stroke markers" d=" M 1.5 1.5 L 1.5 51.5" stroke-linecap="round" stroke-miterlimit="10" stroke-width="3"/><path fill="none" stroke="#000000" paint-order="fill stroke markers" d=" M 51.5 1.5 L 101.5 1.5" stroke-linecap="round" stroke-miterlimit="10" stroke-width="3"/><path fill="none" stroke="#000000" paint-order="fill stroke markers" d=" M 101.5 1.5 L 151.5 1.5" stroke-linecap="round" stroke-miterlimit="10" stroke-width="3"/><path fill="none" stroke="#000000" paint-order="fill stroke markers" d=" M 151.5 1.5 L 201.5 1.5" stroke-linecap="round" stroke-miterlimit="10" stroke-width="3"/><path fill="none" stroke="#000000" paint-order="fill stroke markers" d=" M 201.5 1.5 L 251.5 1.5" stroke-linecap="round" stroke-miterlimit="10" stroke-width="3"/><path fill="none" stroke="#000000" paint-order="fill stroke markers" d=" M 251.5 1.5 L 301.5 1.5" stroke-linecap="round" stroke-miterlimit="10" stroke-width="3"/><path fill="none" stroke="#000000" paint-order="fill stroke markers" d=" M 301.5 1.5 L 351.5 1.5" stroke-linecap="round" stroke-miterlimit="10" stroke-width="3"/><path fill="none" stroke="#000000" paint-order="fill stroke markers" d=" M 351.5 1.5 L 401.5 1.5" stroke-linecap="round" stroke-miterlimit="10" stroke-width="3"/><path fill="none" stroke="#000000" paint-order="fill stroke markers" d=" M 401.5 1.5 L 451.5 1.5" stroke-linecap="round" stroke-miterlimit="10" stroke-width="3"/><path fill="none" stroke="#000000" paint-order="fill stroke markers" d=" M 451.5 1.5 L 451.5 51.5" stroke-linecap="round" stroke-miterlimit="10" stroke-width="3"/><path fill="none" stroke="#000000" paint-order="fill stroke markers" d=" M 1.5 51.5 L 1.5 101.5" stroke-linecap="round" stroke-miterlimit="10" stroke-width="3"/><path fill="none" stroke="#000000" paint-order="fill stroke markers" d=" M 451.5 51.5 L 451.5 101.5" stroke-linecap="round" stroke-miterlimit="10" stroke-width="3"/><path fill="none" stroke="#000000" paint-order="fill stroke markers" d=" M 1.5 101.5 L 1.5 151.5" stroke-linecap="round" stroke-miterlimit="10" stroke-width="3"/><path fill="none" stroke="#000000" paint-order="fill stroke markers" d=" M 451.5 101.5 L 451.5 151.5" stroke-linecap="round" stroke-miterlimit="10" stroke-width="3"/><path fill="none" stroke="#000000" paint-order="fill stroke markers" d=" M 1.5 151.5 L 1.5 201.5" stroke-linecap="round" stroke-miterlimit="10" stroke-width="3"/><path fill="none" stroke="#000000" paint-order="fill stroke markers" d=" M 451.5 151.5 L 451.5 201.5" stroke-linecap="round" stroke-miterlimit="10" stroke-width="3"/><path fill="none" stroke="#000000" paint-order="fill stroke markers" d=" M 1.5 201.5 L 1.5 251.5" stroke-linecap="round" stroke-miterlimit="10" stroke-width="3"/><path fill="none" stroke="#000000" paint-order="fill stroke markers" d=" M 451.5 201.5 L 451.5 251.5" stroke-linecap="round" stroke-miterlimit="10" stroke-width="3"/><path fill="none" stroke="#000000" paint-order="fill stroke markers" d=" M 1.5 251.5 L 1.5 301.5" stroke-linecap="round" stroke-miterlimit="10" stroke-width="3"/><path fill="none" stroke="#000000" paint-order="fill stroke markers" d=" M 451.5 251.5 L 451.5 301.5" stroke-linecap="round" stroke-miterlimit="10" stroke-width="3"/><path fill="none" stroke="#000000" paint-order="fill stroke markers" d=" M 1.5 301.5 L 1.5 351.5" stroke-linecap="round" stroke-miterlimit="10" stroke-width="3"/><path fill="none" stroke="#000000" paint-order="fill stroke markers" d=" M 451.5 301.5 L 451.5 351.5" stroke-linecap="round" stroke-miterlimit="10" stroke-width="3"/><path fill="none" stroke="#000000" paint-order="fill stroke markers" d=" M 1.5 351.5 L 1.5 401.5" stroke-linecap="round" stroke-miterlimit="10" stroke-width="3"/><path fill="none" stroke="#000000" paint-order="fill stroke markers" d=" M 451.5 351.5 L 451.5 401.5" stroke-linecap="round" stroke-miterlimit="10" stroke-width="3"/><path fill="none" stroke="#000000" paint-order="fill stroke markers" d=" M 1.5 451.5 L 51.5 451.5" stroke-linecap="round" stroke-miterlimit="10" stroke-width="3"/><path fill="none" stroke="#000000" paint-order="fill stroke markers" d=" M 1.5 401.5 L 1.5 451.5" stroke-linecap="round" stroke-miterlimit="10" stroke-width="3"/><path fill="none" stroke="#000000" paint-order="fill stroke markers" d=" M 51.5 451.5 L 101.5 451.5" stroke-linecap="round" stroke-miterlimit="10" stroke-width="3"/><path fill="none" stroke="#000000" paint-order="fill stroke markers" d=" M 101.5 451.5 L 151.5 451.5" stroke-linecap="round" stroke-miterlimit="10" stroke-width="3"/><path fill="none" stroke="#000000" paint-order="fill stroke markers" d=" M 151.5 451.5 L 201.5 451.5" stroke-linecap="round" stroke-miterlimit="10" stroke-width="3"/><path fill="none" stroke="#000000" paint-order="fill stroke markers" d=" M 201.5 451.5 L 251.5 451.5" stroke-linecap="round" stroke-miterlimit="10" stroke-width="3"/><path fill="none" stroke="#000000" paint-order="fill stroke markers" d=" M 251.5 451.5 L 301.5 451.5" stroke-linecap="round" stroke-miterlimit="10" stroke-width="3"/><path fill="none" stroke="#000000" paint-order="fill stroke markers" d=" M 301.5 451.5 L 351.5 451.5" stroke-linecap="round" stroke-miterlimit="10" stroke-width="3"/><path fill="none" stroke="#000000" paint-order="fill stroke markers" d=" M 351.5 451.5 L 401.5 451.5" stroke-linecap="round" stroke-miterlimit="10" stroke-width="3"/><path fill="none" stroke="#000000" paint-order="fill stroke markers" d=" M 451.5 401.5 L 451.5 451.5" stroke-linecap="round" stroke-miterlimit="10" stroke-width="3"/><path fill="none" stroke="#000000" paint-order="fill stroke markers" d=" M 401.5 451.5 L 451.5 451.5" stroke-linecap="round" stroke-miterlimit="10" stroke-width="3"/><path fill="#ffffff" stroke="#000000" paint-order="fill stroke markers" d=" M 248 76.5 A 21.5 21.5 0 1 1 247.9999892500009 76.47850000358332" stroke-miterlimit="10"/><path fill="#ffffff" stroke="#000000" paint-order="fill stroke markers" d=" M 398 76.5 A 21.5 21.5 0 1 1 397.9999892500009 76.47850000358332" stroke-miterlimit="10"/><path fill="#ffffff" stroke="#000000" paint-order="fill stroke markers" d=" M 98 226.5 A 21.5 21.5 0 1 1 97.9999892500009 226.47850000358332" stroke-miterlimit="10"/><path fill="#ffffff" stroke="#000000" paint-order="fill stroke markers" d=" M 98 376.5 A 21.5 21.5 0 1 1 97.9999892500009 376.47850000358335" stroke-miterlimit="10"/><path fill="#ffffff" stroke="#000000" paint-order="fill stroke markers" d=" M 398 376.5 A 21.5 21.5 0 1 1 397.9999892500009 376.47850000358335" stroke-miterlimit="10"/><path fill="#cccccc" stroke="rgb(0,0,0)" paint-order="fill stroke markers" d=" M 146.5 76.5 A 20 20 0 1 1 146.49999000000082 76.48000000333332" stroke-opacity="0" stroke-miterlimit="10"/><path fill="none" stroke="#cccccc" paint-order="fill stroke markers" d=" M 126.5 76.5 L 126.5 26.5 L 76.5 26.5 L 26.5 26.5" stroke-linecap="square" stroke-miterlimit="10" stroke-width="20"/><path fill="#cccccc" stroke="rgb(0,0,0)" paint-order="fill stroke markers" d=" M 46.5 76.5 A 20 20 0 1 1 46.499990000000835 76.48000000333332" stroke-opacity="0" stroke-linecap="square" stroke-miterlimit="10" stroke-width="20"/><path fill="none" stroke="#cccccc" paint-order="fill stroke markers" d=" M 26.5 76.5 L 26.5 126.5 L 76.5 126.5 L 126.5 126.5" stroke-linecap="square" stroke-miterlimit="10" stroke-width="20"/><path fill="#cccccc" stroke="rgb(0,0,0)" paint-order="fill stroke markers" d=" M 296.5 76.5 A 20 20 0 1 1 296.4999900000008 76.48000000333332" stroke-opacity="0" stroke-linecap="square" stroke-miterlimit="10" stroke-width="20"/><path fill="none" stroke="#cccccc" paint-order="fill stroke markers" d=" M 276.5 76.5 L 276.5 26.5 L 226.5 26.5 L 176.5 26.5" stroke-linecap="square" stroke-miterlimit="10" stroke-width="20"/><path fill="#cccccc" stroke="rgb(0,0,0)" paint-order="fill stroke markers" d=" M 196.5 76.5 A 20 20 0 1 1 196.49999000000082 76.48000000333332" stroke-opacity="0" stroke-linecap="square" stroke-miterlimit="10" stroke-width="20"/><path fill="none" stroke="#cccccc" paint-order="fill stroke markers" d=" M 176.5 76.5 L 176.5 126.5 L 226.5 126.5 L 276.5 126.5" stroke-linecap="square" stroke-miterlimit="10" stroke-width="20"/><path fill="#cccccc" stroke="rgb(0,0,0)" paint-order="fill stroke markers" d=" M 346.5 76.5 A 20 20 0 1 1 346.4999900000008 76.48000000333332" stroke-opacity="0" stroke-linecap="square" stroke-miterlimit="10" stroke-width="20"/><path fill="none" stroke="#cccccc" paint-order="fill stroke markers" d=" M 326.5 76.5 L 326.5 26.5 L 376.5 26.5 L 426.5 26.5" stroke-linecap="square" stroke-miterlimit="10" stroke-width="20"/><path fill="#cccccc" stroke="rgb(0,0,0)" paint-order="fill stroke markers" d=" M 446.5 76.5 A 20 20 0 1 1 446.4999900000008 76.48000000333332" stroke-opacity="0" stroke-linecap="square" stroke-miterlimit="10" stroke-width="20"/><path fill="none" stroke="#cccccc" paint-order="fill stroke markers" d=" M 426.5 76.5 L 426.5 126.5 L 376.5 126.5 L 326.5 126.5" stroke-linecap="square" stroke-miterlimit="10" stroke-width="20"/><path fill="#cccccc" stroke="rgb(0,0,0)" paint-order="fill stroke markers" d=" M 146.5 226.5 A 20 20 0 1 1 146.49999000000082 226.48000000333332" stroke-opacity="0" stroke-linecap="square" stroke-miterlimit="10" stroke-width="20"/><path fill="none" stroke="#cccccc" paint-order="fill stroke markers" d=" M 126.5 226.5 L 126.5 176.5 L 76.5 176.5 L 26.5 176.5" stroke-linecap="square" stroke-miterlimit="10" stroke-width="20"/><path fill="#cccccc" stroke="rgb(0,0,0)" paint-order="fill stroke markers" d=" M 46.5 226.5 A 20 20 0 1 1 46.499990000000835 226.48000000333332" stroke-opacity="0" stroke-linecap="square" stroke-miterlimit="10" stroke-width="20"/><path fill="none" stroke="#cccccc" paint-order="fill stroke markers" d=" M 26.5 226.5 L 26.5 276.5 L 76.5 276.5 L 126.5 276.5" stroke-linecap="square" stroke-miterlimit="10" stroke-width="20"/><path fill="#cccccc" stroke="rgb(0,0,0)" paint-order="fill stroke markers" d=" M 196.5 226.5 A 20 20 0 1 1 196.49999000000082 226.48000000333332" stroke-opacity="0" stroke-linecap="square" stroke-miterlimit="10" stroke-width="20"/><path fill="none" stroke="#cccccc" paint-order="fill stroke markers" d=" M 176.5 226.5 L 176.5 176.5 L 226.5 176.5 L 276.5 176.5" stroke-linecap="square" stroke-miterlimit="10" stroke-width="20"/><path fill="#cccccc" stroke="rgb(0,0,0)" paint-order="fill stroke markers" d=" M 296.5 226.5 A 20 20 0 1 1 296.4999900000008 226.48000000333332" stroke-opacity="0" stroke-linecap="square" stroke-miterlimit="10" stroke-width="20"/><path fill="none" stroke="#cccccc" paint-order="fill stroke markers" d=" M 276.5 226.5 L 276.5 276.5 L 226.5 276.5 L 176.5 276.5" stroke-linecap="square" stroke-miterlimit="10" stroke-width="20"/><path fill="#cccccc" stroke="rgb(0,0,0)" paint-order="fill stroke markers" d=" M 446.5 226.5 A 20 20 0 1 1 446.4999900000008 226.48000000333332" stroke-opacity="0" stroke-linecap="square" stroke-miterlimit="10" stroke-width="20"/><path fill="none" stroke="#cccccc" paint-order="fill stroke markers" d=" M 426.5 226.5 L 426.5 176.5 L 376.5 176.5 L 326.5 176.5" stroke-linecap="square" stroke-miterlimit="10" stroke-width="20"/><path fill="#cccccc" stroke="rgb(0,0,0)" paint-order="fill stroke markers" d=" M 346.5 226.5 A 20 20 0 1 1 346.4999900000008 226.48000000333332" stroke-opacity="0" stroke-linecap="square" stroke-miterlimit="10" stroke-width="20"/><path fill="none" stroke="#cccccc" paint-order="fill stroke markers" d=" M 326.5 226.5 L 326.5 276.5 L 376.5 276.5 L 426.5 276.5" stroke-linecap="square" stroke-miterlimit="10" stroke-width="20"/><path fill="#cccccc" stroke="rgb(0,0,0)" paint-order="fill stroke markers" d=" M 46.5 376.5 A 20 20 0 1 1 46.499990000000835 376.4800000033333" stroke-opacity="0" stroke-linecap="square" stroke-miterlimit="10" stroke-width="20"/><path fill="none" stroke="#cccccc" paint-order="fill stroke markers" d=" M 26.5 376.5 L 26.5 326.5 L 76.5 326.5 L 126.5 326.5" stroke-linecap="square" stroke-miterlimit="10" stroke-width="20"/><path fill="#cccccc" stroke="rgb(0,0,0)" paint-order="fill stroke markers" d=" M 146.5 376.5 A 20 20 0 1 1 146.49999000000082 376.4800000033333" stroke-opacity="0" stroke-linecap="square" stroke-miterlimit="10" stroke-width="20"/><path fill="none" stroke="#cccccc" paint-order="fill stroke markers" d=" M 126.5 376.5 L 126.5 426.5 L 76.5 426.5 L 26.5 426.5" stroke-linecap="square" stroke-miterlimit="10" stroke-width="20"/><path fill="#cccccc" stroke="rgb(0,0,0)" paint-order="fill stroke markers" d=" M 296.5 376.5 A 20 20 0 1 1 296.4999900000008 376.4800000033333" stroke-opacity="0" stroke-linecap="square" stroke-miterlimit="10" stroke-width="20"/><path fill="none" stroke="#cccccc" paint-order="fill stroke markers" d=" M 276.5 376.5 L 276.5 326.5 L 226.5 326.5 L 176.5 326.5" stroke-linecap="square" stroke-miterlimit="10" stroke-width="20"/><path fill="#cccccc" stroke="rgb(0,0,0)" paint-order="fill stroke markers" d=" M 196.5 376.5 A 20 20 0 1 1 196.49999000000082 376.4800000033333" stroke-opacity="0" stroke-linecap="square" stroke-miterlimit="10" stroke-width="20"/><path fill="none" stroke="#cccccc" paint-order="fill stroke markers" d=" M 176.5 376.5 L 176.5 426.5 L 226.5 426.5 L 276.5 426.5" stroke-linecap="square" stroke-miterlimit="10" stroke-width="20"/><path fill="#cccccc" stroke="rgb(0,0,0)" paint-order="fill stroke markers" d=" M 446.5 376.5 A 20 20 0 1 1 446.4999900000008 376.4800000033333" stroke-opacity="0" stroke-linecap="square" stroke-miterlimit="10" stroke-width="20"/><path fill="none" stroke="#cccccc" paint-order="fill stroke markers" d=" M 426.5 376.5 L 426.5 326.5 L 376.5 326.5 L 326.5 326.5" stroke-linecap="square" stroke-miterlimit="10" stroke-width="20"/><path fill="#cccccc" stroke="rgb(0,0,0)" paint-order="fill stroke markers" d=" M 346.5 376.5 A 20 20 0 1 1 346.4999900000008 376.4800000033333" stroke-opacity="0" stroke-linecap="square" stroke-miterlimit="10" stroke-width="20"/><path fill="none" stroke="#cccccc" paint-order="fill stroke markers" d=" M 326.5 376.5 L 326.5 426.5 L 376.5 426.5 L 426.5 426.5" stroke-linecap="square" stroke-miterlimit="10" stroke-width="20"/><path fill="none" stroke="#000000" paint-order="fill stroke markers" d=" M 1.5 1.5 L 51.5 1.5" stroke-linecap="round" stroke-miterlimit="10" stroke-width="3"/><path fill="none" stroke="#000000" paint-order="fill stroke markers" d=" M 51.5 1.5 L 51.5 51.5" stroke-linecap="square" stroke-miterlimit="10" stroke-width="0.8"/><path fill="none" stroke="#000000" paint-order="fill stroke markers" d=" M 1.5 51.5 L 51.5 51.5" stroke-linecap="square" stroke-miterlimit="10" stroke-width="0.8"/><path fill="none" stroke="#000000" paint-order="fill stroke markers" d=" M 1.5 1.5 L 1.5 51.5" stroke-linecap="round" stroke-miterlimit="10" stroke-width="3"/><path fill="none" stroke="#000000" paint-order="fill stroke markers" d=" M 51.5 1.5 L 101.5 1.5" stroke-linecap="round" stroke-miterlimit="10" stroke-width="3"/><path fill="none" stroke="#000000" paint-order="fill stroke markers" d=" M 101.5 1.5 L 101.5 51.5" stroke-linecap="square" stroke-miterlimit="10" stroke-width="0.8"/><path fill="none" stroke="#000000" paint-order="fill stroke markers" d=" M 51.5 51.5 L 101.5 51.5" stroke-linecap="square" stroke-miterlimit="10" stroke-width="0.8"/><path fill="none" stroke="#000000" paint-order="fill stroke markers" d=" M 101.5 1.5 L 151.5 1.5" stroke-linecap="round" stroke-miterlimit="10" stroke-width="3"/><path fill="none" stroke="#000000" paint-order="fill stroke markers" d=" M 151.5 1.5 L 151.5 51.5" stroke-linecap="square" stroke-miterlimit="10" stroke-width="0.8"/><path fill="none" stroke="#000000" paint-order="fill stroke markers" d=" M 101.5 51.5 L 151.5 51.5" stroke-linecap="square" stroke-miterlimit="10" stroke-width="0.8"/><path fill="none" stroke="#000000" paint-order="fill stroke markers" d=" M 151.5 1.5 L 201.5 1.5" stroke-linecap="round" stroke-miterlimit="10" stroke-width="3"/><path fill="none" stroke="#000000" paint-order="fill stroke markers" d=" M 201.5 1.5 L 201.5 51.5" stroke-linecap="square" stroke-miterlimit="10" stroke-width="0.8"/><path fill="none" stroke="#000000" paint-order="fill stroke markers" d=" M 151.5 51.5 L 201.5 51.5" stroke-linecap="square" stroke-miterlimit="10" stroke-width="0.8"/><path fill="none" stroke="#000000" paint-order="fill stroke markers" d=" M 201.5 1.5 L 251.5 1.5" stroke-linecap="round" stroke-miterlimit="10" stroke-width="3"/><path fill="none" stroke="#000000" paint-order="fill stroke markers" d=" M 251.5 1.5 L 251.5 51.5" stroke-linecap="square" stroke-miterlimit="10" stroke-width="0.8"/><path fill="none" stroke="#000000" paint-order="fill stroke markers" d=" M 201.5 51.5 L 251.5 51.5" stroke-linecap="square" stroke-miterlimit="10" stroke-width="0.8"/><path fill="none" stroke="#000000" paint-order="fill stroke markers" d=" M 251.5 1.5 L 301.5 1.5" stroke-linecap="round" stroke-miterlimit="10" stroke-width="3"/><path fill="none" stroke="#000000" paint-order="fill stroke markers" d=" M 301.5 1.5 L 301.5 51.5" stroke-linecap="square" stroke-miterlimit="10" stroke-width="0.8"/><path fill="none" stroke="#000000" paint-order="fill stroke markers" d=" M 251.5 51.5 L 301.5 51.5" stroke-linecap="square" stroke-miterlimit="10" stroke-width="0.8"/><path fill="none" stroke="#000000" paint-order="fill stroke markers" d=" M 301.5 1.5 L 351.5 1.5" stroke-linecap="round" stroke-miterlimit="10" stroke-width="3"/><path fill="none" stroke="#000000" paint-order="fill stroke markers" d=" M 351.5 1.5 L 351.5 51.5" stroke-linecap="square" stroke-miterlimit="10" stroke-width="0.8"/><path fill="none" stroke="#000000" paint-order="fill stroke markers" d=" M 301.5 51.5 L 351.5 51.5" stroke-linecap="square" stroke-miterlimit="10" stroke-width="0.8"/><path fill="none" stroke="#000000" paint-order="fill stroke markers" d=" M 351.5 1.5 L 401.5 1.5" stroke-linecap="round" stroke-miterlimit="10" stroke-width="3"/><path fill="none" stroke="#000000" paint-order="fill stroke markers" d=" M 401.5 1.5 L 401.5 51.5" stroke-linecap="square" stroke-miterlimit="10" stroke-width="0.8"/><path fill="none" stroke="#000000" paint-order="fill stroke markers" d=" M 351.5 51.5 L 401.5 51.5" stroke-linecap="square" stroke-miterlimit="10" stroke-width="0.8"/><path fill="none" stroke="#000000" paint-order="fill stroke markers" d=" M 401.5 1.5 L 451.5 1.5" stroke-linecap="round" stroke-miterlimit="10" stroke-width="3"/><path fill="none" stroke="#000000" paint-order="fill stroke markers" d=" M 451.5 1.5 L 451.5 51.5" stroke-linecap="round" stroke-miterlimit="10" stroke-width="3"/><path fill="none" stroke="#000000" paint-order="fill stroke markers" d=" M 401.5 51.5 L 451.5 51.5" stroke-linecap="square" stroke-miterlimit="10" stroke-width="0.8"/><path fill="none" stroke="#000000" paint-order="fill stroke markers" d=" M 51.5 51.5 L 51.5 101.5" stroke-linecap="square" stroke-miterlimit="10" stroke-width="0.8"/><path fill="none" stroke="#000000" paint-order="fill stroke markers" d=" M 1.5 101.5 L 51.5 101.5" stroke-linecap="square" stroke-miterlimit="10" stroke-width="0.8"/><path fill="none" stroke="#000000" paint-order="fill stroke markers" d=" M 1.5 51.5 L 1.5 101.5" stroke-linecap="round" stroke-miterlimit="10" stroke-width="3"/><path fill="none" stroke="#000000" paint-order="fill stroke markers" d=" M 101.5 51.5 L 101.5 101.5" stroke-linecap="square" stroke-miterlimit="10" stroke-width="0.8"/><path fill="none" stroke="#000000" paint-order="fill stroke markers" d=" M 51.5 101.5 L 101.5 101.5" stroke-linecap="square" stroke-miterlimit="10" stroke-width="0.8"/><path fill="none" stroke="#000000" paint-order="fill stroke markers" d=" M 151.5 51.5 L 151.5 101.5" stroke-linecap="square" stroke-miterlimit="10" stroke-width="0.8"/><path fill="none" stroke="#000000" paint-order="fill stroke markers" d=" M 101.5 101.5 L 151.5 101.5" stroke-linecap="square" stroke-miterlimit="10" stroke-width="0.8"/><path fill="none" stroke="#000000" paint-order="fill stroke markers" d=" M 201.5 51.5 L 201.5 101.5" stroke-linecap="square" stroke-miterlimit="10" stroke-width="0.8"/><path fill="none" stroke="#000000" paint-order="fill stroke markers" d=" M 151.5 101.5 L 201.5 101.5" stroke-linecap="square" stroke-miterlimit="10" stroke-width="0.8"/><path fill="none" stroke="#000000" paint-order="fill stroke markers" d=" M 251.5 51.5 L 251.5 101.5" stroke-linecap="square" stroke-miterlimit="10" stroke-width="0.8"/><path fill="none" stroke="#000000" paint-order="fill stroke markers" d=" M 201.5 101.5 L 251.5 101.5" stroke-linecap="square" stroke-miterlimit="10" stroke-width="0.8"/><path fill="none" stroke="#000000" paint-order="fill stroke markers" d=" M 301.5 51.5 L 301.5 101.5" stroke-linecap="square" stroke-miterlimit="10" stroke-width="0.8"/><path fill="none" stroke="#000000" paint-order="fill stroke markers" d=" M 251.5 101.5 L 301.5 101.5" stroke-linecap="square" stroke-miterlimit="10" stroke-width="0.8"/><path fill="none" stroke="#000000" paint-order="fill stroke markers" d=" M 351.5 51.5 L 351.5 101.5" stroke-linecap="square" stroke-miterlimit="10" stroke-width="0.8"/><path fill="none" stroke="#000000" paint-order="fill stroke markers" d=" M 301.5 101.5 L 351.5 101.5" stroke-linecap="square" stroke-miterlimit="10" stroke-width="0.8"/><path fill="none" stroke="#000000" paint-order="fill stroke markers" d=" M 401.5 51.5 L 401.5 101.5" stroke-linecap="square" stroke-miterlimit="10" stroke-width="0.8"/><path fill="none" stroke="#000000" paint-order="fill stroke markers" d=" M 351.5 101.5 L 401.5 101.5" stroke-linecap="square" stroke-miterlimit="10" stroke-width="0.8"/><path fill="none" stroke="#000000" paint-order="fill stroke markers" d=" M 451.5 51.5 L 451.5 101.5" stroke-linecap="round" stroke-miterlimit="10" stroke-width="3"/><path fill="none" stroke="#000000" paint-order="fill stroke markers" d=" M 401.5 101.5 L 451.5 101.5" stroke-linecap="square" stroke-miterlimit="10" stroke-width="0.8"/><path fill="none" stroke="#000000" paint-order="fill stroke markers" d=" M 51.5 101.5 L 51.5 151.5" stroke-linecap="square" stroke-miterlimit="10" stroke-width="0.8"/><path fill="none" stroke="#000000" paint-order="fill stroke markers" d=" M 1.5 151.5 L 51.5 151.5" stroke-linecap="square" stroke-miterlimit="10" stroke-width="0.8"/><path fill="none" stroke="#000000" paint-order="fill stroke markers" d=" M 1.5 101.5 L 1.5 151.5" stroke-linecap="round" stroke-miterlimit="10" stroke-width="3"/><path fill="none" stroke="#000000" paint-order="fill stroke markers" d=" M 101.5 101.5 L 101.5 151.5" stroke-linecap="square" stroke-miterlimit="10" stroke-width="0.8"/><path fill="none" stroke="#000000" paint-order="fill stroke markers" d=" M 51.5 151.5 L 101.5 151.5" stroke-linecap="square" stroke-miterlimit="10" stroke-width="0.8"/><path fill="none" stroke="#000000" paint-order="fill stroke markers" d=" M 151.5 101.5 L 151.5 151.5" stroke-linecap="square" stroke-miterlimit="10" stroke-width="0.8"/><path fill="none" stroke="#000000" paint-order="fill stroke markers" d=" M 101.5 151.5 L 151.5 151.5" stroke-linecap="square" stroke-miterlimit="10" stroke-width="0.8"/><path fill="none" stroke="#000000" paint-order="fill stroke markers" d=" M 201.5 101.5 L 201.5 151.5" stroke-linecap="square" stroke-miterlimit="10" stroke-width="0.8"/><path fill="none" stroke="#000000" paint-order="fill stroke markers" d=" M 151.5 151.5 L 201.5 151.5" stroke-linecap="square" stroke-miterlimit="10" stroke-width="0.8"/><path fill="none" stroke="#000000" paint-order="fill stroke markers" d=" M 251.5 101.5 L 251.5 151.5" stroke-linecap="square" stroke-miterlimit="10" stroke-width="0.8"/><path fill="none" stroke="#000000" paint-order="fill stroke markers" d=" M 201.5 151.5 L 251.5 151.5" stroke-linecap="square" stroke-miterlimit="10" stroke-width="0.8"/><path fill="none" stroke="#000000" paint-order="fill stroke markers" d=" M 301.5 101.5 L 301.5 151.5" stroke-linecap="square" stroke-miterlimit="10" stroke-width="0.8"/><path fill="none" stroke="#000000" paint-order="fill stroke markers" d=" M 251.5 151.5 L 301.5 151.5" stroke-linecap="square" stroke-miterlimit="10" stroke-width="0.8"/><path fill="none" stroke="#000000" paint-order="fill stroke markers" d=" M 351.5 101.5 L 351.5 151.5" stroke-linecap="square" stroke-miterlimit="10" stroke-width="0.8"/><path fill="none" stroke="#000000" paint-order="fill stroke markers" d=" M 301.5 151.5 L 351.5 151.5" stroke-linecap="square" stroke-miterlimit="10" stroke-width="0.8"/><path fill="none" stroke="#000000" paint-order="fill stroke markers" d=" M 401.5 101.5 L 401.5 151.5" stroke-linecap="square" stroke-miterlimit="10" stroke-width="0.8"/><path fill="none" stroke="#000000" paint-order="fill stroke markers" d=" M 351.5 151.5 L 401.5 151.5" stroke-linecap="square" stroke-miterlimit="10" stroke-width="0.8"/><path fill="none" stroke="#000000" paint-order="fill stroke markers" d=" M 451.5 101.5 L 451.5 151.5" stroke-linecap="round" stroke-miterlimit="10" stroke-width="3"/><path fill="none" stroke="#000000" paint-order="fill stroke markers" d=" M 401.5 151.5 L 451.5 151.5" stroke-linecap="square" stroke-miterlimit="10" stroke-width="0.8"/><path fill="none" stroke="#000000" paint-order="fill stroke markers" d=" M 51.5 151.5 L 51.5 201.5" stroke-linecap="square" stroke-miterlimit="10" stroke-width="0.8"/><path fill="none" stroke="#000000" paint-order="fill stroke markers" d=" M 1.5 201.5 L 51.5 201.5" stroke-linecap="square" stroke-miterlimit="10" stroke-width="0.8"/><path fill="none" stroke="#000000" paint-order="fill stroke markers" d=" M 1.5 151.5 L 1.5 201.5" stroke-linecap="round" stroke-miterlimit="10" stroke-width="3"/><path fill="none" stroke="#000000" paint-order="fill stroke markers" d=" M 101.5 151.5 L 101.5 201.5" stroke-linecap="square" stroke-miterlimit="10" stroke-width="0.8"/><path fill="none" stroke="#000000" paint-order="fill stroke markers" d=" M 51.5 201.5 L 101.5 201.5" stroke-linecap="square" stroke-miterlimit="10" stroke-width="0.8"/><path fill="none" stroke="#000000" paint-order="fill stroke markers" d=" M 151.5 151.5 L 151.5 201.5" stroke-linecap="square" stroke-miterlimit="10" stroke-width="0.8"/><path fill="none" stroke="#000000" paint-order="fill stroke markers" d=" M 101.5 201.5 L 151.5 201.5" stroke-linecap="square" stroke-miterlimit="10" stroke-width="0.8"/><path fill="none" stroke="#000000" paint-order="fill stroke markers" d=" M 201.5 151.5 L 201.5 201.5" stroke-linecap="square" stroke-miterlimit="10" stroke-width="0.8"/><path fill="none" stroke="#000000" paint-order="fill stroke markers" d=" M 151.5 201.5 L 201.5 201.5" stroke-linecap="square" stroke-miterlimit="10" stroke-width="0.8"/><path fill="none" stroke="#000000" paint-order="fill stroke markers" d=" M 251.5 151.5 L 251.5 201.5" stroke-linecap="square" stroke-miterlimit="10" stroke-width="0.8"/><path fill="none" stroke="#000000" paint-order="fill stroke markers" d=" M 201.5 201.5 L 251.5 201.5" stroke-linecap="square" stroke-miterlimit="10" stroke-width="0.8"/><path fill="none" stroke="#000000" paint-order="fill stroke markers" d=" M 301.5 151.5 L 301.5 201.5" stroke-linecap="square" stroke-miterlimit="10" stroke-width="0.8"/><path fill="none" stroke="#000000" paint-order="fill stroke markers" d=" M 251.5 201.5 L 301.5 201.5" stroke-linecap="square" stroke-miterlimit="10" stroke-width="0.8"/><path fill="none" stroke="#000000" paint-order="fill stroke markers" d=" M 351.5 151.5 L 351.5 201.5" stroke-linecap="square" stroke-miterlimit="10" stroke-width="0.8"/><path fill="none" stroke="#000000" paint-order="fill stroke markers" d=" M 301.5 201.5 L 351.5 201.5" stroke-linecap="square" stroke-miterlimit="10" stroke-width="0.8"/><path fill="none" stroke="#000000" paint-order="fill stroke markers" d=" M 401.5 151.5 L 401.5 201.5" stroke-linecap="square" stroke-miterlimit="10" stroke-width="0.8"/><path fill="none" stroke="#000000" paint-order="fill stroke markers" d=" M 351.5 201.5 L 401.5 201.5" stroke-linecap="square" stroke-miterlimit="10" stroke-width="0.8"/><path fill="none" stroke="#000000" paint-order="fill stroke markers" d=" M 451.5 151.5 L 451.5 201.5" stroke-linecap="round" stroke-miterlimit="10" stroke-width="3"/><path fill="none" stroke="#000000" paint-order="fill stroke markers" d=" M 401.5 201.5 L 451.5 201.5" stroke-linecap="square" stroke-miterlimit="10" stroke-width="0.8"/><path fill="none" stroke="#000000" paint-order="fill stroke markers" d=" M 51.5 201.5 L 51.5 251.5" stroke-linecap="square" stroke-miterlimit="10" stroke-width="0.8"/><path fill="none" stroke="#000000" paint-order="fill stroke markers" d=" M 1.5 251.5 L 51.5 251.5" stroke-linecap="square" stroke-miterlimit="10" stroke-width="0.8"/><path fill="none" stroke="#000000" paint-order="fill stroke markers" d=" M 1.5 201.5 L 1.5 251.5" stroke-linecap="round" stroke-miterlimit="10" stroke-width="3"/><path fill="none" stroke="#000000" paint-order="fill stroke markers" d=" M 101.5 201.5 L 101.5 251.5" stroke-linecap="square" stroke-miterlimit="10" stroke-width="0.8"/><path fill="none" stroke="#000000" paint-order="fill stroke markers" d=" M 51.5 251.5 L 101.5 251.5" stroke-linecap="square" stroke-miterlimit="10" stroke-width="0.8"/><path fill="none" stroke="#000000" paint-order="fill stroke markers" d=" M 151.5 201.5 L 151.5 251.5" stroke-linecap="square" stroke-miterlimit="10" stroke-width="0.8"/><path fill="none" stroke="#000000" paint-order="fill stroke markers" d=" M 101.5 251.5 L 151.5 251.5" stroke-linecap="square" stroke-miterlimit="10" stroke-width="0.8"/><path fill="none" stroke="#000000" paint-order="fill stroke markers" d=" M 201.5 201.5 L 201.5 251.5" stroke-linecap="square" stroke-miterlimit="10" stroke-width="0.8"/><path fill="none" stroke="#000000" paint-order="fill stroke markers" d=" M 151.5 251.5 L 201.5 251.5" stroke-linecap="square" stroke-miterlimit="10" stroke-width="0.8"/><path fill="none" stroke="#000000" paint-order="fill stroke markers" d=" M 251.5 201.5 L 251.5 251.5" stroke-linecap="square" stroke-miterlimit="10" stroke-width="0.8"/><path fill="none" stroke="#000000" paint-order="fill stroke markers" d=" M 201.5 251.5 L 251.5 251.5" stroke-linecap="square" stroke-miterlimit="10" stroke-width="0.8"/><path fill="none" stroke="#000000" paint-order="fill stroke markers" d=" M 301.5 201.5 L 301.5 251.5" stroke-linecap="square" stroke-miterlimit="10" stroke-width="0.8"/><path fill="none" stroke="#000000" paint-order="fill stroke markers" d=" M 251.5 251.5 L 301.5 251.5" stroke-linecap="square" stroke-miterlimit="10" stroke-width="0.8"/><path fill="none" stroke="#000000" paint-order="fill stroke markers" d=" M 351.5 201.5 L 351.5 251.5" stroke-linecap="square" stroke-miterlimit="10" stroke-width="0.8"/><path fill="none" stroke="#000000" paint-order="fill stroke markers" d=" M 301.5 251.5 L 351.5 251.5" stroke-linecap="square" stroke-miterlimit="10" stroke-width="0.8"/><path fill="none" stroke="#000000" paint-order="fill stroke markers" d=" M 401.5 201.5 L 401.5 251.5" stroke-linecap="square" stroke-miterlimit="10" stroke-width="0.8"/><path fill="none" stroke="#000000" paint-order="fill stroke markers" d=" M 351.5 251.5 L 401.5 251.5" stroke-linecap="square" stroke-miterlimit="10" stroke-width="0.8"/><path fill="none" stroke="#000000" paint-order="fill stroke markers" d=" M 451.5 201.5 L 451.5 251.5" stroke-linecap="round" stroke-miterlimit="10" stroke-width="3"/><path fill="none" stroke="#000000" paint-order="fill stroke markers" d=" M 401.5 251.5 L 451.5 251.5" stroke-linecap="square" stroke-miterlimit="10" stroke-width="0.8"/><path fill="none" stroke="#000000" paint-order="fill stroke markers" d=" M 51.5 251.5 L 51.5 301.5" stroke-linecap="square" stroke-miterlimit="10" stroke-width="0.8"/><path fill="none" stroke="#000000" paint-order="fill stroke markers" d=" M 1.5 301.5 L 51.5 301.5" stroke-linecap="square" stroke-miterlimit="10" stroke-width="0.8"/><path fill="none" stroke="#000000" paint-order="fill stroke markers" d=" M 1.5 251.5 L 1.5 301.5" stroke-linecap="round" stroke-miterlimit="10" stroke-width="3"/><path fill="none" stroke="#000000" paint-order="fill stroke markers" d=" M 101.5 251.5 L 101.5 301.5" stroke-linecap="square" stroke-miterlimit="10" stroke-width="0.8"/><path fill="none" stroke="#000000" paint-order="fill stroke markers" d=" M 51.5 301.5 L 101.5 301.5" stroke-linecap="square" stroke-miterlimit="10" stroke-width="0.8"/><path fill="none" stroke="#000000" paint-order="fill stroke markers" d=" M 151.5 251.5 L 151.5 301.5" stroke-linecap="square" stroke-miterlimit="10" stroke-width="0.8"/><path fill="none" stroke="#000000" paint-order="fill stroke markers" d=" M 101.5 301.5 L 151.5 301.5" stroke-linecap="square" stroke-miterlimit="10" stroke-width="0.8"/><path fill="none" stroke="#000000" paint-order="fill stroke markers" d=" M 201.5 251.5 L 201.5 301.5" stroke-linecap="square" stroke-miterlimit="10" stroke-width="0.8"/><path fill="none" stroke="#000000" paint-order="fill stroke markers" d=" M 151.5 301.5 L 201.5 301.5" stroke-linecap="square" stroke-miterlimit="10" stroke-width="0.8"/><path fill="none" stroke="#000000" paint-order="fill stroke markers" d=" M 251.5 251.5 L 251.5 301.5" stroke-linecap="square" stroke-miterlimit="10" stroke-width="0.8"/><path fill="none" stroke="#000000" paint-order="fill stroke markers" d=" M 201.5 301.5 L 251.5 301.5" stroke-linecap="square" stroke-miterlimit="10" stroke-width="0.8"/><path fill="none" stroke="#000000" paint-order="fill stroke markers" d=" M 301.5 251.5 L 301.5 301.5" stroke-linecap="square" stroke-miterlimit="10" stroke-width="0.8"/><path fill="none" stroke="#000000" paint-order="fill stroke markers" d=" M 251.5 301.5 L 301.5 301.5" stroke-linecap="square" stroke-miterlimit="10" stroke-width="0.8"/><path fill="none" stroke="#000000" paint-order="fill stroke markers" d=" M 351.5 251.5 L 351.5 301.5" stroke-linecap="square" stroke-miterlimit="10" stroke-width="0.8"/><path fill="none" stroke="#000000" paint-order="fill stroke markers" d=" M 301.5 301.5 L 351.5 301.5" stroke-linecap="square" stroke-miterlimit="10" stroke-width="0.8"/><path fill="none" stroke="#000000" paint-order="fill stroke markers" d=" M 401.5 251.5 L 401.5 301.5" stroke-linecap="square" stroke-miterlimit="10" stroke-width="0.8"/><path fill="none" stroke="#000000" paint-order="fill stroke markers" d=" M 351.5 301.5 L 401.5 301.5" stroke-linecap="square" stroke-miterlimit="10" stroke-width="0.8"/><path fill="none" stroke="#000000" paint-order="fill stroke markers" d=" M 451.5 251.5 L 451.5 301.5" stroke-linecap="round" stroke-miterlimit="10" stroke-width="3"/><path fill="none" stroke="#000000" paint-order="fill stroke markers" d=" M 401.5 301.5 L 451.5 301.5" stroke-linecap="square" stroke-miterlimit="10" stroke-width="0.8"/><path fill="none" stroke="#000000" paint-order="fill stroke markers" d=" M 51.5 301.5 L 51.5 351.5" stroke-linecap="square" stroke-miterlimit="10" stroke-width="0.8"/><path fill="none" stroke="#000000" paint-order="fill stroke markers" d=" M 1.5 351.5 L 51.5 351.5" stroke-linecap="square" stroke-miterlimit="10" stroke-width="0.8"/><path fill="none" stroke="#000000" paint-order="fill stroke markers" d=" M 1.5 301.5 L 1.5 351.5" stroke-linecap="round" stroke-miterlimit="10" stroke-width="3"/><path fill="none" stroke="#000000" paint-order="fill stroke markers" d=" M 101.5 301.5 L 101.5 351.5" stroke-linecap="square" stroke-miterlimit="10" stroke-width="0.8"/><path fill="none" stroke="#000000" paint-order="fill stroke markers" d=" M 51.5 351.5 L 101.5 351.5" stroke-linecap="square" stroke-miterlimit="10" stroke-width="0.8"/><path fill="none" stroke="#000000" paint-order="fill stroke markers" d=" M 151.5 301.5 L 151.5 351.5" stroke-linecap="square" stroke-miterlimit="10" stroke-width="0.8"/><path fill="none" stroke="#000000" paint-order="fill stroke markers" d=" M 101.5 351.5 L 151.5 351.5" stroke-linecap="square" stroke-miterlimit="10" stroke-width="0.8"/><path fill="none" stroke="#000000" paint-order="fill stroke markers" d=" M 201.5 301.5 L 201.5 351.5" stroke-linecap="square" stroke-miterlimit="10" stroke-width="0.8"/><path fill="none" stroke="#000000" paint-order="fill stroke markers" d=" M 151.5 351.5 L 201.5 351.5" stroke-linecap="square" stroke-miterlimit="10" stroke-width="0.8"/><path fill="none" stroke="#000000" paint-order="fill stroke markers" d=" M 251.5 301.5 L 251.5 351.5" stroke-linecap="square" stroke-miterlimit="10" stroke-width="0.8"/><path fill="none" stroke="#000000" paint-order="fill stroke markers" d=" M 201.5 351.5 L 251.5 351.5" stroke-linecap="square" stroke-miterlimit="10" stroke-width="0.8"/><path fill="none" stroke="#000000" paint-order="fill stroke markers" d=" M 301.5 301.5 L 301.5 351.5" stroke-linecap="square" stroke-miterlimit="10" stroke-width="0.8"/><path fill="none" stroke="#000000" paint-order="fill stroke markers" d=" M 251.5 351.5 L 301.5 351.5" stroke-linecap="square" stroke-miterlimit="10" stroke-width="0.8"/><path fill="none" stroke="#000000" paint-order="fill stroke markers" d=" M 351.5 301.5 L 351.5 351.5" stroke-linecap="square" stroke-miterlimit="10" stroke-width="0.8"/><path fill="none" stroke="#000000" paint-order="fill stroke markers" d=" M 301.5 351.5 L 351.5 351.5" stroke-linecap="square" stroke-miterlimit="10" stroke-width="0.8"/><path fill="none" stroke="#000000" paint-order="fill stroke markers" d=" M 401.5 301.5 L 401.5 351.5" stroke-linecap="square" stroke-miterlimit="10" stroke-width="0.8"/><path fill="none" stroke="#000000" paint-order="fill stroke markers" d=" M 351.5 351.5 L 401.5 351.5" stroke-linecap="square" stroke-miterlimit="10" stroke-width="0.8"/><path fill="none" stroke="#000000" paint-order="fill stroke markers" d=" M 451.5 301.5 L 451.5 351.5" stroke-linecap="round" stroke-miterlimit="10" stroke-width="3"/><path fill="none" stroke="#000000" paint-order="fill stroke markers" d=" M 401.5 351.5 L 451.5 351.5" stroke-linecap="square" stroke-miterlimit="10" stroke-width="0.8"/><path fill="none" stroke="#000000" paint-order="fill stroke markers" d=" M 51.5 351.5 L 51.5 401.5" stroke-linecap="square" stroke-miterlimit="10" stroke-width="0.8"/><path fill="none" stroke="#000000" paint-order="fill stroke markers" d=" M 1.5 401.5 L 51.5 401.5" stroke-linecap="square" stroke-miterlimit="10" stroke-width="0.8"/><path fill="none" stroke="#000000" paint-order="fill stroke markers" d=" M 1.5 351.5 L 1.5 401.5" stroke-linecap="round" stroke-miterlimit="10" stroke-width="3"/><path fill="none" stroke="#000000" paint-order="fill stroke markers" d=" M 101.5 351.5 L 101.5 401.5" stroke-linecap="square" stroke-miterlimit="10" stroke-width="0.8"/><path fill="none" stroke="#000000" paint-order="fill stroke markers" d=" M 51.5 401.5 L 101.5 401.5" stroke-linecap="square" stroke-miterlimit="10" stroke-width="0.8"/><path fill="none" stroke="#000000" paint-order="fill stroke markers" d=" M 151.5 351.5 L 151.5 401.5" stroke-linecap="square" stroke-miterlimit="10" stroke-width="0.8"/><path fill="none" stroke="#000000" paint-order="fill stroke markers" d=" M 101.5 401.5 L 151.5 401.5" stroke-linecap="square" stroke-miterlimit="10" stroke-width="0.8"/><path fill="none" stroke="#000000" paint-order="fill stroke markers" d=" M 201.5 351.5 L 201.5 401.5" stroke-linecap="square" stroke-miterlimit="10" stroke-width="0.8"/><path fill="none" stroke="#000000" paint-order="fill stroke markers" d=" M 151.5 401.5 L 201.5 401.5" stroke-linecap="square" stroke-miterlimit="10" stroke-width="0.8"/><path fill="none" stroke="#000000" paint-order="fill stroke markers" d=" M 251.5 351.5 L 251.5 401.5" stroke-linecap="square" stroke-miterlimit="10" stroke-width="0.8"/><path fill="none" stroke="#000000" paint-order="fill stroke markers" d=" M 201.5 401.5 L 251.5 401.5" stroke-linecap="square" stroke-miterlimit="10" stroke-width="0.8"/><path fill="none" stroke="#000000" paint-order="fill stroke markers" d=" M 301.5 351.5 L 301.5 401.5" stroke-linecap="square" stroke-miterlimit="10" stroke-width="0.8"/><path fill="none" stroke="#000000" paint-order="fill stroke markers" d=" M 251.5 401.5 L 301.5 401.5" stroke-linecap="square" stroke-miterlimit="10" stroke-width="0.8"/><path fill="none" stroke="#000000" paint-order="fill stroke markers" d=" M 351.5 351.5 L 351.5 401.5" stroke-linecap="square" stroke-miterlimit="10" stroke-width="0.8"/><path fill="none" stroke="#000000" paint-order="fill stroke markers" d=" M 301.5 401.5 L 351.5 401.5" stroke-linecap="square" stroke-miterlimit="10" stroke-width="0.8"/><path fill="none" stroke="#000000" paint-order="fill stroke markers" d=" M 401.5 351.5 L 401.5 401.5" stroke-linecap="square" stroke-miterlimit="10" stroke-width="0.8"/><path fill="none" stroke="#000000" paint-order="fill stroke markers" d=" M 351.5 401.5 L 401.5 401.5" stroke-linecap="square" stroke-miterlimit="10" stroke-width="0.8"/><path fill="none" stroke="#000000" paint-order="fill stroke markers" d=" M 451.5 351.5 L 451.5 401.5" stroke-linecap="round" stroke-miterlimit="10" stroke-width="3"/><path fill="none" stroke="#000000" paint-order="fill stroke markers" d=" M 401.5 401.5 L 451.5 401.5" stroke-linecap="square" stroke-miterlimit="10" stroke-width="0.8"/><path fill="none" stroke="#000000" paint-order="fill stroke markers" d=" M 51.5 401.5 L 51.5 451.5" stroke-linecap="square" stroke-miterlimit="10" stroke-width="0.8"/><path fill="none" stroke="#000000" paint-order="fill stroke markers" d=" M 1.5 451.5 L 51.5 451.5" stroke-linecap="round" stroke-miterlimit="10" stroke-width="3"/><path fill="none" stroke="#000000" paint-order="fill stroke markers" d=" M 1.5 401.5 L 1.5 451.5" stroke-linecap="round" stroke-miterlimit="10" stroke-width="3"/><path fill="none" stroke="#000000" paint-order="fill stroke markers" d=" M 101.5 401.5 L 101.5 451.5" stroke-linecap="square" stroke-miterlimit="10" stroke-width="0.8"/><path fill="none" stroke="#000000" paint-order="fill stroke markers" d=" M 51.5 451.5 L 101.5 451.5" stroke-linecap="round" stroke-miterlimit="10" stroke-width="3"/><path fill="none" stroke="#000000" paint-order="fill stroke markers" d=" M 151.5 401.5 L 151.5 451.5" stroke-linecap="square" stroke-miterlimit="10" stroke-width="0.8"/><path fill="none" stroke="#000000" paint-order="fill stroke markers" d=" M 101.5 451.5 L 151.5 451.5" stroke-linecap="round" stroke-miterlimit="10" stroke-width="3"/><path fill="none" stroke="#000000" paint-order="fill stroke markers" d=" M 201.5 401.5 L 201.5 451.5" stroke-linecap="square" stroke-miterlimit="10" stroke-width="0.8"/><path fill="none" stroke="#000000" paint-order="fill stroke markers" d=" M 151.5 451.5 L 201.5 451.5" stroke-linecap="round" stroke-miterlimit="10" stroke-width="3"/><path fill="none" stroke="#000000" paint-order="fill stroke markers" d=" M 251.5 401.5 L 251.5 451.5" stroke-linecap="square" stroke-miterlimit="10" stroke-width="0.8"/><path fill="none" stroke="#000000" paint-order="fill stroke markers" d=" M 201.5 451.5 L 251.5 451.5" stroke-linecap="round" stroke-miterlimit="10" stroke-width="3"/><path fill="none" stroke="#000000" paint-order="fill stroke markers" d=" M 301.5 401.5 L 301.5 451.5" stroke-linecap="square" stroke-miterlimit="10" stroke-width="0.8"/><path fill="none" stroke="#000000" paint-order="fill stroke markers" d=" M 251.5 451.5 L 301.5 451.5" stroke-linecap="round" stroke-miterlimit="10" stroke-width="3"/><path fill="none" stroke="#000000" paint-order="fill stroke markers" d=" M 351.5 401.5 L 351.5 451.5" stroke-linecap="square" stroke-miterlimit="10" stroke-width="0.8"/><path fill="none" stroke="#000000" paint-order="fill stroke markers" d=" M 301.5 451.5 L 351.5 451.5" stroke-linecap="round" stroke-miterlimit="10" stroke-width="3"/><path fill="none" stroke="#000000" paint-order="fill stroke markers" d=" M 401.5 401.5 L 401.5 451.5" stroke-linecap="square" stroke-miterlimit="10" stroke-width="0.8"/><path fill="none" stroke="#000000" paint-order="fill stroke markers" d=" M 351.5 451.5 L 401.5 451.5" stroke-linecap="round" stroke-miterlimit="10" stroke-width="3"/><path fill="none" stroke="#000000" paint-order="fill stroke markers" d=" M 451.5 401.5 L 451.5 451.5" stroke-linecap="round" stroke-miterlimit="10" stroke-width="3"/><path fill="none" stroke="#000000" paint-order="fill stroke markers" d=" M 401.5 451.5 L 451.5 451.5" stroke-linecap="round" stroke-miterlimit="10" stroke-width="3"/><path fill="#ffffff" stroke="#000000" paint-order="fill stroke markers" d=" M 97.5 76.5 A 21 21 0 1 1 97.49998950000088 76.47900000349999" stroke-miterlimit="10"/><path fill="#ffffff" stroke="#000000" paint-order="fill stroke markers" d=" M 247.5 226.5 A 21 21 0 1 1 247.49998950000088 226.47900000349998" stroke-miterlimit="10"/><path fill="#ffffff" stroke="#000000" paint-order="fill stroke markers" d=" M 397.5 226.5 A 21 21 0 1 1 397.4999895000009 226.47900000349998" stroke-miterlimit="10"/><path fill="#ffffff" stroke="#000000" paint-order="fill stroke markers" d=" M 247.5 376.5 A 21 21 0 1 1 247.49998950000088 376.4790000035" stroke-miterlimit="10"/><text fill="none" stroke="rgb(255,255,255)" font-family="Helvetica,Arial" font-size="35px" font-style="normal" font-weight="normal" text-decoration="normal" x="76.5" y="89.3" text-anchor="middle" dominant-baseline="alphabetic" stroke-opacity="0" stroke-miterlimit="10" stroke-width="2">6</text><text fill="#000000" stroke="none" font-family="Helvetica,Arial" font-size="35px" font-style="normal" font-weight="normal" text-decoration="normal" x="76.5" y="89.3" text-anchor="middle" dominant-baseline="alphabetic">6</text><text fill="none" stroke="rgb(255,255,255)" font-family="Helvetica,Arial" font-size="35px" font-style="normal" font-weight="normal" text-decoration="normal" x="226.5" y="239.3" text-anchor="middle" dominant-baseline="alphabetic" stroke-opacity="0" stroke-miterlimit="10" stroke-width="2">1</text><text fill="#000000" stroke="none" font-family="Helvetica,Arial" font-size="35px" font-style="normal" font-weight="normal" text-decoration="normal" x="226.5" y="239.3" text-anchor="middle" dominant-baseline="alphabetic">1</text><text fill="none" stroke="rgb(255,255,255)" font-family="Helvetica,Arial" font-size="35px" font-style="normal" font-weight="normal" text-decoration="normal" x="376.5" y="239.3" text-anchor="middle" dominant-baseline="alphabetic" stroke-opacity="0" stroke-miterlimit="10" stroke-width="2">4</text><text fill="#000000" stroke="none" font-family="Helvetica,Arial" font-size="35px" font-style="normal" font-weight="normal" text-decoration="normal" x="376.5" y="239.3" text-anchor="middle" dominant-baseline="alphabetic">4</text><text fill="none" stroke="rgb(255,255,255)" font-family="Helvetica,Arial" font-size="35px" font-style="normal" font-weight="normal" text-decoration="normal" x="226.5" y="389.3" text-anchor="middle" dominant-baseline="alphabetic" stroke-opacity="0" stroke-miterlimit="10" stroke-width="2">7</text><text fill="#000000" stroke="none" font-family="Helvetica,Arial" font-size="35px" font-style="normal" font-weight="normal" text-decoration="normal" x="226.5" y="389.3" text-anchor="middle" dominant-baseline="alphabetic">7</text></g></svg>