<svg version="1.1" xmlns="http://www.w3.org/2000/svg" xmlns:xlink="http://www.w3.org/1999/xlink" width="655.2" height="290.4"><defs/><g><rect fill="rgb(255,255,255)" stroke="none" x="0" y="0" width="655.2" height="290.4" fill-opacity="0"/><path fill="#ffffff" stroke="#000000" paint-order="fill stroke markers" d=" M 0.49999999999999645 0.5 L 48.5 0.49999999999999645 L 48.500000000000014 48.5 L 0.5000000000000036 48.500000000000014 Z" stroke-miterlimit="10"/><path fill="#ffffff" stroke="#000000" paint-order="fill stroke markers" d=" M 60.5 0.5 L 108.5 0.49999999999999645 L 108.50000000000001 48.5 L 60.5 48.500000000000014 Z" stroke-miterlimit="10"/><path fill="#ffffff" stroke="#000000" paint-order="fill stroke markers" d=" M 120.5 0.5 L 168.5 0.49999999999999645 L 168.5 48.5 L 120.5 48.500000000000014 Z" stroke-miterlimit="10"/><path fill="#ffffff" stroke="#000000" paint-order="fill stroke markers" d=" M 180.5 0.5 L 228.5 0.49999999999999645 L 228.5 48.5 L 180.5 48.500000000000014 Z" stroke-miterlimit="10"/><path fill="#ffffff" stroke="#000000" paint-order="fill stroke markers" d=" M 240.5 0.5 L 288.5 0.49999999999999645 L 288.5 48.5 L 240.5 48.500000000000014 Z" stroke-miterlimit="10"/><path fill="#ffffff" stroke="#000000" paint-order="fill stroke markers" d=" M 0.49999999999999645 60.5 L 48.5 60.5 L 48.500000000000014 108.5 L 0.5000000000000036 108.50000000000001 Z" stroke-miterlimit="10"/><path fill="#ffffff" stroke="#000000" paint-order="fill stroke markers" d=" M 60.5 60.5 L 108.5 60.5 L 108.50000000000001 108.5 L 60.5 108.50000000000001 Z" stroke-miterlimit="10"/><path fill="#ffffff" stroke="#000000" paint-order="fill stroke markers" d=" M 120.5 60.5 L 168.5 60.5 L 168.5 108.5 L 120.5 108.50000000000001 Z" stroke-miterlimit="10"/><path fill="#ffffff" stroke="#000000" paint-order="fill stroke markers" d=" M 180.5 60.5 L 228.5 60.5 L 228.5 108.5 L 180.5 108.50000000000001 Z" stroke-miterlimit="10"/><path fill="#ffffff" stroke="#000000" paint-order="fill stroke markers" d=" M 240.5 60.5 L 288.5 60.5 L 288.5 108.5 L 240.5 108.50000000000001 Z" stroke-miterlimit="10"/><path fill="#ffffff" stroke="#000000" paint-order="fill stroke markers" d=" M 0.49999999999999645 120.5 L 48.5 120.5 L 48.500000000000014 168.5 L 0.5000000000000036 168.5 Z" stroke-miterlimit="10"/><path fill="#ffffff" stroke="#000000" paint-order="fill stroke markers" d=" M 60.5 120.5 L 108.5 120.5 L 108.50000000000001 168.5 L 60.5 168.5 Z" stroke-miterlimit="10"/><path fill="#ffffff" stroke="#000000" paint-order="fill stroke markers" d=" M 120.5 120.5 L 168.5 120.5 L 168.5 168.5 L 120.5 168.5 Z" stroke-miterlimit="10"/><path fill="#ffffff" stroke="#000000" paint-order="fill stroke markers" d=" M 180.5 120.5 L 228.5 120.5 L 228.5 168.5 L 180.5 168.5 Z" stroke-miterlimit="10"/><path fill="#ffffff" stroke="#000000" paint-order="fill stroke markers" d=" M 240.5 120.5 L 288.5 120.5 L 288.5 168.5 L 240.5 168.5 Z" stroke-miterlimit="10"/><path fill="#ffffff" stroke="#000000" paint-order="fill stroke markers" d=" M 0.49999999999999645 180.5 L 48.5 180.5 L 48.500000000000014 228.5 L 0.5000000000000036 228.5 Z" stroke-miterlimit="10"/><path fill="#ffffff" stroke="#000000" paint-order="fill stroke markers" d=" M 60.5 180.5 L 108.5 180.5 L 108.50000000000001 228.5 L 60.5 228.5 Z" stroke-miterlimit="10"/><path fill="#ffffff" stroke="#000000" paint-order="fill stroke markers" d=" M 120.5 180.5 L 168.5 180.5 L 168.5 228.5 L 120.5 228.5 Z" stroke-miterlimit="10"/><path fill="#ffffff" stroke="#000000" paint-order="fill stroke markers" d=" M 180.5 180.5 L 228.5 180.5 L 228.5 228.5 L 180.5 228.5 Z" stroke-miterlimit="10"/><path fill="#ffffff" stroke="#000000" paint-order="fill stroke markers" d=" M 240.5 180.5 L 288.5 180.5 L 288.5 228.5 L 240.5 228.5 Z" stroke-miterlimit="10"/><path fill="#ffffff" stroke="#000000" paint-order="fill stroke markers" d=" M 0.49999999999999645 240.5 L 48.5 240.5 L 48.500000000000014 288.5 L 0.5000000000000036 288.5 Z" stroke-miterlimit="10"/><path fill="#ffffff" stroke="#000000" paint-order="fill stroke markers" d=" M 60.5 240.5 L 108.5 240.5 L 108.50000000000001 288.5 L 60.5 288.5 Z" stroke-miterlimit="10"/><path fill="#ffffff" stroke="#000000" paint-order="fill stroke markers" d=" M 120.5 240.5 L 168.5 240.5 L 168.5 288.5 L 120.5 288.5 Z" stroke-miterlimit="10"/><path fill="#ffffff" stroke="#000000" paint-order="fill stroke markers" d=" M 180.5 240.5 L 228.5 240.5 L 228.5 288.5 L 180.5 288.5 Z" stroke-miterlimit="10"/><path fill="#ffffff" stroke="#000000" paint-order="fill stroke markers" d=" M 240.5 240.5 L 288.5 240.5 L 288.5 288.5 L 240.5 288.5 Z" stroke-miterlimit="10"/><path fill="#ffffff" stroke="#000000" paint-order="fill stroke markers" d=" M 32.9 46.099999999999994 L 24.500000000000004 62.9 L 16.1 46.099999999999994" stroke-miterlimit="10" stroke-width="2"/><path fill="#ffffff" stroke="#000000" paint-order="fill stroke markers" d=" M 272.9 106.1 L 264.5 122.9 L 256.1 106.1" stroke-miterlimit="10" stroke-width="2"/><path fill="#ffffff" stroke="#000000" paint-order="fill stroke markers" d=" M 32.9 166.1 L 24.500000000000004 182.9 L 16.1 166.1" stroke-miterlimit="10" stroke-width="2"/><path fill="#ffffff" stroke="#000000" paint-order="fill stroke markers" d=" M 272.9 226.1 L 264.5 242.9 L 256.1 226.1" stroke-miterlimit="10" stroke-width="2"/><path fill="#ffffff" stroke="#000000" paint-order="fill stroke markers" d=" M 46.099999999999994 76.1 L 62.9 84.5 L 46.10000000000001 92.9" stroke-miterlimit="10" stroke-width="2"/><path fill="#ffffff" stroke="#000000" paint-order="fill stroke markers" d=" M 46.099999999999994 136.1 L 62.9 144.5 L 46.10000000000001 152.9" stroke-miterlimit="10" stroke-width="2"/><path fill="#ffffff" stroke="#000000" paint-order="fill stroke markers" d=" M 242.9 152.9 L 226.1 144.5 L 242.9 136.1" stroke-miterlimit="10" stroke-width="2"/><path fill="#ffffff" stroke="#000000" paint-order="fill stroke markers" d=" M 242.9 212.9 L 226.1 204.5 L 242.9 196.1" stroke-miterlimit="10" stroke-width="2"/><path fill="none" stroke="#000000" paint-order="fill stroke markers" d=" M 384.5 144.5 L 624.5 144.5" stroke-linecap="round" stroke-miterlimit="10" stroke-width="3"/><path fill="none" stroke="#000000" paint-order="fill stroke markers" d=" M 504.5 144.5 L 444.5 264.5" stroke-linecap="round" stroke-miterlimit="10" stroke-width="3"/><path fill="none" stroke="#000000" paint-order="fill stroke markers" d=" M 444.5 264.5 L 564.5 264.5" stroke-linecap="round" stroke-miterlimit="10" stroke-width="3"/><path fill="none" stroke="#000000" paint-order="fill stroke markers" d=" M 624.5 144.5 L 564.5 264.5" stroke-linecap="round" stroke-miterlimit="10" stroke-width="3"/><path fill="none" stroke="#444444" paint-order="fill stroke markers" d=" M 354.5 54.5 L 414.5 54.5" stroke-linecap="square" stroke-miterlimit="10" stroke-dasharray="3.5999999999999996,8.4" stroke-dashoffset="1.7999999999999998"/><path fill="none" stroke="#444444" paint-order="fill stroke markers" d=" M 414.5 54.5 L 474.5 54.5" stroke-linecap="square" stroke-miterlimit="10" stroke-dasharray="3.5999999999999996,8.4" stroke-dashoffset="1.7999999999999998"/><path fill="none" stroke="#444444" paint-order="fill stroke markers" d=" M 474.5 54.5 L 534.5 54.5" stroke-linecap="square" stroke-miterlimit="10" stroke-dasharray="3.5999999999999996,8.4" stroke-dashoffset="1.7999999999999998"/><path fill="none" stroke="#444444" paint-order="fill stroke markers" d=" M 534.5 54.5 L 594.5 54.5" stroke-linecap="square" stroke-miterlimit="10" stroke-dasharray="3.5999999999999996,8.4" stroke-dashoffset="1.7999999999999998"/><path fill="none" stroke="#444444" paint-order="fill stroke markers" d=" M 594.5 54.5 L 654.5 54.5" stroke-linecap="square" stroke-miterlimit="10" stroke-dasharray="3.5999999999999996,8.4" stroke-dashoffset="1.7999999999999998"/><path fill="#ffffff" stroke="#000000" paint-order="fill stroke markers" d=" M 409.7 144.5 A 25.2 25.2 0 1 1 409.6999874000011 144.47480000419998" stroke-miterlimit="10"/><path fill="#ffffff" stroke="#000000" paint-order="fill stroke markers" d=" M 529.7 144.5 A 25.2 25.2 0 1 1 529.6999874000011 144.47480000419998" stroke-miterlimit="10"/><path fill="#ffffff" stroke="#000000" paint-order="fill stroke markers" d=" M 649.7 144.5 A 25.2 25.2 0 1 1 649.6999874000011 144.47480000419998" stroke-miterlimit="10"/><path fill="#ffffff" stroke="#000000" paint-order="fill stroke markers" d=" M 469.7 264.5 A 25.2 25.2 0 1 1 469.6999874000011 264.4748000042" stroke-miterlimit="10"/><path fill="#ffffff" stroke="#000000" paint-order="fill stroke markers" d=" M 589.7 264.5 A 25.2 25.2 0 1 1 589.6999874000011 264.4748000042" stroke-miterlimit="10"/><text fill="none" stroke="rgb(255,255,255)" font-family="Helvetica,Arial" font-size="42px" font-style="normal" font-weight="normal" text-decoration="normal" x="504.5" y="39.86" text-anchor="middle" dominant-baseline="alphabetic" stroke-opacity="0" stroke-miterlimit="10">&lt;</text><text fill="#000000" stroke="none" font-family="Helvetica,Arial" font-size="42px" font-style="normal" font-weight="normal" text-decoration="normal" x="504.5" y="39.86" text-anchor="middle" dominant-baseline="alphabetic">&lt;</text><text fill="none" stroke="rgb(255,255,255)" font-family="Helvetica,Arial" font-size="42px" font-style="normal" font-weight="normal" text-decoration="normal" x="384.5" y="159.85999999999999" text-anchor="middle" dominant-baseline="alphabetic" stroke-opacity="0" stroke-miterlimit="10" stroke-width="2">1</text><text fill="#000000" stroke="none" font-family="Helvetica,Arial" font-size="42px" font-style="normal" font-weight="normal" text-decoration="normal" x="384.5" y="159.85999999999999" text-anchor="middle" dominant-baseline="alphabetic">1</text><text fill="none" stroke="rgb(255,255,255)" font-family="Helvetica,Arial" font-size="42px" font-style="normal" font-weight="normal" text-decoration="normal" x="504.5" y="159.85999999999999" text-anchor="middle" dominant-baseline="alphabetic" stroke-opacity="0" stroke-miterlimit="10" stroke-width="2">3</text><text fill="#000000" stroke="none" font-family="Helvetica,Arial" font-size="42px" font-style="normal" font-weight="normal" text-decoration="normal" x="504.5" y="159.85999999999999" text-anchor="middle" dominant-baseline="alphabetic">3</text><text fill="none" stroke="rgb(255,255,255)" font-family="Helvetica,Arial" font-size="42px" font-style="normal" font-weight="normal" text-decoration="normal" x="624.5" y="159.85999999999999" text-anchor="middle" dominant-baseline="alphabetic" stroke-opacity="0" stroke-miterlimit="10" stroke-width="2">5</text><text fill="#000000" stroke="none" font-family="Helvetica,Arial" font-size="42px" font-style="normal" font-weight="normal" text-decoration="normal" x="624.5" y="159.85999999999999" text-anchor="middle" dominant-baseline="alphabetic">5</text><text fill="none" stroke="rgb(255,255,255)" font-family="Helvetica,Arial" font-size="42px" font-style="normal" font-weight="normal" text-decoration="normal" x="444.5" y="279.86" text-anchor="middle" dominant-baseline="alphabetic" stroke-opacity="0" stroke-miterlimit="10" stroke-width="2">2</text><text fill="#000000" stroke="none" font-family="Helvetica,Arial" font-size="42px" font-style="normal" font-weight="normal" text-decoration="normal" x="444.5" y="279.86" text-anchor="middle" dominant-baseline="alphabetic">2</text><text fill="none" stroke="rgb(255,255,255)" font-family="Helvetica,Arial" font-size="42px" font-style="normal" font-weight="normal" text-decoration="normal" x="564.5" y="279.86" text-anchor="middle" dominant-baseline="alphabetic" stroke-opacity="0" stroke-miterlimit="10" stroke-width="2">4</text><text fill="#000000" stroke="none" font-family="Helvetica,Arial" font-size="42px" font-style="normal" font-weight="normal" text-decoration="normal" x="564.5" y="279.86" text-anchor="middle" dominant-baseline="alphabetic">4</text></g></svg>