<svg version="1.1" xmlns="http://www.w3.org/2000/svg" xmlns:xlink="http://www.w3.org/1999/xlink" width="596" height="341.2"><defs/><g><rect fill="rgb(255,255,255)" stroke="none" x="0" y="0" width="596" height="341.2" fill-opacity="0"/><path fill="#ffffff" stroke="#000000" paint-order="fill stroke markers" d=" M 0.49999999999999645 0.5 L 40.5 0.49999999999999645 L 40.500000000000014 40.5 L 0.5 40.500000000000014 Z" stroke-miterlimit="10"/><path fill="#ffffff" stroke="#000000" paint-order="fill stroke markers" d=" M 50.5 0.5 L 90.5 0.49999999999999645 L 90.50000000000001 40.5 L 50.5 40.500000000000014 Z" stroke-miterlimit="10"/><path fill="#ffffff" stroke="#000000" paint-order="fill stroke markers" d=" M 100.5 0.5 L 140.5 0.49999999999999645 L 140.5 40.5 L 100.5 40.500000000000014 Z" stroke-miterlimit="10"/><path fill="#ffffff" stroke="#000000" paint-order="fill stroke markers" d=" M 150.5 0.5 L 190.5 0.49999999999999645 L 190.5 40.5 L 150.5 40.500000000000014 Z" stroke-miterlimit="10"/><path fill="#ffffff" stroke="#000000" paint-order="fill stroke markers" d=" M 200.5 0.5 L 240.5 0.49999999999999645 L 240.5 40.5 L 200.5 40.500000000000014 Z" stroke-miterlimit="10"/><path fill="#ffffff" stroke="#000000" paint-order="fill stroke markers" d=" M 250.5 0.5 L 290.5 0.49999999999999645 L 290.5 40.5 L 250.5 40.500000000000014 Z" stroke-miterlimit="10"/><path fill="#ffffff" stroke="#000000" paint-order="fill stroke markers" d=" M 300.5 0.5 L 340.5 0.49999999999999645 L 340.5 40.5 L 300.5 40.500000000000014 Z" stroke-miterlimit="10"/><path fill="#ffffff" stroke="#000000" paint-order="fill stroke markers" d=" M 0.49999999999999645 50.5 L 40.5 50.5 L 40.500000000000014 90.5 L 0.5 90.50000000000001 Z" stroke-miterlimit="10"/><path fill="#ffffff" stroke="#000000" paint-order="fill stroke markers" d=" M 50.5 50.5 L 90.5 50.5 L 90.50000000000001 90.5 L 50.5 90.50000000000001 Z" stroke-miterlimit="10"/><path fill="#ffffff" stroke="#000000" paint-order="fill stroke markers" d=" M 100.5 50.5 L 140.5 50.5 L 140.5 90.5 L 100.5 90.50000000000001 Z" stroke-miterlimit="10"/><path fill="#ffffff" stroke="#000000" paint-order="fill stroke markers" d=" M 150.5 50.5 L 190.5 50.5 L 190.5 90.5 L 150.5 90.50000000000001 Z" stroke-miterlimit="10"/><path fill="#ffffff" stroke="#000000" paint-order="fill stroke markers" d=" M 200.5 50.5 L 240.5 50.5 L 240.5 90.5 L 200.5 90.50000000000001 Z" stroke-miterlimit="10"/><path fill="#ffffff" stroke="#000000" paint-order="fill stroke markers" d=" M 250.5 50.5 L 290.5 50.5 L 290.5 90.5 L 250.5 90.50000000000001 Z" stroke-miterlimit="10"/><path fill="#ffffff" stroke="#000000" paint-order="fill stroke markers" d=" M 300.5 50.5 L 340.5 50.5 L 340.5 90.5 L 300.5 90.50000000000001 Z" stroke-miterlimit="10"/><path fill="#ffffff" stroke="#000000" paint-order="fill stroke markers" d=" M 0.49999999999999645 100.5 L 40.5 100.5 L 40.500000000000014 140.5 L 0.5 140.5 Z" stroke-miterlimit="10"/><path fill="#ffffff" stroke="#000000" paint-order="fill stroke markers" d=" M 50.5 100.5 L 90.5 100.5 L 90.50000000000001 140.5 L 50.5 140.5 Z" stroke-miterlimit="10"/><path fill="#ffffff" stroke="#000000" paint-order="fill stroke markers" d=" M 100.5 100.5 L 140.5 100.5 L 140.5 140.5 L 100.5 140.5 Z" stroke-miterlimit="10"/><path fill="#ffffff" stroke="#000000" paint-order="fill stroke markers" d=" M 150.5 100.5 L 190.5 100.5 L 190.5 140.5 L 150.5 140.5 Z" stroke-miterlimit="10"/><path fill="#ffffff" stroke="#000000" paint-order="fill stroke markers" d=" M 200.5 100.5 L 240.5 100.5 L 240.5 140.5 L 200.5 140.5 Z" stroke-miterlimit="10"/><path fill="#ffffff" stroke="#000000" paint-order="fill stroke markers" d=" M 250.5 100.5 L 290.5 100.5 L 290.5 140.5 L 250.5 140.5 Z" stroke-miterlimit="10"/><path fill="#ffffff" stroke="#000000" paint-order="fill stroke markers" d=" M 300.5 100.5 L 340.5 100.5 L 340.5 140.5 L 300.5 140.5 Z" stroke-miterlimit="10"/><path fill="#ffffff" stroke="#000000" paint-order="fill stroke markers" d=" M 0.49999999999999645 150.5 L 40.5 150.5 L 40.500000000000014 190.5 L 0.5 190.5 Z" stroke-miterlimit="10"/><path fill="#ffffff" stroke="#000000" paint-order="fill stroke markers" d=" M 50.5 150.5 L 90.5 150.5 L 90.50000000000001 190.5 L 50.5 190.5 Z" stroke-miterlimit="10"/><path fill="#ffffff" stroke="#000000" paint-order="fill stroke markers" d=" M 100.5 150.5 L 140.5 150.5 L 140.5 190.5 L 100.5 190.5 Z" stroke-miterlimit="10"/><path fill="#ffffff" stroke="#000000" paint-order="fill stroke markers" d=" M 150.5 150.5 L 190.5 150.5 L 190.5 190.5 L 150.5 190.5 Z" stroke-miterlimit="10"/><path fill="#ffffff" stroke="#000000" paint-order="fill stroke markers" d=" M 200.5 150.5 L 240.5 150.5 L 240.5 190.5 L 200.5 190.5 Z" stroke-miterlimit="10"/><path fill="#ffffff" stroke="#000000" paint-order="fill stroke markers" d=" M 250.5 150.5 L 290.5 150.5 L 290.5 190.5 L 250.5 190.5 Z" stroke-miterlimit="10"/><path fill="#ffffff" stroke="#000000" paint-order="fill stroke markers" d=" M 300.5 150.5 L 340.5 150.5 L 340.5 190.5 L 300.5 190.5 Z" stroke-miterlimit="10"/><path fill="#ffffff" stroke="#000000" paint-order="fill stroke markers" d=" M 0.49999999999999645 200.5 L 40.5 200.5 L 40.500000000000014 240.5 L 0.5 240.5 Z" stroke-miterlimit="10"/><path fill="#ffffff" stroke="#000000" paint-order="fill stroke markers" d=" M 50.5 200.5 L 90.5 200.5 L 90.50000000000001 240.5 L 50.5 240.5 Z" stroke-miterlimit="10"/><path fill="#ffffff" stroke="#000000" paint-order="fill stroke markers" d=" M 100.5 200.5 L 140.5 200.5 L 140.5 240.5 L 100.5 240.5 Z" stroke-miterlimit="10"/><path fill="#ffffff" stroke="#000000" paint-order="fill stroke markers" d=" M 150.5 200.5 L 190.5 200.5 L 190.5 240.5 L 150.5 240.5 Z" stroke-miterlimit="10"/><path fill="#ffffff" stroke="#000000" paint-order="fill stroke markers" d=" M 200.5 200.5 L 240.5 200.5 L 240.5 240.5 L 200.5 240.5 Z" stroke-miterlimit="10"/><path fill="#ffffff" stroke="#000000" paint-order="fill stroke markers" d=" M 250.5 200.5 L 290.5 200.5 L 290.5 240.5 L 250.5 240.5 Z" stroke-miterlimit="10"/><path fill="#ffffff" stroke="#000000" paint-order="fill stroke markers" d=" M 300.5 200.5 L 340.5 200.5 L 340.5 240.5 L 300.5 240.5 Z" stroke-miterlimit="10"/><path fill="#ffffff" stroke="#000000" paint-order="fill stroke markers" d=" M 0.49999999999999645 250.5 L 40.5 250.5 L 40.500000000000014 290.5 L 0.5 290.5 Z" stroke-miterlimit="10"/><path fill="#ffffff" stroke="#000000" paint-order="fill stroke markers" d=" M 50.5 250.5 L 90.5 250.5 L 90.50000000000001 290.5 L 50.5 290.5 Z" stroke-miterlimit="10"/><path fill="#ffffff" stroke="#000000" paint-order="fill stroke markers" d=" M 100.5 250.5 L 140.5 250.5 L 140.5 290.5 L 100.5 290.5 Z" stroke-miterlimit="10"/><path fill="#ffffff" stroke="#000000" paint-order="fill stroke markers" d=" M 150.5 250.5 L 190.5 250.5 L 190.5 290.5 L 150.5 290.5 Z" stroke-miterlimit="10"/><path fill="#ffffff" stroke="#000000" paint-order="fill stroke markers" d=" M 200.5 250.5 L 240.5 250.5 L 240.5 290.5 L 200.5 290.5 Z" stroke-miterlimit="10"/><path fill="#ffffff" stroke="#000000" paint-order="fill stroke markers" d=" M 250.5 250.5 L 290.5 250.5 L 290.5 290.5 L 250.5 290.5 Z" stroke-miterlimit="10"/><path fill="#ffffff" stroke="#000000" paint-order="fill stroke markers" d=" M 300.5 250.5 L 340.5 250.5 L 340.5 290.5 L 300.5 290.5 Z" stroke-miterlimit="10"/><path fill="#ffffff" stroke="#000000" paint-order="fill stroke markers" d=" M 0.49999999999999645 300.5 L 40.5 300.5 L 40.500000000000014 340.5 L 0.5 340.5 Z" stroke-miterlimit="10"/><path fill="#ffffff" stroke="#000000" paint-order="fill stroke markers" d=" M 50.5 300.5 L 90.5 300.5 L 90.50000000000001 340.5 L 50.5 340.5 Z" stroke-miterlimit="10"/><path fill="#ffffff" stroke="#000000" paint-order="fill stroke markers" d=" M 100.5 300.5 L 140.5 300.5 L 140.5 340.5 L 100.5 340.5 Z" stroke-miterlimit="10"/><path fill="#ffffff" stroke="#000000" paint-order="fill stroke markers" d=" M 150.5 300.5 L 190.5 300.5 L 190.5 340.5 L 150.5 340.5 Z" stroke-miterlimit="10"/><path fill="#ffffff" stroke="#000000" paint-order="fill stroke markers" d=" M 200.5 300.5 L 240.5 300.5 L 240.5 340.5 L 200.5 340.5 Z" stroke-miterlimit="10"/><path fill="#ffffff" stroke="#000000" paint-order="fill stroke markers" d=" M 250.5 300.5 L 290.5 300.5 L 290.5 340.5 L 250.5 340.5 Z" stroke-miterlimit="10"/><path fill="#ffffff" stroke="#000000" paint-order="fill stroke markers" d=" M 300.5 300.5 L 340.5 300.5 L 340.5 340.5 L 300.5 340.5 Z" stroke-miterlimit="10"/><path fill="#ffffff" stroke="#000000" paint-order="fill stroke markers" d=" M 63.5 52.5 L 70.5 38.5 L 77.5 52.5" stroke-miterlimit="10" stroke-width="2"/><path fill="#ffffff" stroke="#000000" paint-order="fill stroke markers" d=" M 113.5 52.5 L 120.5 38.5 L 127.5 52.5" stroke-miterlimit="10" stroke-width="2"/><path fill="#ffffff" stroke="#000000" paint-order="fill stroke markers" d=" M 177.5 38.5 L 170.5 52.5 L 163.5 38.49999999999999" stroke-miterlimit="10" stroke-width="2"/><path fill="#ffffff" stroke="#000000" paint-order="fill stroke markers" d=" M 77.5 88.5 L 70.5 102.5 L 63.5 88.5" stroke-miterlimit="10" stroke-width="2"/><path fill="#ffffff" stroke="#000000" paint-order="fill stroke markers" d=" M 113.5 102.5 L 120.5 88.5 L 127.5 102.5" stroke-miterlimit="10" stroke-width="2"/><path fill="#ffffff" stroke="#000000" paint-order="fill stroke markers" d=" M 227.5 88.5 L 220.5 102.5 L 213.5 88.5" stroke-miterlimit="10" stroke-width="2"/><path fill="#ffffff" stroke="#000000" paint-order="fill stroke markers" d=" M 327.5 88.5 L 320.5 102.5 L 313.5 88.5" stroke-miterlimit="10" stroke-width="2"/><path fill="#ffffff" stroke="#000000" paint-order="fill stroke markers" d=" M 13.5 252.5 L 20.5 238.5 L 27.500000000000004 252.5" stroke-miterlimit="10" stroke-width="2"/><path fill="#ffffff" stroke="#000000" paint-order="fill stroke markers" d=" M 127.5 238.5 L 120.5 252.5 L 113.5 238.5" stroke-miterlimit="10" stroke-width="2"/><path fill="#ffffff" stroke="#000000" paint-order="fill stroke markers" d=" M 213.5 252.5 L 220.5 238.5 L 227.5 252.5" stroke-miterlimit="10" stroke-width="2"/><path fill="#ffffff" stroke="#000000" paint-order="fill stroke markers" d=" M 263.5 252.5 L 270.5 238.5 L 277.5 252.5" stroke-miterlimit="10" stroke-width="2"/><path fill="#ffffff" stroke="#000000" paint-order="fill stroke markers" d=" M 163.5 302.5 L 170.5 288.5 L 177.5 302.5" stroke-miterlimit="10" stroke-width="2"/><path fill="#ffffff" stroke="#000000" paint-order="fill stroke markers" d=" M 213.5 302.5 L 220.5 288.5 L 227.5 302.5" stroke-miterlimit="10" stroke-width="2"/><path fill="#ffffff" stroke="#000000" paint-order="fill stroke markers" d=" M 277.5 288.5 L 270.5 302.5 L 263.5 288.5" stroke-miterlimit="10" stroke-width="2"/><path fill="#ffffff" stroke="#000000" paint-order="fill stroke markers" d=" M 302.5 77.5 L 288.5 70.5 L 302.5 63.5" stroke-miterlimit="10" stroke-width="2"/><path fill="#ffffff" stroke="#000000" paint-order="fill stroke markers" d=" M 238.5 113.5 L 252.5 120.5 L 238.5 127.50000000000001" stroke-miterlimit="10" stroke-width="2"/><path fill="#ffffff" stroke="#000000" paint-order="fill stroke markers" d=" M 102.5 227.5 L 88.5 220.5 L 102.5 213.5" stroke-miterlimit="10" stroke-width="2"/><path fill="#ffffff" stroke="#000000" paint-order="fill stroke markers" d=" M 52.5 277.5 L 38.5 270.5 L 52.5 263.5" stroke-miterlimit="10" stroke-width="2"/><path fill="none" stroke="#000000" paint-order="fill stroke markers" d=" M 420.5 120.5 L 570.5 170.5" stroke-linecap="round" stroke-miterlimit="10" stroke-width="3"/><path fill="none" stroke="#000000" paint-order="fill stroke markers" d=" M 570.5 170.5 L 420.5 220.5" stroke-linecap="round" stroke-miterlimit="10" stroke-width="3"/><path fill="none" stroke="#000000" paint-order="fill stroke markers" d=" M 420.5 220.5 L 570.5 270.5" stroke-linecap="round" stroke-miterlimit="10" stroke-width="3"/><path fill="none" stroke="#444444" paint-order="fill stroke markers" d=" M 395.5 45.5 L 445.5 45.5" stroke-linecap="square" stroke-miterlimit="10" stroke-dasharray="3,7.000000000000001" stroke-dashoffset="1.5"/><path fill="none" stroke="#444444" paint-order="fill stroke markers" d=" M 445.5 45.5 L 495.5 45.5" stroke-linecap="square" stroke-miterlimit="10" stroke-dasharray="3,7.000000000000001" stroke-dashoffset="1.5"/><path fill="none" stroke="#444444" paint-order="fill stroke markers" d=" M 495.5 45.5 L 545.5 45.5" stroke-linecap="square" stroke-miterlimit="10" stroke-dasharray="3,7.000000000000001" stroke-dashoffset="1.5"/><path fill="none" stroke="#444444" paint-order="fill stroke markers" d=" M 545.5 45.5 L 595.5 45.5" stroke-linecap="square" stroke-miterlimit="10" stroke-dasharray="3,7.000000000000001" stroke-dashoffset="1.5"/><path fill="#ffffff" stroke="#000000" paint-order="fill stroke markers" d=" M 441.5 120.5 A 21 21 0 1 1 441.4999895000009 120.47900000349999" stroke-miterlimit="10"/><path fill="#ffffff" stroke="#000000" paint-order="fill stroke markers" d=" M 591.5 170.5 A 21 21 0 1 1 591.4999895000009 170.47900000349998" stroke-miterlimit="10"/><path fill="#ffffff" stroke="#000000" paint-order="fill stroke markers" d=" M 441.5 220.5 A 21 21 0 1 1 441.4999895000009 220.47900000349998" stroke-miterlimit="10"/><path fill="#ffffff" stroke="#000000" paint-order="fill stroke markers" d=" M 591.5 270.5 A 21 21 0 1 1 591.4999895000009 270.4790000035" stroke-miterlimit="10"/><path fill="#ffffff" stroke="#000000" paint-order="fill stroke markers" d=" M 516.5 145.5 A 21 21 0 1 1 516.4999895000009 145.47900000349998" stroke-miterlimit="10"/><path fill="#ffffff" stroke="#000000" paint-order="fill stroke markers" d=" M 516.5 195.5 A 21 21 0 1 1 516.4999895000009 195.47900000349998" stroke-miterlimit="10"/><path fill="#ffffff" stroke="#000000" paint-order="fill stroke markers" d=" M 516.5 245.5 A 21 21 0 1 1 516.4999895000009 245.47900000349998" stroke-miterlimit="10"/><text fill="none" stroke="rgb(255,255,255)" font-family="Helvetica,Arial" font-size="35px" font-style="normal" font-weight="normal" text-decoration="normal" x="420.5" y="133.3" text-anchor="middle" dominant-baseline="alphabetic" stroke-opacity="0" stroke-miterlimit="10" stroke-width="2">1</text><text fill="#000000" stroke="none" font-family="Helvetica,Arial" font-size="35px" font-style="normal" font-weight="normal" text-decoration="normal" x="420.5" y="133.3" text-anchor="middle" dominant-baseline="alphabetic">1</text><text fill="none" stroke="rgb(255,255,255)" font-family="Helvetica,Arial" font-size="35px" font-style="normal" font-weight="normal" text-decoration="normal" x="570.5" y="183.3" text-anchor="middle" dominant-baseline="alphabetic" stroke-opacity="0" stroke-miterlimit="10" stroke-width="2">3</text><text fill="#000000" stroke="none" font-family="Helvetica,Arial" font-size="35px" font-style="normal" font-weight="normal" text-decoration="normal" x="570.5" y="183.3" text-anchor="middle" dominant-baseline="alphabetic">3</text><text fill="none" stroke="rgb(255,255,255)" font-family="Helvetica,Arial" font-size="35px" font-style="normal" font-weight="normal" text-decoration="normal" x="420.5" y="233.3" text-anchor="middle" dominant-baseline="alphabetic" stroke-opacity="0" stroke-miterlimit="10" stroke-width="2">5</text><text fill="#000000" stroke="none" font-family="Helvetica,Arial" font-size="35px" font-style="normal" font-weight="normal" text-decoration="normal" x="420.5" y="233.3" text-anchor="middle" dominant-baseline="alphabetic">5</text><text fill="none" stroke="rgb(255,255,255)" font-family="Helvetica,Arial" font-size="35px" font-style="normal" font-weight="normal" text-decoration="normal" x="570.5" y="283.3" text-anchor="middle" dominant-baseline="alphabetic" stroke-opacity="0" stroke-miterlimit="10" stroke-width="2">7</text><text fill="#000000" stroke="none" font-family="Helvetica,Arial" font-size="35px" font-style="normal" font-weight="normal" text-decoration="normal" x="570.5" y="283.3" text-anchor="middle" dominant-baseline="alphabetic">7</text><text fill="none" stroke="rgb(255,255,255)" font-family="Helvetica,Arial" font-size="35px" font-style="normal" font-weight="normal" text-decoration="normal" x="495.5" y="158.3" text-anchor="middle" dominant-baseline="alphabetic" stroke-opacity="0" stroke-miterlimit="10" stroke-width="2">2</text><text fill="#000000" stroke="none" font-family="Helvetica,Arial" font-size="35px" font-style="normal" font-weight="normal" text-decoration="normal" x="495.5" y="158.3" text-anchor="middle" dominant-baseline="alphabetic">2</text><text fill="none" stroke="rgb(255,255,255)" font-family="Helvetica,Arial" font-size="35px" font-style="normal" font-weight="normal" text-decoration="normal" x="495.5" y="208.3" text-anchor="middle" dominant-baseline="alphabetic" stroke-opacity="0" stroke-miterlimit="10" stroke-width="2">4</text><text fill="#000000" stroke="none" font-family="Helvetica,Arial" font-size="35px" font-style="normal" font-weight="normal" text-decoration="normal" x="495.5" y="208.3" text-anchor="middle" dominant-baseline="alphabetic">4</text><text fill="none" stroke="rgb(255,255,255)" font-family="Helvetica,Arial" font-size="35px" font-style="normal" font-weight="normal" text-decoration="normal" x="495.5" y="258.3" text-anchor="middle" dominant-baseline="alphabetic" stroke-opacity="0" stroke-miterlimit="10" stroke-width="2">6</text><text fill="#000000" stroke="none" font-family="Helvetica,Arial" font-size="35px" font-style="normal" font-weight="normal" text-decoration="normal" x="495.5" y="258.3" text-anchor="middle" dominant-baseline="alphabetic">6</text><text fill="none" stroke="rgb(255,255,255)" font-family="Helvetica,Arial" font-size="35px" font-style="normal" font-weight="normal" text-decoration="normal" x="495.5" y="33.3" text-anchor="middle" dominant-baseline="alphabetic" stroke-opacity="0" stroke-miterlimit="10" stroke-width="2">&lt;</text><text fill="#000000" stroke="none" font-family="Helvetica,Arial" font-size="35px" font-style="normal" font-weight="normal" text-decoration="normal" x="495.5" y="33.3" text-anchor="middle" dominant-baseline="alphabetic">&lt;</text></g></svg>