<svg version="1.1" xmlns="http://www.w3.org/2000/svg" xmlns:xlink="http://www.w3.org/1999/xlink" width="715.2" height="350.4"><defs/><g><rect fill="rgb(255,255,255)" stroke="none" x="0" y="0" width="715.2" height="350.4" fill-opacity="0"/><path fill="#ffffff" stroke="#000000" paint-order="fill stroke markers" d=" M 0.49999999999999645 0.5 L 48.5 0.49999999999999645 L 48.500000000000014 48.5 L 0.5000000000000036 48.500000000000014 Z" stroke-miterlimit="10"/><path fill="#ffffff" stroke="#000000" paint-order="fill stroke markers" d=" M 60.5 0.5 L 108.5 0.49999999999999645 L 108.50000000000001 48.5 L 60.5 48.500000000000014 Z" stroke-miterlimit="10"/><path fill="#ffffff" stroke="#000000" paint-order="fill stroke markers" d=" M 120.5 0.5 L 168.5 0.49999999999999645 L 168.5 48.5 L 120.5 48.500000000000014 Z" stroke-miterlimit="10"/><path fill="#ffffff" stroke="#000000" paint-order="fill stroke markers" d=" M 180.5 0.5 L 228.5 0.49999999999999645 L 228.5 48.5 L 180.5 48.500000000000014 Z" stroke-miterlimit="10"/><path fill="#ffffff" stroke="#000000" paint-order="fill stroke markers" d=" M 240.5 0.5 L 288.5 0.49999999999999645 L 288.5 48.5 L 240.5 48.500000000000014 Z" stroke-miterlimit="10"/><path fill="#ffffff" stroke="#000000" paint-order="fill stroke markers" d=" M 300.5 0.5 L 348.5 0.49999999999999645 L 348.5 48.5 L 300.5 48.500000000000014 Z" stroke-miterlimit="10"/><path fill="#ffffff" stroke="#000000" paint-order="fill stroke markers" d=" M 0.49999999999999645 60.5 L 48.5 60.5 L 48.500000000000014 108.5 L 0.5000000000000036 108.50000000000001 Z" stroke-miterlimit="10"/><path fill="#ffffff" stroke="#000000" paint-order="fill stroke markers" d=" M 60.5 60.5 L 108.5 60.5 L 108.50000000000001 108.5 L 60.5 108.50000000000001 Z" stroke-miterlimit="10"/><path fill="#ffffff" stroke="#000000" paint-order="fill stroke markers" d=" M 120.5 60.5 L 168.5 60.5 L 168.5 108.5 L 120.5 108.50000000000001 Z" stroke-miterlimit="10"/><path fill="#ffffff" stroke="#000000" paint-order="fill stroke markers" d=" M 180.5 60.5 L 228.5 60.5 L 228.5 108.5 L 180.5 108.50000000000001 Z" stroke-miterlimit="10"/><path fill="#ffffff" stroke="#000000" paint-order="fill stroke markers" d=" M 240.5 60.5 L 288.5 60.5 L 288.5 108.5 L 240.5 108.50000000000001 Z" stroke-miterlimit="10"/><path fill="#ffffff" stroke="#000000" paint-order="fill stroke markers" d=" M 300.5 60.5 L 348.5 60.5 L 348.5 108.5 L 300.5 108.50000000000001 Z" stroke-miterlimit="10"/><path fill="#ffffff" stroke="#000000" paint-order="fill stroke markers" d=" M 0.49999999999999645 120.5 L 48.5 120.5 L 48.500000000000014 168.5 L 0.5000000000000036 168.5 Z" stroke-miterlimit="10"/><path fill="#ffffff" stroke="#000000" paint-order="fill stroke markers" d=" M 60.5 120.5 L 108.5 120.5 L 108.50000000000001 168.5 L 60.5 168.5 Z" stroke-miterlimit="10"/><path fill="#ffffff" stroke="#000000" paint-order="fill stroke markers" d=" M 120.5 120.5 L 168.5 120.5 L 168.5 168.5 L 120.5 168.5 Z" stroke-miterlimit="10"/><path fill="#ffffff" stroke="#000000" paint-order="fill stroke markers" d=" M 180.5 120.5 L 228.5 120.5 L 228.5 168.5 L 180.5 168.5 Z" stroke-miterlimit="10"/><path fill="#ffffff" stroke="#000000" paint-order="fill stroke markers" d=" M 240.5 120.5 L 288.5 120.5 L 288.5 168.5 L 240.5 168.5 Z" stroke-miterlimit="10"/><path fill="#ffffff" stroke="#000000" paint-order="fill stroke markers" d=" M 300.5 120.5 L 348.5 120.5 L 348.5 168.5 L 300.5 168.5 Z" stroke-miterlimit="10"/><path fill="#ffffff" stroke="#000000" paint-order="fill stroke markers" d=" M 0.49999999999999645 180.5 L 48.5 180.5 L 48.500000000000014 228.5 L 0.5000000000000036 228.5 Z" stroke-miterlimit="10"/><path fill="#ffffff" stroke="#000000" paint-order="fill stroke markers" d=" M 60.5 180.5 L 108.5 180.5 L 108.50000000000001 228.5 L 60.5 228.5 Z" stroke-miterlimit="10"/><path fill="#ffffff" stroke="#000000" paint-order="fill stroke markers" d=" M 120.5 180.5 L 168.5 180.5 L 168.5 228.5 L 120.5 228.5 Z" stroke-miterlimit="10"/><path fill="#ffffff" stroke="#000000" paint-order="fill stroke markers" d=" M 180.5 180.5 L 228.5 180.5 L 228.5 228.5 L 180.5 228.5 Z" stroke-miterlimit="10"/><path fill="#ffffff" stroke="#000000" paint-order="fill stroke markers" d=" M 240.5 180.5 L 288.5 180.5 L 288.5 228.5 L 240.5 228.5 Z" stroke-miterlimit="10"/><path fill="#ffffff" stroke="#000000" paint-order="fill stroke markers" d=" M 300.5 180.5 L 348.5 180.5 L 348.5 228.5 L 300.5 228.5 Z" stroke-miterlimit="10"/><path fill="#ffffff" stroke="#000000" paint-order="fill stroke markers" d=" M 0.49999999999999645 240.5 L 48.5 240.5 L 48.500000000000014 288.5 L 0.5000000000000036 288.5 Z" stroke-miterlimit="10"/><path fill="#ffffff" stroke="#000000" paint-order="fill stroke markers" d=" M 60.5 240.5 L 108.5 240.5 L 108.50000000000001 288.5 L 60.5 288.5 Z" stroke-miterlimit="10"/><path fill="#ffffff" stroke="#000000" paint-order="fill stroke markers" d=" M 120.5 240.5 L 168.5 240.5 L 168.5 288.5 L 120.5 288.5 Z" stroke-miterlimit="10"/><path fill="#ffffff" stroke="#000000" paint-order="fill stroke markers" d=" M 180.5 240.5 L 228.5 240.5 L 228.5 288.5 L 180.5 288.5 Z" stroke-miterlimit="10"/><path fill="#ffffff" stroke="#000000" paint-order="fill stroke markers" d=" M 240.5 240.5 L 288.5 240.5 L 288.5 288.5 L 240.5 288.5 Z" stroke-miterlimit="10"/><path fill="#ffffff" stroke="#000000" paint-order="fill stroke markers" d=" M 300.5 240.5 L 348.5 240.5 L 348.5 288.5 L 300.5 288.5 Z" stroke-miterlimit="10"/><path fill="#ffffff" stroke="#000000" paint-order="fill stroke markers" d=" M 0.49999999999999645 300.5 L 48.5 300.5 L 48.500000000000014 348.5 L 0.5000000000000036 348.5 Z" stroke-miterlimit="10"/><path fill="#ffffff" stroke="#000000" paint-order="fill stroke markers" d=" M 60.5 300.5 L 108.5 300.5 L 108.50000000000001 348.5 L 60.5 348.5 Z" stroke-miterlimit="10"/><path fill="#ffffff" stroke="#000000" paint-order="fill stroke markers" d=" M 120.5 300.5 L 168.5 300.5 L 168.5 348.5 L 120.5 348.5 Z" stroke-miterlimit="10"/><path fill="#ffffff" stroke="#000000" paint-order="fill stroke markers" d=" M 180.5 300.5 L 228.5 300.5 L 228.5 348.5 L 180.5 348.5 Z" stroke-miterlimit="10"/><path fill="#ffffff" stroke="#000000" paint-order="fill stroke markers" d=" M 240.5 300.5 L 288.5 300.5 L 288.5 348.5 L 240.5 348.5 Z" stroke-miterlimit="10"/><path fill="#ffffff" stroke="#000000" paint-order="fill stroke markers" d=" M 300.5 300.5 L 348.5 300.5 L 348.5 348.5 L 300.5 348.5 Z" stroke-miterlimit="10"/><path fill="#ffffff" stroke="#000000" paint-order="fill stroke markers" d=" M 316.1 62.900000000000006 L 324.5 46.1 L 332.9 62.9" stroke-miterlimit="10" stroke-width="2"/><path fill="#ffffff" stroke="#000000" paint-order="fill stroke markers" d=" M 272.9 106.1 L 264.5 122.9 L 256.1 106.1" stroke-miterlimit="10" stroke-width="2"/><path fill="#ffffff" stroke="#000000" paint-order="fill stroke markers" d=" M 332.9 106.1 L 324.5 122.9 L 316.1 106.1" stroke-miterlimit="10" stroke-width="2"/><path fill="#ffffff" stroke="#000000" paint-order="fill stroke markers" d=" M 76.1 182.9 L 84.5 166.1 L 92.9 182.9" stroke-miterlimit="10" stroke-width="2"/><path fill="#ffffff" stroke="#000000" paint-order="fill stroke markers" d=" M 256.1 182.9 L 264.5 166.1 L 272.9 182.9" stroke-miterlimit="10" stroke-width="2"/><path fill="#ffffff" stroke="#000000" paint-order="fill stroke markers" d=" M 16.1 242.9 L 24.5 226.1 L 32.900000000000006 242.9" stroke-miterlimit="10" stroke-width="2"/><path fill="#ffffff" stroke="#000000" paint-order="fill stroke markers" d=" M 92.9 226.1 L 84.5 242.9 L 76.10000000000001 226.1" stroke-miterlimit="10" stroke-width="2"/><path fill="#ffffff" stroke="#000000" paint-order="fill stroke markers" d=" M 32.9 286.1 L 24.500000000000004 302.9 L 16.1 286.1" stroke-miterlimit="10" stroke-width="2"/><path fill="#ffffff" stroke="#000000" paint-order="fill stroke markers" d=" M 62.900000000000006 32.9 L 46.1 24.5 L 62.9 16.099999999999998" stroke-miterlimit="10" stroke-width="2"/><path fill="#ffffff" stroke="#000000" paint-order="fill stroke markers" d=" M 106.1 16.1 L 122.9 24.499999999999996 L 106.10000000000001 32.90000000000001" stroke-miterlimit="10" stroke-width="2"/><path fill="#ffffff" stroke="#000000" paint-order="fill stroke markers" d=" M 226.1 316.1 L 242.9 324.5 L 226.10000000000002 332.90000000000003" stroke-miterlimit="10" stroke-width="2"/><path fill="#ffffff" stroke="#000000" paint-order="fill stroke markers" d=" M 302.9 332.9 L 286.1 324.5 L 302.9 316.1" stroke-miterlimit="10" stroke-width="2"/><path fill="none" stroke="#000000" paint-order="fill stroke markers" d=" M 564.5 144.5 L 444.5 204.5" stroke-linecap="round" stroke-miterlimit="10" stroke-width="3"/><path fill="none" stroke="#000000" paint-order="fill stroke markers" d=" M 564.5 144.5 L 504.5 264.5" stroke-linecap="round" stroke-miterlimit="10" stroke-width="3"/><path fill="none" stroke="#000000" paint-order="fill stroke markers" d=" M 624.5 204.5 L 504.5 264.5" stroke-linecap="round" stroke-miterlimit="10" stroke-width="3"/><path fill="none" stroke="#000000" paint-order="fill stroke markers" d=" M 624.5 204.5 L 564.5 324.5" stroke-linecap="round" stroke-miterlimit="10" stroke-width="3"/><path fill="none" stroke="#000000" paint-order="fill stroke markers" d=" M 684.5 264.5 L 564.5 324.5" stroke-linecap="round" stroke-miterlimit="10" stroke-width="3"/><path fill="none" stroke="#444444" paint-order="fill stroke markers" d=" M 414.5 54.5 L 474.5 54.5" stroke-linecap="square" stroke-miterlimit="10" stroke-dasharray="3.5999999999999996,8.4" stroke-dashoffset="1.7999999999999998"/><path fill="none" stroke="#444444" paint-order="fill stroke markers" d=" M 474.5 54.5 L 534.5 54.5" stroke-linecap="square" stroke-miterlimit="10" stroke-dasharray="3.5999999999999996,8.4" stroke-dashoffset="1.7999999999999998"/><path fill="none" stroke="#444444" paint-order="fill stroke markers" d=" M 534.5 54.5 L 594.5 54.5" stroke-linecap="square" stroke-miterlimit="10" stroke-dasharray="3.5999999999999996,8.4" stroke-dashoffset="1.7999999999999998"/><path fill="none" stroke="#444444" paint-order="fill stroke markers" d=" M 594.5 54.5 L 654.5 54.5" stroke-linecap="square" stroke-miterlimit="10" stroke-dasharray="3.5999999999999996,8.4" stroke-dashoffset="1.7999999999999998"/><path fill="none" stroke="#444444" paint-order="fill stroke markers" d=" M 654.5 54.5 L 714.5 54.5" stroke-linecap="square" stroke-miterlimit="10" stroke-dasharray="3.5999999999999996,8.4" stroke-dashoffset="1.7999999999999998"/><path fill="#ffffff" stroke="#000000" paint-order="fill stroke markers" d=" M 589.7 144.5 A 25.2 25.2 0 1 1 589.6999874000011 144.47480000419998" stroke-miterlimit="10"/><path fill="#ffffff" stroke="#000000" paint-order="fill stroke markers" d=" M 469.7 204.5 A 25.2 25.2 0 1 1 469.6999874000011 204.47480000419998" stroke-miterlimit="10"/><path fill="#ffffff" stroke="#000000" paint-order="fill stroke markers" d=" M 649.7 204.5 A 25.2 25.2 0 1 1 649.6999874000011 204.47480000419998" stroke-miterlimit="10"/><path fill="#ffffff" stroke="#000000" paint-order="fill stroke markers" d=" M 529.7 264.5 A 25.2 25.2 0 1 1 529.6999874000011 264.4748000042" stroke-miterlimit="10"/><path fill="#ffffff" stroke="#000000" paint-order="fill stroke markers" d=" M 709.7 264.5 A 25.2 25.2 0 1 1 709.6999874000011 264.4748000042" stroke-miterlimit="10"/><path fill="#ffffff" stroke="#000000" paint-order="fill stroke markers" d=" M 589.7 324.5 A 25.2 25.2 0 1 1 589.6999874000011 324.4748000042" stroke-miterlimit="10"/><text fill="none" stroke="rgb(255,255,255)" font-family="Helvetica,Arial" font-size="42px" font-style="normal" font-weight="normal" text-decoration="normal" x="564.5" y="39.86" text-anchor="middle" dominant-baseline="alphabetic" stroke-opacity="0" stroke-miterlimit="10">&lt;</text><text fill="#000000" stroke="none" font-family="Helvetica,Arial" font-size="42px" font-style="normal" font-weight="normal" text-decoration="normal" x="564.5" y="39.86" text-anchor="middle" dominant-baseline="alphabetic">&lt;</text><text fill="none" stroke="rgb(255,255,255)" font-family="Helvetica,Arial" font-size="42px" font-style="normal" font-weight="normal" text-decoration="normal" x="564.5" y="159.85999999999999" text-anchor="middle" dominant-baseline="alphabetic" stroke-opacity="0" stroke-miterlimit="10" stroke-width="2">4</text><text fill="#000000" stroke="none" font-family="Helvetica,Arial" font-size="42px" font-style="normal" font-weight="normal" text-decoration="normal" x="564.5" y="159.85999999999999" text-anchor="middle" dominant-baseline="alphabetic">4</text><text fill="none" stroke="rgb(255,255,255)" font-family="Helvetica,Arial" font-size="42px" font-style="normal" font-weight="normal" text-decoration="normal" x="444.5" y="219.85999999999999" text-anchor="middle" dominant-baseline="alphabetic" stroke-opacity="0" stroke-miterlimit="10" stroke-width="2">1</text><text fill="#000000" stroke="none" font-family="Helvetica,Arial" font-size="42px" font-style="normal" font-weight="normal" text-decoration="normal" x="444.5" y="219.85999999999999" text-anchor="middle" dominant-baseline="alphabetic">1</text><text fill="none" stroke="rgb(255,255,255)" font-family="Helvetica,Arial" font-size="42px" font-style="normal" font-weight="normal" text-decoration="normal" x="624.5" y="219.85999999999999" text-anchor="middle" dominant-baseline="alphabetic" stroke-opacity="0" stroke-miterlimit="10" stroke-width="2">5</text><text fill="#000000" stroke="none" font-family="Helvetica,Arial" font-size="42px" font-style="normal" font-weight="normal" text-decoration="normal" x="624.5" y="219.85999999999999" text-anchor="middle" dominant-baseline="alphabetic">5</text><text fill="none" stroke="rgb(255,255,255)" font-family="Helvetica,Arial" font-size="42px" font-style="normal" font-weight="normal" text-decoration="normal" x="504.5" y="279.86" text-anchor="middle" dominant-baseline="alphabetic" stroke-opacity="0" stroke-miterlimit="10" stroke-width="2">2</text><text fill="#000000" stroke="none" font-family="Helvetica,Arial" font-size="42px" font-style="normal" font-weight="normal" text-decoration="normal" x="504.5" y="279.86" text-anchor="middle" dominant-baseline="alphabetic">2</text><text fill="none" stroke="rgb(255,255,255)" font-family="Helvetica,Arial" font-size="42px" font-style="normal" font-weight="normal" text-decoration="normal" x="684.5" y="279.86" text-anchor="middle" dominant-baseline="alphabetic" stroke-opacity="0" stroke-miterlimit="10" stroke-width="2">6</text><text fill="#000000" stroke="none" font-family="Helvetica,Arial" font-size="42px" font-style="normal" font-weight="normal" text-decoration="normal" x="684.5" y="279.86" text-anchor="middle" dominant-baseline="alphabetic">6</text><text fill="none" stroke="rgb(255,255,255)" font-family="Helvetica,Arial" font-size="42px" font-style="normal" font-weight="normal" text-decoration="normal" x="564.5" y="339.86" text-anchor="middle" dominant-baseline="alphabetic" stroke-opacity="0" stroke-miterlimit="10" stroke-width="2">3</text><text fill="#000000" stroke="none" font-family="Helvetica,Arial" font-size="42px" font-style="normal" font-weight="normal" text-decoration="normal" x="564.5" y="339.86" text-anchor="middle" dominant-baseline="alphabetic">3</text></g></svg>