<svg version="1.1" xmlns="http://www.w3.org/2000/svg" xmlns:xlink="http://www.w3.org/1999/xlink" width="401.2" height="436.8"><defs/><g><rect fill="rgb(255,255,255)" stroke="none" x="0" y="0" width="401.2" height="436.8" fill-opacity="0"/><path fill="#999999" stroke="#999999" paint-order="fill stroke markers" d=" M 100.7 36.29999999999998 L 150.7 36.29999999999998 L 150.7 86.29999999999998 L 100.7 86.29999999999998 Z" stroke-linecap="square" stroke-miterlimit="10" stroke-width="0.5"/><path fill="#999999" stroke="#999999" paint-order="fill stroke markers" d=" M 150.7 36.29999999999998 L 200.7 36.29999999999998 L 200.7 86.29999999999998 L 150.7 86.29999999999998 Z" stroke-linecap="square" stroke-miterlimit="10" stroke-width="0.5"/><path fill="#999999" stroke="#999999" paint-order="fill stroke markers" d=" M 200.7 36.29999999999998 L 250.7 36.29999999999998 L 250.7 86.29999999999998 L 200.7 86.29999999999998 Z" stroke-linecap="square" stroke-miterlimit="10" stroke-width="0.5"/><path fill="#999999" stroke="#999999" paint-order="fill stroke markers" d=" M 0.6999999999999886 86.29999999999998 L 50.70000000000002 86.29999999999998 L 50.70000000000002 136.3 L 0.6999999999999886 136.3 Z" stroke-linecap="square" stroke-miterlimit="10" stroke-width="0.5"/><path fill="#999999" stroke="#999999" paint-order="fill stroke markers" d=" M 0.6999999999999886 136.3 L 50.70000000000002 136.3 L 50.70000000000002 186.3 L 0.6999999999999886 186.3 Z" stroke-linecap="square" stroke-miterlimit="10" stroke-width="0.5"/><path fill="#999999" stroke="#999999" paint-order="fill stroke markers" d=" M 350.7 136.3 L 400.7 136.3 L 400.7 186.3 L 350.7 186.3 Z" stroke-linecap="square" stroke-miterlimit="10" stroke-width="0.5"/><path fill="#999999" stroke="#999999" paint-order="fill stroke markers" d=" M 0.6999999999999886 186.3 L 50.70000000000002 186.3 L 50.70000000000002 236.3 L 0.6999999999999886 236.3 Z" stroke-linecap="square" stroke-miterlimit="10" stroke-width="0.5"/><path fill="#999999" stroke="#999999" paint-order="fill stroke markers" d=" M 350.7 186.3 L 400.7 186.3 L 400.7 236.3 L 350.7 236.3 Z" stroke-linecap="square" stroke-miterlimit="10" stroke-width="0.5"/><path fill="#999999" stroke="#999999" paint-order="fill stroke markers" d=" M 0.6999999999999886 236.3 L 50.70000000000002 236.3 L 50.70000000000002 286.3 L 0.6999999999999886 286.3 Z" stroke-linecap="square" stroke-miterlimit="10" stroke-width="0.5"/><path fill="#999999" stroke="#999999" paint-order="fill stroke markers" d=" M 350.7 236.3 L 400.7 236.3 L 400.7 286.3 L 350.7 286.3 Z" stroke-linecap="square" stroke-miterlimit="10" stroke-width="0.5"/><path fill="#999999" stroke="#999999" paint-order="fill stroke markers" d=" M 0.6999999999999886 286.3 L 50.70000000000002 286.3 L 50.70000000000002 336.3 L 0.6999999999999886 336.3 Z" stroke-linecap="square" stroke-miterlimit="10" stroke-width="0.5"/><path fill="#999999" stroke="#999999" paint-order="fill stroke markers" d=" M 350.7 286.3 L 400.7 286.3 L 400.7 336.3 L 350.7 336.3 Z" stroke-linecap="square" stroke-miterlimit="10" stroke-width="0.5"/><path fill="#999999" stroke="#999999" paint-order="fill stroke markers" d=" M 350.7 336.3 L 400.7 336.3 L 400.7 386.3 L 350.7 386.3 Z" stroke-linecap="square" stroke-miterlimit="10" stroke-width="0.5"/><path fill="#999999" stroke="#999999" paint-order="fill stroke markers" d=" M 150.7 386.3 L 200.7 386.3 L 200.7 436.3 L 150.7 436.3 Z" stroke-linecap="square" stroke-miterlimit="10" stroke-width="0.5"/><path fill="#999999" stroke="#999999" paint-order="fill stroke markers" d=" M 200.7 386.3 L 250.7 386.3 L 250.7 436.3 L 200.7 436.3 Z" stroke-linecap="square" stroke-miterlimit="10" stroke-width="0.5"/><path fill="#999999" stroke="#999999" paint-order="fill stroke markers" d=" M 250.7 386.3 L 300.7 386.3 L 300.7 436.3 L 250.7 436.3 Z" stroke-linecap="square" stroke-miterlimit="10" stroke-width="0.5"/><path fill="none" stroke="#000000" paint-order="fill stroke markers" d=" M 50.70000000000002 36.29999999999998 L 100.7 36.29999999999998" stroke-linecap="square" stroke-miterlimit="10" stroke-width="0.8"/><path fill="none" stroke="#000000" paint-order="fill stroke markers" d=" M 100.7 36.29999999999998 L 100.7 86.29999999999998" stroke-linecap="square" stroke-miterlimit="10" stroke-width="0.8"/><path fill="none" stroke="#000000" paint-order="fill stroke markers" d=" M 50.70000000000002 86.29999999999998 L 100.7 86.29999999999998" stroke-linecap="square" stroke-miterlimit="10" stroke-width="0.8"/><path fill="none" stroke="#000000" paint-order="fill stroke markers" d=" M 50.70000000000002 36.29999999999998 L 50.70000000000002 86.29999999999998" stroke-linecap="square" stroke-miterlimit="10" stroke-width="0.8"/><path fill="none" stroke="#000000" paint-order="fill stroke markers" d=" M 100.7 36.29999999999998 L 150.7 36.29999999999998" stroke-linecap="square" stroke-miterlimit="10" stroke-width="0.8"/><path fill="none" stroke="#000000" paint-order="fill stroke markers" d=" M 150.7 36.29999999999998 L 150.7 86.29999999999998" stroke-linecap="square" stroke-miterlimit="10" stroke-width="0.8"/><path fill="none" stroke="#000000" paint-order="fill stroke markers" d=" M 100.7 86.29999999999998 L 150.7 86.29999999999998" stroke-linecap="square" stroke-miterlimit="10" stroke-width="0.8"/><path fill="none" stroke="#000000" paint-order="fill stroke markers" d=" M 150.7 36.29999999999998 L 200.7 36.29999999999998" stroke-linecap="square" stroke-miterlimit="10" stroke-width="0.8"/><path fill="none" stroke="#000000" paint-order="fill stroke markers" d=" M 200.7 36.29999999999998 L 200.7 86.29999999999998" stroke-linecap="square" stroke-miterlimit="10" stroke-width="0.8"/><path fill="none" stroke="#000000" paint-order="fill stroke markers" d=" M 150.7 86.29999999999998 L 200.7 86.29999999999998" stroke-linecap="square" stroke-miterlimit="10" stroke-width="0.8"/><path fill="none" stroke="#000000" paint-order="fill stroke markers" d=" M 200.7 36.29999999999998 L 250.7 36.29999999999998" stroke-linecap="square" stroke-miterlimit="10" stroke-width="0.8"/><path fill="none" stroke="#000000" paint-order="fill stroke markers" d=" M 250.7 36.29999999999998 L 250.7 86.29999999999998" stroke-linecap="square" stroke-miterlimit="10" stroke-width="0.8"/><path fill="none" stroke="#000000" paint-order="fill stroke markers" d=" M 200.7 86.29999999999998 L 250.7 86.29999999999998" stroke-linecap="square" stroke-miterlimit="10" stroke-width="0.8"/><path fill="none" stroke="#000000" paint-order="fill stroke markers" d=" M 250.7 36.29999999999998 L 300.7 36.29999999999998" stroke-linecap="square" stroke-miterlimit="10" stroke-width="0.8"/><path fill="none" stroke="#000000" paint-order="fill stroke markers" d=" M 300.7 36.29999999999998 L 300.7 86.29999999999998" stroke-linecap="square" stroke-miterlimit="10" stroke-width="0.8"/><path fill="none" stroke="#000000" paint-order="fill stroke markers" d=" M 250.7 86.29999999999998 L 300.7 86.29999999999998" stroke-linecap="square" stroke-miterlimit="10" stroke-width="0.8"/><path fill="none" stroke="#000000" paint-order="fill stroke markers" d=" M 300.7 36.29999999999998 L 350.7 36.29999999999998" stroke-linecap="square" stroke-miterlimit="10" stroke-width="0.8"/><path fill="none" stroke="#000000" paint-order="fill stroke markers" d=" M 350.7 36.29999999999998 L 350.7 86.29999999999998" stroke-linecap="square" stroke-miterlimit="10" stroke-width="0.8"/><path fill="none" stroke="#000000" paint-order="fill stroke markers" d=" M 300.7 86.29999999999998 L 350.7 86.29999999999998" stroke-linecap="square" stroke-miterlimit="10" stroke-width="0.8"/><path fill="none" stroke="#000000" paint-order="fill stroke markers" d=" M 0.6999999999999886 86.29999999999998 L 50.70000000000002 86.29999999999998" stroke-linecap="square" stroke-miterlimit="10" stroke-width="0.8"/><path fill="none" stroke="#000000" paint-order="fill stroke markers" d=" M 50.70000000000002 86.29999999999998 L 50.70000000000002 136.3" stroke-linecap="square" stroke-miterlimit="10" stroke-width="0.8"/><path fill="none" stroke="#000000" paint-order="fill stroke markers" d=" M 0.6999999999999886 136.3 L 50.70000000000002 136.3" stroke-linecap="square" stroke-miterlimit="10" stroke-width="0.8"/><path fill="none" stroke="#000000" paint-order="fill stroke markers" d=" M 0.6999999999999886 86.29999999999998 L 0.6999999999999886 136.3" stroke-linecap="square" stroke-miterlimit="10" stroke-width="0.8"/><path fill="none" stroke="#000000" paint-order="fill stroke markers" d=" M 100.7 86.29999999999998 L 100.7 136.3" stroke-linecap="square" stroke-miterlimit="10" stroke-width="0.8"/><path fill="none" stroke="#000000" paint-order="fill stroke markers" d=" M 50.70000000000002 136.3 L 100.7 136.3" stroke-linecap="square" stroke-miterlimit="10" stroke-width="0.8"/><path fill="none" stroke="#000000" paint-order="fill stroke markers" d=" M 150.7 86.29999999999998 L 150.7 136.3" stroke-linecap="square" stroke-miterlimit="10" stroke-width="0.8"/><path fill="none" stroke="#000000" paint-order="fill stroke markers" d=" M 100.7 136.3 L 150.7 136.3" stroke-linecap="square" stroke-miterlimit="10" stroke-width="0.8"/><path fill="none" stroke="#000000" paint-order="fill stroke markers" d=" M 200.7 86.29999999999998 L 200.7 136.3" stroke-linecap="square" stroke-miterlimit="10" stroke-width="0.8"/><path fill="none" stroke="#000000" paint-order="fill stroke markers" d=" M 150.7 136.3 L 200.7 136.3" stroke-linecap="square" stroke-miterlimit="10" stroke-width="0.8"/><path fill="none" stroke="#000000" paint-order="fill stroke markers" d=" M 250.7 86.29999999999998 L 250.7 136.3" stroke-linecap="square" stroke-miterlimit="10" stroke-width="0.8"/><path fill="none" stroke="#000000" paint-order="fill stroke markers" d=" M 200.7 136.3 L 250.7 136.3" stroke-linecap="square" stroke-miterlimit="10" stroke-width="0.8"/><path fill="none" stroke="#000000" paint-order="fill stroke markers" d=" M 300.7 86.29999999999998 L 300.7 136.3" stroke-linecap="square" stroke-miterlimit="10" stroke-width="0.8"/><path fill="none" stroke="#000000" paint-order="fill stroke markers" d=" M 250.7 136.3 L 300.7 136.3" stroke-linecap="square" stroke-miterlimit="10" stroke-width="0.8"/><path fill="none" stroke="#000000" paint-order="fill stroke markers" d=" M 350.7 86.29999999999998 L 350.7 136.3" stroke-linecap="square" stroke-miterlimit="10" stroke-width="0.8"/><path fill="none" stroke="#000000" paint-order="fill stroke markers" d=" M 300.7 136.3 L 350.7 136.3" stroke-linecap="square" stroke-miterlimit="10" stroke-width="0.8"/><path fill="none" stroke="#000000" paint-order="fill stroke markers" d=" M 350.7 86.29999999999998 L 400.7 86.29999999999998" stroke-linecap="square" stroke-miterlimit="10" stroke-width="0.8"/><path fill="none" stroke="#000000" paint-order="fill stroke markers" d=" M 400.7 86.29999999999998 L 400.7 136.3" stroke-linecap="square" stroke-miterlimit="10" stroke-width="0.8"/><path fill="none" stroke="#000000" paint-order="fill stroke markers" d=" M 350.7 136.3 L 400.7 136.3" stroke-linecap="square" stroke-miterlimit="10" stroke-width="0.8"/><path fill="none" stroke="#000000" paint-order="fill stroke markers" d=" M 50.70000000000002 136.3 L 50.70000000000002 186.3" stroke-linecap="square" stroke-miterlimit="10" stroke-width="0.8"/><path fill="none" stroke="#000000" paint-order="fill stroke markers" d=" M 0.6999999999999886 186.3 L 50.70000000000002 186.3" stroke-linecap="square" stroke-miterlimit="10" stroke-width="0.8"/><path fill="none" stroke="#000000" paint-order="fill stroke markers" d=" M 0.6999999999999886 136.3 L 0.6999999999999886 186.3" stroke-linecap="square" stroke-miterlimit="10" stroke-width="0.8"/><path fill="none" stroke="#000000" paint-order="fill stroke markers" d=" M 100.7 136.3 L 100.7 186.3" stroke-linecap="square" stroke-miterlimit="10" stroke-width="0.8"/><path fill="none" stroke="#000000" paint-order="fill stroke markers" d=" M 50.70000000000002 186.3 L 100.7 186.3" stroke-linecap="square" stroke-miterlimit="10" stroke-width="0.8"/><path fill="none" stroke="#000000" paint-order="fill stroke markers" d=" M 150.7 136.3 L 150.7 186.3" stroke-linecap="square" stroke-miterlimit="10" stroke-width="0.8"/><path fill="none" stroke="#000000" paint-order="fill stroke markers" d=" M 100.7 186.3 L 150.7 186.3" stroke-linecap="square" stroke-miterlimit="10" stroke-width="0.8"/><path fill="none" stroke="#000000" paint-order="fill stroke markers" d=" M 200.7 136.3 L 200.7 186.3" stroke-linecap="square" stroke-miterlimit="10" stroke-width="0.8"/><path fill="none" stroke="#000000" paint-order="fill stroke markers" d=" M 150.7 186.3 L 200.7 186.3" stroke-linecap="square" stroke-miterlimit="10" stroke-width="0.8"/><path fill="none" stroke="#000000" paint-order="fill stroke markers" d=" M 250.7 136.3 L 250.7 186.3" stroke-linecap="square" stroke-miterlimit="10" stroke-width="0.8"/><path fill="none" stroke="#000000" paint-order="fill stroke markers" d=" M 200.7 186.3 L 250.7 186.3" stroke-linecap="square" stroke-miterlimit="10" stroke-width="0.8"/><path fill="none" stroke="#000000" paint-order="fill stroke markers" d=" M 300.7 136.3 L 300.7 186.3" stroke-linecap="square" stroke-miterlimit="10" stroke-width="0.8"/><path fill="none" stroke="#000000" paint-order="fill stroke markers" d=" M 250.7 186.3 L 300.7 186.3" stroke-linecap="square" stroke-miterlimit="10" stroke-width="0.8"/><path fill="none" stroke="#000000" paint-order="fill stroke markers" d=" M 350.7 136.3 L 350.7 186.3" stroke-linecap="square" stroke-miterlimit="10" stroke-width="0.8"/><path fill="none" stroke="#000000" paint-order="fill stroke markers" d=" M 300.7 186.3 L 350.7 186.3" stroke-linecap="square" stroke-miterlimit="10" stroke-width="0.8"/><path fill="none" stroke="#000000" paint-order="fill stroke markers" d=" M 400.7 136.3 L 400.7 186.3" stroke-linecap="square" stroke-miterlimit="10" stroke-width="0.8"/><path fill="none" stroke="#000000" paint-order="fill stroke markers" d=" M 350.7 186.3 L 400.7 186.3" stroke-linecap="square" stroke-miterlimit="10" stroke-width="0.8"/><path fill="none" stroke="#000000" paint-order="fill stroke markers" d=" M 50.70000000000002 186.3 L 50.70000000000002 236.3" stroke-linecap="square" stroke-miterlimit="10" stroke-width="0.8"/><path fill="none" stroke="#000000" paint-order="fill stroke markers" d=" M 0.6999999999999886 236.3 L 50.70000000000002 236.3" stroke-linecap="square" stroke-miterlimit="10" stroke-width="0.8"/><path fill="none" stroke="#000000" paint-order="fill stroke markers" d=" M 0.6999999999999886 186.3 L 0.6999999999999886 236.3" stroke-linecap="square" stroke-miterlimit="10" stroke-width="0.8"/><path fill="none" stroke="#000000" paint-order="fill stroke markers" d=" M 100.7 186.3 L 100.7 236.3" stroke-linecap="square" stroke-miterlimit="10" stroke-width="0.8"/><path fill="none" stroke="#000000" paint-order="fill stroke markers" d=" M 50.70000000000002 236.3 L 100.7 236.3" stroke-linecap="square" stroke-miterlimit="10" stroke-width="0.8"/><path fill="none" stroke="#000000" paint-order="fill stroke markers" d=" M 150.7 186.3 L 150.7 236.3" stroke-linecap="square" stroke-miterlimit="10" stroke-width="0.8"/><path fill="none" stroke="#000000" paint-order="fill stroke markers" d=" M 100.7 236.3 L 150.7 236.3" stroke-linecap="square" stroke-miterlimit="10" stroke-width="0.8"/><path fill="none" stroke="#000000" paint-order="fill stroke markers" d=" M 200.7 186.3 L 200.7 236.3" stroke-linecap="square" stroke-miterlimit="10" stroke-width="0.8"/><path fill="none" stroke="#000000" paint-order="fill stroke markers" d=" M 150.7 236.3 L 200.7 236.3" stroke-linecap="square" stroke-miterlimit="10" stroke-width="0.8"/><path fill="none" stroke="#000000" paint-order="fill stroke markers" d=" M 250.7 186.3 L 250.7 236.3" stroke-linecap="square" stroke-miterlimit="10" stroke-width="0.8"/><path fill="none" stroke="#000000" paint-order="fill stroke markers" d=" M 200.7 236.3 L 250.7 236.3" stroke-linecap="square" stroke-miterlimit="10" stroke-width="0.8"/><path fill="none" stroke="#000000" paint-order="fill stroke markers" d=" M 300.7 186.3 L 300.7 236.3" stroke-linecap="square" stroke-miterlimit="10" stroke-width="0.8"/><path fill="none" stroke="#000000" paint-order="fill stroke markers" d=" M 250.7 236.3 L 300.7 236.3" stroke-linecap="square" stroke-miterlimit="10" stroke-width="0.8"/><path fill="none" stroke="#000000" paint-order="fill stroke markers" d=" M 350.7 186.3 L 350.7 236.3" stroke-linecap="square" stroke-miterlimit="10" stroke-width="0.8"/><path fill="none" stroke="#000000" paint-order="fill stroke markers" d=" M 300.7 236.3 L 350.7 236.3" stroke-linecap="square" stroke-miterlimit="10" stroke-width="0.8"/><path fill="none" stroke="#000000" paint-order="fill stroke markers" d=" M 400.7 186.3 L 400.7 236.3" stroke-linecap="square" stroke-miterlimit="10" stroke-width="0.8"/><path fill="none" stroke="#000000" paint-order="fill stroke markers" d=" M 350.7 236.3 L 400.7 236.3" stroke-linecap="square" stroke-miterlimit="10" stroke-width="0.8"/><path fill="none" stroke="#000000" paint-order="fill stroke markers" d=" M 50.70000000000002 236.3 L 50.70000000000002 286.3" stroke-linecap="square" stroke-miterlimit="10" stroke-width="0.8"/><path fill="none" stroke="#000000" paint-order="fill stroke markers" d=" M 0.6999999999999886 286.3 L 50.70000000000002 286.3" stroke-linecap="square" stroke-miterlimit="10" stroke-width="0.8"/><path fill="none" stroke="#000000" paint-order="fill stroke markers" d=" M 0.6999999999999886 236.3 L 0.6999999999999886 286.3" stroke-linecap="square" stroke-miterlimit="10" stroke-width="0.8"/><path fill="none" stroke="#000000" paint-order="fill stroke markers" d=" M 100.7 236.3 L 100.7 286.3" stroke-linecap="square" stroke-miterlimit="10" stroke-width="0.8"/><path fill="none" stroke="#000000" paint-order="fill stroke markers" d=" M 50.70000000000002 286.3 L 100.7 286.3" stroke-linecap="square" stroke-miterlimit="10" stroke-width="0.8"/><path fill="none" stroke="#000000" paint-order="fill stroke markers" d=" M 150.7 236.3 L 150.7 286.3" stroke-linecap="square" stroke-miterlimit="10" stroke-width="0.8"/><path fill="none" stroke="#000000" paint-order="fill stroke markers" d=" M 100.7 286.3 L 150.7 286.3" stroke-linecap="square" stroke-miterlimit="10" stroke-width="0.8"/><path fill="none" stroke="#000000" paint-order="fill stroke markers" d=" M 200.7 236.3 L 200.7 286.3" stroke-linecap="square" stroke-miterlimit="10" stroke-width="0.8"/><path fill="none" stroke="#000000" paint-order="fill stroke markers" d=" M 150.7 286.3 L 200.7 286.3" stroke-linecap="square" stroke-miterlimit="10" stroke-width="0.8"/><path fill="none" stroke="#000000" paint-order="fill stroke markers" d=" M 250.7 236.3 L 250.7 286.3" stroke-linecap="square" stroke-miterlimit="10" stroke-width="0.8"/><path fill="none" stroke="#000000" paint-order="fill stroke markers" d=" M 200.7 286.3 L 250.7 286.3" stroke-linecap="square" stroke-miterlimit="10" stroke-width="0.8"/><path fill="none" stroke="#000000" paint-order="fill stroke markers" d=" M 300.7 236.3 L 300.7 286.3" stroke-linecap="square" stroke-miterlimit="10" stroke-width="0.8"/><path fill="none" stroke="#000000" paint-order="fill stroke markers" d=" M 250.7 286.3 L 300.7 286.3" stroke-linecap="square" stroke-miterlimit="10" stroke-width="0.8"/><path fill="none" stroke="#000000" paint-order="fill stroke markers" d=" M 350.7 236.3 L 350.7 286.3" stroke-linecap="square" stroke-miterlimit="10" stroke-width="0.8"/><path fill="none" stroke="#000000" paint-order="fill stroke markers" d=" M 300.7 286.3 L 350.7 286.3" stroke-linecap="square" stroke-miterlimit="10" stroke-width="0.8"/><path fill="none" stroke="#000000" paint-order="fill stroke markers" d=" M 400.7 236.3 L 400.7 286.3" stroke-linecap="square" stroke-miterlimit="10" stroke-width="0.8"/><path fill="none" stroke="#000000" paint-order="fill stroke markers" d=" M 350.7 286.3 L 400.7 286.3" stroke-linecap="square" stroke-miterlimit="10" stroke-width="0.8"/><path fill="none" stroke="#000000" paint-order="fill stroke markers" d=" M 50.70000000000002 286.3 L 50.70000000000002 336.3" stroke-linecap="square" stroke-miterlimit="10" stroke-width="0.8"/><path fill="none" stroke="#000000" paint-order="fill stroke markers" d=" M 0.6999999999999886 336.3 L 50.70000000000002 336.3" stroke-linecap="square" stroke-miterlimit="10" stroke-width="0.8"/><path fill="none" stroke="#000000" paint-order="fill stroke markers" d=" M 0.6999999999999886 286.3 L 0.6999999999999886 336.3" stroke-linecap="square" stroke-miterlimit="10" stroke-width="0.8"/><path fill="none" stroke="#000000" paint-order="fill stroke markers" d=" M 100.7 286.3 L 100.7 336.3" stroke-linecap="square" stroke-miterlimit="10" stroke-width="0.8"/><path fill="none" stroke="#000000" paint-order="fill stroke markers" d=" M 50.70000000000002 336.3 L 100.7 336.3" stroke-linecap="square" stroke-miterlimit="10" stroke-width="0.8"/><path fill="none" stroke="#000000" paint-order="fill stroke markers" d=" M 150.7 286.3 L 150.7 336.3" stroke-linecap="square" stroke-miterlimit="10" stroke-width="0.8"/><path fill="none" stroke="#000000" paint-order="fill stroke markers" d=" M 100.7 336.3 L 150.7 336.3" stroke-linecap="square" stroke-miterlimit="10" stroke-width="0.8"/><path fill="none" stroke="#000000" paint-order="fill stroke markers" d=" M 200.7 286.3 L 200.7 336.3" stroke-linecap="square" stroke-miterlimit="10" stroke-width="0.8"/><path fill="none" stroke="#000000" paint-order="fill stroke markers" d=" M 150.7 336.3 L 200.7 336.3" stroke-linecap="square" stroke-miterlimit="10" stroke-width="0.8"/><path fill="none" stroke="#000000" paint-order="fill stroke markers" d=" M 250.7 286.3 L 250.7 336.3" stroke-linecap="square" stroke-miterlimit="10" stroke-width="0.8"/><path fill="none" stroke="#000000" paint-order="fill stroke markers" d=" M 200.7 336.3 L 250.7 336.3" stroke-linecap="square" stroke-miterlimit="10" stroke-width="0.8"/><path fill="none" stroke="#000000" paint-order="fill stroke markers" d=" M 300.7 286.3 L 300.7 336.3" stroke-linecap="square" stroke-miterlimit="10" stroke-width="0.8"/><path fill="none" stroke="#000000" paint-order="fill stroke markers" d=" M 250.7 336.3 L 300.7 336.3" stroke-linecap="square" stroke-miterlimit="10" stroke-width="0.8"/><path fill="none" stroke="#000000" paint-order="fill stroke markers" d=" M 350.7 286.3 L 350.7 336.3" stroke-linecap="square" stroke-miterlimit="10" stroke-width="0.8"/><path fill="none" stroke="#000000" paint-order="fill stroke markers" d=" M 300.7 336.3 L 350.7 336.3" stroke-linecap="square" stroke-miterlimit="10" stroke-width="0.8"/><path fill="none" stroke="#000000" paint-order="fill stroke markers" d=" M 400.7 286.3 L 400.7 336.3" stroke-linecap="square" stroke-miterlimit="10" stroke-width="0.8"/><path fill="none" stroke="#000000" paint-order="fill stroke markers" d=" M 350.7 336.3 L 400.7 336.3" stroke-linecap="square" stroke-miterlimit="10" stroke-width="0.8"/><path fill="none" stroke="#000000" paint-order="fill stroke markers" d=" M 50.70000000000002 336.3 L 50.70000000000002 386.3" stroke-linecap="square" stroke-miterlimit="10" stroke-width="0.8"/><path fill="none" stroke="#000000" paint-order="fill stroke markers" d=" M 0.6999999999999886 386.3 L 50.70000000000002 386.3" stroke-linecap="square" stroke-miterlimit="10" stroke-width="0.8"/><path fill="none" stroke="#000000" paint-order="fill stroke markers" d=" M 0.6999999999999886 336.3 L 0.6999999999999886 386.3" stroke-linecap="square" stroke-miterlimit="10" stroke-width="0.8"/><path fill="none" stroke="#000000" paint-order="fill stroke markers" d=" M 100.7 336.3 L 100.7 386.3" stroke-linecap="square" stroke-miterlimit="10" stroke-width="0.8"/><path fill="none" stroke="#000000" paint-order="fill stroke markers" d=" M 50.70000000000002 386.3 L 100.7 386.3" stroke-linecap="square" stroke-miterlimit="10" stroke-width="0.8"/><path fill="none" stroke="#000000" paint-order="fill stroke markers" d=" M 150.7 336.3 L 150.7 386.3" stroke-linecap="square" stroke-miterlimit="10" stroke-width="0.8"/><path fill="none" stroke="#000000" paint-order="fill stroke markers" d=" M 100.7 386.3 L 150.7 386.3" stroke-linecap="square" stroke-miterlimit="10" stroke-width="0.8"/><path fill="none" stroke="#000000" paint-order="fill stroke markers" d=" M 200.7 336.3 L 200.7 386.3" stroke-linecap="square" stroke-miterlimit="10" stroke-width="0.8"/><path fill="none" stroke="#000000" paint-order="fill stroke markers" d=" M 150.7 386.3 L 200.7 386.3" stroke-linecap="square" stroke-miterlimit="10" stroke-width="0.8"/><path fill="none" stroke="#000000" paint-order="fill stroke markers" d=" M 250.7 336.3 L 250.7 386.3" stroke-linecap="square" stroke-miterlimit="10" stroke-width="0.8"/><path fill="none" stroke="#000000" paint-order="fill stroke markers" d=" M 200.7 386.3 L 250.7 386.3" stroke-linecap="square" stroke-miterlimit="10" stroke-width="0.8"/><path fill="none" stroke="#000000" paint-order="fill stroke markers" d=" M 300.7 336.3 L 300.7 386.3" stroke-linecap="square" stroke-miterlimit="10" stroke-width="0.8"/><path fill="none" stroke="#000000" paint-order="fill stroke markers" d=" M 250.7 386.3 L 300.7 386.3" stroke-linecap="square" stroke-miterlimit="10" stroke-width="0.8"/><path fill="none" stroke="#000000" paint-order="fill stroke markers" d=" M 350.7 336.3 L 350.7 386.3" stroke-linecap="square" stroke-miterlimit="10" stroke-width="0.8"/><path fill="none" stroke="#000000" paint-order="fill stroke markers" d=" M 300.7 386.3 L 350.7 386.3" stroke-linecap="square" stroke-miterlimit="10" stroke-width="0.8"/><path fill="none" stroke="#000000" paint-order="fill stroke markers" d=" M 400.7 336.3 L 400.7 386.3" stroke-linecap="square" stroke-miterlimit="10" stroke-width="0.8"/><path fill="none" stroke="#000000" paint-order="fill stroke markers" d=" M 350.7 386.3 L 400.7 386.3" stroke-linecap="square" stroke-miterlimit="10" stroke-width="0.8"/><path fill="none" stroke="#000000" paint-order="fill stroke markers" d=" M 100.7 386.3 L 100.7 436.3" stroke-linecap="square" stroke-miterlimit="10" stroke-width="0.8"/><path fill="none" stroke="#000000" paint-order="fill stroke markers" d=" M 50.70000000000002 436.3 L 100.7 436.3" stroke-linecap="square" stroke-miterlimit="10" stroke-width="0.8"/><path fill="none" stroke="#000000" paint-order="fill stroke markers" d=" M 50.70000000000002 386.3 L 50.70000000000002 436.3" stroke-linecap="square" stroke-miterlimit="10" stroke-width="0.8"/><path fill="none" stroke="#000000" paint-order="fill stroke markers" d=" M 150.7 386.3 L 150.7 436.3" stroke-linecap="square" stroke-miterlimit="10" stroke-width="0.8"/><path fill="none" stroke="#000000" paint-order="fill stroke markers" d=" M 100.7 436.3 L 150.7 436.3" stroke-linecap="square" stroke-miterlimit="10" stroke-width="0.8"/><path fill="none" stroke="#000000" paint-order="fill stroke markers" d=" M 200.7 386.3 L 200.7 436.3" stroke-linecap="square" stroke-miterlimit="10" stroke-width="0.8"/><path fill="none" stroke="#000000" paint-order="fill stroke markers" d=" M 150.7 436.3 L 200.7 436.3" stroke-linecap="square" stroke-miterlimit="10" stroke-width="0.8"/><path fill="none" stroke="#000000" paint-order="fill stroke markers" d=" M 250.7 386.3 L 250.7 436.3" stroke-linecap="square" stroke-miterlimit="10" stroke-width="0.8"/><path fill="none" stroke="#000000" paint-order="fill stroke markers" d=" M 200.7 436.3 L 250.7 436.3" stroke-linecap="square" stroke-miterlimit="10" stroke-width="0.8"/><path fill="none" stroke="#000000" paint-order="fill stroke markers" d=" M 300.7 386.3 L 300.7 436.3" stroke-linecap="square" stroke-miterlimit="10" stroke-width="0.8"/><path fill="none" stroke="#000000" paint-order="fill stroke markers" d=" M 250.7 436.3 L 300.7 436.3" stroke-linecap="square" stroke-miterlimit="10" stroke-width="0.8"/><path fill="none" stroke="#000000" paint-order="fill stroke markers" d=" M 350.7 386.3 L 350.7 436.3" stroke-linecap="square" stroke-miterlimit="10" stroke-width="0.8"/><path fill="none" stroke="#000000" paint-order="fill stroke markers" d=" M 300.7 436.3 L 350.7 436.3" stroke-linecap="square" stroke-miterlimit="10" stroke-width="0.8"/><path fill="none" stroke="#000000" paint-order="fill stroke markers" d=" M 50.70000000000002 86.29999999999998 L 50.70000000000002 136.3" stroke-linecap="round" stroke-miterlimit="10" stroke-width="3"/><path fill="none" stroke="#000000" paint-order="fill stroke markers" d=" M 50.70000000000002 136.3 L 50.70000000000002 186.3" stroke-linecap="round" stroke-miterlimit="10" stroke-width="3"/><path fill="none" stroke="#000000" paint-order="fill stroke markers" d=" M 50.70000000000002 186.3 L 50.70000000000002 236.3" stroke-linecap="round" stroke-miterlimit="10" stroke-width="3"/><path fill="none" stroke="#000000" paint-order="fill stroke markers" d=" M 50.70000000000002 236.3 L 50.70000000000002 286.3" stroke-linecap="round" stroke-miterlimit="10" stroke-width="3"/><path fill="none" stroke="#000000" paint-order="fill stroke markers" d=" M 50.70000000000002 286.3 L 50.70000000000002 336.3" stroke-linecap="round" stroke-miterlimit="10" stroke-width="3"/><path fill="none" stroke="#000000" paint-order="fill stroke markers" d=" M 50.70000000000002 336.3 L 50.70000000000002 386.3" stroke-linecap="round" stroke-miterlimit="10" stroke-width="3"/><path fill="none" stroke="#000000" paint-order="fill stroke markers" d=" M 50.70000000000002 386.3 L 100.7 386.3" stroke-linecap="round" stroke-miterlimit="10" stroke-width="3"/><path fill="none" stroke="#000000" paint-order="fill stroke markers" d=" M 100.7 386.3 L 150.7 386.3" stroke-linecap="round" stroke-miterlimit="10" stroke-width="3"/><path fill="none" stroke="#000000" paint-order="fill stroke markers" d=" M 150.7 386.3 L 200.7 386.3" stroke-linecap="round" stroke-miterlimit="10" stroke-width="3"/><path fill="none" stroke="#000000" paint-order="fill stroke markers" d=" M 200.7 386.3 L 250.7 386.3" stroke-linecap="round" stroke-miterlimit="10" stroke-width="3"/><path fill="none" stroke="#000000" paint-order="fill stroke markers" d=" M 250.7 386.3 L 300.7 386.3" stroke-linecap="round" stroke-miterlimit="10" stroke-width="3"/><path fill="none" stroke="#000000" paint-order="fill stroke markers" d=" M 300.7 386.3 L 350.7 386.3" stroke-linecap="round" stroke-miterlimit="10" stroke-width="3"/><path fill="none" stroke="#000000" paint-order="fill stroke markers" d=" M 350.7 336.3 L 350.7 386.3" stroke-linecap="round" stroke-miterlimit="10" stroke-width="3"/><path fill="none" stroke="#000000" paint-order="fill stroke markers" d=" M 350.7 286.3 L 350.7 336.3" stroke-linecap="round" stroke-miterlimit="10" stroke-width="3"/><path fill="none" stroke="#000000" paint-order="fill stroke markers" d=" M 350.7 236.3 L 350.7 286.3" stroke-linecap="round" stroke-miterlimit="10" stroke-width="3"/><path fill="none" stroke="#000000" paint-order="fill stroke markers" d=" M 350.7 186.3 L 350.7 236.3" stroke-linecap="round" stroke-miterlimit="10" stroke-width="3"/><path fill="none" stroke="#000000" paint-order="fill stroke markers" d=" M 350.7 136.3 L 350.7 186.3" stroke-linecap="round" stroke-miterlimit="10" stroke-width="3"/><path fill="none" stroke="#000000" paint-order="fill stroke markers" d=" M 350.7 86.29999999999998 L 350.7 136.3" stroke-linecap="round" stroke-miterlimit="10" stroke-width="3"/><path fill="none" stroke="#000000" paint-order="fill stroke markers" d=" M 300.7 86.29999999999998 L 350.7 86.29999999999998" stroke-linecap="round" stroke-miterlimit="10" stroke-width="3"/><path fill="none" stroke="#000000" paint-order="fill stroke markers" d=" M 250.7 86.29999999999998 L 300.7 86.29999999999998" stroke-linecap="round" stroke-miterlimit="10" stroke-width="3"/><path fill="none" stroke="#000000" paint-order="fill stroke markers" d=" M 200.7 86.29999999999998 L 250.7 86.29999999999998" stroke-linecap="round" stroke-miterlimit="10" stroke-width="3"/><path fill="none" stroke="#000000" paint-order="fill stroke markers" d=" M 150.7 86.29999999999998 L 200.7 86.29999999999998" stroke-linecap="round" stroke-miterlimit="10" stroke-width="3"/><path fill="none" stroke="#000000" paint-order="fill stroke markers" d=" M 100.7 86.29999999999998 L 150.7 86.29999999999998" stroke-linecap="round" stroke-miterlimit="10" stroke-width="3"/><path fill="none" stroke="#000000" paint-order="fill stroke markers" d=" M 50.70000000000002 86.29999999999998 L 100.7 86.29999999999998" stroke-linecap="round" stroke-miterlimit="10" stroke-width="3"/><path fill="#000000" stroke="#000000" paint-order="fill stroke markers" d=" M 82.2 86.29999999999998 A 6.5 6.5 0 1 1 82.19999675000028 86.29350000108332" stroke-miterlimit="10"/><path fill="#000000" stroke="#000000" paint-order="fill stroke markers" d=" M 82.2 136.3 A 6.5 6.5 0 1 1 82.19999675000028 136.29350000108334" stroke-miterlimit="10"/><path fill="#ffffff" stroke="#000000" paint-order="fill stroke markers" d=" M 182.2 136.3 A 6.5 6.5 0 1 1 182.19999675000025 136.29350000108334" stroke-miterlimit="10"/><path fill="#000000" stroke="#000000" paint-order="fill stroke markers" d=" M 82.2 186.3 A 6.5 6.5 0 1 1 82.19999675000028 186.29350000108334" stroke-miterlimit="10"/><path fill="#ffffff" stroke="#000000" paint-order="fill stroke markers" d=" M 182.2 186.3 A 6.5 6.5 0 1 1 182.19999675000025 186.29350000108334" stroke-miterlimit="10"/><path fill="#000000" stroke="#000000" paint-order="fill stroke markers" d=" M 232.2 286.3 A 6.5 6.5 0 1 1 232.19999675000025 286.2935000010833" stroke-miterlimit="10"/><path fill="#ffffff" stroke="#000000" paint-order="fill stroke markers" d=" M 332.2 286.3 A 6.5 6.5 0 1 1 332.19999675000025 286.2935000010833" stroke-miterlimit="10"/><path fill="#000000" stroke="#000000" paint-order="fill stroke markers" d=" M 232.2 336.3 A 6.5 6.5 0 1 1 232.19999675000025 336.2935000010833" stroke-miterlimit="10"/><path fill="#ffffff" stroke="#000000" paint-order="fill stroke markers" d=" M 332.2 336.3 A 6.5 6.5 0 1 1 332.19999675000025 336.2935000010833" stroke-miterlimit="10"/><path fill="#ffffff" stroke="#000000" paint-order="fill stroke markers" d=" M 332.2 386.3 A 6.5 6.5 0 1 1 332.19999675000025 386.2935000010833" stroke-miterlimit="10"/><path fill="#000000" stroke="#000000" paint-order="fill stroke markers" d=" M 307.2 61.29999999999998 A 6.5 6.5 0 1 1 307.19999675000025 61.29350000108331" stroke-miterlimit="10"/><path fill="#000000" stroke="#000000" paint-order="fill stroke markers" d=" M 357.2 111.3 A 6.5 6.5 0 1 1 357.19999675000025 111.29350000108333" stroke-miterlimit="10"/><path fill="#ffffff" stroke="#000000" paint-order="fill stroke markers" d=" M 57.20000000000002 361.3 A 6.5 6.5 0 1 1 57.19999675000029 361.2935000010833" stroke-miterlimit="10"/><path fill="#ffffff" stroke="#000000" paint-order="fill stroke markers" d=" M 107.2 411.3 A 6.5 6.5 0 1 1 107.19999675000028 411.2935000010833" stroke-miterlimit="10"/><text fill="none" stroke="rgb(255,255,255)" font-family="Helvetica,Arial" font-size="25px" font-style="normal" font-weight="normal" text-decoration="normal" x="15.699999999999989" y="18.299999999999983" text-anchor="start" dominant-baseline="alphabetic" stroke-opacity="0" stroke-miterlimit="10">(1 – 6)</text><text fill="#000000" stroke="none" font-family="Helvetica,Arial" font-size="25px" font-style="normal" font-weight="normal" text-decoration="normal" x="15.699999999999989" y="18.299999999999983" text-anchor="start" dominant-baseline="alphabetic">(1 – 6)</text></g></svg>