<svg version="1.1" xmlns="http://www.w3.org/2000/svg" xmlns:xlink="http://www.w3.org/1999/xlink" width="404.40000000000003" height="438.40000000000003"><defs/><g><rect fill="rgb(255,255,255)" stroke="none" x="0" y="0" width="404.40000000000003" height="438.40000000000003" fill-opacity="0"/><path fill="#000000" stroke="none" paint-order="stroke fill markers" d=" M 4.400000000000011 36.29999999999998 A 2.1 2.1 0 1 0 4.399998950000099 36.30209999964998"/><path fill="#000000" stroke="none" paint-order="stroke fill markers" d=" M 54.399999999999984 36.29999999999998 A 2.1 2.1 0 1 0 54.39999895000007 36.30209999964998"/><path fill="#000000" stroke="none" paint-order="stroke fill markers" d=" M 54.399999999999984 86.29999999999998 A 2.1 2.1 0 1 0 54.39999895000007 86.30209999964998"/><path fill="#000000" stroke="none" paint-order="stroke fill markers" d=" M 4.400000000000011 86.29999999999998 A 2.1 2.1 0 1 0 4.399998950000099 86.30209999964998"/><path fill="#000000" stroke="none" paint-order="stroke fill markers" d=" M 104.39999999999999 36.29999999999998 A 2.1 2.1 0 1 0 104.39999895000008 36.30209999964998"/><path fill="#000000" stroke="none" paint-order="stroke fill markers" d=" M 104.39999999999999 86.29999999999998 A 2.1 2.1 0 1 0 104.39999895000008 86.30209999964998"/><path fill="#000000" stroke="none" paint-order="stroke fill markers" d=" M 154.4 36.29999999999998 A 2.1 2.1 0 1 0 154.3999989500001 36.30209999964998"/><path fill="#000000" stroke="none" paint-order="stroke fill markers" d=" M 154.4 86.29999999999998 A 2.1 2.1 0 1 0 154.3999989500001 86.30209999964998"/><path fill="#000000" stroke="none" paint-order="stroke fill markers" d=" M 204.4 36.29999999999998 A 2.1 2.1 0 1 0 204.3999989500001 36.30209999964998"/><path fill="#000000" stroke="none" paint-order="stroke fill markers" d=" M 204.4 86.29999999999998 A 2.1 2.1 0 1 0 204.3999989500001 86.30209999964998"/><path fill="#000000" stroke="none" paint-order="stroke fill markers" d=" M 254.4 36.29999999999998 A 2.1 2.1 0 1 0 254.3999989500001 36.30209999964998"/><path fill="#000000" stroke="none" paint-order="stroke fill markers" d=" M 254.4 86.29999999999998 A 2.1 2.1 0 1 0 254.3999989500001 86.30209999964998"/><path fill="#000000" stroke="none" paint-order="stroke fill markers" d=" M 304.40000000000003 36.29999999999998 A 2.1 2.1 0 1 0 304.3999989500001 36.30209999964998"/><path fill="#000000" stroke="none" paint-order="stroke fill markers" d=" M 304.40000000000003 86.29999999999998 A 2.1 2.1 0 1 0 304.3999989500001 86.30209999964998"/><path fill="#000000" stroke="none" paint-order="stroke fill markers" d=" M 354.40000000000003 36.29999999999998 A 2.1 2.1 0 1 0 354.3999989500001 36.30209999964998"/><path fill="#000000" stroke="none" paint-order="stroke fill markers" d=" M 354.40000000000003 86.29999999999998 A 2.1 2.1 0 1 0 354.3999989500001 86.30209999964998"/><path fill="#000000" stroke="none" paint-order="stroke fill markers" d=" M 404.40000000000003 36.29999999999998 A 2.1 2.1 0 1 0 404.3999989500001 36.30209999964998"/><path fill="#000000" stroke="none" paint-order="stroke fill markers" d=" M 404.40000000000003 86.29999999999998 A 2.1 2.1 0 1 0 404.3999989500001 86.30209999964998"/><path fill="#000000" stroke="none" paint-order="stroke fill markers" d=" M 54.399999999999984 136.3 A 2.1 2.1 0 1 0 54.39999895000007 136.30209999965"/><path fill="#000000" stroke="none" paint-order="stroke fill markers" d=" M 4.400000000000011 136.3 A 2.1 2.1 0 1 0 4.399998950000099 136.30209999965"/><path fill="#000000" stroke="none" paint-order="stroke fill markers" d=" M 104.39999999999999 136.3 A 2.1 2.1 0 1 0 104.39999895000008 136.30209999965"/><path fill="#000000" stroke="none" paint-order="stroke fill markers" d=" M 154.4 136.3 A 2.1 2.1 0 1 0 154.3999989500001 136.30209999965"/><path fill="#000000" stroke="none" paint-order="stroke fill markers" d=" M 204.4 136.3 A 2.1 2.1 0 1 0 204.3999989500001 136.30209999965"/><path fill="#000000" stroke="none" paint-order="stroke fill markers" d=" M 254.4 136.3 A 2.1 2.1 0 1 0 254.3999989500001 136.30209999965"/><path fill="#000000" stroke="none" paint-order="stroke fill markers" d=" M 304.40000000000003 136.3 A 2.1 2.1 0 1 0 304.3999989500001 136.30209999965"/><path fill="#000000" stroke="none" paint-order="stroke fill markers" d=" M 354.40000000000003 136.3 A 2.1 2.1 0 1 0 354.3999989500001 136.30209999965"/><path fill="#000000" stroke="none" paint-order="stroke fill markers" d=" M 404.40000000000003 136.3 A 2.1 2.1 0 1 0 404.3999989500001 136.30209999965"/><path fill="#000000" stroke="none" paint-order="stroke fill markers" d=" M 54.399999999999984 186.3 A 2.1 2.1 0 1 0 54.39999895000007 186.30209999965"/><path fill="#000000" stroke="none" paint-order="stroke fill markers" d=" M 4.400000000000011 186.3 A 2.1 2.1 0 1 0 4.399998950000099 186.30209999965"/><path fill="#000000" stroke="none" paint-order="stroke fill markers" d=" M 104.39999999999999 186.3 A 2.1 2.1 0 1 0 104.39999895000008 186.30209999965"/><path fill="#000000" stroke="none" paint-order="stroke fill markers" d=" M 154.4 186.3 A 2.1 2.1 0 1 0 154.3999989500001 186.30209999965"/><path fill="#000000" stroke="none" paint-order="stroke fill markers" d=" M 204.4 186.3 A 2.1 2.1 0 1 0 204.3999989500001 186.30209999965"/><path fill="#000000" stroke="none" paint-order="stroke fill markers" d=" M 254.4 186.3 A 2.1 2.1 0 1 0 254.3999989500001 186.30209999965"/><path fill="#000000" stroke="none" paint-order="stroke fill markers" d=" M 304.40000000000003 186.3 A 2.1 2.1 0 1 0 304.3999989500001 186.30209999965"/><path fill="#000000" stroke="none" paint-order="stroke fill markers" d=" M 354.40000000000003 186.3 A 2.1 2.1 0 1 0 354.3999989500001 186.30209999965"/><path fill="#000000" stroke="none" paint-order="stroke fill markers" d=" M 404.40000000000003 186.3 A 2.1 2.1 0 1 0 404.3999989500001 186.30209999965"/><path fill="#000000" stroke="none" paint-order="stroke fill markers" d=" M 54.399999999999984 236.3 A 2.1 2.1 0 1 0 54.39999895000007 236.30209999965"/><path fill="#000000" stroke="none" paint-order="stroke fill markers" d=" M 4.400000000000011 236.3 A 2.1 2.1 0 1 0 4.399998950000099 236.30209999965"/><path fill="#000000" stroke="none" paint-order="stroke fill markers" d=" M 104.39999999999999 236.3 A 2.1 2.1 0 1 0 104.39999895000008 236.30209999965"/><path fill="#000000" stroke="none" paint-order="stroke fill markers" d=" M 154.4 236.3 A 2.1 2.1 0 1 0 154.3999989500001 236.30209999965"/><path fill="#000000" stroke="none" paint-order="stroke fill markers" d=" M 204.4 236.3 A 2.1 2.1 0 1 0 204.3999989500001 236.30209999965"/><path fill="#000000" stroke="none" paint-order="stroke fill markers" d=" M 254.4 236.3 A 2.1 2.1 0 1 0 254.3999989500001 236.30209999965"/><path fill="#000000" stroke="none" paint-order="stroke fill markers" d=" M 304.40000000000003 236.3 A 2.1 2.1 0 1 0 304.3999989500001 236.30209999965"/><path fill="#000000" stroke="none" paint-order="stroke fill markers" d=" M 354.40000000000003 236.3 A 2.1 2.1 0 1 0 354.3999989500001 236.30209999965"/><path fill="#000000" stroke="none" paint-order="stroke fill markers" d=" M 404.40000000000003 236.3 A 2.1 2.1 0 1 0 404.3999989500001 236.30209999965"/><path fill="#000000" stroke="none" paint-order="stroke fill markers" d=" M 54.399999999999984 286.3 A 2.1 2.1 0 1 0 54.39999895000007 286.30209999965"/><path fill="#000000" stroke="none" paint-order="stroke fill markers" d=" M 4.400000000000011 286.3 A 2.1 2.1 0 1 0 4.399998950000099 286.30209999965"/><path fill="#000000" stroke="none" paint-order="stroke fill markers" d=" M 104.39999999999999 286.3 A 2.1 2.1 0 1 0 104.39999895000008 286.30209999965"/><path fill="#000000" stroke="none" paint-order="stroke fill markers" d=" M 154.4 286.3 A 2.1 2.1 0 1 0 154.3999989500001 286.30209999965"/><path fill="#000000" stroke="none" paint-order="stroke fill markers" d=" M 204.4 286.3 A 2.1 2.1 0 1 0 204.3999989500001 286.30209999965"/><path fill="#000000" stroke="none" paint-order="stroke fill markers" d=" M 254.4 286.3 A 2.1 2.1 0 1 0 254.3999989500001 286.30209999965"/><path fill="#000000" stroke="none" paint-order="stroke fill markers" d=" M 304.40000000000003 286.3 A 2.1 2.1 0 1 0 304.3999989500001 286.30209999965"/><path fill="#000000" stroke="none" paint-order="stroke fill markers" d=" M 354.40000000000003 286.3 A 2.1 2.1 0 1 0 354.3999989500001 286.30209999965"/><path fill="#000000" stroke="none" paint-order="stroke fill markers" d=" M 404.40000000000003 286.3 A 2.1 2.1 0 1 0 404.3999989500001 286.30209999965"/><path fill="#000000" stroke="none" paint-order="stroke fill markers" d=" M 54.399999999999984 336.3 A 2.1 2.1 0 1 0 54.39999895000007 336.30209999965"/><path fill="#000000" stroke="none" paint-order="stroke fill markers" d=" M 4.400000000000011 336.3 A 2.1 2.1 0 1 0 4.399998950000099 336.30209999965"/><path fill="#000000" stroke="none" paint-order="stroke fill markers" d=" M 104.39999999999999 336.3 A 2.1 2.1 0 1 0 104.39999895000008 336.30209999965"/><path fill="#000000" stroke="none" paint-order="stroke fill markers" d=" M 154.4 336.3 A 2.1 2.1 0 1 0 154.3999989500001 336.30209999965"/><path fill="#000000" stroke="none" paint-order="stroke fill markers" d=" M 204.4 336.3 A 2.1 2.1 0 1 0 204.3999989500001 336.30209999965"/><path fill="#000000" stroke="none" paint-order="stroke fill markers" d=" M 254.4 336.3 A 2.1 2.1 0 1 0 254.3999989500001 336.30209999965"/><path fill="#000000" stroke="none" paint-order="stroke fill markers" d=" M 304.40000000000003 336.3 A 2.1 2.1 0 1 0 304.3999989500001 336.30209999965"/><path fill="#000000" stroke="none" paint-order="stroke fill markers" d=" M 354.40000000000003 336.3 A 2.1 2.1 0 1 0 354.3999989500001 336.30209999965"/><path fill="#000000" stroke="none" paint-order="stroke fill markers" d=" M 404.40000000000003 336.3 A 2.1 2.1 0 1 0 404.3999989500001 336.30209999965"/><path fill="#000000" stroke="none" paint-order="stroke fill markers" d=" M 54.399999999999984 386.3 A 2.1 2.1 0 1 0 54.39999895000007 386.30209999965"/><path fill="#000000" stroke="none" paint-order="stroke fill markers" d=" M 4.400000000000011 386.3 A 2.1 2.1 0 1 0 4.399998950000099 386.30209999965"/><path fill="#000000" stroke="none" paint-order="stroke fill markers" d=" M 104.39999999999999 386.3 A 2.1 2.1 0 1 0 104.39999895000008 386.30209999965"/><path fill="#000000" stroke="none" paint-order="stroke fill markers" d=" M 154.4 386.3 A 2.1 2.1 0 1 0 154.3999989500001 386.30209999965"/><path fill="#000000" stroke="none" paint-order="stroke fill markers" d=" M 204.4 386.3 A 2.1 2.1 0 1 0 204.3999989500001 386.30209999965"/><path fill="#000000" stroke="none" paint-order="stroke fill markers" d=" M 254.4 386.3 A 2.1 2.1 0 1 0 254.3999989500001 386.30209999965"/><path fill="#000000" stroke="none" paint-order="stroke fill markers" d=" M 304.40000000000003 386.3 A 2.1 2.1 0 1 0 304.3999989500001 386.30209999965"/><path fill="#000000" stroke="none" paint-order="stroke fill markers" d=" M 354.40000000000003 386.3 A 2.1 2.1 0 1 0 354.3999989500001 386.30209999965"/><path fill="#000000" stroke="none" paint-order="stroke fill markers" d=" M 404.40000000000003 386.3 A 2.1 2.1 0 1 0 404.3999989500001 386.30209999965"/><path fill="#000000" stroke="none" paint-order="stroke fill markers" d=" M 54.399999999999984 436.3 A 2.1 2.1 0 1 0 54.39999895000007 436.30209999965"/><path fill="#000000" stroke="none" paint-order="stroke fill markers" d=" M 4.400000000000011 436.3 A 2.1 2.1 0 1 0 4.399998950000099 436.30209999965"/><path fill="#000000" stroke="none" paint-order="stroke fill markers" d=" M 104.39999999999999 436.3 A 2.1 2.1 0 1 0 104.39999895000008 436.30209999965"/><path fill="#000000" stroke="none" paint-order="stroke fill markers" d=" M 154.4 436.3 A 2.1 2.1 0 1 0 154.3999989500001 436.30209999965"/><path fill="#000000" stroke="none" paint-order="stroke fill markers" d=" M 204.4 436.3 A 2.1 2.1 0 1 0 204.3999989500001 436.30209999965"/><path fill="#000000" stroke="none" paint-order="stroke fill markers" d=" M 254.4 436.3 A 2.1 2.1 0 1 0 254.3999989500001 436.30209999965"/><path fill="#000000" stroke="none" paint-order="stroke fill markers" d=" M 304.40000000000003 436.3 A 2.1 2.1 0 1 0 304.3999989500001 436.30209999965"/><path fill="#000000" stroke="none" paint-order="stroke fill markers" d=" M 354.40000000000003 436.3 A 2.1 2.1 0 1 0 354.3999989500001 436.30209999965"/><path fill="#000000" stroke="none" paint-order="stroke fill markers" d=" M 404.40000000000003 436.3 A 2.1 2.1 0 1 0 404.3999989500001 436.30209999965"/><text fill="none" stroke="rgb(255,255,255)" font-family="Helvetica,Arial" font-size="25px" font-style="normal" font-weight="normal" text-decoration="normal" x="17.30000000000001" y="18.299999999999983" text-anchor="start" dominant-baseline="alphabetic" stroke-opacity="0" stroke-miterlimit="10">(1 star)</text><text fill="#000000" stroke="none" font-family="Helvetica,Arial" font-size="25px" font-style="normal" font-weight="normal" text-decoration="normal" x="17.30000000000001" y="18.299999999999983" text-anchor="start" dominant-baseline="alphabetic">(1 star)</text><text fill="none" stroke="rgb(255,255,255)" font-family="Helvetica,Arial" font-size="35px" font-style="normal" font-weight="normal" text-decoration="normal" x="27.30000000000001" y="74.09999999999998" text-anchor="middle" dominant-baseline="alphabetic" stroke-opacity="0" stroke-miterlimit="10">3</text><text fill="#000000" stroke="none" font-family="Helvetica,Arial" font-size="35px" font-style="normal" font-weight="normal" text-decoration="normal" x="27.30000000000001" y="74.09999999999998" text-anchor="middle" dominant-baseline="alphabetic">3</text><text fill="none" stroke="rgb(255,255,255)" font-family="Helvetica,Arial" font-size="35px" font-style="normal" font-weight="normal" text-decoration="normal" x="127.3" y="74.09999999999998" text-anchor="middle" dominant-baseline="alphabetic" stroke-opacity="0" stroke-miterlimit="10">3</text><text fill="#000000" stroke="none" font-family="Helvetica,Arial" font-size="35px" font-style="normal" font-weight="normal" text-decoration="normal" x="127.3" y="74.09999999999998" text-anchor="middle" dominant-baseline="alphabetic">3</text><text fill="none" stroke="rgb(255,255,255)" font-family="Helvetica,Arial" font-size="35px" font-style="normal" font-weight="normal" text-decoration="normal" x="177.3" y="74.09999999999998" text-anchor="middle" dominant-baseline="alphabetic" stroke-opacity="0" stroke-miterlimit="10">2</text><text fill="#000000" stroke="none" font-family="Helvetica,Arial" font-size="35px" font-style="normal" font-weight="normal" text-decoration="normal" x="177.3" y="74.09999999999998" text-anchor="middle" dominant-baseline="alphabetic">2</text><text fill="none" stroke="rgb(255,255,255)" font-family="Helvetica,Arial" font-size="35px" font-style="normal" font-weight="normal" text-decoration="normal" x="227.3" y="74.09999999999998" text-anchor="middle" dominant-baseline="alphabetic" stroke-opacity="0" stroke-miterlimit="10">1</text><text fill="#000000" stroke="none" font-family="Helvetica,Arial" font-size="35px" font-style="normal" font-weight="normal" text-decoration="normal" x="227.3" y="74.09999999999998" text-anchor="middle" dominant-baseline="alphabetic">1</text><text fill="none" stroke="rgb(255,255,255)" font-family="Helvetica,Arial" font-size="35px" font-style="normal" font-weight="normal" text-decoration="normal" x="277.3" y="74.09999999999998" text-anchor="middle" dominant-baseline="alphabetic" stroke-opacity="0" stroke-miterlimit="10">1</text><text fill="#000000" stroke="none" font-family="Helvetica,Arial" font-size="35px" font-style="normal" font-weight="normal" text-decoration="normal" x="277.3" y="74.09999999999998" text-anchor="middle" dominant-baseline="alphabetic">1</text><text fill="none" stroke="rgb(255,255,255)" font-family="Helvetica,Arial" font-size="35px" font-style="normal" font-weight="normal" text-decoration="normal" x="377.3" y="74.09999999999998" text-anchor="middle" dominant-baseline="alphabetic" stroke-opacity="0" stroke-miterlimit="10">2</text><text fill="#000000" stroke="none" font-family="Helvetica,Arial" font-size="35px" font-style="normal" font-weight="normal" text-decoration="normal" x="377.3" y="74.09999999999998" text-anchor="middle" dominant-baseline="alphabetic">2</text><text fill="none" stroke="rgb(255,255,255)" font-family="Helvetica,Arial" font-size="35px" font-style="normal" font-weight="normal" text-decoration="normal" x="77.3" y="124.1" text-anchor="middle" dominant-baseline="alphabetic" stroke-opacity="0" stroke-miterlimit="10">3</text><text fill="#000000" stroke="none" font-family="Helvetica,Arial" font-size="35px" font-style="normal" font-weight="normal" text-decoration="normal" x="77.3" y="124.1" text-anchor="middle" dominant-baseline="alphabetic">3</text><text fill="none" stroke="rgb(255,255,255)" font-family="Helvetica,Arial" font-size="35px" font-style="normal" font-weight="normal" text-decoration="normal" x="327.3" y="124.1" text-anchor="middle" dominant-baseline="alphabetic" stroke-opacity="0" stroke-miterlimit="10">3</text><text fill="#000000" stroke="none" font-family="Helvetica,Arial" font-size="35px" font-style="normal" font-weight="normal" text-decoration="normal" x="327.3" y="124.1" text-anchor="middle" dominant-baseline="alphabetic">3</text><text fill="none" stroke="rgb(255,255,255)" font-family="Helvetica,Arial" font-size="35px" font-style="normal" font-weight="normal" text-decoration="normal" x="27.30000000000001" y="174.10000000000002" text-anchor="middle" dominant-baseline="alphabetic" stroke-opacity="0" stroke-miterlimit="10">2</text><text fill="#000000" stroke="none" font-family="Helvetica,Arial" font-size="35px" font-style="normal" font-weight="normal" text-decoration="normal" x="27.30000000000001" y="174.10000000000002" text-anchor="middle" dominant-baseline="alphabetic">2</text><text fill="none" stroke="rgb(255,255,255)" font-family="Helvetica,Arial" font-size="35px" font-style="normal" font-weight="normal" text-decoration="normal" x="127.3" y="174.10000000000002" text-anchor="middle" dominant-baseline="alphabetic" stroke-opacity="0" stroke-miterlimit="10">0</text><text fill="#000000" stroke="none" font-family="Helvetica,Arial" font-size="35px" font-style="normal" font-weight="normal" text-decoration="normal" x="127.3" y="174.10000000000002" text-anchor="middle" dominant-baseline="alphabetic">0</text><text fill="none" stroke="rgb(255,255,255)" font-family="Helvetica,Arial" font-size="35px" font-style="normal" font-weight="normal" text-decoration="normal" x="277.3" y="174.10000000000002" text-anchor="middle" dominant-baseline="alphabetic" stroke-opacity="0" stroke-miterlimit="10">1</text><text fill="#000000" stroke="none" font-family="Helvetica,Arial" font-size="35px" font-style="normal" font-weight="normal" text-decoration="normal" x="277.3" y="174.10000000000002" text-anchor="middle" dominant-baseline="alphabetic">1</text><text fill="none" stroke="rgb(255,255,255)" font-family="Helvetica,Arial" font-size="35px" font-style="normal" font-weight="normal" text-decoration="normal" x="377.3" y="174.10000000000002" text-anchor="middle" dominant-baseline="alphabetic" stroke-opacity="0" stroke-miterlimit="10">1</text><text fill="#000000" stroke="none" font-family="Helvetica,Arial" font-size="35px" font-style="normal" font-weight="normal" text-decoration="normal" x="377.3" y="174.10000000000002" text-anchor="middle" dominant-baseline="alphabetic">1</text><text fill="none" stroke="rgb(255,255,255)" font-family="Helvetica,Arial" font-size="35px" font-style="normal" font-weight="normal" text-decoration="normal" x="27.30000000000001" y="224.10000000000002" text-anchor="middle" dominant-baseline="alphabetic" stroke-opacity="0" stroke-miterlimit="10">3</text><text fill="#000000" stroke="none" font-family="Helvetica,Arial" font-size="35px" font-style="normal" font-weight="normal" text-decoration="normal" x="27.30000000000001" y="224.10000000000002" text-anchor="middle" dominant-baseline="alphabetic">3</text><text fill="none" stroke="rgb(255,255,255)" font-family="Helvetica,Arial" font-size="35px" font-style="normal" font-weight="normal" text-decoration="normal" x="177.3" y="224.10000000000002" text-anchor="middle" dominant-baseline="alphabetic" stroke-opacity="0" stroke-miterlimit="10">0</text><text fill="#000000" stroke="none" font-family="Helvetica,Arial" font-size="35px" font-style="normal" font-weight="normal" text-decoration="normal" x="177.3" y="224.10000000000002" text-anchor="middle" dominant-baseline="alphabetic">0</text><text fill="none" stroke="rgb(255,255,255)" font-family="Helvetica,Arial" font-size="35px" font-style="normal" font-weight="normal" text-decoration="normal" x="227.3" y="224.10000000000002" text-anchor="middle" dominant-baseline="alphabetic" stroke-opacity="0" stroke-miterlimit="10">2</text><text fill="#000000" stroke="none" font-family="Helvetica,Arial" font-size="35px" font-style="normal" font-weight="normal" text-decoration="normal" x="227.3" y="224.10000000000002" text-anchor="middle" dominant-baseline="alphabetic">2</text><text fill="none" stroke="rgb(255,255,255)" font-family="Helvetica,Arial" font-size="35px" font-style="normal" font-weight="normal" text-decoration="normal" x="377.3" y="224.10000000000002" text-anchor="middle" dominant-baseline="alphabetic" stroke-opacity="0" stroke-miterlimit="10">2</text><text fill="#000000" stroke="none" font-family="Helvetica,Arial" font-size="35px" font-style="normal" font-weight="normal" text-decoration="normal" x="377.3" y="224.10000000000002" text-anchor="middle" dominant-baseline="alphabetic">2</text><text fill="none" stroke="rgb(255,255,255)" font-family="Helvetica,Arial" font-size="35px" font-style="normal" font-weight="normal" text-decoration="normal" x="27.30000000000001" y="274.1" text-anchor="middle" dominant-baseline="alphabetic" stroke-opacity="0" stroke-miterlimit="10">3</text><text fill="#000000" stroke="none" font-family="Helvetica,Arial" font-size="35px" font-style="normal" font-weight="normal" text-decoration="normal" x="27.30000000000001" y="274.1" text-anchor="middle" dominant-baseline="alphabetic">3</text><text fill="none" stroke="rgb(255,255,255)" font-family="Helvetica,Arial" font-size="35px" font-style="normal" font-weight="normal" text-decoration="normal" x="177.3" y="274.1" text-anchor="middle" dominant-baseline="alphabetic" stroke-opacity="0" stroke-miterlimit="10">1</text><text fill="#000000" stroke="none" font-family="Helvetica,Arial" font-size="35px" font-style="normal" font-weight="normal" text-decoration="normal" x="177.3" y="274.1" text-anchor="middle" dominant-baseline="alphabetic">1</text><text fill="none" stroke="rgb(255,255,255)" font-family="Helvetica,Arial" font-size="35px" font-style="normal" font-weight="normal" text-decoration="normal" x="227.3" y="274.1" text-anchor="middle" dominant-baseline="alphabetic" stroke-opacity="0" stroke-miterlimit="10">0</text><text fill="#000000" stroke="none" font-family="Helvetica,Arial" font-size="35px" font-style="normal" font-weight="normal" text-decoration="normal" x="227.3" y="274.1" text-anchor="middle" dominant-baseline="alphabetic">0</text><text fill="none" stroke="rgb(255,255,255)" font-family="Helvetica,Arial" font-size="35px" font-style="normal" font-weight="normal" text-decoration="normal" x="377.3" y="274.1" text-anchor="middle" dominant-baseline="alphabetic" stroke-opacity="0" stroke-miterlimit="10">1</text><text fill="#000000" stroke="none" font-family="Helvetica,Arial" font-size="35px" font-style="normal" font-weight="normal" text-decoration="normal" x="377.3" y="274.1" text-anchor="middle" dominant-baseline="alphabetic">1</text><text fill="none" stroke="rgb(255,255,255)" font-family="Helvetica,Arial" font-size="35px" font-style="normal" font-weight="normal" text-decoration="normal" x="27.30000000000001" y="324.1" text-anchor="middle" dominant-baseline="alphabetic" stroke-opacity="0" stroke-miterlimit="10">1</text><text fill="#000000" stroke="none" font-family="Helvetica,Arial" font-size="35px" font-style="normal" font-weight="normal" text-decoration="normal" x="27.30000000000001" y="324.1" text-anchor="middle" dominant-baseline="alphabetic">1</text><text fill="none" stroke="rgb(255,255,255)" font-family="Helvetica,Arial" font-size="35px" font-style="normal" font-weight="normal" text-decoration="normal" x="127.3" y="324.1" text-anchor="middle" dominant-baseline="alphabetic" stroke-opacity="0" stroke-miterlimit="10">3</text><text fill="#000000" stroke="none" font-family="Helvetica,Arial" font-size="35px" font-style="normal" font-weight="normal" text-decoration="normal" x="127.3" y="324.1" text-anchor="middle" dominant-baseline="alphabetic">3</text><text fill="none" stroke="rgb(255,255,255)" font-family="Helvetica,Arial" font-size="35px" font-style="normal" font-weight="normal" text-decoration="normal" x="277.3" y="324.1" text-anchor="middle" dominant-baseline="alphabetic" stroke-opacity="0" stroke-miterlimit="10">3</text><text fill="#000000" stroke="none" font-family="Helvetica,Arial" font-size="35px" font-style="normal" font-weight="normal" text-decoration="normal" x="277.3" y="324.1" text-anchor="middle" dominant-baseline="alphabetic">3</text><text fill="none" stroke="rgb(255,255,255)" font-family="Helvetica,Arial" font-size="35px" font-style="normal" font-weight="normal" text-decoration="normal" x="377.3" y="324.1" text-anchor="middle" dominant-baseline="alphabetic" stroke-opacity="0" stroke-miterlimit="10">2</text><text fill="#000000" stroke="none" font-family="Helvetica,Arial" font-size="35px" font-style="normal" font-weight="normal" text-decoration="normal" x="377.3" y="324.1" text-anchor="middle" dominant-baseline="alphabetic">2</text><text fill="none" stroke="rgb(255,255,255)" font-family="Helvetica,Arial" font-size="35px" font-style="normal" font-weight="normal" text-decoration="normal" x="77.3" y="374.1" text-anchor="middle" dominant-baseline="alphabetic" stroke-opacity="0" stroke-miterlimit="10">1</text><text fill="#000000" stroke="none" font-family="Helvetica,Arial" font-size="35px" font-style="normal" font-weight="normal" text-decoration="normal" x="77.3" y="374.1" text-anchor="middle" dominant-baseline="alphabetic">1</text><text fill="none" stroke="rgb(255,255,255)" font-family="Helvetica,Arial" font-size="35px" font-style="normal" font-weight="normal" text-decoration="normal" x="327.3" y="374.1" text-anchor="middle" dominant-baseline="alphabetic" stroke-opacity="0" stroke-miterlimit="10">2</text><text fill="#000000" stroke="none" font-family="Helvetica,Arial" font-size="35px" font-style="normal" font-weight="normal" text-decoration="normal" x="327.3" y="374.1" text-anchor="middle" dominant-baseline="alphabetic">2</text><text fill="none" stroke="rgb(255,255,255)" font-family="Helvetica,Arial" font-size="35px" font-style="normal" font-weight="normal" text-decoration="normal" x="27.30000000000001" y="424.1" text-anchor="middle" dominant-baseline="alphabetic" stroke-opacity="0" stroke-miterlimit="10">3</text><text fill="#000000" stroke="none" font-family="Helvetica,Arial" font-size="35px" font-style="normal" font-weight="normal" text-decoration="normal" x="27.30000000000001" y="424.1" text-anchor="middle" dominant-baseline="alphabetic">3</text><text fill="none" stroke="rgb(255,255,255)" font-family="Helvetica,Arial" font-size="35px" font-style="normal" font-weight="normal" text-decoration="normal" x="127.3" y="424.1" text-anchor="middle" dominant-baseline="alphabetic" stroke-opacity="0" stroke-miterlimit="10">2</text><text fill="#000000" stroke="none" font-family="Helvetica,Arial" font-size="35px" font-style="normal" font-weight="normal" text-decoration="normal" x="127.3" y="424.1" text-anchor="middle" dominant-baseline="alphabetic">2</text><text fill="none" stroke="rgb(255,255,255)" font-family="Helvetica,Arial" font-size="35px" font-style="normal" font-weight="normal" text-decoration="normal" x="177.3" y="424.1" text-anchor="middle" dominant-baseline="alphabetic" stroke-opacity="0" stroke-miterlimit="10">2</text><text fill="#000000" stroke="none" font-family="Helvetica,Arial" font-size="35px" font-style="normal" font-weight="normal" text-decoration="normal" x="177.3" y="424.1" text-anchor="middle" dominant-baseline="alphabetic">2</text><text fill="none" stroke="rgb(255,255,255)" font-family="Helvetica,Arial" font-size="35px" font-style="normal" font-weight="normal" text-decoration="normal" x="227.3" y="424.1" text-anchor="middle" dominant-baseline="alphabetic" stroke-opacity="0" stroke-miterlimit="10">1</text><text fill="#000000" stroke="none" font-family="Helvetica,Arial" font-size="35px" font-style="normal" font-weight="normal" text-decoration="normal" x="227.3" y="424.1" text-anchor="middle" dominant-baseline="alphabetic">1</text><text fill="none" stroke="rgb(255,255,255)" font-family="Helvetica,Arial" font-size="35px" font-style="normal" font-weight="normal" text-decoration="normal" x="277.3" y="424.1" text-anchor="middle" dominant-baseline="alphabetic" stroke-opacity="0" stroke-miterlimit="10">2</text><text fill="#000000" stroke="none" font-family="Helvetica,Arial" font-size="35px" font-style="normal" font-weight="normal" text-decoration="normal" x="277.3" y="424.1" text-anchor="middle" dominant-baseline="alphabetic">2</text><text fill="none" stroke="rgb(255,255,255)" font-family="Helvetica,Arial" font-size="35px" font-style="normal" font-weight="normal" text-decoration="normal" x="377.3" y="424.1" text-anchor="middle" dominant-baseline="alphabetic" stroke-opacity="0" stroke-miterlimit="10">3</text><text fill="#000000" stroke="none" font-family="Helvetica,Arial" font-size="35px" font-style="normal" font-weight="normal" text-decoration="normal" x="377.3" y="424.1" text-anchor="middle" dominant-baseline="alphabetic">3</text></g></svg>