<svg version="1.1" xmlns="http://www.w3.org/2000/svg" xmlns:xlink="http://www.w3.org/1999/xlink" width="404.40000000000003" height="404.40000000000003"><defs/><g><rect fill="rgb(255,255,255)" stroke="none" x="0" y="0" width="404.40000000000003" height="404.40000000000003" fill-opacity="0"/><path fill="#000000" stroke="#000000" paint-order="fill stroke markers" d=" M 294.8 27.30000000000001 A 17.5 17.5 0 1 1 294.79999125000074 27.282500002916667" stroke-miterlimit="10"/><path fill="#000000" stroke="#000000" paint-order="fill stroke markers" d=" M 44.80000000000001 77.3 A 17.5 17.5 0 1 1 44.799991250000744 77.28250000291665" stroke-miterlimit="10"/><path fill="#ffffff" stroke="#000000" paint-order="fill stroke markers" d=" M 44.80000000000001 127.3 A 17.5 17.5 0 1 1 44.799991250000744 127.28250000291665" stroke-miterlimit="10"/><path fill="#000000" stroke="#000000" paint-order="fill stroke markers" d=" M 294.8 127.3 A 17.5 17.5 0 1 1 294.79999125000074 127.28250000291665" stroke-miterlimit="10"/><path fill="#000000" stroke="#000000" paint-order="fill stroke markers" d=" M 194.8 177.3 A 17.5 17.5 0 1 1 194.79999125000074 177.28250000291666" stroke-miterlimit="10"/><path fill="#ffffff" stroke="#000000" paint-order="fill stroke markers" d=" M 244.8 177.3 A 17.5 17.5 0 1 1 244.79999125000074 177.28250000291666" stroke-miterlimit="10"/><path fill="#000000" stroke="#000000" paint-order="fill stroke markers" d=" M 94.8 227.3 A 17.5 17.5 0 1 1 94.79999125000073 227.28250000291666" stroke-miterlimit="10"/><path fill="#ffffff" stroke="#000000" paint-order="fill stroke markers" d=" M 44.80000000000001 277.3 A 17.5 17.5 0 1 1 44.799991250000744 277.28250000291666" stroke-miterlimit="10"/><path fill="#000000" stroke="#000000" paint-order="fill stroke markers" d=" M 294.8 277.3 A 17.5 17.5 0 1 1 294.79999125000074 277.28250000291666" stroke-miterlimit="10"/><path fill="#000000" stroke="#000000" paint-order="fill stroke markers" d=" M 394.8 277.3 A 17.5 17.5 0 1 1 394.79999125000074 277.28250000291666" stroke-miterlimit="10"/><path fill="#000000" stroke="#000000" paint-order="fill stroke markers" d=" M 44.80000000000001 327.3 A 17.5 17.5 0 1 1 44.799991250000744 327.28250000291666" stroke-miterlimit="10"/><path fill="#ffffff" stroke="#000000" paint-order="fill stroke markers" d=" M 194.8 327.3 A 17.5 17.5 0 1 1 194.79999125000074 327.28250000291666" stroke-miterlimit="10"/><path fill="#000000" stroke="#000000" paint-order="fill stroke markers" d=" M 244.8 327.3 A 17.5 17.5 0 1 1 244.79999125000074 327.28250000291666" stroke-miterlimit="10"/><path fill="#ffffff" stroke="#000000" paint-order="fill stroke markers" d=" M 294.8 377.3 A 17.5 17.5 0 1 1 294.79999125000074 377.28250000291666" stroke-miterlimit="10"/><path fill="#ffffff" stroke="#000000" paint-order="fill stroke markers" d=" M 344.8 377.3 A 17.5 17.5 0 1 1 344.79999125000074 377.28250000291666" stroke-miterlimit="10"/><path fill="#000000" stroke="none" paint-order="stroke fill markers" d=" M 4.400000000000011 2.3000000000000114 A 2.1 2.1 0 1 0 4.399998950000099 2.302099999650012"/><path fill="#000000" stroke="none" paint-order="stroke fill markers" d=" M 54.399999999999984 2.3000000000000114 A 2.1 2.1 0 1 0 54.39999895000007 2.302099999650012"/><path fill="#000000" stroke="none" paint-order="stroke fill markers" d=" M 54.399999999999984 52.29999999999998 A 2.1 2.1 0 1 0 54.39999895000007 52.30209999964998"/><path fill="#000000" stroke="none" paint-order="stroke fill markers" d=" M 4.400000000000011 52.29999999999998 A 2.1 2.1 0 1 0 4.399998950000099 52.30209999964998"/><path fill="#000000" stroke="none" paint-order="stroke fill markers" d=" M 104.39999999999999 2.3000000000000114 A 2.1 2.1 0 1 0 104.39999895000008 2.302099999650012"/><path fill="#000000" stroke="none" paint-order="stroke fill markers" d=" M 104.39999999999999 52.29999999999998 A 2.1 2.1 0 1 0 104.39999895000008 52.30209999964998"/><path fill="#000000" stroke="none" paint-order="stroke fill markers" d=" M 154.4 2.3000000000000114 A 2.1 2.1 0 1 0 154.3999989500001 2.302099999650012"/><path fill="#000000" stroke="none" paint-order="stroke fill markers" d=" M 154.4 52.29999999999998 A 2.1 2.1 0 1 0 154.3999989500001 52.30209999964998"/><path fill="#000000" stroke="none" paint-order="stroke fill markers" d=" M 204.4 2.3000000000000114 A 2.1 2.1 0 1 0 204.3999989500001 2.302099999650012"/><path fill="#000000" stroke="none" paint-order="stroke fill markers" d=" M 204.4 52.29999999999998 A 2.1 2.1 0 1 0 204.3999989500001 52.30209999964998"/><path fill="#000000" stroke="none" paint-order="stroke fill markers" d=" M 254.4 2.3000000000000114 A 2.1 2.1 0 1 0 254.3999989500001 2.302099999650012"/><path fill="#000000" stroke="none" paint-order="stroke fill markers" d=" M 254.4 52.29999999999998 A 2.1 2.1 0 1 0 254.3999989500001 52.30209999964998"/><path fill="#000000" stroke="none" paint-order="stroke fill markers" d=" M 304.40000000000003 2.3000000000000114 A 2.1 2.1 0 1 0 304.3999989500001 2.302099999650012"/><path fill="#000000" stroke="none" paint-order="stroke fill markers" d=" M 304.40000000000003 52.29999999999998 A 2.1 2.1 0 1 0 304.3999989500001 52.30209999964998"/><path fill="#000000" stroke="none" paint-order="stroke fill markers" d=" M 354.40000000000003 2.3000000000000114 A 2.1 2.1 0 1 0 354.3999989500001 2.302099999650012"/><path fill="#000000" stroke="none" paint-order="stroke fill markers" d=" M 354.40000000000003 52.29999999999998 A 2.1 2.1 0 1 0 354.3999989500001 52.30209999964998"/><path fill="#000000" stroke="none" paint-order="stroke fill markers" d=" M 404.40000000000003 2.3000000000000114 A 2.1 2.1 0 1 0 404.3999989500001 2.302099999650012"/><path fill="#000000" stroke="none" paint-order="stroke fill markers" d=" M 404.40000000000003 52.29999999999998 A 2.1 2.1 0 1 0 404.3999989500001 52.30209999964998"/><path fill="#000000" stroke="none" paint-order="stroke fill markers" d=" M 54.399999999999984 102.3 A 2.1 2.1 0 1 0 54.39999895000007 102.30209999965"/><path fill="#000000" stroke="none" paint-order="stroke fill markers" d=" M 4.400000000000011 102.3 A 2.1 2.1 0 1 0 4.399998950000099 102.30209999965"/><path fill="#000000" stroke="none" paint-order="stroke fill markers" d=" M 104.39999999999999 102.3 A 2.1 2.1 0 1 0 104.39999895000008 102.30209999965"/><path fill="#000000" stroke="none" paint-order="stroke fill markers" d=" M 154.4 102.3 A 2.1 2.1 0 1 0 154.3999989500001 102.30209999965"/><path fill="#000000" stroke="none" paint-order="stroke fill markers" d=" M 204.4 102.3 A 2.1 2.1 0 1 0 204.3999989500001 102.30209999965"/><path fill="#000000" stroke="none" paint-order="stroke fill markers" d=" M 254.4 102.3 A 2.1 2.1 0 1 0 254.3999989500001 102.30209999965"/><path fill="#000000" stroke="none" paint-order="stroke fill markers" d=" M 304.40000000000003 102.3 A 2.1 2.1 0 1 0 304.3999989500001 102.30209999965"/><path fill="#000000" stroke="none" paint-order="stroke fill markers" d=" M 354.40000000000003 102.3 A 2.1 2.1 0 1 0 354.3999989500001 102.30209999965"/><path fill="#000000" stroke="none" paint-order="stroke fill markers" d=" M 404.40000000000003 102.3 A 2.1 2.1 0 1 0 404.3999989500001 102.30209999965"/><path fill="#000000" stroke="none" paint-order="stroke fill markers" d=" M 54.399999999999984 152.3 A 2.1 2.1 0 1 0 54.39999895000007 152.30209999965"/><path fill="#000000" stroke="none" paint-order="stroke fill markers" d=" M 4.400000000000011 152.3 A 2.1 2.1 0 1 0 4.399998950000099 152.30209999965"/><path fill="#000000" stroke="none" paint-order="stroke fill markers" d=" M 104.39999999999999 152.3 A 2.1 2.1 0 1 0 104.39999895000008 152.30209999965"/><path fill="#000000" stroke="none" paint-order="stroke fill markers" d=" M 154.4 152.3 A 2.1 2.1 0 1 0 154.3999989500001 152.30209999965"/><path fill="#000000" stroke="none" paint-order="stroke fill markers" d=" M 204.4 152.3 A 2.1 2.1 0 1 0 204.3999989500001 152.30209999965"/><path fill="#000000" stroke="none" paint-order="stroke fill markers" d=" M 254.4 152.3 A 2.1 2.1 0 1 0 254.3999989500001 152.30209999965"/><path fill="#000000" stroke="none" paint-order="stroke fill markers" d=" M 304.40000000000003 152.3 A 2.1 2.1 0 1 0 304.3999989500001 152.30209999965"/><path fill="#000000" stroke="none" paint-order="stroke fill markers" d=" M 354.40000000000003 152.3 A 2.1 2.1 0 1 0 354.3999989500001 152.30209999965"/><path fill="#000000" stroke="none" paint-order="stroke fill markers" d=" M 404.40000000000003 152.3 A 2.1 2.1 0 1 0 404.3999989500001 152.30209999965"/><path fill="#000000" stroke="none" paint-order="stroke fill markers" d=" M 54.399999999999984 202.3 A 2.1 2.1 0 1 0 54.39999895000007 202.30209999965"/><path fill="#000000" stroke="none" paint-order="stroke fill markers" d=" M 4.400000000000011 202.3 A 2.1 2.1 0 1 0 4.399998950000099 202.30209999965"/><path fill="#000000" stroke="none" paint-order="stroke fill markers" d=" M 104.39999999999999 202.3 A 2.1 2.1 0 1 0 104.39999895000008 202.30209999965"/><path fill="#000000" stroke="none" paint-order="stroke fill markers" d=" M 154.4 202.3 A 2.1 2.1 0 1 0 154.3999989500001 202.30209999965"/><path fill="#000000" stroke="none" paint-order="stroke fill markers" d=" M 204.4 202.3 A 2.1 2.1 0 1 0 204.3999989500001 202.30209999965"/><path fill="#000000" stroke="none" paint-order="stroke fill markers" d=" M 254.4 202.3 A 2.1 2.1 0 1 0 254.3999989500001 202.30209999965"/><path fill="#000000" stroke="none" paint-order="stroke fill markers" d=" M 304.40000000000003 202.3 A 2.1 2.1 0 1 0 304.3999989500001 202.30209999965"/><path fill="#000000" stroke="none" paint-order="stroke fill markers" d=" M 354.40000000000003 202.3 A 2.1 2.1 0 1 0 354.3999989500001 202.30209999965"/><path fill="#000000" stroke="none" paint-order="stroke fill markers" d=" M 404.40000000000003 202.3 A 2.1 2.1 0 1 0 404.3999989500001 202.30209999965"/><path fill="#000000" stroke="none" paint-order="stroke fill markers" d=" M 54.399999999999984 252.3 A 2.1 2.1 0 1 0 54.39999895000007 252.30209999965"/><path fill="#000000" stroke="none" paint-order="stroke fill markers" d=" M 4.400000000000011 252.3 A 2.1 2.1 0 1 0 4.399998950000099 252.30209999965"/><path fill="#000000" stroke="none" paint-order="stroke fill markers" d=" M 104.39999999999999 252.3 A 2.1 2.1 0 1 0 104.39999895000008 252.30209999965"/><path fill="#000000" stroke="none" paint-order="stroke fill markers" d=" M 154.4 252.3 A 2.1 2.1 0 1 0 154.3999989500001 252.30209999965"/><path fill="#000000" stroke="none" paint-order="stroke fill markers" d=" M 204.4 252.3 A 2.1 2.1 0 1 0 204.3999989500001 252.30209999965"/><path fill="#000000" stroke="none" paint-order="stroke fill markers" d=" M 254.4 252.3 A 2.1 2.1 0 1 0 254.3999989500001 252.30209999965"/><path fill="#000000" stroke="none" paint-order="stroke fill markers" d=" M 304.40000000000003 252.3 A 2.1 2.1 0 1 0 304.3999989500001 252.30209999965"/><path fill="#000000" stroke="none" paint-order="stroke fill markers" d=" M 354.40000000000003 252.3 A 2.1 2.1 0 1 0 354.3999989500001 252.30209999965"/><path fill="#000000" stroke="none" paint-order="stroke fill markers" d=" M 404.40000000000003 252.3 A 2.1 2.1 0 1 0 404.3999989500001 252.30209999965"/><path fill="#000000" stroke="none" paint-order="stroke fill markers" d=" M 54.399999999999984 302.3 A 2.1 2.1 0 1 0 54.39999895000007 302.30209999965"/><path fill="#000000" stroke="none" paint-order="stroke fill markers" d=" M 4.400000000000011 302.3 A 2.1 2.1 0 1 0 4.399998950000099 302.30209999965"/><path fill="#000000" stroke="none" paint-order="stroke fill markers" d=" M 104.39999999999999 302.3 A 2.1 2.1 0 1 0 104.39999895000008 302.30209999965"/><path fill="#000000" stroke="none" paint-order="stroke fill markers" d=" M 154.4 302.3 A 2.1 2.1 0 1 0 154.3999989500001 302.30209999965"/><path fill="#000000" stroke="none" paint-order="stroke fill markers" d=" M 204.4 302.3 A 2.1 2.1 0 1 0 204.3999989500001 302.30209999965"/><path fill="#000000" stroke="none" paint-order="stroke fill markers" d=" M 254.4 302.3 A 2.1 2.1 0 1 0 254.3999989500001 302.30209999965"/><path fill="#000000" stroke="none" paint-order="stroke fill markers" d=" M 304.40000000000003 302.3 A 2.1 2.1 0 1 0 304.3999989500001 302.30209999965"/><path fill="#000000" stroke="none" paint-order="stroke fill markers" d=" M 354.40000000000003 302.3 A 2.1 2.1 0 1 0 354.3999989500001 302.30209999965"/><path fill="#000000" stroke="none" paint-order="stroke fill markers" d=" M 404.40000000000003 302.3 A 2.1 2.1 0 1 0 404.3999989500001 302.30209999965"/><path fill="#000000" stroke="none" paint-order="stroke fill markers" d=" M 54.399999999999984 352.3 A 2.1 2.1 0 1 0 54.39999895000007 352.30209999965"/><path fill="#000000" stroke="none" paint-order="stroke fill markers" d=" M 4.400000000000011 352.3 A 2.1 2.1 0 1 0 4.399998950000099 352.30209999965"/><path fill="#000000" stroke="none" paint-order="stroke fill markers" d=" M 104.39999999999999 352.3 A 2.1 2.1 0 1 0 104.39999895000008 352.30209999965"/><path fill="#000000" stroke="none" paint-order="stroke fill markers" d=" M 154.4 352.3 A 2.1 2.1 0 1 0 154.3999989500001 352.30209999965"/><path fill="#000000" stroke="none" paint-order="stroke fill markers" d=" M 204.4 352.3 A 2.1 2.1 0 1 0 204.3999989500001 352.30209999965"/><path fill="#000000" stroke="none" paint-order="stroke fill markers" d=" M 254.4 352.3 A 2.1 2.1 0 1 0 254.3999989500001 352.30209999965"/><path fill="#000000" stroke="none" paint-order="stroke fill markers" d=" M 304.40000000000003 352.3 A 2.1 2.1 0 1 0 304.3999989500001 352.30209999965"/><path fill="#000000" stroke="none" paint-order="stroke fill markers" d=" M 354.40000000000003 352.3 A 2.1 2.1 0 1 0 354.3999989500001 352.30209999965"/><path fill="#000000" stroke="none" paint-order="stroke fill markers" d=" M 404.40000000000003 352.3 A 2.1 2.1 0 1 0 404.3999989500001 352.30209999965"/><path fill="#000000" stroke="none" paint-order="stroke fill markers" d=" M 54.399999999999984 402.3 A 2.1 2.1 0 1 0 54.39999895000007 402.30209999965"/><path fill="#000000" stroke="none" paint-order="stroke fill markers" d=" M 4.400000000000011 402.3 A 2.1 2.1 0 1 0 4.399998950000099 402.30209999965"/><path fill="#000000" stroke="none" paint-order="stroke fill markers" d=" M 104.39999999999999 402.3 A 2.1 2.1 0 1 0 104.39999895000008 402.30209999965"/><path fill="#000000" stroke="none" paint-order="stroke fill markers" d=" M 154.4 402.3 A 2.1 2.1 0 1 0 154.3999989500001 402.30209999965"/><path fill="#000000" stroke="none" paint-order="stroke fill markers" d=" M 204.4 402.3 A 2.1 2.1 0 1 0 204.3999989500001 402.30209999965"/><path fill="#000000" stroke="none" paint-order="stroke fill markers" d=" M 254.4 402.3 A 2.1 2.1 0 1 0 254.3999989500001 402.30209999965"/><path fill="#000000" stroke="none" paint-order="stroke fill markers" d=" M 304.40000000000003 402.3 A 2.1 2.1 0 1 0 304.3999989500001 402.30209999965"/><path fill="#000000" stroke="none" paint-order="stroke fill markers" d=" M 354.40000000000003 402.3 A 2.1 2.1 0 1 0 354.3999989500001 402.30209999965"/><path fill="#000000" stroke="none" paint-order="stroke fill markers" d=" M 404.40000000000003 402.3 A 2.1 2.1 0 1 0 404.3999989500001 402.30209999965"/><text fill="none" stroke="rgb(255,255,255)" font-family="Helvetica,Arial" font-size="35px" font-style="normal" font-weight="normal" text-decoration="normal" x="77.3" y="40.10000000000001" text-anchor="middle" dominant-baseline="alphabetic" stroke-opacity="0" stroke-miterlimit="10">3</text><text fill="#000000" stroke="none" font-family="Helvetica,Arial" font-size="35px" font-style="normal" font-weight="normal" text-decoration="normal" x="77.3" y="40.10000000000001" text-anchor="middle" dominant-baseline="alphabetic">3</text><text fill="none" stroke="rgb(255,255,255)" font-family="Helvetica,Arial" font-size="35px" font-style="normal" font-weight="normal" text-decoration="normal" x="127.3" y="40.10000000000001" text-anchor="middle" dominant-baseline="alphabetic" stroke-opacity="0" stroke-miterlimit="10">3</text><text fill="#000000" stroke="none" font-family="Helvetica,Arial" font-size="35px" font-style="normal" font-weight="normal" text-decoration="normal" x="127.3" y="40.10000000000001" text-anchor="middle" dominant-baseline="alphabetic">3</text><text fill="none" stroke="rgb(255,255,255)" font-family="Helvetica,Arial" font-size="30px" font-style="normal" font-weight="normal" text-decoration="normal" x="277.3" y="37.20000000000001" text-anchor="middle" dominant-baseline="alphabetic" stroke-opacity="0" stroke-miterlimit="10">🐺</text><text fill="#000000" stroke="none" font-family="Helvetica,Arial" font-size="30px" font-style="normal" font-weight="normal" text-decoration="normal" x="277.3" y="37.20000000000001" text-anchor="middle" dominant-baseline="alphabetic">🐺</text><text fill="none" stroke="rgb(255,255,255)" font-family="Helvetica,Arial" font-size="35px" font-style="normal" font-weight="normal" text-decoration="normal" x="327.3" y="40.10000000000001" text-anchor="middle" dominant-baseline="alphabetic" stroke-opacity="0" stroke-miterlimit="10">3</text><text fill="#000000" stroke="none" font-family="Helvetica,Arial" font-size="35px" font-style="normal" font-weight="normal" text-decoration="normal" x="327.3" y="40.10000000000001" text-anchor="middle" dominant-baseline="alphabetic">3</text><text fill="none" stroke="rgb(255,255,255)" font-family="Helvetica,Arial" font-size="30px" font-style="normal" font-weight="normal" text-decoration="normal" x="27.30000000000001" y="87.2" text-anchor="middle" dominant-baseline="alphabetic" stroke-opacity="0" stroke-miterlimit="10">🐺</text><text fill="#000000" stroke="none" font-family="Helvetica,Arial" font-size="30px" font-style="normal" font-weight="normal" text-decoration="normal" x="27.30000000000001" y="87.2" text-anchor="middle" dominant-baseline="alphabetic">🐺</text><text fill="none" stroke="rgb(255,255,255)" font-family="Helvetica,Arial" font-size="35px" font-style="normal" font-weight="normal" text-decoration="normal" x="177.3" y="90.1" text-anchor="middle" dominant-baseline="alphabetic" stroke-opacity="0" stroke-miterlimit="10">2</text><text fill="#000000" stroke="none" font-family="Helvetica,Arial" font-size="35px" font-style="normal" font-weight="normal" text-decoration="normal" x="177.3" y="90.1" text-anchor="middle" dominant-baseline="alphabetic">2</text><text fill="none" stroke="rgb(255,255,255)" font-family="Helvetica,Arial" font-size="35px" font-style="normal" font-weight="normal" text-decoration="normal" x="227.3" y="90.1" text-anchor="middle" dominant-baseline="alphabetic" stroke-opacity="0" stroke-miterlimit="10">1</text><text fill="#000000" stroke="none" font-family="Helvetica,Arial" font-size="35px" font-style="normal" font-weight="normal" text-decoration="normal" x="227.3" y="90.1" text-anchor="middle" dominant-baseline="alphabetic">1</text><text fill="none" stroke="rgb(255,255,255)" font-family="Helvetica,Arial" font-size="35px" font-style="normal" font-weight="normal" text-decoration="normal" x="377.3" y="90.1" text-anchor="middle" dominant-baseline="alphabetic" stroke-opacity="0" stroke-miterlimit="10">1</text><text fill="#000000" stroke="none" font-family="Helvetica,Arial" font-size="35px" font-style="normal" font-weight="normal" text-decoration="normal" x="377.3" y="90.1" text-anchor="middle" dominant-baseline="alphabetic">1</text><text fill="none" stroke="rgb(255,255,255)" font-family="Helvetica,Arial" font-size="30px" font-style="normal" font-weight="normal" text-decoration="normal" x="27.30000000000001" y="137.20000000000002" text-anchor="middle" dominant-baseline="alphabetic" stroke-opacity="0" stroke-miterlimit="10">🐑</text><text fill="#000000" stroke="none" font-family="Helvetica,Arial" font-size="30px" font-style="normal" font-weight="normal" text-decoration="normal" x="27.30000000000001" y="137.20000000000002" text-anchor="middle" dominant-baseline="alphabetic">🐑</text><text fill="none" stroke="rgb(255,255,255)" font-family="Helvetica,Arial" font-size="35px" font-style="normal" font-weight="normal" text-decoration="normal" x="127.3" y="140.10000000000002" text-anchor="middle" dominant-baseline="alphabetic" stroke-opacity="0" stroke-miterlimit="10">3</text><text fill="#000000" stroke="none" font-family="Helvetica,Arial" font-size="35px" font-style="normal" font-weight="normal" text-decoration="normal" x="127.3" y="140.10000000000002" text-anchor="middle" dominant-baseline="alphabetic">3</text><text fill="none" stroke="rgb(255,255,255)" font-family="Helvetica,Arial" font-size="30px" font-style="normal" font-weight="normal" text-decoration="normal" x="277.3" y="137.20000000000002" text-anchor="middle" dominant-baseline="alphabetic" stroke-opacity="0" stroke-miterlimit="10">🐺</text><text fill="#000000" stroke="none" font-family="Helvetica,Arial" font-size="30px" font-style="normal" font-weight="normal" text-decoration="normal" x="277.3" y="137.20000000000002" text-anchor="middle" dominant-baseline="alphabetic">🐺</text><text fill="none" stroke="rgb(255,255,255)" font-family="Helvetica,Arial" font-size="35px" font-style="normal" font-weight="normal" text-decoration="normal" x="377.3" y="140.10000000000002" text-anchor="middle" dominant-baseline="alphabetic" stroke-opacity="0" stroke-miterlimit="10">2</text><text fill="#000000" stroke="none" font-family="Helvetica,Arial" font-size="35px" font-style="normal" font-weight="normal" text-decoration="normal" x="377.3" y="140.10000000000002" text-anchor="middle" dominant-baseline="alphabetic">2</text><text fill="none" stroke="rgb(255,255,255)" font-family="Helvetica,Arial" font-size="35px" font-style="normal" font-weight="normal" text-decoration="normal" x="77.3" y="190.10000000000002" text-anchor="middle" dominant-baseline="alphabetic" stroke-opacity="0" stroke-miterlimit="10">1</text><text fill="#000000" stroke="none" font-family="Helvetica,Arial" font-size="35px" font-style="normal" font-weight="normal" text-decoration="normal" x="77.3" y="190.10000000000002" text-anchor="middle" dominant-baseline="alphabetic">1</text><text fill="none" stroke="rgb(255,255,255)" font-family="Helvetica,Arial" font-size="30px" font-style="normal" font-weight="normal" text-decoration="normal" x="177.3" y="187.20000000000002" text-anchor="middle" dominant-baseline="alphabetic" stroke-opacity="0" stroke-miterlimit="10">🐺</text><text fill="#000000" stroke="none" font-family="Helvetica,Arial" font-size="30px" font-style="normal" font-weight="normal" text-decoration="normal" x="177.3" y="187.20000000000002" text-anchor="middle" dominant-baseline="alphabetic">🐺</text><text fill="none" stroke="rgb(255,255,255)" font-family="Helvetica,Arial" font-size="30px" font-style="normal" font-weight="normal" text-decoration="normal" x="227.3" y="187.20000000000002" text-anchor="middle" dominant-baseline="alphabetic" stroke-opacity="0" stroke-miterlimit="10">🐑</text><text fill="#000000" stroke="none" font-family="Helvetica,Arial" font-size="30px" font-style="normal" font-weight="normal" text-decoration="normal" x="227.3" y="187.20000000000002" text-anchor="middle" dominant-baseline="alphabetic">🐑</text><text fill="none" stroke="rgb(255,255,255)" font-family="Helvetica,Arial" font-size="35px" font-style="normal" font-weight="normal" text-decoration="normal" x="327.3" y="190.10000000000002" text-anchor="middle" dominant-baseline="alphabetic" stroke-opacity="0" stroke-miterlimit="10">0</text><text fill="#000000" stroke="none" font-family="Helvetica,Arial" font-size="35px" font-style="normal" font-weight="normal" text-decoration="normal" x="327.3" y="190.10000000000002" text-anchor="middle" dominant-baseline="alphabetic">0</text><text fill="none" stroke="rgb(255,255,255)" font-family="Helvetica,Arial" font-size="30px" font-style="normal" font-weight="normal" text-decoration="normal" x="77.3" y="237.20000000000002" text-anchor="middle" dominant-baseline="alphabetic" stroke-opacity="0" stroke-miterlimit="10">🐺</text><text fill="#000000" stroke="none" font-family="Helvetica,Arial" font-size="30px" font-style="normal" font-weight="normal" text-decoration="normal" x="77.3" y="237.20000000000002" text-anchor="middle" dominant-baseline="alphabetic">🐺</text><text fill="none" stroke="rgb(255,255,255)" font-family="Helvetica,Arial" font-size="35px" font-style="normal" font-weight="normal" text-decoration="normal" x="177.3" y="240.10000000000002" text-anchor="middle" dominant-baseline="alphabetic" stroke-opacity="0" stroke-miterlimit="10">3</text><text fill="#000000" stroke="none" font-family="Helvetica,Arial" font-size="35px" font-style="normal" font-weight="normal" text-decoration="normal" x="177.3" y="240.10000000000002" text-anchor="middle" dominant-baseline="alphabetic">3</text><text fill="none" stroke="rgb(255,255,255)" font-family="Helvetica,Arial" font-size="35px" font-style="normal" font-weight="normal" text-decoration="normal" x="227.3" y="240.10000000000002" text-anchor="middle" dominant-baseline="alphabetic" stroke-opacity="0" stroke-miterlimit="10">2</text><text fill="#000000" stroke="none" font-family="Helvetica,Arial" font-size="35px" font-style="normal" font-weight="normal" text-decoration="normal" x="227.3" y="240.10000000000002" text-anchor="middle" dominant-baseline="alphabetic">2</text><text fill="none" stroke="rgb(255,255,255)" font-family="Helvetica,Arial" font-size="35px" font-style="normal" font-weight="normal" text-decoration="normal" x="327.3" y="240.10000000000002" text-anchor="middle" dominant-baseline="alphabetic" stroke-opacity="0" stroke-miterlimit="10">1</text><text fill="#000000" stroke="none" font-family="Helvetica,Arial" font-size="35px" font-style="normal" font-weight="normal" text-decoration="normal" x="327.3" y="240.10000000000002" text-anchor="middle" dominant-baseline="alphabetic">1</text><text fill="none" stroke="rgb(255,255,255)" font-family="Helvetica,Arial" font-size="30px" font-style="normal" font-weight="normal" text-decoration="normal" x="27.30000000000001" y="287.2" text-anchor="middle" dominant-baseline="alphabetic" stroke-opacity="0" stroke-miterlimit="10">🐑</text><text fill="#000000" stroke="none" font-family="Helvetica,Arial" font-size="30px" font-style="normal" font-weight="normal" text-decoration="normal" x="27.30000000000001" y="287.2" text-anchor="middle" dominant-baseline="alphabetic">🐑</text><text fill="none" stroke="rgb(255,255,255)" font-family="Helvetica,Arial" font-size="35px" font-style="normal" font-weight="normal" text-decoration="normal" x="127.3" y="290.1" text-anchor="middle" dominant-baseline="alphabetic" stroke-opacity="0" stroke-miterlimit="10">2</text><text fill="#000000" stroke="none" font-family="Helvetica,Arial" font-size="35px" font-style="normal" font-weight="normal" text-decoration="normal" x="127.3" y="290.1" text-anchor="middle" dominant-baseline="alphabetic">2</text><text fill="none" stroke="rgb(255,255,255)" font-family="Helvetica,Arial" font-size="30px" font-style="normal" font-weight="normal" text-decoration="normal" x="277.3" y="287.2" text-anchor="middle" dominant-baseline="alphabetic" stroke-opacity="0" stroke-miterlimit="10">🐺</text><text fill="#000000" stroke="none" font-family="Helvetica,Arial" font-size="30px" font-style="normal" font-weight="normal" text-decoration="normal" x="277.3" y="287.2" text-anchor="middle" dominant-baseline="alphabetic">🐺</text><text fill="none" stroke="rgb(255,255,255)" font-family="Helvetica,Arial" font-size="30px" font-style="normal" font-weight="normal" text-decoration="normal" x="377.3" y="287.2" text-anchor="middle" dominant-baseline="alphabetic" stroke-opacity="0" stroke-miterlimit="10">🐺</text><text fill="#000000" stroke="none" font-family="Helvetica,Arial" font-size="30px" font-style="normal" font-weight="normal" text-decoration="normal" x="377.3" y="287.2" text-anchor="middle" dominant-baseline="alphabetic">🐺</text><text fill="none" stroke="rgb(255,255,255)" font-family="Helvetica,Arial" font-size="30px" font-style="normal" font-weight="normal" text-decoration="normal" x="27.30000000000001" y="337.2" text-anchor="middle" dominant-baseline="alphabetic" stroke-opacity="0" stroke-miterlimit="10">🐺</text><text fill="#000000" stroke="none" font-family="Helvetica,Arial" font-size="30px" font-style="normal" font-weight="normal" text-decoration="normal" x="27.30000000000001" y="337.2" text-anchor="middle" dominant-baseline="alphabetic">🐺</text><text fill="none" stroke="rgb(255,255,255)" font-family="Helvetica,Arial" font-size="30px" font-style="normal" font-weight="normal" text-decoration="normal" x="177.3" y="337.2" text-anchor="middle" dominant-baseline="alphabetic" stroke-opacity="0" stroke-miterlimit="10">🐑</text><text fill="#000000" stroke="none" font-family="Helvetica,Arial" font-size="30px" font-style="normal" font-weight="normal" text-decoration="normal" x="177.3" y="337.2" text-anchor="middle" dominant-baseline="alphabetic">🐑</text><text fill="none" stroke="rgb(255,255,255)" font-family="Helvetica,Arial" font-size="30px" font-style="normal" font-weight="normal" text-decoration="normal" x="227.3" y="337.2" text-anchor="middle" dominant-baseline="alphabetic" stroke-opacity="0" stroke-miterlimit="10">🐺</text><text fill="#000000" stroke="none" font-family="Helvetica,Arial" font-size="30px" font-style="normal" font-weight="normal" text-decoration="normal" x="227.3" y="337.2" text-anchor="middle" dominant-baseline="alphabetic">🐺</text><text fill="none" stroke="rgb(255,255,255)" font-family="Helvetica,Arial" font-size="35px" font-style="normal" font-weight="normal" text-decoration="normal" x="377.3" y="340.1" text-anchor="middle" dominant-baseline="alphabetic" stroke-opacity="0" stroke-miterlimit="10">0</text><text fill="#000000" stroke="none" font-family="Helvetica,Arial" font-size="35px" font-style="normal" font-weight="normal" text-decoration="normal" x="377.3" y="340.1" text-anchor="middle" dominant-baseline="alphabetic">0</text><text fill="none" stroke="rgb(255,255,255)" font-family="Helvetica,Arial" font-size="35px" font-style="normal" font-weight="normal" text-decoration="normal" x="77.3" y="390.1" text-anchor="middle" dominant-baseline="alphabetic" stroke-opacity="0" stroke-miterlimit="10">2</text><text fill="#000000" stroke="none" font-family="Helvetica,Arial" font-size="35px" font-style="normal" font-weight="normal" text-decoration="normal" x="77.3" y="390.1" text-anchor="middle" dominant-baseline="alphabetic">2</text><text fill="none" stroke="rgb(255,255,255)" font-family="Helvetica,Arial" font-size="35px" font-style="normal" font-weight="normal" text-decoration="normal" x="127.3" y="390.1" text-anchor="middle" dominant-baseline="alphabetic" stroke-opacity="0" stroke-miterlimit="10">2</text><text fill="#000000" stroke="none" font-family="Helvetica,Arial" font-size="35px" font-style="normal" font-weight="normal" text-decoration="normal" x="127.3" y="390.1" text-anchor="middle" dominant-baseline="alphabetic">2</text><text fill="none" stroke="rgb(255,255,255)" font-family="Helvetica,Arial" font-size="30px" font-style="normal" font-weight="normal" text-decoration="normal" x="277.3" y="387.2" text-anchor="middle" dominant-baseline="alphabetic" stroke-opacity="0" stroke-miterlimit="10">🐑</text><text fill="#000000" stroke="none" font-family="Helvetica,Arial" font-size="30px" font-style="normal" font-weight="normal" text-decoration="normal" x="277.3" y="387.2" text-anchor="middle" dominant-baseline="alphabetic">🐑</text><text fill="none" stroke="rgb(255,255,255)" font-family="Helvetica,Arial" font-size="30px" font-style="normal" font-weight="normal" text-decoration="normal" x="327.3" y="387.2" text-anchor="middle" dominant-baseline="alphabetic" stroke-opacity="0" stroke-miterlimit="10">🐑</text><text fill="#000000" stroke="none" font-family="Helvetica,Arial" font-size="30px" font-style="normal" font-weight="normal" text-decoration="normal" x="327.3" y="387.2" text-anchor="middle" dominant-baseline="alphabetic">🐑</text></g></svg>