<svg version="1.1" xmlns="http://www.w3.org/2000/svg" xmlns:xlink="http://www.w3.org/1999/xlink" width="404.8" height="404.8"><defs/><g><rect fill="rgb(255,255,255)" stroke="none" x="0" y="0" width="404.8" height="404.8" fill-opacity="0"/><path fill="#cccccc" stroke="rgb(0,0,0)" paint-order="fill stroke markers" d=" M 48.5 48.5 L 76.5 48.5 L 76.5 76.5 L 48.5 76.5 Z" stroke-opacity="0" stroke-miterlimit="10"/><path fill="#cccccc" stroke="rgb(0,0,0)" paint-order="fill stroke markers" d=" M 88.5 48.5 L 116.5 48.5 L 116.5 76.5 L 88.5 76.5 Z" stroke-opacity="0" stroke-miterlimit="10"/><path fill="#cccccc" stroke="rgb(0,0,0)" paint-order="fill stroke markers" d=" M 168.5 48.5 L 196.5 48.5 L 196.5 76.5 L 168.5 76.5 Z" stroke-opacity="0" stroke-miterlimit="10"/><path fill="#cccccc" stroke="rgb(0,0,0)" paint-order="fill stroke markers" d=" M 208.5 48.5 L 236.5 48.5 L 236.5 76.5 L 208.5 76.5 Z" stroke-opacity="0" stroke-miterlimit="10"/><path fill="#cccccc" stroke="rgb(0,0,0)" paint-order="fill stroke markers" d=" M 288.5 48.5 L 316.5 48.5 L 316.5 76.5 L 288.5 76.5 Z" stroke-opacity="0" stroke-miterlimit="10"/><path fill="#cccccc" stroke="rgb(0,0,0)" paint-order="fill stroke markers" d=" M 328.5 48.5 L 356.5 48.5 L 356.5 76.5 L 328.5 76.5 Z" stroke-opacity="0" stroke-miterlimit="10"/><path fill="#cccccc" stroke="rgb(0,0,0)" paint-order="fill stroke markers" d=" M 48.5 88.5 L 76.5 88.5 L 76.5 116.5 L 48.5 116.5 Z" stroke-opacity="0" stroke-miterlimit="10"/><path fill="#cccccc" stroke="rgb(0,0,0)" paint-order="fill stroke markers" d=" M 88.5 88.5 L 116.5 88.5 L 116.5 116.5 L 88.5 116.5 Z" stroke-opacity="0" stroke-miterlimit="10"/><path fill="#cccccc" stroke="rgb(0,0,0)" paint-order="fill stroke markers" d=" M 168.5 88.5 L 196.5 88.5 L 196.5 116.5 L 168.5 116.5 Z" stroke-opacity="0" stroke-miterlimit="10"/><path fill="#cccccc" stroke="rgb(0,0,0)" paint-order="fill stroke markers" d=" M 208.5 88.5 L 236.5 88.5 L 236.5 116.5 L 208.5 116.5 Z" stroke-opacity="0" stroke-miterlimit="10"/><path fill="#cccccc" stroke="rgb(0,0,0)" paint-order="fill stroke markers" d=" M 288.5 88.5 L 316.5 88.5 L 316.5 116.5 L 288.5 116.5 Z" stroke-opacity="0" stroke-miterlimit="10"/><path fill="#cccccc" stroke="rgb(0,0,0)" paint-order="fill stroke markers" d=" M 328.5 88.5 L 356.5 88.5 L 356.5 116.5 L 328.5 116.5 Z" stroke-opacity="0" stroke-miterlimit="10"/><path fill="#cccccc" stroke="rgb(0,0,0)" paint-order="fill stroke markers" d=" M 48.5 168.5 L 76.5 168.5 L 76.5 196.5 L 48.5 196.5 Z" stroke-opacity="0" stroke-miterlimit="10"/><path fill="#cccccc" stroke="rgb(0,0,0)" paint-order="fill stroke markers" d=" M 88.5 168.5 L 116.5 168.5 L 116.5 196.5 L 88.5 196.5 Z" stroke-opacity="0" stroke-miterlimit="10"/><path fill="#cccccc" stroke="rgb(0,0,0)" paint-order="fill stroke markers" d=" M 168.5 168.5 L 196.5 168.5 L 196.5 196.5 L 168.5 196.5 Z" stroke-opacity="0" stroke-miterlimit="10"/><path fill="#cccccc" stroke="rgb(0,0,0)" paint-order="fill stroke markers" d=" M 208.5 168.5 L 236.5 168.5 L 236.5 196.5 L 208.5 196.5 Z" stroke-opacity="0" stroke-miterlimit="10"/><path fill="#cccccc" stroke="rgb(0,0,0)" paint-order="fill stroke markers" d=" M 288.5 168.5 L 316.5 168.5 L 316.5 196.5 L 288.5 196.5 Z" stroke-opacity="0" stroke-miterlimit="10"/><path fill="#cccccc" stroke="rgb(0,0,0)" paint-order="fill stroke markers" d=" M 328.5 168.5 L 356.5 168.5 L 356.5 196.5 L 328.5 196.5 Z" stroke-opacity="0" stroke-miterlimit="10"/><path fill="#cccccc" stroke="rgb(0,0,0)" paint-order="fill stroke markers" d=" M 48.5 208.5 L 76.5 208.5 L 76.5 236.5 L 48.5 236.5 Z" stroke-opacity="0" stroke-miterlimit="10"/><path fill="#cccccc" stroke="rgb(0,0,0)" paint-order="fill stroke markers" d=" M 88.5 208.5 L 116.5 208.5 L 116.5 236.5 L 88.5 236.5 Z" stroke-opacity="0" stroke-miterlimit="10"/><path fill="#cccccc" stroke="rgb(0,0,0)" paint-order="fill stroke markers" d=" M 168.5 208.5 L 196.5 208.5 L 196.5 236.5 L 168.5 236.5 Z" stroke-opacity="0" stroke-miterlimit="10"/><path fill="#cccccc" stroke="rgb(0,0,0)" paint-order="fill stroke markers" d=" M 208.5 208.5 L 236.5 208.5 L 236.5 236.5 L 208.5 236.5 Z" stroke-opacity="0" stroke-miterlimit="10"/><path fill="#cccccc" stroke="rgb(0,0,0)" paint-order="fill stroke markers" d=" M 288.5 208.5 L 316.5 208.5 L 316.5 236.5 L 288.5 236.5 Z" stroke-opacity="0" stroke-miterlimit="10"/><path fill="#cccccc" stroke="rgb(0,0,0)" paint-order="fill stroke markers" d=" M 328.5 208.5 L 356.5 208.5 L 356.5 236.5 L 328.5 236.5 Z" stroke-opacity="0" stroke-miterlimit="10"/><path fill="#cccccc" stroke="rgb(0,0,0)" paint-order="fill stroke markers" d=" M 48.5 288.5 L 76.5 288.5 L 76.5 316.5 L 48.5 316.5 Z" stroke-opacity="0" stroke-miterlimit="10"/><path fill="#cccccc" stroke="rgb(0,0,0)" paint-order="fill stroke markers" d=" M 88.5 288.5 L 116.5 288.5 L 116.5 316.5 L 88.5 316.5 Z" stroke-opacity="0" stroke-miterlimit="10"/><path fill="#cccccc" stroke="rgb(0,0,0)" paint-order="fill stroke markers" d=" M 168.5 288.5 L 196.5 288.5 L 196.5 316.5 L 168.5 316.5 Z" stroke-opacity="0" stroke-miterlimit="10"/><path fill="#cccccc" stroke="rgb(0,0,0)" paint-order="fill stroke markers" d=" M 208.5 288.5 L 236.5 288.5 L 236.5 316.5 L 208.5 316.5 Z" stroke-opacity="0" stroke-miterlimit="10"/><path fill="#cccccc" stroke="rgb(0,0,0)" paint-order="fill stroke markers" d=" M 288.5 288.5 L 316.5 288.5 L 316.5 316.5 L 288.5 316.5 Z" stroke-opacity="0" stroke-miterlimit="10"/><path fill="#cccccc" stroke="rgb(0,0,0)" paint-order="fill stroke markers" d=" M 328.5 288.5 L 356.5 288.5 L 356.5 316.5 L 328.5 316.5 Z" stroke-opacity="0" stroke-miterlimit="10"/><path fill="#cccccc" stroke="rgb(0,0,0)" paint-order="fill stroke markers" d=" M 48.5 328.5 L 76.5 328.5 L 76.5 356.5 L 48.5 356.5 Z" stroke-opacity="0" stroke-miterlimit="10"/><path fill="#cccccc" stroke="rgb(0,0,0)" paint-order="fill stroke markers" d=" M 88.5 328.5 L 116.5 328.5 L 116.5 356.5 L 88.5 356.5 Z" stroke-opacity="0" stroke-miterlimit="10"/><path fill="#cccccc" stroke="rgb(0,0,0)" paint-order="fill stroke markers" d=" M 168.5 328.5 L 196.5 328.5 L 196.5 356.5 L 168.5 356.5 Z" stroke-opacity="0" stroke-miterlimit="10"/><path fill="#cccccc" stroke="rgb(0,0,0)" paint-order="fill stroke markers" d=" M 208.5 328.5 L 236.5 328.5 L 236.5 356.5 L 208.5 356.5 Z" stroke-opacity="0" stroke-miterlimit="10"/><path fill="#cccccc" stroke="rgb(0,0,0)" paint-order="fill stroke markers" d=" M 288.5 328.5 L 316.5 328.5 L 316.5 356.5 L 288.5 356.5 Z" stroke-opacity="0" stroke-miterlimit="10"/><path fill="#cccccc" stroke="rgb(0,0,0)" paint-order="fill stroke markers" d=" M 328.5 328.5 L 356.5 328.5 L 356.5 356.5 L 328.5 356.5 Z" stroke-opacity="0" stroke-miterlimit="10"/><path fill="#cccccc" stroke="rgb(0,0,0)" paint-order="fill stroke markers" d=" M 68.5 68.5 L 96.5 68.5 L 96.5 96.5 L 68.5 96.5 Z" stroke-opacity="0" stroke-miterlimit="10"/><path fill="#cccccc" stroke="rgb(0,0,0)" paint-order="fill stroke markers" d=" M 188.5 68.5 L 216.5 68.5 L 216.5 96.5 L 188.5 96.5 Z" stroke-opacity="0" stroke-miterlimit="10"/><path fill="#cccccc" stroke="rgb(0,0,0)" paint-order="fill stroke markers" d=" M 308.5 68.5 L 336.5 68.5 L 336.5 96.5 L 308.5 96.5 Z" stroke-opacity="0" stroke-miterlimit="10"/><path fill="#cccccc" stroke="rgb(0,0,0)" paint-order="fill stroke markers" d=" M 68.5 188.5 L 96.5 188.5 L 96.5 216.5 L 68.5 216.5 Z" stroke-opacity="0" stroke-miterlimit="10"/><path fill="#cccccc" stroke="rgb(0,0,0)" paint-order="fill stroke markers" d=" M 188.5 188.5 L 216.5 188.5 L 216.5 216.5 L 188.5 216.5 Z" stroke-opacity="0" stroke-miterlimit="10"/><path fill="#cccccc" stroke="rgb(0,0,0)" paint-order="fill stroke markers" d=" M 308.5 188.5 L 336.5 188.5 L 336.5 216.5 L 308.5 216.5 Z" stroke-opacity="0" stroke-miterlimit="10"/><path fill="#cccccc" stroke="rgb(0,0,0)" paint-order="fill stroke markers" d=" M 68.5 308.5 L 96.5 308.5 L 96.5 336.5 L 68.5 336.5 Z" stroke-opacity="0" stroke-miterlimit="10"/><path fill="#cccccc" stroke="rgb(0,0,0)" paint-order="fill stroke markers" d=" M 188.5 308.5 L 216.5 308.5 L 216.5 336.5 L 188.5 336.5 Z" stroke-opacity="0" stroke-miterlimit="10"/><path fill="#cccccc" stroke="rgb(0,0,0)" paint-order="fill stroke markers" d=" M 308.5 308.5 L 336.5 308.5 L 336.5 336.5 L 308.5 336.5 Z" stroke-opacity="0" stroke-miterlimit="10"/><path fill="#cccccc" stroke="rgb(0,0,0)" paint-order="fill stroke markers" d=" M 48.5 68.5 L 76.5 68.5 L 76.5 96.5 L 48.5 96.5 Z" stroke-opacity="0" stroke-miterlimit="10"/><path fill="#cccccc" stroke="rgb(0,0,0)" paint-order="fill stroke markers" d=" M 88.5 68.5 L 116.5 68.5 L 116.5 96.5 L 88.5 96.5 Z" stroke-opacity="0" stroke-miterlimit="10"/><path fill="#cccccc" stroke="rgb(0,0,0)" paint-order="fill stroke markers" d=" M 168.5 68.5 L 196.5 68.5 L 196.5 96.5 L 168.5 96.5 Z" stroke-opacity="0" stroke-miterlimit="10"/><path fill="#cccccc" stroke="rgb(0,0,0)" paint-order="fill stroke markers" d=" M 208.5 68.5 L 236.5 68.5 L 236.5 96.5 L 208.5 96.5 Z" stroke-opacity="0" stroke-miterlimit="10"/><path fill="#cccccc" stroke="rgb(0,0,0)" paint-order="fill stroke markers" d=" M 288.5 68.5 L 316.5 68.5 L 316.5 96.5 L 288.5 96.5 Z" stroke-opacity="0" stroke-miterlimit="10"/><path fill="#cccccc" stroke="rgb(0,0,0)" paint-order="fill stroke markers" d=" M 328.5 68.5 L 356.5 68.5 L 356.5 96.5 L 328.5 96.5 Z" stroke-opacity="0" stroke-miterlimit="10"/><path fill="#cccccc" stroke="rgb(0,0,0)" paint-order="fill stroke markers" d=" M 48.5 188.5 L 76.5 188.5 L 76.5 216.5 L 48.5 216.5 Z" stroke-opacity="0" stroke-miterlimit="10"/><path fill="#cccccc" stroke="rgb(0,0,0)" paint-order="fill stroke markers" d=" M 88.5 188.5 L 116.5 188.5 L 116.5 216.5 L 88.5 216.5 Z" stroke-opacity="0" stroke-miterlimit="10"/><path fill="#cccccc" stroke="rgb(0,0,0)" paint-order="fill stroke markers" d=" M 168.5 188.5 L 196.5 188.5 L 196.5 216.5 L 168.5 216.5 Z" stroke-opacity="0" stroke-miterlimit="10"/><path fill="#cccccc" stroke="rgb(0,0,0)" paint-order="fill stroke markers" d=" M 208.5 188.5 L 236.5 188.5 L 236.5 216.5 L 208.5 216.5 Z" stroke-opacity="0" stroke-miterlimit="10"/><path fill="#cccccc" stroke="rgb(0,0,0)" paint-order="fill stroke markers" d=" M 288.5 188.5 L 316.5 188.5 L 316.5 216.5 L 288.5 216.5 Z" stroke-opacity="0" stroke-miterlimit="10"/><path fill="#cccccc" stroke="rgb(0,0,0)" paint-order="fill stroke markers" d=" M 328.5 188.5 L 356.5 188.5 L 356.5 216.5 L 328.5 216.5 Z" stroke-opacity="0" stroke-miterlimit="10"/><path fill="#cccccc" stroke="rgb(0,0,0)" paint-order="fill stroke markers" d=" M 48.5 308.5 L 76.5 308.5 L 76.5 336.5 L 48.5 336.5 Z" stroke-opacity="0" stroke-miterlimit="10"/><path fill="#cccccc" stroke="rgb(0,0,0)" paint-order="fill stroke markers" d=" M 88.5 308.5 L 116.5 308.5 L 116.5 336.5 L 88.5 336.5 Z" stroke-opacity="0" stroke-miterlimit="10"/><path fill="#cccccc" stroke="rgb(0,0,0)" paint-order="fill stroke markers" d=" M 168.5 308.5 L 196.5 308.5 L 196.5 336.5 L 168.5 336.5 Z" stroke-opacity="0" stroke-miterlimit="10"/><path fill="#cccccc" stroke="rgb(0,0,0)" paint-order="fill stroke markers" d=" M 208.5 308.5 L 236.5 308.5 L 236.5 336.5 L 208.5 336.5 Z" stroke-opacity="0" stroke-miterlimit="10"/><path fill="#cccccc" stroke="rgb(0,0,0)" paint-order="fill stroke markers" d=" M 288.5 308.5 L 316.5 308.5 L 316.5 336.5 L 288.5 336.5 Z" stroke-opacity="0" stroke-miterlimit="10"/><path fill="#cccccc" stroke="rgb(0,0,0)" paint-order="fill stroke markers" d=" M 328.5 308.5 L 356.5 308.5 L 356.5 336.5 L 328.5 336.5 Z" stroke-opacity="0" stroke-miterlimit="10"/><path fill="#cccccc" stroke="rgb(0,0,0)" paint-order="fill stroke markers" d=" M 68.5 48.5 L 96.5 48.5 L 96.5 76.5 L 68.5 76.5 Z" stroke-opacity="0" stroke-miterlimit="10"/><path fill="#cccccc" stroke="rgb(0,0,0)" paint-order="fill stroke markers" d=" M 188.5 48.5 L 216.5 48.5 L 216.5 76.5 L 188.5 76.5 Z" stroke-opacity="0" stroke-miterlimit="10"/><path fill="#cccccc" stroke="rgb(0,0,0)" paint-order="fill stroke markers" d=" M 308.5 48.5 L 336.5 48.5 L 336.5 76.5 L 308.5 76.5 Z" stroke-opacity="0" stroke-miterlimit="10"/><path fill="#cccccc" stroke="rgb(0,0,0)" paint-order="fill stroke markers" d=" M 68.5 88.5 L 96.5 88.5 L 96.5 116.5 L 68.5 116.5 Z" stroke-opacity="0" stroke-miterlimit="10"/><path fill="#cccccc" stroke="rgb(0,0,0)" paint-order="fill stroke markers" d=" M 188.5 88.5 L 216.5 88.5 L 216.5 116.5 L 188.5 116.5 Z" stroke-opacity="0" stroke-miterlimit="10"/><path fill="#cccccc" stroke="rgb(0,0,0)" paint-order="fill stroke markers" d=" M 308.5 88.5 L 336.5 88.5 L 336.5 116.5 L 308.5 116.5 Z" stroke-opacity="0" stroke-miterlimit="10"/><path fill="#cccccc" stroke="rgb(0,0,0)" paint-order="fill stroke markers" d=" M 68.5 168.5 L 96.5 168.5 L 96.5 196.5 L 68.5 196.5 Z" stroke-opacity="0" stroke-miterlimit="10"/><path fill="#cccccc" stroke="rgb(0,0,0)" paint-order="fill stroke markers" d=" M 188.5 168.5 L 216.5 168.5 L 216.5 196.5 L 188.5 196.5 Z" stroke-opacity="0" stroke-miterlimit="10"/><path fill="#cccccc" stroke="rgb(0,0,0)" paint-order="fill stroke markers" d=" M 308.5 168.5 L 336.5 168.5 L 336.5 196.5 L 308.5 196.5 Z" stroke-opacity="0" stroke-miterlimit="10"/><path fill="#cccccc" stroke="rgb(0,0,0)" paint-order="fill stroke markers" d=" M 68.5 208.5 L 96.5 208.5 L 96.5 236.5 L 68.5 236.5 Z" stroke-opacity="0" stroke-miterlimit="10"/><path fill="#cccccc" stroke="rgb(0,0,0)" paint-order="fill stroke markers" d=" M 188.5 208.5 L 216.5 208.5 L 216.5 236.5 L 188.5 236.5 Z" stroke-opacity="0" stroke-miterlimit="10"/><path fill="#cccccc" stroke="rgb(0,0,0)" paint-order="fill stroke markers" d=" M 308.5 208.5 L 336.5 208.5 L 336.5 236.5 L 308.5 236.5 Z" stroke-opacity="0" stroke-miterlimit="10"/><path fill="#cccccc" stroke="rgb(0,0,0)" paint-order="fill stroke markers" d=" M 68.5 288.5 L 96.5 288.5 L 96.5 316.5 L 68.5 316.5 Z" stroke-opacity="0" stroke-miterlimit="10"/><path fill="#cccccc" stroke="rgb(0,0,0)" paint-order="fill stroke markers" d=" M 188.5 288.5 L 216.5 288.5 L 216.5 316.5 L 188.5 316.5 Z" stroke-opacity="0" stroke-miterlimit="10"/><path fill="#cccccc" stroke="rgb(0,0,0)" paint-order="fill stroke markers" d=" M 308.5 288.5 L 336.5 288.5 L 336.5 316.5 L 308.5 316.5 Z" stroke-opacity="0" stroke-miterlimit="10"/><path fill="#cccccc" stroke="rgb(0,0,0)" paint-order="fill stroke markers" d=" M 68.5 328.5 L 96.5 328.5 L 96.5 356.5 L 68.5 356.5 Z" stroke-opacity="0" stroke-miterlimit="10"/><path fill="#cccccc" stroke="rgb(0,0,0)" paint-order="fill stroke markers" d=" M 188.5 328.5 L 216.5 328.5 L 216.5 356.5 L 188.5 356.5 Z" stroke-opacity="0" stroke-miterlimit="10"/><path fill="#cccccc" stroke="rgb(0,0,0)" paint-order="fill stroke markers" d=" M 308.5 328.5 L 336.5 328.5 L 336.5 356.5 L 308.5 356.5 Z" stroke-opacity="0" stroke-miterlimit="10"/><path fill="#000000" stroke="none" paint-order="stroke fill markers" d=" M 4.6 2.5 A 2.1 2.1 0 1 0 4.599998950000088 2.502099999650001"/><path fill="#000000" stroke="none" paint-order="stroke fill markers" d=" M 44.6 2.5 A 2.1 2.1 0 1 0 44.599998950000085 2.502099999650001"/><path fill="#000000" stroke="none" paint-order="stroke fill markers" d=" M 44.6 42.5 A 2.1 2.1 0 1 0 44.599998950000085 42.50209999965"/><path fill="#000000" stroke="none" paint-order="stroke fill markers" d=" M 4.6 42.5 A 2.1 2.1 0 1 0 4.599998950000088 42.50209999965"/><path fill="#000000" stroke="none" paint-order="stroke fill markers" d=" M 84.6 2.5 A 2.1 2.1 0 1 0 84.59999895000009 2.502099999650001"/><path fill="#000000" stroke="none" paint-order="stroke fill markers" d=" M 84.6 42.5 A 2.1 2.1 0 1 0 84.59999895000009 42.50209999965"/><path fill="#000000" stroke="none" paint-order="stroke fill markers" d=" M 124.6 2.5 A 2.1 2.1 0 1 0 124.59999895000009 2.502099999650001"/><path fill="#000000" stroke="none" paint-order="stroke fill markers" d=" M 124.6 42.5 A 2.1 2.1 0 1 0 124.59999895000009 42.50209999965"/><path fill="#000000" stroke="none" paint-order="stroke fill markers" d=" M 164.6 2.5 A 2.1 2.1 0 1 0 164.5999989500001 2.502099999650001"/><path fill="#000000" stroke="none" paint-order="stroke fill markers" d=" M 164.6 42.5 A 2.1 2.1 0 1 0 164.5999989500001 42.50209999965"/><path fill="#000000" stroke="none" paint-order="stroke fill markers" d=" M 204.6 2.5 A 2.1 2.1 0 1 0 204.5999989500001 2.502099999650001"/><path fill="#000000" stroke="none" paint-order="stroke fill markers" d=" M 204.6 42.5 A 2.1 2.1 0 1 0 204.5999989500001 42.50209999965"/><path fill="#000000" stroke="none" paint-order="stroke fill markers" d=" M 244.6 2.5 A 2.1 2.1 0 1 0 244.5999989500001 2.502099999650001"/><path fill="#000000" stroke="none" paint-order="stroke fill markers" d=" M 244.6 42.5 A 2.1 2.1 0 1 0 244.5999989500001 42.50209999965"/><path fill="#000000" stroke="none" paint-order="stroke fill markers" d=" M 284.6 2.5 A 2.1 2.1 0 1 0 284.5999989500001 2.502099999650001"/><path fill="#000000" stroke="none" paint-order="stroke fill markers" d=" M 284.6 42.5 A 2.1 2.1 0 1 0 284.5999989500001 42.50209999965"/><path fill="#000000" stroke="none" paint-order="stroke fill markers" d=" M 324.6 2.5 A 2.1 2.1 0 1 0 324.5999989500001 2.502099999650001"/><path fill="#000000" stroke="none" paint-order="stroke fill markers" d=" M 324.6 42.5 A 2.1 2.1 0 1 0 324.5999989500001 42.50209999965"/><path fill="#000000" stroke="none" paint-order="stroke fill markers" d=" M 364.6 2.5 A 2.1 2.1 0 1 0 364.5999989500001 2.502099999650001"/><path fill="#000000" stroke="none" paint-order="stroke fill markers" d=" M 364.6 42.5 A 2.1 2.1 0 1 0 364.5999989500001 42.50209999965"/><path fill="#000000" stroke="none" paint-order="stroke fill markers" d=" M 404.6 2.5 A 2.1 2.1 0 1 0 404.5999989500001 2.502099999650001"/><path fill="#000000" stroke="none" paint-order="stroke fill markers" d=" M 404.6 42.5 A 2.1 2.1 0 1 0 404.5999989500001 42.50209999965"/><path fill="#000000" stroke="none" paint-order="stroke fill markers" d=" M 44.6 82.5 A 2.1 2.1 0 1 0 44.599998950000085 82.50209999965"/><path fill="#000000" stroke="none" paint-order="stroke fill markers" d=" M 4.6 82.5 A 2.1 2.1 0 1 0 4.599998950000088 82.50209999965"/><path fill="#000000" stroke="none" paint-order="stroke fill markers" d=" M 84.6 82.5 A 2.1 2.1 0 1 0 84.59999895000009 82.50209999965"/><path fill="#000000" stroke="none" paint-order="stroke fill markers" d=" M 124.6 82.5 A 2.1 2.1 0 1 0 124.59999895000009 82.50209999965"/><path fill="#000000" stroke="none" paint-order="stroke fill markers" d=" M 164.6 82.5 A 2.1 2.1 0 1 0 164.5999989500001 82.50209999965"/><path fill="#000000" stroke="none" paint-order="stroke fill markers" d=" M 204.6 82.5 A 2.1 2.1 0 1 0 204.5999989500001 82.50209999965"/><path fill="#000000" stroke="none" paint-order="stroke fill markers" d=" M 244.6 82.5 A 2.1 2.1 0 1 0 244.5999989500001 82.50209999965"/><path fill="#000000" stroke="none" paint-order="stroke fill markers" d=" M 284.6 82.5 A 2.1 2.1 0 1 0 284.5999989500001 82.50209999965"/><path fill="#000000" stroke="none" paint-order="stroke fill markers" d=" M 324.6 82.5 A 2.1 2.1 0 1 0 324.5999989500001 82.50209999965"/><path fill="#000000" stroke="none" paint-order="stroke fill markers" d=" M 364.6 82.5 A 2.1 2.1 0 1 0 364.5999989500001 82.50209999965"/><path fill="#000000" stroke="none" paint-order="stroke fill markers" d=" M 404.6 82.5 A 2.1 2.1 0 1 0 404.5999989500001 82.50209999965"/><path fill="#000000" stroke="none" paint-order="stroke fill markers" d=" M 44.6 122.5 A 2.1 2.1 0 1 0 44.599998950000085 122.50209999965"/><path fill="#000000" stroke="none" paint-order="stroke fill markers" d=" M 4.6 122.5 A 2.1 2.1 0 1 0 4.599998950000088 122.50209999965"/><path fill="#000000" stroke="none" paint-order="stroke fill markers" d=" M 84.6 122.5 A 2.1 2.1 0 1 0 84.59999895000009 122.50209999965"/><path fill="#000000" stroke="none" paint-order="stroke fill markers" d=" M 124.6 122.5 A 2.1 2.1 0 1 0 124.59999895000009 122.50209999965"/><path fill="#000000" stroke="none" paint-order="stroke fill markers" d=" M 164.6 122.5 A 2.1 2.1 0 1 0 164.5999989500001 122.50209999965"/><path fill="#000000" stroke="none" paint-order="stroke fill markers" d=" M 204.6 122.5 A 2.1 2.1 0 1 0 204.5999989500001 122.50209999965"/><path fill="#000000" stroke="none" paint-order="stroke fill markers" d=" M 244.6 122.5 A 2.1 2.1 0 1 0 244.5999989500001 122.50209999965"/><path fill="#000000" stroke="none" paint-order="stroke fill markers" d=" M 284.6 122.5 A 2.1 2.1 0 1 0 284.5999989500001 122.50209999965"/><path fill="#000000" stroke="none" paint-order="stroke fill markers" d=" M 324.6 122.5 A 2.1 2.1 0 1 0 324.5999989500001 122.50209999965"/><path fill="#000000" stroke="none" paint-order="stroke fill markers" d=" M 364.6 122.5 A 2.1 2.1 0 1 0 364.5999989500001 122.50209999965"/><path fill="#000000" stroke="none" paint-order="stroke fill markers" d=" M 404.6 122.5 A 2.1 2.1 0 1 0 404.5999989500001 122.50209999965"/><path fill="#000000" stroke="none" paint-order="stroke fill markers" d=" M 44.6 162.5 A 2.1 2.1 0 1 0 44.599998950000085 162.50209999965"/><path fill="#000000" stroke="none" paint-order="stroke fill markers" d=" M 4.6 162.5 A 2.1 2.1 0 1 0 4.599998950000088 162.50209999965"/><path fill="#000000" stroke="none" paint-order="stroke fill markers" d=" M 84.6 162.5 A 2.1 2.1 0 1 0 84.59999895000009 162.50209999965"/><path fill="#000000" stroke="none" paint-order="stroke fill markers" d=" M 124.6 162.5 A 2.1 2.1 0 1 0 124.59999895000009 162.50209999965"/><path fill="#000000" stroke="none" paint-order="stroke fill markers" d=" M 164.6 162.5 A 2.1 2.1 0 1 0 164.5999989500001 162.50209999965"/><path fill="#000000" stroke="none" paint-order="stroke fill markers" d=" M 204.6 162.5 A 2.1 2.1 0 1 0 204.5999989500001 162.50209999965"/><path fill="#000000" stroke="none" paint-order="stroke fill markers" d=" M 244.6 162.5 A 2.1 2.1 0 1 0 244.5999989500001 162.50209999965"/><path fill="#000000" stroke="none" paint-order="stroke fill markers" d=" M 284.6 162.5 A 2.1 2.1 0 1 0 284.5999989500001 162.50209999965"/><path fill="#000000" stroke="none" paint-order="stroke fill markers" d=" M 324.6 162.5 A 2.1 2.1 0 1 0 324.5999989500001 162.50209999965"/><path fill="#000000" stroke="none" paint-order="stroke fill markers" d=" M 364.6 162.5 A 2.1 2.1 0 1 0 364.5999989500001 162.50209999965"/><path fill="#000000" stroke="none" paint-order="stroke fill markers" d=" M 404.6 162.5 A 2.1 2.1 0 1 0 404.5999989500001 162.50209999965"/><path fill="#000000" stroke="none" paint-order="stroke fill markers" d=" M 44.6 202.5 A 2.1 2.1 0 1 0 44.599998950000085 202.50209999965"/><path fill="#000000" stroke="none" paint-order="stroke fill markers" d=" M 4.6 202.5 A 2.1 2.1 0 1 0 4.599998950000088 202.50209999965"/><path fill="#000000" stroke="none" paint-order="stroke fill markers" d=" M 84.6 202.5 A 2.1 2.1 0 1 0 84.59999895000009 202.50209999965"/><path fill="#000000" stroke="none" paint-order="stroke fill markers" d=" M 124.6 202.5 A 2.1 2.1 0 1 0 124.59999895000009 202.50209999965"/><path fill="#000000" stroke="none" paint-order="stroke fill markers" d=" M 164.6 202.5 A 2.1 2.1 0 1 0 164.5999989500001 202.50209999965"/><path fill="#000000" stroke="none" paint-order="stroke fill markers" d=" M 204.6 202.5 A 2.1 2.1 0 1 0 204.5999989500001 202.50209999965"/><path fill="#000000" stroke="none" paint-order="stroke fill markers" d=" M 244.6 202.5 A 2.1 2.1 0 1 0 244.5999989500001 202.50209999965"/><path fill="#000000" stroke="none" paint-order="stroke fill markers" d=" M 284.6 202.5 A 2.1 2.1 0 1 0 284.5999989500001 202.50209999965"/><path fill="#000000" stroke="none" paint-order="stroke fill markers" d=" M 324.6 202.5 A 2.1 2.1 0 1 0 324.5999989500001 202.50209999965"/><path fill="#000000" stroke="none" paint-order="stroke fill markers" d=" M 364.6 202.5 A 2.1 2.1 0 1 0 364.5999989500001 202.50209999965"/><path fill="#000000" stroke="none" paint-order="stroke fill markers" d=" M 404.6 202.5 A 2.1 2.1 0 1 0 404.5999989500001 202.50209999965"/><path fill="#000000" stroke="none" paint-order="stroke fill markers" d=" M 44.6 242.5 A 2.1 2.1 0 1 0 44.599998950000085 242.50209999965"/><path fill="#000000" stroke="none" paint-order="stroke fill markers" d=" M 4.6 242.5 A 2.1 2.1 0 1 0 4.599998950000088 242.50209999965"/><path fill="#000000" stroke="none" paint-order="stroke fill markers" d=" M 84.6 242.5 A 2.1 2.1 0 1 0 84.59999895000009 242.50209999965"/><path fill="#000000" stroke="none" paint-order="stroke fill markers" d=" M 124.6 242.5 A 2.1 2.1 0 1 0 124.59999895000009 242.50209999965"/><path fill="#000000" stroke="none" paint-order="stroke fill markers" d=" M 164.6 242.5 A 2.1 2.1 0 1 0 164.5999989500001 242.50209999965"/><path fill="#000000" stroke="none" paint-order="stroke fill markers" d=" M 204.6 242.5 A 2.1 2.1 0 1 0 204.5999989500001 242.50209999965"/><path fill="#000000" stroke="none" paint-order="stroke fill markers" d=" M 244.6 242.5 A 2.1 2.1 0 1 0 244.5999989500001 242.50209999965"/><path fill="#000000" stroke="none" paint-order="stroke fill markers" d=" M 284.6 242.5 A 2.1 2.1 0 1 0 284.5999989500001 242.50209999965"/><path fill="#000000" stroke="none" paint-order="stroke fill markers" d=" M 324.6 242.5 A 2.1 2.1 0 1 0 324.5999989500001 242.50209999965"/><path fill="#000000" stroke="none" paint-order="stroke fill markers" d=" M 364.6 242.5 A 2.1 2.1 0 1 0 364.5999989500001 242.50209999965"/><path fill="#000000" stroke="none" paint-order="stroke fill markers" d=" M 404.6 242.5 A 2.1 2.1 0 1 0 404.5999989500001 242.50209999965"/><path fill="#000000" stroke="none" paint-order="stroke fill markers" d=" M 44.6 282.5 A 2.1 2.1 0 1 0 44.599998950000085 282.50209999965"/><path fill="#000000" stroke="none" paint-order="stroke fill markers" d=" M 4.6 282.5 A 2.1 2.1 0 1 0 4.599998950000088 282.50209999965"/><path fill="#000000" stroke="none" paint-order="stroke fill markers" d=" M 84.6 282.5 A 2.1 2.1 0 1 0 84.59999895000009 282.50209999965"/><path fill="#000000" stroke="none" paint-order="stroke fill markers" d=" M 124.6 282.5 A 2.1 2.1 0 1 0 124.59999895000009 282.50209999965"/><path fill="#000000" stroke="none" paint-order="stroke fill markers" d=" M 164.6 282.5 A 2.1 2.1 0 1 0 164.5999989500001 282.50209999965"/><path fill="#000000" stroke="none" paint-order="stroke fill markers" d=" M 204.6 282.5 A 2.1 2.1 0 1 0 204.5999989500001 282.50209999965"/><path fill="#000000" stroke="none" paint-order="stroke fill markers" d=" M 244.6 282.5 A 2.1 2.1 0 1 0 244.5999989500001 282.50209999965"/><path fill="#000000" stroke="none" paint-order="stroke fill markers" d=" M 284.6 282.5 A 2.1 2.1 0 1 0 284.5999989500001 282.50209999965"/><path fill="#000000" stroke="none" paint-order="stroke fill markers" d=" M 324.6 282.5 A 2.1 2.1 0 1 0 324.5999989500001 282.50209999965"/><path fill="#000000" stroke="none" paint-order="stroke fill markers" d=" M 364.6 282.5 A 2.1 2.1 0 1 0 364.5999989500001 282.50209999965"/><path fill="#000000" stroke="none" paint-order="stroke fill markers" d=" M 404.6 282.5 A 2.1 2.1 0 1 0 404.5999989500001 282.50209999965"/><path fill="#000000" stroke="none" paint-order="stroke fill markers" d=" M 44.6 322.5 A 2.1 2.1 0 1 0 44.599998950000085 322.50209999965"/><path fill="#000000" stroke="none" paint-order="stroke fill markers" d=" M 4.6 322.5 A 2.1 2.1 0 1 0 4.599998950000088 322.50209999965"/><path fill="#000000" stroke="none" paint-order="stroke fill markers" d=" M 84.6 322.5 A 2.1 2.1 0 1 0 84.59999895000009 322.50209999965"/><path fill="#000000" stroke="none" paint-order="stroke fill markers" d=" M 124.6 322.5 A 2.1 2.1 0 1 0 124.59999895000009 322.50209999965"/><path fill="#000000" stroke="none" paint-order="stroke fill markers" d=" M 164.6 322.5 A 2.1 2.1 0 1 0 164.5999989500001 322.50209999965"/><path fill="#000000" stroke="none" paint-order="stroke fill markers" d=" M 204.6 322.5 A 2.1 2.1 0 1 0 204.5999989500001 322.50209999965"/><path fill="#000000" stroke="none" paint-order="stroke fill markers" d=" M 244.6 322.5 A 2.1 2.1 0 1 0 244.5999989500001 322.50209999965"/><path fill="#000000" stroke="none" paint-order="stroke fill markers" d=" M 284.6 322.5 A 2.1 2.1 0 1 0 284.5999989500001 322.50209999965"/><path fill="#000000" stroke="none" paint-order="stroke fill markers" d=" M 324.6 322.5 A 2.1 2.1 0 1 0 324.5999989500001 322.50209999965"/><path fill="#000000" stroke="none" paint-order="stroke fill markers" d=" M 364.6 322.5 A 2.1 2.1 0 1 0 364.5999989500001 322.50209999965"/><path fill="#000000" stroke="none" paint-order="stroke fill markers" d=" M 404.6 322.5 A 2.1 2.1 0 1 0 404.5999989500001 322.50209999965"/><path fill="#000000" stroke="none" paint-order="stroke fill markers" d=" M 44.6 362.5 A 2.1 2.1 0 1 0 44.599998950000085 362.50209999965"/><path fill="#000000" stroke="none" paint-order="stroke fill markers" d=" M 4.6 362.5 A 2.1 2.1 0 1 0 4.599998950000088 362.50209999965"/><path fill="#000000" stroke="none" paint-order="stroke fill markers" d=" M 84.6 362.5 A 2.1 2.1 0 1 0 84.59999895000009 362.50209999965"/><path fill="#000000" stroke="none" paint-order="stroke fill markers" d=" M 124.6 362.5 A 2.1 2.1 0 1 0 124.59999895000009 362.50209999965"/><path fill="#000000" stroke="none" paint-order="stroke fill markers" d=" M 164.6 362.5 A 2.1 2.1 0 1 0 164.5999989500001 362.50209999965"/><path fill="#000000" stroke="none" paint-order="stroke fill markers" d=" M 204.6 362.5 A 2.1 2.1 0 1 0 204.5999989500001 362.50209999965"/><path fill="#000000" stroke="none" paint-order="stroke fill markers" d=" M 244.6 362.5 A 2.1 2.1 0 1 0 244.5999989500001 362.50209999965"/><path fill="#000000" stroke="none" paint-order="stroke fill markers" d=" M 284.6 362.5 A 2.1 2.1 0 1 0 284.5999989500001 362.50209999965"/><path fill="#000000" stroke="none" paint-order="stroke fill markers" d=" M 324.6 362.5 A 2.1 2.1 0 1 0 324.5999989500001 362.50209999965"/><path fill="#000000" stroke="none" paint-order="stroke fill markers" d=" M 364.6 362.5 A 2.1 2.1 0 1 0 364.5999989500001 362.50209999965"/><path fill="#000000" stroke="none" paint-order="stroke fill markers" d=" M 404.6 362.5 A 2.1 2.1 0 1 0 404.5999989500001 362.50209999965"/><path fill="#000000" stroke="none" paint-order="stroke fill markers" d=" M 44.6 402.5 A 2.1 2.1 0 1 0 44.599998950000085 402.50209999965"/><path fill="#000000" stroke="none" paint-order="stroke fill markers" d=" M 4.6 402.5 A 2.1 2.1 0 1 0 4.599998950000088 402.50209999965"/><path fill="#000000" stroke="none" paint-order="stroke fill markers" d=" M 84.6 402.5 A 2.1 2.1 0 1 0 84.59999895000009 402.50209999965"/><path fill="#000000" stroke="none" paint-order="stroke fill markers" d=" M 124.6 402.5 A 2.1 2.1 0 1 0 124.59999895000009 402.50209999965"/><path fill="#000000" stroke="none" paint-order="stroke fill markers" d=" M 164.6 402.5 A 2.1 2.1 0 1 0 164.5999989500001 402.50209999965"/><path fill="#000000" stroke="none" paint-order="stroke fill markers" d=" M 204.6 402.5 A 2.1 2.1 0 1 0 204.5999989500001 402.50209999965"/><path fill="#000000" stroke="none" paint-order="stroke fill markers" d=" M 244.6 402.5 A 2.1 2.1 0 1 0 244.5999989500001 402.50209999965"/><path fill="#000000" stroke="none" paint-order="stroke fill markers" d=" M 284.6 402.5 A 2.1 2.1 0 1 0 284.5999989500001 402.50209999965"/><path fill="#000000" stroke="none" paint-order="stroke fill markers" d=" M 324.6 402.5 A 2.1 2.1 0 1 0 324.5999989500001 402.50209999965"/><path fill="#000000" stroke="none" paint-order="stroke fill markers" d=" M 364.6 402.5 A 2.1 2.1 0 1 0 364.5999989500001 402.50209999965"/><path fill="#000000" stroke="none" paint-order="stroke fill markers" d=" M 404.6 402.5 A 2.1 2.1 0 1 0 404.5999989500001 402.50209999965"/><text fill="none" stroke="rgb(255,255,255)" font-family="Helvetica,Arial" font-size="28px" font-style="normal" font-weight="normal" text-decoration="normal" x="142.5" y="32.74" text-anchor="middle" dominant-baseline="alphabetic" stroke-opacity="0" stroke-miterlimit="10">0</text><text fill="#000000" stroke="none" font-family="Helvetica,Arial" font-size="28px" font-style="normal" font-weight="normal" text-decoration="normal" x="142.5" y="32.74" text-anchor="middle" dominant-baseline="alphabetic">0</text><text fill="none" stroke="rgb(255,255,255)" font-family="Helvetica,Arial" font-size="28px" font-style="normal" font-weight="normal" text-decoration="normal" x="22.5" y="112.74000000000001" text-anchor="middle" dominant-baseline="alphabetic" stroke-opacity="0" stroke-miterlimit="10">3</text><text fill="#000000" stroke="none" font-family="Helvetica,Arial" font-size="28px" font-style="normal" font-weight="normal" text-decoration="normal" x="22.5" y="112.74000000000001" text-anchor="middle" dominant-baseline="alphabetic">3</text><text fill="none" stroke="rgb(255,255,255)" font-family="Helvetica,Arial" font-size="28px" font-style="normal" font-weight="normal" text-decoration="normal" x="62.5" y="152.74" text-anchor="middle" dominant-baseline="alphabetic" stroke-opacity="0" stroke-miterlimit="10">3</text><text fill="#000000" stroke="none" font-family="Helvetica,Arial" font-size="28px" font-style="normal" font-weight="normal" text-decoration="normal" x="62.5" y="152.74" text-anchor="middle" dominant-baseline="alphabetic">3</text><text fill="none" stroke="rgb(255,255,255)" font-family="Helvetica,Arial" font-size="28px" font-style="normal" font-weight="normal" text-decoration="normal" x="182.5" y="152.74" text-anchor="middle" dominant-baseline="alphabetic" stroke-opacity="0" stroke-miterlimit="10">0</text><text fill="#000000" stroke="none" font-family="Helvetica,Arial" font-size="28px" font-style="normal" font-weight="normal" text-decoration="normal" x="182.5" y="152.74" text-anchor="middle" dominant-baseline="alphabetic">0</text><text fill="none" stroke="rgb(255,255,255)" font-family="Helvetica,Arial" font-size="28px" font-style="normal" font-weight="normal" text-decoration="normal" x="302.5" y="152.74" text-anchor="middle" dominant-baseline="alphabetic" stroke-opacity="0" stroke-miterlimit="10">0</text><text fill="#000000" stroke="none" font-family="Helvetica,Arial" font-size="28px" font-style="normal" font-weight="normal" text-decoration="normal" x="302.5" y="152.74" text-anchor="middle" dominant-baseline="alphabetic">0</text><text fill="none" stroke="rgb(255,255,255)" font-family="Helvetica,Arial" font-size="28px" font-style="normal" font-weight="normal" text-decoration="normal" x="382.5" y="152.74" text-anchor="middle" dominant-baseline="alphabetic" stroke-opacity="0" stroke-miterlimit="10">3</text><text fill="#000000" stroke="none" font-family="Helvetica,Arial" font-size="28px" font-style="normal" font-weight="normal" text-decoration="normal" x="382.5" y="152.74" text-anchor="middle" dominant-baseline="alphabetic">3</text><text fill="none" stroke="rgb(255,255,255)" font-family="Helvetica,Arial" font-size="28px" font-style="normal" font-weight="normal" text-decoration="normal" x="22.5" y="232.74" text-anchor="middle" dominant-baseline="alphabetic" stroke-opacity="0" stroke-miterlimit="10">3</text><text fill="#000000" stroke="none" font-family="Helvetica,Arial" font-size="28px" font-style="normal" font-weight="normal" text-decoration="normal" x="22.5" y="232.74" text-anchor="middle" dominant-baseline="alphabetic">3</text><text fill="none" stroke="rgb(255,255,255)" font-family="Helvetica,Arial" font-size="28px" font-style="normal" font-weight="normal" text-decoration="normal" x="262.5" y="232.74" text-anchor="middle" dominant-baseline="alphabetic" stroke-opacity="0" stroke-miterlimit="10">0</text><text fill="#000000" stroke="none" font-family="Helvetica,Arial" font-size="28px" font-style="normal" font-weight="normal" text-decoration="normal" x="262.5" y="232.74" text-anchor="middle" dominant-baseline="alphabetic">0</text><text fill="none" stroke="rgb(255,255,255)" font-family="Helvetica,Arial" font-size="28px" font-style="normal" font-weight="normal" text-decoration="normal" x="142.5" y="272.73999999999995" text-anchor="middle" dominant-baseline="alphabetic" stroke-opacity="0" stroke-miterlimit="10">3</text><text fill="#000000" stroke="none" font-family="Helvetica,Arial" font-size="28px" font-style="normal" font-weight="normal" text-decoration="normal" x="142.5" y="272.73999999999995" text-anchor="middle" dominant-baseline="alphabetic">3</text><text fill="none" stroke="rgb(255,255,255)" font-family="Helvetica,Arial" font-size="28px" font-style="normal" font-weight="normal" text-decoration="normal" x="302.5" y="272.73999999999995" text-anchor="middle" dominant-baseline="alphabetic" stroke-opacity="0" stroke-miterlimit="10">0</text><text fill="#000000" stroke="none" font-family="Helvetica,Arial" font-size="28px" font-style="normal" font-weight="normal" text-decoration="normal" x="302.5" y="272.73999999999995" text-anchor="middle" dominant-baseline="alphabetic">0</text><text fill="none" stroke="rgb(255,255,255)" font-family="Helvetica,Arial" font-size="28px" font-style="normal" font-weight="normal" text-decoration="normal" x="342.5" y="272.73999999999995" text-anchor="middle" dominant-baseline="alphabetic" stroke-opacity="0" stroke-miterlimit="10">3</text><text fill="#000000" stroke="none" font-family="Helvetica,Arial" font-size="28px" font-style="normal" font-weight="normal" text-decoration="normal" x="342.5" y="272.73999999999995" text-anchor="middle" dominant-baseline="alphabetic">3</text><text fill="none" stroke="rgb(255,255,255)" font-family="Helvetica,Arial" font-size="28px" font-style="normal" font-weight="normal" text-decoration="normal" x="22.5" y="312.73999999999995" text-anchor="middle" dominant-baseline="alphabetic" stroke-opacity="0" stroke-miterlimit="10">0</text><text fill="#000000" stroke="none" font-family="Helvetica,Arial" font-size="28px" font-style="normal" font-weight="normal" text-decoration="normal" x="22.5" y="312.73999999999995" text-anchor="middle" dominant-baseline="alphabetic">0</text><text fill="none" stroke="rgb(255,255,255)" font-family="Helvetica,Arial" font-size="28px" font-style="normal" font-weight="normal" text-decoration="normal" x="182.5" y="392.73999999999995" text-anchor="middle" dominant-baseline="alphabetic" stroke-opacity="0" stroke-miterlimit="10">0</text><text fill="#000000" stroke="none" font-family="Helvetica,Arial" font-size="28px" font-style="normal" font-weight="normal" text-decoration="normal" x="182.5" y="392.73999999999995" text-anchor="middle" dominant-baseline="alphabetic">0</text></g></svg>