<svg version="1.1" xmlns="http://www.w3.org/2000/svg" xmlns:xlink="http://www.w3.org/1999/xlink" width="364.8" height="364.8"><defs/><g><rect fill="rgb(255,255,255)" stroke="none" x="0" y="0" width="364.8" height="364.8" fill-opacity="0"/><path fill="#000000" stroke="none" paint-order="stroke fill markers" d=" M 4.6 2.5 A 2.1 2.1 0 1 0 4.599998950000088 2.502099999650001"/><path fill="#000000" stroke="none" paint-order="stroke fill markers" d=" M 64.6 2.5 A 2.1 2.1 0 1 0 64.59999895000009 2.502099999650001"/><path fill="#000000" stroke="none" paint-order="stroke fill markers" d=" M 64.6 62.5 A 2.1 2.1 0 1 0 64.59999895000009 62.50209999965"/><path fill="#000000" stroke="none" paint-order="stroke fill markers" d=" M 4.6 62.5 A 2.1 2.1 0 1 0 4.599998950000088 62.50209999965"/><path fill="#000000" stroke="none" paint-order="stroke fill markers" d=" M 124.6 2.5 A 2.1 2.1 0 1 0 124.59999895000009 2.502099999650001"/><path fill="#000000" stroke="none" paint-order="stroke fill markers" d=" M 124.6 62.5 A 2.1 2.1 0 1 0 124.59999895000009 62.50209999965"/><path fill="#000000" stroke="none" paint-order="stroke fill markers" d=" M 184.6 2.5 A 2.1 2.1 0 1 0 184.5999989500001 2.502099999650001"/><path fill="#000000" stroke="none" paint-order="stroke fill markers" d=" M 184.6 62.5 A 2.1 2.1 0 1 0 184.5999989500001 62.50209999965"/><path fill="#000000" stroke="none" paint-order="stroke fill markers" d=" M 244.6 2.5 A 2.1 2.1 0 1 0 244.5999989500001 2.502099999650001"/><path fill="#000000" stroke="none" paint-order="stroke fill markers" d=" M 244.6 62.5 A 2.1 2.1 0 1 0 244.5999989500001 62.50209999965"/><path fill="#000000" stroke="none" paint-order="stroke fill markers" d=" M 304.6 2.5 A 2.1 2.1 0 1 0 304.5999989500001 2.502099999650001"/><path fill="#000000" stroke="none" paint-order="stroke fill markers" d=" M 304.6 62.5 A 2.1 2.1 0 1 0 304.5999989500001 62.50209999965"/><path fill="#000000" stroke="none" paint-order="stroke fill markers" d=" M 364.6 2.5 A 2.1 2.1 0 1 0 364.5999989500001 2.502099999650001"/><path fill="#000000" stroke="none" paint-order="stroke fill markers" d=" M 364.6 62.5 A 2.1 2.1 0 1 0 364.5999989500001 62.50209999965"/><path fill="#000000" stroke="none" paint-order="stroke fill markers" d=" M 64.6 122.5 A 2.1 2.1 0 1 0 64.59999895000009 122.50209999965"/><path fill="#000000" stroke="none" paint-order="stroke fill markers" d=" M 4.6 122.5 A 2.1 2.1 0 1 0 4.599998950000088 122.50209999965"/><path fill="#000000" stroke="none" paint-order="stroke fill markers" d=" M 124.6 122.5 A 2.1 2.1 0 1 0 124.59999895000009 122.50209999965"/><path fill="#000000" stroke="none" paint-order="stroke fill markers" d=" M 184.6 122.5 A 2.1 2.1 0 1 0 184.5999989500001 122.50209999965"/><path fill="#000000" stroke="none" paint-order="stroke fill markers" d=" M 244.6 122.5 A 2.1 2.1 0 1 0 244.5999989500001 122.50209999965"/><path fill="#000000" stroke="none" paint-order="stroke fill markers" d=" M 304.6 122.5 A 2.1 2.1 0 1 0 304.5999989500001 122.50209999965"/><path fill="#000000" stroke="none" paint-order="stroke fill markers" d=" M 364.6 122.5 A 2.1 2.1 0 1 0 364.5999989500001 122.50209999965"/><path fill="#000000" stroke="none" paint-order="stroke fill markers" d=" M 64.6 182.5 A 2.1 2.1 0 1 0 64.59999895000009 182.50209999965"/><path fill="#000000" stroke="none" paint-order="stroke fill markers" d=" M 4.6 182.5 A 2.1 2.1 0 1 0 4.599998950000088 182.50209999965"/><path fill="#000000" stroke="none" paint-order="stroke fill markers" d=" M 124.6 182.5 A 2.1 2.1 0 1 0 124.59999895000009 182.50209999965"/><path fill="#000000" stroke="none" paint-order="stroke fill markers" d=" M 184.6 182.5 A 2.1 2.1 0 1 0 184.5999989500001 182.50209999965"/><path fill="#000000" stroke="none" paint-order="stroke fill markers" d=" M 244.6 182.5 A 2.1 2.1 0 1 0 244.5999989500001 182.50209999965"/><path fill="#000000" stroke="none" paint-order="stroke fill markers" d=" M 304.6 182.5 A 2.1 2.1 0 1 0 304.5999989500001 182.50209999965"/><path fill="#000000" stroke="none" paint-order="stroke fill markers" d=" M 364.6 182.5 A 2.1 2.1 0 1 0 364.5999989500001 182.50209999965"/><path fill="#000000" stroke="none" paint-order="stroke fill markers" d=" M 64.6 242.5 A 2.1 2.1 0 1 0 64.59999895000009 242.50209999965"/><path fill="#000000" stroke="none" paint-order="stroke fill markers" d=" M 4.6 242.5 A 2.1 2.1 0 1 0 4.599998950000088 242.50209999965"/><path fill="#000000" stroke="none" paint-order="stroke fill markers" d=" M 124.6 242.5 A 2.1 2.1 0 1 0 124.59999895000009 242.50209999965"/><path fill="#000000" stroke="none" paint-order="stroke fill markers" d=" M 184.6 242.5 A 2.1 2.1 0 1 0 184.5999989500001 242.50209999965"/><path fill="#000000" stroke="none" paint-order="stroke fill markers" d=" M 244.6 242.5 A 2.1 2.1 0 1 0 244.5999989500001 242.50209999965"/><path fill="#000000" stroke="none" paint-order="stroke fill markers" d=" M 304.6 242.5 A 2.1 2.1 0 1 0 304.5999989500001 242.50209999965"/><path fill="#000000" stroke="none" paint-order="stroke fill markers" d=" M 364.6 242.5 A 2.1 2.1 0 1 0 364.5999989500001 242.50209999965"/><path fill="#000000" stroke="none" paint-order="stroke fill markers" d=" M 64.6 302.5 A 2.1 2.1 0 1 0 64.59999895000009 302.50209999965"/><path fill="#000000" stroke="none" paint-order="stroke fill markers" d=" M 4.6 302.5 A 2.1 2.1 0 1 0 4.599998950000088 302.50209999965"/><path fill="#000000" stroke="none" paint-order="stroke fill markers" d=" M 124.6 302.5 A 2.1 2.1 0 1 0 124.59999895000009 302.50209999965"/><path fill="#000000" stroke="none" paint-order="stroke fill markers" d=" M 184.6 302.5 A 2.1 2.1 0 1 0 184.5999989500001 302.50209999965"/><path fill="#000000" stroke="none" paint-order="stroke fill markers" d=" M 244.6 302.5 A 2.1 2.1 0 1 0 244.5999989500001 302.50209999965"/><path fill="#000000" stroke="none" paint-order="stroke fill markers" d=" M 304.6 302.5 A 2.1 2.1 0 1 0 304.5999989500001 302.50209999965"/><path fill="#000000" stroke="none" paint-order="stroke fill markers" d=" M 364.6 302.5 A 2.1 2.1 0 1 0 364.5999989500001 302.50209999965"/><path fill="#000000" stroke="none" paint-order="stroke fill markers" d=" M 64.6 362.5 A 2.1 2.1 0 1 0 64.59999895000009 362.50209999965"/><path fill="#000000" stroke="none" paint-order="stroke fill markers" d=" M 4.6 362.5 A 2.1 2.1 0 1 0 4.599998950000088 362.50209999965"/><path fill="#000000" stroke="none" paint-order="stroke fill markers" d=" M 124.6 362.5 A 2.1 2.1 0 1 0 124.59999895000009 362.50209999965"/><path fill="#000000" stroke="none" paint-order="stroke fill markers" d=" M 184.6 362.5 A 2.1 2.1 0 1 0 184.5999989500001 362.50209999965"/><path fill="#000000" stroke="none" paint-order="stroke fill markers" d=" M 244.6 362.5 A 2.1 2.1 0 1 0 244.5999989500001 362.50209999965"/><path fill="#000000" stroke="none" paint-order="stroke fill markers" d=" M 304.6 362.5 A 2.1 2.1 0 1 0 304.5999989500001 362.50209999965"/><path fill="#000000" stroke="none" paint-order="stroke fill markers" d=" M 364.6 362.5 A 2.1 2.1 0 1 0 364.5999989500001 362.50209999965"/><text fill="none" stroke="rgb(255,255,255)" font-family="Helvetica,Arial" font-size="42px" font-style="normal" font-weight="normal" text-decoration="normal" x="152.5" y="47.86" text-anchor="middle" dominant-baseline="alphabetic" stroke-opacity="0" stroke-miterlimit="10">1</text><text fill="#000000" stroke="none" font-family="Helvetica,Arial" font-size="42px" font-style="normal" font-weight="normal" text-decoration="normal" x="152.5" y="47.86" text-anchor="middle" dominant-baseline="alphabetic">1</text><text fill="none" stroke="rgb(255,255,255)" font-family="Helvetica,Arial" font-size="42px" font-style="normal" font-weight="normal" text-decoration="normal" x="272.5" y="47.86" text-anchor="middle" dominant-baseline="alphabetic" stroke-opacity="0" stroke-miterlimit="10">3</text><text fill="#000000" stroke="none" font-family="Helvetica,Arial" font-size="42px" font-style="normal" font-weight="normal" text-decoration="normal" x="272.5" y="47.86" text-anchor="middle" dominant-baseline="alphabetic">3</text><text fill="none" stroke="rgb(255,255,255)" font-family="Helvetica,Arial" font-size="42px" font-style="normal" font-weight="normal" text-decoration="normal" x="32.5" y="107.86" text-anchor="middle" dominant-baseline="alphabetic" stroke-opacity="0" stroke-miterlimit="10">2</text><text fill="#000000" stroke="none" font-family="Helvetica,Arial" font-size="42px" font-style="normal" font-weight="normal" text-decoration="normal" x="32.5" y="107.86" text-anchor="middle" dominant-baseline="alphabetic">2</text><text fill="none" stroke="rgb(255,255,255)" font-family="Helvetica,Arial" font-size="42px" font-style="normal" font-weight="normal" text-decoration="normal" x="92.5" y="107.86" text-anchor="middle" dominant-baseline="alphabetic" stroke-opacity="0" stroke-miterlimit="10">0</text><text fill="#000000" stroke="none" font-family="Helvetica,Arial" font-size="42px" font-style="normal" font-weight="normal" text-decoration="normal" x="92.5" y="107.86" text-anchor="middle" dominant-baseline="alphabetic">0</text><text fill="none" stroke="rgb(255,255,255)" font-family="Helvetica,Arial" font-size="42px" font-style="normal" font-weight="normal" text-decoration="normal" x="272.5" y="107.86" text-anchor="middle" dominant-baseline="alphabetic" stroke-opacity="0" stroke-miterlimit="10">3</text><text fill="#000000" stroke="none" font-family="Helvetica,Arial" font-size="42px" font-style="normal" font-weight="normal" text-decoration="normal" x="272.5" y="107.86" text-anchor="middle" dominant-baseline="alphabetic">3</text><text fill="none" stroke="rgb(255,255,255)" font-family="Helvetica,Arial" font-size="42px" font-style="normal" font-weight="normal" text-decoration="normal" x="332.5" y="167.85999999999999" text-anchor="middle" dominant-baseline="alphabetic" stroke-opacity="0" stroke-miterlimit="10">1</text><text fill="#000000" stroke="none" font-family="Helvetica,Arial" font-size="42px" font-style="normal" font-weight="normal" text-decoration="normal" x="332.5" y="167.85999999999999" text-anchor="middle" dominant-baseline="alphabetic">1</text><text fill="none" stroke="rgb(255,255,255)" font-family="Helvetica,Arial" font-size="42px" font-style="normal" font-weight="normal" text-decoration="normal" x="32.5" y="227.85999999999999" text-anchor="middle" dominant-baseline="alphabetic" stroke-opacity="0" stroke-miterlimit="10">3</text><text fill="#000000" stroke="none" font-family="Helvetica,Arial" font-size="42px" font-style="normal" font-weight="normal" text-decoration="normal" x="32.5" y="227.85999999999999" text-anchor="middle" dominant-baseline="alphabetic">3</text><text fill="none" stroke="rgb(255,255,255)" font-family="Helvetica,Arial" font-size="42px" font-style="normal" font-weight="normal" text-decoration="normal" x="92.5" y="287.86" text-anchor="middle" dominant-baseline="alphabetic" stroke-opacity="0" stroke-miterlimit="10">3</text><text fill="#000000" stroke="none" font-family="Helvetica,Arial" font-size="42px" font-style="normal" font-weight="normal" text-decoration="normal" x="92.5" y="287.86" text-anchor="middle" dominant-baseline="alphabetic">3</text><text fill="none" stroke="rgb(255,255,255)" font-family="Helvetica,Arial" font-size="42px" font-style="normal" font-weight="normal" text-decoration="normal" x="272.5" y="287.86" text-anchor="middle" dominant-baseline="alphabetic" stroke-opacity="0" stroke-miterlimit="10">1</text><text fill="#000000" stroke="none" font-family="Helvetica,Arial" font-size="42px" font-style="normal" font-weight="normal" text-decoration="normal" x="272.5" y="287.86" text-anchor="middle" dominant-baseline="alphabetic">1</text><text fill="none" stroke="rgb(255,255,255)" font-family="Helvetica,Arial" font-size="42px" font-style="normal" font-weight="normal" text-decoration="normal" x="332.5" y="287.86" text-anchor="middle" dominant-baseline="alphabetic" stroke-opacity="0" stroke-miterlimit="10">1</text><text fill="#000000" stroke="none" font-family="Helvetica,Arial" font-size="42px" font-style="normal" font-weight="normal" text-decoration="normal" x="332.5" y="287.86" text-anchor="middle" dominant-baseline="alphabetic">1</text><text fill="none" stroke="rgb(255,255,255)" font-family="Helvetica,Arial" font-size="42px" font-style="normal" font-weight="normal" text-decoration="normal" x="92.5" y="347.86" text-anchor="middle" dominant-baseline="alphabetic" stroke-opacity="0" stroke-miterlimit="10">2</text><text fill="#000000" stroke="none" font-family="Helvetica,Arial" font-size="42px" font-style="normal" font-weight="normal" text-decoration="normal" x="92.5" y="347.86" text-anchor="middle" dominant-baseline="alphabetic">2</text><text fill="none" stroke="rgb(255,255,255)" font-family="Helvetica,Arial" font-size="42px" font-style="normal" font-weight="normal" text-decoration="normal" x="212.5" y="347.86" text-anchor="middle" dominant-baseline="alphabetic" stroke-opacity="0" stroke-miterlimit="10">3</text><text fill="#000000" stroke="none" font-family="Helvetica,Arial" font-size="42px" font-style="normal" font-weight="normal" text-decoration="normal" x="212.5" y="347.86" text-anchor="middle" dominant-baseline="alphabetic">3</text></g></svg>