<svg version="1.1" xmlns="http://www.w3.org/2000/svg" xmlns:xlink="http://www.w3.org/1999/xlink" width="403.2" height="538"><defs/><g><rect fill="rgb(255,255,255)" stroke="none" x="0" y="0" width="403.2" height="538" fill-opacity="0"/><path fill="none" stroke="#000000" paint-order="fill stroke markers" d=" M 1.5 1.5 L 51.5 1.5" stroke-linecap="round" stroke-miterlimit="10" stroke-width="3"/><path fill="none" stroke="#000000" paint-order="fill stroke markers" d=" M 1.5 1.5 L 1.5 51.5" stroke-linecap="round" stroke-miterlimit="10" stroke-width="3"/><path fill="none" stroke="#000000" paint-order="fill stroke markers" d=" M 51.5 1.5 L 101.5 1.5" stroke-linecap="round" stroke-miterlimit="10" stroke-width="3"/><path fill="none" stroke="#000000" paint-order="fill stroke markers" d=" M 101.5 1.5 L 151.5 1.5" stroke-linecap="round" stroke-miterlimit="10" stroke-width="3"/><path fill="none" stroke="#000000" paint-order="fill stroke markers" d=" M 151.5 1.5 L 201.5 1.5" stroke-linecap="round" stroke-miterlimit="10" stroke-width="3"/><path fill="none" stroke="#000000" paint-order="fill stroke markers" d=" M 201.5 1.5 L 251.5 1.5" stroke-linecap="round" stroke-miterlimit="10" stroke-width="3"/><path fill="none" stroke="#000000" paint-order="fill stroke markers" d=" M 251.5 1.5 L 301.5 1.5" stroke-linecap="round" stroke-miterlimit="10" stroke-width="3"/><path fill="none" stroke="#000000" paint-order="fill stroke markers" d=" M 301.5 1.5 L 351.5 1.5" stroke-linecap="round" stroke-miterlimit="10" stroke-width="3"/><path fill="none" stroke="#000000" paint-order="fill stroke markers" d=" M 351.5 1.5 L 401.5 1.5" stroke-linecap="round" stroke-miterlimit="10" stroke-width="3"/><path fill="none" stroke="#000000" paint-order="fill stroke markers" d=" M 401.5 1.5 L 401.5 51.5" stroke-linecap="round" stroke-miterlimit="10" stroke-width="3"/><path fill="none" stroke="#000000" paint-order="fill stroke markers" d=" M 1.5 51.5 L 1.5 101.5" stroke-linecap="round" stroke-miterlimit="10" stroke-width="3"/><path fill="none" stroke="#000000" paint-order="fill stroke markers" d=" M 401.5 51.5 L 401.5 101.5" stroke-linecap="round" stroke-miterlimit="10" stroke-width="3"/><path fill="none" stroke="#000000" paint-order="fill stroke markers" d=" M 1.5 101.5 L 1.5 151.5" stroke-linecap="round" stroke-miterlimit="10" stroke-width="3"/><path fill="none" stroke="#000000" paint-order="fill stroke markers" d=" M 401.5 101.5 L 401.5 151.5" stroke-linecap="round" stroke-miterlimit="10" stroke-width="3"/><path fill="none" stroke="#000000" paint-order="fill stroke markers" d=" M 1.5 151.5 L 1.5 201.5" stroke-linecap="round" stroke-miterlimit="10" stroke-width="3"/><path fill="none" stroke="#000000" paint-order="fill stroke markers" d=" M 401.5 151.5 L 401.5 201.5" stroke-linecap="round" stroke-miterlimit="10" stroke-width="3"/><path fill="none" stroke="#000000" paint-order="fill stroke markers" d=" M 1.5 201.5 L 1.5 251.5" stroke-linecap="round" stroke-miterlimit="10" stroke-width="3"/><path fill="none" stroke="#000000" paint-order="fill stroke markers" d=" M 401.5 201.5 L 401.5 251.5" stroke-linecap="round" stroke-miterlimit="10" stroke-width="3"/><path fill="none" stroke="#000000" paint-order="fill stroke markers" d=" M 1.5 251.5 L 1.5 301.5" stroke-linecap="round" stroke-miterlimit="10" stroke-width="3"/><path fill="none" stroke="#000000" paint-order="fill stroke markers" d=" M 401.5 251.5 L 401.5 301.5" stroke-linecap="round" stroke-miterlimit="10" stroke-width="3"/><path fill="none" stroke="#000000" paint-order="fill stroke markers" d=" M 1.5 301.5 L 1.5 351.5" stroke-linecap="round" stroke-miterlimit="10" stroke-width="3"/><path fill="none" stroke="#000000" paint-order="fill stroke markers" d=" M 401.5 301.5 L 401.5 351.5" stroke-linecap="round" stroke-miterlimit="10" stroke-width="3"/><path fill="none" stroke="#000000" paint-order="fill stroke markers" d=" M 1.5 401.5 L 51.5 401.5" stroke-linecap="round" stroke-miterlimit="10" stroke-width="3"/><path fill="none" stroke="#000000" paint-order="fill stroke markers" d=" M 1.5 351.5 L 1.5 401.5" stroke-linecap="round" stroke-miterlimit="10" stroke-width="3"/><path fill="none" stroke="#000000" paint-order="fill stroke markers" d=" M 51.5 401.5 L 101.5 401.5" stroke-linecap="round" stroke-miterlimit="10" stroke-width="3"/><path fill="none" stroke="#000000" paint-order="fill stroke markers" d=" M 101.5 401.5 L 151.5 401.5" stroke-linecap="round" stroke-miterlimit="10" stroke-width="3"/><path fill="none" stroke="#000000" paint-order="fill stroke markers" d=" M 151.5 401.5 L 201.5 401.5" stroke-linecap="round" stroke-miterlimit="10" stroke-width="3"/><path fill="none" stroke="#000000" paint-order="fill stroke markers" d=" M 201.5 401.5 L 251.5 401.5" stroke-linecap="round" stroke-miterlimit="10" stroke-width="3"/><path fill="none" stroke="#000000" paint-order="fill stroke markers" d=" M 251.5 401.5 L 301.5 401.5" stroke-linecap="round" stroke-miterlimit="10" stroke-width="3"/><path fill="none" stroke="#000000" paint-order="fill stroke markers" d=" M 301.5 401.5 L 351.5 401.5" stroke-linecap="round" stroke-miterlimit="10" stroke-width="3"/><path fill="none" stroke="#000000" paint-order="fill stroke markers" d=" M 401.5 351.5 L 401.5 401.5" stroke-linecap="round" stroke-miterlimit="10" stroke-width="3"/><path fill="none" stroke="#000000" paint-order="fill stroke markers" d=" M 351.5 401.5 L 401.5 401.5" stroke-linecap="round" stroke-miterlimit="10" stroke-width="3"/><path fill="#000000" stroke="#000000" paint-order="fill stroke markers" d=" M 44 76.5 A 17.5 17.5 0 1 1 43.99999125000073 76.48250000291665" stroke-miterlimit="10"/><path fill="#000000" stroke="#000000" paint-order="fill stroke markers" d=" M 144 76.5 A 17.5 17.5 0 1 1 143.99999125000073 76.48250000291665" stroke-miterlimit="10"/><path fill="#000000" stroke="#000000" paint-order="fill stroke markers" d=" M 244 76.5 A 17.5 17.5 0 1 1 243.99999125000073 76.48250000291665" stroke-miterlimit="10"/><path fill="#000000" stroke="#000000" paint-order="fill stroke markers" d=" M 94 126.5 A 17.5 17.5 0 1 1 93.99999125000073 126.48250000291665" stroke-miterlimit="10"/><path fill="#000000" stroke="#000000" paint-order="fill stroke markers" d=" M 194 126.5 A 17.5 17.5 0 1 1 193.99999125000073 126.48250000291665" stroke-miterlimit="10"/><path fill="#000000" stroke="#000000" paint-order="fill stroke markers" d=" M 294 126.5 A 17.5 17.5 0 1 1 293.99999125000073 126.48250000291665" stroke-miterlimit="10"/><path fill="#000000" stroke="#000000" paint-order="fill stroke markers" d=" M 44 326.5 A 17.5 17.5 0 1 1 43.99999125000073 326.48250000291665" stroke-miterlimit="10"/><path fill="#000000" stroke="#000000" paint-order="fill stroke markers" d=" M 144 376.5 A 17.5 17.5 0 1 1 143.99999125000073 376.48250000291665" stroke-miterlimit="10"/><path fill="#000000" stroke="#000000" paint-order="fill stroke markers" d=" M 244 376.5 A 17.5 17.5 0 1 1 243.99999125000073 376.48250000291665" stroke-miterlimit="10"/><path fill="#000000" stroke="#000000" paint-order="fill stroke markers" d=" M 394 376.5 A 17.5 17.5 0 1 1 393.99999125000073 376.48250000291665" stroke-miterlimit="10"/><path fill="#000000" stroke="#000000" paint-order="fill stroke markers" d=" M 15.499999999999998 465.5 L 37.5 465.5 L 37.5 487.5 L 15.500000000000004 487.5 Z" stroke-miterlimit="10"/><path fill="#000000" stroke="#000000" paint-order="fill stroke markers" d=" M 65.5 465.5 L 87.5 465.5 L 87.5 487.5 L 65.5 487.5 Z" stroke-miterlimit="10"/><path fill="#000000" stroke="#000000" paint-order="fill stroke markers" d=" M 15.499999999999998 515.5 L 37.5 515.5 L 37.5 537.5 L 15.500000000000004 537.5 Z" stroke-miterlimit="10"/><path fill="#000000" stroke="#000000" paint-order="fill stroke markers" d=" M 65.5 515.5 L 87.5 515.5 L 87.5 537.5 L 65.5 537.5 Z" stroke-miterlimit="10"/><path fill="#000000" stroke="#000000" paint-order="fill stroke markers" d=" M 165.5 515.5 L 187.5 515.5 L 187.5 537.5 L 165.5 537.5 Z" stroke-miterlimit="10"/><path fill="#000000" stroke="#000000" paint-order="fill stroke markers" d=" M 215.5 515.5 L 237.5 515.5 L 237.5 537.5 L 215.5 537.5 Z" stroke-miterlimit="10"/><path fill="#000000" stroke="#000000" paint-order="fill stroke markers" d=" M 140.5 490.5 L 162.5 490.5 L 162.5 512.5 L 140.5 512.5 Z" stroke-miterlimit="10"/><path fill="#000000" stroke="#000000" paint-order="fill stroke markers" d=" M 240.5 490.5 L 262.5 490.5 L 262.5 512.5 L 240.5 512.5 Z" stroke-miterlimit="10"/><path fill="#000000" stroke="#000000" paint-order="fill stroke markers" d=" M 340.5 490.5 L 362.5 490.5 L 362.5 512.5 L 340.5 512.5 Z" stroke-miterlimit="10"/><path fill="#000000" stroke="#000000" paint-order="fill stroke markers" d=" M 15.499999999999998 440.5 L 37.5 440.5 L 37.5 462.5 L 15.500000000000004 462.5 Z" stroke-miterlimit="10"/><path fill="#000000" stroke="#000000" paint-order="fill stroke markers" d=" M 15.499999999999998 490.5 L 37.5 490.5 L 37.5 512.5 L 15.500000000000004 512.5 Z" stroke-miterlimit="10"/><path fill="#000000" stroke="#000000" paint-order="fill stroke markers" d=" M 65.5 490.5 L 87.5 490.5 L 87.5 512.5 L 65.5 512.5 Z" stroke-miterlimit="10"/><path fill="#000000" stroke="#000000" paint-order="fill stroke markers" d=" M 165.5 490.5 L 187.5 490.5 L 187.5 512.5 L 165.5 512.5 Z" stroke-miterlimit="10"/><path fill="#000000" stroke="#000000" paint-order="fill stroke markers" d=" M 265.5 490.5 L 287.5 490.5 L 287.5 512.5 L 265.5 512.5 Z" stroke-miterlimit="10"/><path fill="#000000" stroke="#000000" paint-order="fill stroke markers" d=" M 315.5 490.5 L 337.5 490.5 L 337.5 512.5 L 315.5 512.5 Z" stroke-miterlimit="10"/><path fill="#000000" stroke="#000000" paint-order="fill stroke markers" d=" M 365.5 490.5 L 387.5 490.5 L 387.5 512.5 L 365.5 512.5 Z" stroke-miterlimit="10"/><path fill="#000000" stroke="#000000" paint-order="fill stroke markers" d=" M 90.5 515.5 L 112.5 515.5 L 112.5 537.5 L 90.5 537.5 Z" stroke-miterlimit="10"/><path fill="#000000" stroke="#000000" paint-order="fill stroke markers" d=" M 140.5 515.5 L 162.5 515.5 L 162.5 537.5 L 140.5 537.5 Z" stroke-miterlimit="10"/><path fill="#000000" stroke="#000000" paint-order="fill stroke markers" d=" M 240.5 515.5 L 262.5 515.5 L 262.5 537.5 L 240.5 537.5 Z" stroke-miterlimit="10"/><path fill="#000000" stroke="#000000" paint-order="fill stroke markers" d=" M 340.5 515.5 L 362.5 515.5 L 362.5 537.5 L 340.5 537.5 Z" stroke-miterlimit="10"/><path fill="none" stroke="#000000" paint-order="fill stroke markers" d=" M 1.5 1.5 L 51.5 1.5" stroke-linecap="round" stroke-miterlimit="10" stroke-width="3"/><path fill="none" stroke="#000000" paint-order="fill stroke markers" d=" M 51.5 1.5 L 51.5 51.5" stroke-linecap="square" stroke-miterlimit="10" stroke-width="0.8"/><path fill="none" stroke="#000000" paint-order="fill stroke markers" d=" M 1.5 51.5 L 51.5 51.5" stroke-linecap="square" stroke-miterlimit="10" stroke-width="0.8"/><path fill="none" stroke="#000000" paint-order="fill stroke markers" d=" M 1.5 1.5 L 1.5 51.5" stroke-linecap="round" stroke-miterlimit="10" stroke-width="3"/><path fill="none" stroke="#000000" paint-order="fill stroke markers" d=" M 51.5 1.5 L 101.5 1.5" stroke-linecap="round" stroke-miterlimit="10" stroke-width="3"/><path fill="none" stroke="#000000" paint-order="fill stroke markers" d=" M 101.5 1.5 L 101.5 51.5" stroke-linecap="square" stroke-miterlimit="10" stroke-width="0.8"/><path fill="none" stroke="#000000" paint-order="fill stroke markers" d=" M 51.5 51.5 L 101.5 51.5" stroke-linecap="square" stroke-miterlimit="10" stroke-width="0.8"/><path fill="none" stroke="#000000" paint-order="fill stroke markers" d=" M 101.5 1.5 L 151.5 1.5" stroke-linecap="round" stroke-miterlimit="10" stroke-width="3"/><path fill="none" stroke="#000000" paint-order="fill stroke markers" d=" M 151.5 1.5 L 151.5 51.5" stroke-linecap="square" stroke-miterlimit="10" stroke-width="0.8"/><path fill="none" stroke="#000000" paint-order="fill stroke markers" d=" M 101.5 51.5 L 151.5 51.5" stroke-linecap="square" stroke-miterlimit="10" stroke-width="0.8"/><path fill="none" stroke="#000000" paint-order="fill stroke markers" d=" M 151.5 1.5 L 201.5 1.5" stroke-linecap="round" stroke-miterlimit="10" stroke-width="3"/><path fill="none" stroke="#000000" paint-order="fill stroke markers" d=" M 201.5 1.5 L 201.5 51.5" stroke-linecap="square" stroke-miterlimit="10" stroke-width="0.8"/><path fill="none" stroke="#000000" paint-order="fill stroke markers" d=" M 151.5 51.5 L 201.5 51.5" stroke-linecap="square" stroke-miterlimit="10" stroke-width="0.8"/><path fill="none" stroke="#000000" paint-order="fill stroke markers" d=" M 201.5 1.5 L 251.5 1.5" stroke-linecap="round" stroke-miterlimit="10" stroke-width="3"/><path fill="none" stroke="#000000" paint-order="fill stroke markers" d=" M 251.5 1.5 L 251.5 51.5" stroke-linecap="square" stroke-miterlimit="10" stroke-width="0.8"/><path fill="none" stroke="#000000" paint-order="fill stroke markers" d=" M 201.5 51.5 L 251.5 51.5" stroke-linecap="square" stroke-miterlimit="10" stroke-width="0.8"/><path fill="none" stroke="#000000" paint-order="fill stroke markers" d=" M 251.5 1.5 L 301.5 1.5" stroke-linecap="round" stroke-miterlimit="10" stroke-width="3"/><path fill="none" stroke="#000000" paint-order="fill stroke markers" d=" M 301.5 1.5 L 301.5 51.5" stroke-linecap="square" stroke-miterlimit="10" stroke-width="0.8"/><path fill="none" stroke="#000000" paint-order="fill stroke markers" d=" M 251.5 51.5 L 301.5 51.5" stroke-linecap="square" stroke-miterlimit="10" stroke-width="0.8"/><path fill="none" stroke="#000000" paint-order="fill stroke markers" d=" M 301.5 1.5 L 351.5 1.5" stroke-linecap="round" stroke-miterlimit="10" stroke-width="3"/><path fill="none" stroke="#000000" paint-order="fill stroke markers" d=" M 351.5 1.5 L 351.5 51.5" stroke-linecap="square" stroke-miterlimit="10" stroke-width="0.8"/><path fill="none" stroke="#000000" paint-order="fill stroke markers" d=" M 301.5 51.5 L 351.5 51.5" stroke-linecap="square" stroke-miterlimit="10" stroke-width="0.8"/><path fill="none" stroke="#000000" paint-order="fill stroke markers" d=" M 351.5 1.5 L 401.5 1.5" stroke-linecap="round" stroke-miterlimit="10" stroke-width="3"/><path fill="none" stroke="#000000" paint-order="fill stroke markers" d=" M 401.5 1.5 L 401.5 51.5" stroke-linecap="round" stroke-miterlimit="10" stroke-width="3"/><path fill="none" stroke="#000000" paint-order="fill stroke markers" d=" M 351.5 51.5 L 401.5 51.5" stroke-linecap="square" stroke-miterlimit="10" stroke-width="0.8"/><path fill="none" stroke="#000000" paint-order="fill stroke markers" d=" M 51.5 51.5 L 51.5 101.5" stroke-linecap="square" stroke-miterlimit="10" stroke-width="0.8"/><path fill="none" stroke="#000000" paint-order="fill stroke markers" d=" M 1.5 101.5 L 51.5 101.5" stroke-linecap="square" stroke-miterlimit="10" stroke-width="0.8"/><path fill="none" stroke="#000000" paint-order="fill stroke markers" d=" M 1.5 51.5 L 1.5 101.5" stroke-linecap="round" stroke-miterlimit="10" stroke-width="3"/><path fill="none" stroke="#000000" paint-order="fill stroke markers" d=" M 101.5 51.5 L 101.5 101.5" stroke-linecap="square" stroke-miterlimit="10" stroke-width="0.8"/><path fill="none" stroke="#000000" paint-order="fill stroke markers" d=" M 51.5 101.5 L 101.5 101.5" stroke-linecap="square" stroke-miterlimit="10" stroke-width="0.8"/><path fill="none" stroke="#000000" paint-order="fill stroke markers" d=" M 151.5 51.5 L 151.5 101.5" stroke-linecap="square" stroke-miterlimit="10" stroke-width="0.8"/><path fill="none" stroke="#000000" paint-order="fill stroke markers" d=" M 101.5 101.5 L 151.5 101.5" stroke-linecap="square" stroke-miterlimit="10" stroke-width="0.8"/><path fill="none" stroke="#000000" paint-order="fill stroke markers" d=" M 201.5 51.5 L 201.5 101.5" stroke-linecap="square" stroke-miterlimit="10" stroke-width="0.8"/><path fill="none" stroke="#000000" paint-order="fill stroke markers" d=" M 151.5 101.5 L 201.5 101.5" stroke-linecap="square" stroke-miterlimit="10" stroke-width="0.8"/><path fill="none" stroke="#000000" paint-order="fill stroke markers" d=" M 251.5 51.5 L 251.5 101.5" stroke-linecap="square" stroke-miterlimit="10" stroke-width="0.8"/><path fill="none" stroke="#000000" paint-order="fill stroke markers" d=" M 201.5 101.5 L 251.5 101.5" stroke-linecap="square" stroke-miterlimit="10" stroke-width="0.8"/><path fill="none" stroke="#000000" paint-order="fill stroke markers" d=" M 301.5 51.5 L 301.5 101.5" stroke-linecap="square" stroke-miterlimit="10" stroke-width="0.8"/><path fill="none" stroke="#000000" paint-order="fill stroke markers" d=" M 251.5 101.5 L 301.5 101.5" stroke-linecap="square" stroke-miterlimit="10" stroke-width="0.8"/><path fill="none" stroke="#000000" paint-order="fill stroke markers" d=" M 351.5 51.5 L 351.5 101.5" stroke-linecap="square" stroke-miterlimit="10" stroke-width="0.8"/><path fill="none" stroke="#000000" paint-order="fill stroke markers" d=" M 301.5 101.5 L 351.5 101.5" stroke-linecap="square" stroke-miterlimit="10" stroke-width="0.8"/><path fill="none" stroke="#000000" paint-order="fill stroke markers" d=" M 401.5 51.5 L 401.5 101.5" stroke-linecap="round" stroke-miterlimit="10" stroke-width="3"/><path fill="none" stroke="#000000" paint-order="fill stroke markers" d=" M 351.5 101.5 L 401.5 101.5" stroke-linecap="square" stroke-miterlimit="10" stroke-width="0.8"/><path fill="none" stroke="#000000" paint-order="fill stroke markers" d=" M 51.5 101.5 L 51.5 151.5" stroke-linecap="square" stroke-miterlimit="10" stroke-width="0.8"/><path fill="none" stroke="#000000" paint-order="fill stroke markers" d=" M 1.5 151.5 L 51.5 151.5" stroke-linecap="square" stroke-miterlimit="10" stroke-width="0.8"/><path fill="none" stroke="#000000" paint-order="fill stroke markers" d=" M 1.5 101.5 L 1.5 151.5" stroke-linecap="round" stroke-miterlimit="10" stroke-width="3"/><path fill="none" stroke="#000000" paint-order="fill stroke markers" d=" M 101.5 101.5 L 101.5 151.5" stroke-linecap="square" stroke-miterlimit="10" stroke-width="0.8"/><path fill="none" stroke="#000000" paint-order="fill stroke markers" d=" M 51.5 151.5 L 101.5 151.5" stroke-linecap="square" stroke-miterlimit="10" stroke-width="0.8"/><path fill="none" stroke="#000000" paint-order="fill stroke markers" d=" M 151.5 101.5 L 151.5 151.5" stroke-linecap="square" stroke-miterlimit="10" stroke-width="0.8"/><path fill="none" stroke="#000000" paint-order="fill stroke markers" d=" M 101.5 151.5 L 151.5 151.5" stroke-linecap="square" stroke-miterlimit="10" stroke-width="0.8"/><path fill="none" stroke="#000000" paint-order="fill stroke markers" d=" M 201.5 101.5 L 201.5 151.5" stroke-linecap="square" stroke-miterlimit="10" stroke-width="0.8"/><path fill="none" stroke="#000000" paint-order="fill stroke markers" d=" M 151.5 151.5 L 201.5 151.5" stroke-linecap="square" stroke-miterlimit="10" stroke-width="0.8"/><path fill="none" stroke="#000000" paint-order="fill stroke markers" d=" M 251.5 101.5 L 251.5 151.5" stroke-linecap="square" stroke-miterlimit="10" stroke-width="0.8"/><path fill="none" stroke="#000000" paint-order="fill stroke markers" d=" M 201.5 151.5 L 251.5 151.5" stroke-linecap="square" stroke-miterlimit="10" stroke-width="0.8"/><path fill="none" stroke="#000000" paint-order="fill stroke markers" d=" M 301.5 101.5 L 301.5 151.5" stroke-linecap="square" stroke-miterlimit="10" stroke-width="0.8"/><path fill="none" stroke="#000000" paint-order="fill stroke markers" d=" M 251.5 151.5 L 301.5 151.5" stroke-linecap="square" stroke-miterlimit="10" stroke-width="0.8"/><path fill="none" stroke="#000000" paint-order="fill stroke markers" d=" M 351.5 101.5 L 351.5 151.5" stroke-linecap="square" stroke-miterlimit="10" stroke-width="0.8"/><path fill="none" stroke="#000000" paint-order="fill stroke markers" d=" M 301.5 151.5 L 351.5 151.5" stroke-linecap="square" stroke-miterlimit="10" stroke-width="0.8"/><path fill="none" stroke="#000000" paint-order="fill stroke markers" d=" M 401.5 101.5 L 401.5 151.5" stroke-linecap="round" stroke-miterlimit="10" stroke-width="3"/><path fill="none" stroke="#000000" paint-order="fill stroke markers" d=" M 351.5 151.5 L 401.5 151.5" stroke-linecap="square" stroke-miterlimit="10" stroke-width="0.8"/><path fill="none" stroke="#000000" paint-order="fill stroke markers" d=" M 51.5 151.5 L 51.5 201.5" stroke-linecap="square" stroke-miterlimit="10" stroke-width="0.8"/><path fill="none" stroke="#000000" paint-order="fill stroke markers" d=" M 1.5 201.5 L 51.5 201.5" stroke-linecap="square" stroke-miterlimit="10" stroke-width="0.8"/><path fill="none" stroke="#000000" paint-order="fill stroke markers" d=" M 1.5 151.5 L 1.5 201.5" stroke-linecap="round" stroke-miterlimit="10" stroke-width="3"/><path fill="none" stroke="#000000" paint-order="fill stroke markers" d=" M 101.5 151.5 L 101.5 201.5" stroke-linecap="square" stroke-miterlimit="10" stroke-width="0.8"/><path fill="none" stroke="#000000" paint-order="fill stroke markers" d=" M 51.5 201.5 L 101.5 201.5" stroke-linecap="square" stroke-miterlimit="10" stroke-width="0.8"/><path fill="none" stroke="#000000" paint-order="fill stroke markers" d=" M 151.5 151.5 L 151.5 201.5" stroke-linecap="square" stroke-miterlimit="10" stroke-width="0.8"/><path fill="none" stroke="#000000" paint-order="fill stroke markers" d=" M 101.5 201.5 L 151.5 201.5" stroke-linecap="square" stroke-miterlimit="10" stroke-width="0.8"/><path fill="none" stroke="#000000" paint-order="fill stroke markers" d=" M 201.5 151.5 L 201.5 201.5" stroke-linecap="square" stroke-miterlimit="10" stroke-width="0.8"/><path fill="none" stroke="#000000" paint-order="fill stroke markers" d=" M 151.5 201.5 L 201.5 201.5" stroke-linecap="square" stroke-miterlimit="10" stroke-width="0.8"/><path fill="none" stroke="#000000" paint-order="fill stroke markers" d=" M 251.5 151.5 L 251.5 201.5" stroke-linecap="square" stroke-miterlimit="10" stroke-width="0.8"/><path fill="none" stroke="#000000" paint-order="fill stroke markers" d=" M 201.5 201.5 L 251.5 201.5" stroke-linecap="square" stroke-miterlimit="10" stroke-width="0.8"/><path fill="none" stroke="#000000" paint-order="fill stroke markers" d=" M 301.5 151.5 L 301.5 201.5" stroke-linecap="square" stroke-miterlimit="10" stroke-width="0.8"/><path fill="none" stroke="#000000" paint-order="fill stroke markers" d=" M 251.5 201.5 L 301.5 201.5" stroke-linecap="square" stroke-miterlimit="10" stroke-width="0.8"/><path fill="none" stroke="#000000" paint-order="fill stroke markers" d=" M 351.5 151.5 L 351.5 201.5" stroke-linecap="square" stroke-miterlimit="10" stroke-width="0.8"/><path fill="none" stroke="#000000" paint-order="fill stroke markers" d=" M 301.5 201.5 L 351.5 201.5" stroke-linecap="square" stroke-miterlimit="10" stroke-width="0.8"/><path fill="none" stroke="#000000" paint-order="fill stroke markers" d=" M 401.5 151.5 L 401.5 201.5" stroke-linecap="round" stroke-miterlimit="10" stroke-width="3"/><path fill="none" stroke="#000000" paint-order="fill stroke markers" d=" M 351.5 201.5 L 401.5 201.5" stroke-linecap="square" stroke-miterlimit="10" stroke-width="0.8"/><path fill="none" stroke="#000000" paint-order="fill stroke markers" d=" M 51.5 201.5 L 51.5 251.5" stroke-linecap="square" stroke-miterlimit="10" stroke-width="0.8"/><path fill="none" stroke="#000000" paint-order="fill stroke markers" d=" M 1.5 251.5 L 51.5 251.5" stroke-linecap="square" stroke-miterlimit="10" stroke-width="0.8"/><path fill="none" stroke="#000000" paint-order="fill stroke markers" d=" M 1.5 201.5 L 1.5 251.5" stroke-linecap="round" stroke-miterlimit="10" stroke-width="3"/><path fill="none" stroke="#000000" paint-order="fill stroke markers" d=" M 101.5 201.5 L 101.5 251.5" stroke-linecap="square" stroke-miterlimit="10" stroke-width="0.8"/><path fill="none" stroke="#000000" paint-order="fill stroke markers" d=" M 51.5 251.5 L 101.5 251.5" stroke-linecap="square" stroke-miterlimit="10" stroke-width="0.8"/><path fill="none" stroke="#000000" paint-order="fill stroke markers" d=" M 151.5 201.5 L 151.5 251.5" stroke-linecap="square" stroke-miterlimit="10" stroke-width="0.8"/><path fill="none" stroke="#000000" paint-order="fill stroke markers" d=" M 101.5 251.5 L 151.5 251.5" stroke-linecap="square" stroke-miterlimit="10" stroke-width="0.8"/><path fill="none" stroke="#000000" paint-order="fill stroke markers" d=" M 201.5 201.5 L 201.5 251.5" stroke-linecap="square" stroke-miterlimit="10" stroke-width="0.8"/><path fill="none" stroke="#000000" paint-order="fill stroke markers" d=" M 151.5 251.5 L 201.5 251.5" stroke-linecap="square" stroke-miterlimit="10" stroke-width="0.8"/><path fill="none" stroke="#000000" paint-order="fill stroke markers" d=" M 251.5 201.5 L 251.5 251.5" stroke-linecap="square" stroke-miterlimit="10" stroke-width="0.8"/><path fill="none" stroke="#000000" paint-order="fill stroke markers" d=" M 201.5 251.5 L 251.5 251.5" stroke-linecap="square" stroke-miterlimit="10" stroke-width="0.8"/><path fill="none" stroke="#000000" paint-order="fill stroke markers" d=" M 301.5 201.5 L 301.5 251.5" stroke-linecap="square" stroke-miterlimit="10" stroke-width="0.8"/><path fill="none" stroke="#000000" paint-order="fill stroke markers" d=" M 251.5 251.5 L 301.5 251.5" stroke-linecap="square" stroke-miterlimit="10" stroke-width="0.8"/><path fill="none" stroke="#000000" paint-order="fill stroke markers" d=" M 351.5 201.5 L 351.5 251.5" stroke-linecap="square" stroke-miterlimit="10" stroke-width="0.8"/><path fill="none" stroke="#000000" paint-order="fill stroke markers" d=" M 301.5 251.5 L 351.5 251.5" stroke-linecap="square" stroke-miterlimit="10" stroke-width="0.8"/><path fill="none" stroke="#000000" paint-order="fill stroke markers" d=" M 401.5 201.5 L 401.5 251.5" stroke-linecap="round" stroke-miterlimit="10" stroke-width="3"/><path fill="none" stroke="#000000" paint-order="fill stroke markers" d=" M 351.5 251.5 L 401.5 251.5" stroke-linecap="square" stroke-miterlimit="10" stroke-width="0.8"/><path fill="none" stroke="#000000" paint-order="fill stroke markers" d=" M 51.5 251.5 L 51.5 301.5" stroke-linecap="square" stroke-miterlimit="10" stroke-width="0.8"/><path fill="none" stroke="#000000" paint-order="fill stroke markers" d=" M 1.5 301.5 L 51.5 301.5" stroke-linecap="square" stroke-miterlimit="10" stroke-width="0.8"/><path fill="none" stroke="#000000" paint-order="fill stroke markers" d=" M 1.5 251.5 L 1.5 301.5" stroke-linecap="round" stroke-miterlimit="10" stroke-width="3"/><path fill="none" stroke="#000000" paint-order="fill stroke markers" d=" M 101.5 251.5 L 101.5 301.5" stroke-linecap="square" stroke-miterlimit="10" stroke-width="0.8"/><path fill="none" stroke="#000000" paint-order="fill stroke markers" d=" M 51.5 301.5 L 101.5 301.5" stroke-linecap="square" stroke-miterlimit="10" stroke-width="0.8"/><path fill="none" stroke="#000000" paint-order="fill stroke markers" d=" M 151.5 251.5 L 151.5 301.5" stroke-linecap="square" stroke-miterlimit="10" stroke-width="0.8"/><path fill="none" stroke="#000000" paint-order="fill stroke markers" d=" M 101.5 301.5 L 151.5 301.5" stroke-linecap="square" stroke-miterlimit="10" stroke-width="0.8"/><path fill="none" stroke="#000000" paint-order="fill stroke markers" d=" M 201.5 251.5 L 201.5 301.5" stroke-linecap="square" stroke-miterlimit="10" stroke-width="0.8"/><path fill="none" stroke="#000000" paint-order="fill stroke markers" d=" M 151.5 301.5 L 201.5 301.5" stroke-linecap="square" stroke-miterlimit="10" stroke-width="0.8"/><path fill="none" stroke="#000000" paint-order="fill stroke markers" d=" M 251.5 251.5 L 251.5 301.5" stroke-linecap="square" stroke-miterlimit="10" stroke-width="0.8"/><path fill="none" stroke="#000000" paint-order="fill stroke markers" d=" M 201.5 301.5 L 251.5 301.5" stroke-linecap="square" stroke-miterlimit="10" stroke-width="0.8"/><path fill="none" stroke="#000000" paint-order="fill stroke markers" d=" M 301.5 251.5 L 301.5 301.5" stroke-linecap="square" stroke-miterlimit="10" stroke-width="0.8"/><path fill="none" stroke="#000000" paint-order="fill stroke markers" d=" M 251.5 301.5 L 301.5 301.5" stroke-linecap="square" stroke-miterlimit="10" stroke-width="0.8"/><path fill="none" stroke="#000000" paint-order="fill stroke markers" d=" M 351.5 251.5 L 351.5 301.5" stroke-linecap="square" stroke-miterlimit="10" stroke-width="0.8"/><path fill="none" stroke="#000000" paint-order="fill stroke markers" d=" M 301.5 301.5 L 351.5 301.5" stroke-linecap="square" stroke-miterlimit="10" stroke-width="0.8"/><path fill="none" stroke="#000000" paint-order="fill stroke markers" d=" M 401.5 251.5 L 401.5 301.5" stroke-linecap="round" stroke-miterlimit="10" stroke-width="3"/><path fill="none" stroke="#000000" paint-order="fill stroke markers" d=" M 351.5 301.5 L 401.5 301.5" stroke-linecap="square" stroke-miterlimit="10" stroke-width="0.8"/><path fill="none" stroke="#000000" paint-order="fill stroke markers" d=" M 51.5 301.5 L 51.5 351.5" stroke-linecap="square" stroke-miterlimit="10" stroke-width="0.8"/><path fill="none" stroke="#000000" paint-order="fill stroke markers" d=" M 1.5 351.5 L 51.5 351.5" stroke-linecap="square" stroke-miterlimit="10" stroke-width="0.8"/><path fill="none" stroke="#000000" paint-order="fill stroke markers" d=" M 1.5 301.5 L 1.5 351.5" stroke-linecap="round" stroke-miterlimit="10" stroke-width="3"/><path fill="none" stroke="#000000" paint-order="fill stroke markers" d=" M 101.5 301.5 L 101.5 351.5" stroke-linecap="square" stroke-miterlimit="10" stroke-width="0.8"/><path fill="none" stroke="#000000" paint-order="fill stroke markers" d=" M 51.5 351.5 L 101.5 351.5" stroke-linecap="square" stroke-miterlimit="10" stroke-width="0.8"/><path fill="none" stroke="#000000" paint-order="fill stroke markers" d=" M 151.5 301.5 L 151.5 351.5" stroke-linecap="square" stroke-miterlimit="10" stroke-width="0.8"/><path fill="none" stroke="#000000" paint-order="fill stroke markers" d=" M 101.5 351.5 L 151.5 351.5" stroke-linecap="square" stroke-miterlimit="10" stroke-width="0.8"/><path fill="none" stroke="#000000" paint-order="fill stroke markers" d=" M 201.5 301.5 L 201.5 351.5" stroke-linecap="square" stroke-miterlimit="10" stroke-width="0.8"/><path fill="none" stroke="#000000" paint-order="fill stroke markers" d=" M 151.5 351.5 L 201.5 351.5" stroke-linecap="square" stroke-miterlimit="10" stroke-width="0.8"/><path fill="none" stroke="#000000" paint-order="fill stroke markers" d=" M 251.5 301.5 L 251.5 351.5" stroke-linecap="square" stroke-miterlimit="10" stroke-width="0.8"/><path fill="none" stroke="#000000" paint-order="fill stroke markers" d=" M 201.5 351.5 L 251.5 351.5" stroke-linecap="square" stroke-miterlimit="10" stroke-width="0.8"/><path fill="none" stroke="#000000" paint-order="fill stroke markers" d=" M 301.5 301.5 L 301.5 351.5" stroke-linecap="square" stroke-miterlimit="10" stroke-width="0.8"/><path fill="none" stroke="#000000" paint-order="fill stroke markers" d=" M 251.5 351.5 L 301.5 351.5" stroke-linecap="square" stroke-miterlimit="10" stroke-width="0.8"/><path fill="none" stroke="#000000" paint-order="fill stroke markers" d=" M 351.5 301.5 L 351.5 351.5" stroke-linecap="square" stroke-miterlimit="10" stroke-width="0.8"/><path fill="none" stroke="#000000" paint-order="fill stroke markers" d=" M 301.5 351.5 L 351.5 351.5" stroke-linecap="square" stroke-miterlimit="10" stroke-width="0.8"/><path fill="none" stroke="#000000" paint-order="fill stroke markers" d=" M 401.5 301.5 L 401.5 351.5" stroke-linecap="round" stroke-miterlimit="10" stroke-width="3"/><path fill="none" stroke="#000000" paint-order="fill stroke markers" d=" M 351.5 351.5 L 401.5 351.5" stroke-linecap="square" stroke-miterlimit="10" stroke-width="0.8"/><path fill="none" stroke="#000000" paint-order="fill stroke markers" d=" M 51.5 351.5 L 51.5 401.5" stroke-linecap="square" stroke-miterlimit="10" stroke-width="0.8"/><path fill="none" stroke="#000000" paint-order="fill stroke markers" d=" M 1.5 401.5 L 51.5 401.5" stroke-linecap="round" stroke-miterlimit="10" stroke-width="3"/><path fill="none" stroke="#000000" paint-order="fill stroke markers" d=" M 1.5 351.5 L 1.5 401.5" stroke-linecap="round" stroke-miterlimit="10" stroke-width="3"/><path fill="none" stroke="#000000" paint-order="fill stroke markers" d=" M 101.5 351.5 L 101.5 401.5" stroke-linecap="square" stroke-miterlimit="10" stroke-width="0.8"/><path fill="none" stroke="#000000" paint-order="fill stroke markers" d=" M 51.5 401.5 L 101.5 401.5" stroke-linecap="round" stroke-miterlimit="10" stroke-width="3"/><path fill="none" stroke="#000000" paint-order="fill stroke markers" d=" M 151.5 351.5 L 151.5 401.5" stroke-linecap="square" stroke-miterlimit="10" stroke-width="0.8"/><path fill="none" stroke="#000000" paint-order="fill stroke markers" d=" M 101.5 401.5 L 151.5 401.5" stroke-linecap="round" stroke-miterlimit="10" stroke-width="3"/><path fill="none" stroke="#000000" paint-order="fill stroke markers" d=" M 201.5 351.5 L 201.5 401.5" stroke-linecap="square" stroke-miterlimit="10" stroke-width="0.8"/><path fill="none" stroke="#000000" paint-order="fill stroke markers" d=" M 151.5 401.5 L 201.5 401.5" stroke-linecap="round" stroke-miterlimit="10" stroke-width="3"/><path fill="none" stroke="#000000" paint-order="fill stroke markers" d=" M 251.5 351.5 L 251.5 401.5" stroke-linecap="square" stroke-miterlimit="10" stroke-width="0.8"/><path fill="none" stroke="#000000" paint-order="fill stroke markers" d=" M 201.5 401.5 L 251.5 401.5" stroke-linecap="round" stroke-miterlimit="10" stroke-width="3"/><path fill="none" stroke="#000000" paint-order="fill stroke markers" d=" M 301.5 351.5 L 301.5 401.5" stroke-linecap="square" stroke-miterlimit="10" stroke-width="0.8"/><path fill="none" stroke="#000000" paint-order="fill stroke markers" d=" M 251.5 401.5 L 301.5 401.5" stroke-linecap="round" stroke-miterlimit="10" stroke-width="3"/><path fill="none" stroke="#000000" paint-order="fill stroke markers" d=" M 351.5 351.5 L 351.5 401.5" stroke-linecap="square" stroke-miterlimit="10" stroke-width="0.8"/><path fill="none" stroke="#000000" paint-order="fill stroke markers" d=" M 301.5 401.5 L 351.5 401.5" stroke-linecap="round" stroke-miterlimit="10" stroke-width="3"/><path fill="none" stroke="#000000" paint-order="fill stroke markers" d=" M 401.5 351.5 L 401.5 401.5" stroke-linecap="round" stroke-miterlimit="10" stroke-width="3"/><path fill="none" stroke="#000000" paint-order="fill stroke markers" d=" M 351.5 401.5 L 401.5 401.5" stroke-linecap="round" stroke-miterlimit="10" stroke-width="3"/></g></svg>