<svg version="1.1" xmlns="http://www.w3.org/2000/svg" xmlns:xlink="http://www.w3.org/1999/xlink" width="373.2" height="488"><defs/><g><rect fill="rgb(255,255,255)" stroke="none" x="0" y="0" width="373.2" height="488" fill-opacity="0"/><path fill="none" stroke="#000000" paint-order="fill stroke markers" d=" M 11.5 1.5 L 61.5 1.5" stroke-linecap="round" stroke-miterlimit="10" stroke-width="3"/><path fill="none" stroke="#000000" paint-order="fill stroke markers" d=" M 11.5 1.5 L 11.5 51.5" stroke-linecap="round" stroke-miterlimit="10" stroke-width="3"/><path fill="none" stroke="#000000" paint-order="fill stroke markers" d=" M 61.5 1.5 L 111.5 1.5" stroke-linecap="round" stroke-miterlimit="10" stroke-width="3"/><path fill="none" stroke="#000000" paint-order="fill stroke markers" d=" M 111.5 1.5 L 161.5 1.5" stroke-linecap="round" stroke-miterlimit="10" stroke-width="3"/><path fill="none" stroke="#000000" paint-order="fill stroke markers" d=" M 161.5 1.5 L 211.5 1.5" stroke-linecap="round" stroke-miterlimit="10" stroke-width="3"/><path fill="none" stroke="#000000" paint-order="fill stroke markers" d=" M 211.5 1.5 L 261.5 1.5" stroke-linecap="round" stroke-miterlimit="10" stroke-width="3"/><path fill="none" stroke="#000000" paint-order="fill stroke markers" d=" M 261.5 1.5 L 311.5 1.5" stroke-linecap="round" stroke-miterlimit="10" stroke-width="3"/><path fill="none" stroke="#000000" paint-order="fill stroke markers" d=" M 311.5 1.5 L 361.5 1.5" stroke-linecap="round" stroke-miterlimit="10" stroke-width="3"/><path fill="none" stroke="#000000" paint-order="fill stroke markers" d=" M 361.5 1.5 L 361.5 51.5" stroke-linecap="round" stroke-miterlimit="10" stroke-width="3"/><path fill="none" stroke="#000000" paint-order="fill stroke markers" d=" M 11.5 51.5 L 11.5 101.5" stroke-linecap="round" stroke-miterlimit="10" stroke-width="3"/><path fill="none" stroke="#000000" paint-order="fill stroke markers" d=" M 361.5 51.5 L 361.5 101.5" stroke-linecap="round" stroke-miterlimit="10" stroke-width="3"/><path fill="none" stroke="#000000" paint-order="fill stroke markers" d=" M 11.5 101.5 L 11.5 151.5" stroke-linecap="round" stroke-miterlimit="10" stroke-width="3"/><path fill="none" stroke="#000000" paint-order="fill stroke markers" d=" M 361.5 101.5 L 361.5 151.5" stroke-linecap="round" stroke-miterlimit="10" stroke-width="3"/><path fill="none" stroke="#000000" paint-order="fill stroke markers" d=" M 11.5 151.5 L 11.5 201.5" stroke-linecap="round" stroke-miterlimit="10" stroke-width="3"/><path fill="none" stroke="#000000" paint-order="fill stroke markers" d=" M 361.5 151.5 L 361.5 201.5" stroke-linecap="round" stroke-miterlimit="10" stroke-width="3"/><path fill="none" stroke="#000000" paint-order="fill stroke markers" d=" M 11.5 201.5 L 11.5 251.5" stroke-linecap="round" stroke-miterlimit="10" stroke-width="3"/><path fill="none" stroke="#000000" paint-order="fill stroke markers" d=" M 361.5 201.5 L 361.5 251.5" stroke-linecap="round" stroke-miterlimit="10" stroke-width="3"/><path fill="none" stroke="#000000" paint-order="fill stroke markers" d=" M 11.5 251.5 L 11.5 301.5" stroke-linecap="round" stroke-miterlimit="10" stroke-width="3"/><path fill="none" stroke="#000000" paint-order="fill stroke markers" d=" M 361.5 251.5 L 361.5 301.5" stroke-linecap="round" stroke-miterlimit="10" stroke-width="3"/><path fill="none" stroke="#000000" paint-order="fill stroke markers" d=" M 11.5 351.5 L 61.5 351.5" stroke-linecap="round" stroke-miterlimit="10" stroke-width="3"/><path fill="none" stroke="#000000" paint-order="fill stroke markers" d=" M 11.5 301.5 L 11.5 351.5" stroke-linecap="round" stroke-miterlimit="10" stroke-width="3"/><path fill="none" stroke="#000000" paint-order="fill stroke markers" d=" M 61.5 351.5 L 111.5 351.5" stroke-linecap="round" stroke-miterlimit="10" stroke-width="3"/><path fill="none" stroke="#000000" paint-order="fill stroke markers" d=" M 111.5 351.5 L 161.5 351.5" stroke-linecap="round" stroke-miterlimit="10" stroke-width="3"/><path fill="none" stroke="#000000" paint-order="fill stroke markers" d=" M 161.5 351.5 L 211.5 351.5" stroke-linecap="round" stroke-miterlimit="10" stroke-width="3"/><path fill="none" stroke="#000000" paint-order="fill stroke markers" d=" M 211.5 351.5 L 261.5 351.5" stroke-linecap="round" stroke-miterlimit="10" stroke-width="3"/><path fill="none" stroke="#000000" paint-order="fill stroke markers" d=" M 261.5 351.5 L 311.5 351.5" stroke-linecap="round" stroke-miterlimit="10" stroke-width="3"/><path fill="none" stroke="#000000" paint-order="fill stroke markers" d=" M 361.5 301.5 L 361.5 351.5" stroke-linecap="round" stroke-miterlimit="10" stroke-width="3"/><path fill="none" stroke="#000000" paint-order="fill stroke markers" d=" M 311.5 351.5 L 361.5 351.5" stroke-linecap="round" stroke-miterlimit="10" stroke-width="3"/><path fill="#000000" stroke="none" paint-order="stroke fill markers" d=" M 137.125 26.5 L 137.125 25.25 L 123 25.249999999999996 L 123 20.5 L 114 26.499999999999996 L 123 32.5 L 123 27.749999999999996 L 137.125 27.75 L 137.125 26.5"/><path fill="#000000" stroke="none" paint-order="stroke fill markers" d=" M 136.5 25.875 L 135.25 25.875 L 135.25 40 L 130.5 40 L 136.5 49 L 142.5 40 L 137.75 40 L 137.75 25.875 L 136.5 25.875"/><path fill="#000000" stroke="none" paint-order="stroke fill markers" d=" M 237.125 76.5 L 237.125 75.25 L 223 75.25 L 223 70.5 L 214 76.5 L 223 82.5 L 223 77.75 L 237.125 77.75 L 237.125 76.5"/><path fill="#000000" stroke="none" paint-order="stroke fill markers" d=" M 236.5 75.875 L 235.25 75.875 L 235.25 90 L 230.5 90 L 236.5 99 L 242.5 90 L 237.75 90 L 237.75 75.875 L 236.5 75.875"/><path fill="#000000" stroke="none" paint-order="stroke fill markers" d=" M 36.5 227.125 L 37.75 227.125 L 37.75 213 L 42.5 213 L 36.5 204 L 30.5 213 L 35.25 213 L 35.25 227.125 L 36.5 227.125"/><path fill="#000000" stroke="none" paint-order="stroke fill markers" d=" M 336.5 227.125 L 337.75 227.125 L 337.75 213 L 342.5 213 L 336.5 204 L 330.5 213 L 335.25 213 L 335.25 227.125 L 336.5 227.125"/><path fill="#000000" stroke="none" paint-order="stroke fill markers" d=" M 336.5 225.875 L 335.25 225.875 L 335.25 240 L 330.5 240 L 336.5 249 L 342.5 240 L 337.75 240 L 337.75 225.875 L 336.5 225.875"/><path fill="#000000" stroke="#000000" paint-order="fill stroke markers" d=" M 75.5 465.5 L 97.5 465.5 L 97.5 487.5 L 75.5 487.5 Z" stroke-miterlimit="10"/><path fill="#000000" stroke="#000000" paint-order="fill stroke markers" d=" M 125.5 465.5 L 147.5 465.5 L 147.5 487.5 L 125.5 487.5 Z" stroke-miterlimit="10"/><path fill="#000000" stroke="#000000" paint-order="fill stroke markers" d=" M 225.5 465.5 L 247.5 465.5 L 247.5 487.5 L 225.5 487.5 Z" stroke-miterlimit="10"/><path fill="#000000" stroke="#000000" paint-order="fill stroke markers" d=" M 325.5 465.5 L 347.5 465.5 L 347.5 487.5 L 325.5 487.5 Z" stroke-miterlimit="10"/><path fill="#000000" stroke="#000000" paint-order="fill stroke markers" d=" M 0.4999999999999982 390.5 L 22.5 390.5 L 22.500000000000004 412.5 L 0.5000000000000036 412.5 Z" stroke-miterlimit="10"/><path fill="#000000" stroke="#000000" paint-order="fill stroke markers" d=" M 0.4999999999999982 440.5 L 22.5 440.5 L 22.500000000000004 462.5 L 0.5000000000000036 462.5 Z" stroke-miterlimit="10"/><path fill="#000000" stroke="#000000" paint-order="fill stroke markers" d=" M 50.5 440.5 L 72.5 440.5 L 72.5 462.5 L 50.5 462.5 Z" stroke-miterlimit="10"/><path fill="#000000" stroke="#000000" paint-order="fill stroke markers" d=" M 150.5 440.5 L 172.5 440.5 L 172.5 462.5 L 150.5 462.5 Z" stroke-miterlimit="10"/><path fill="#000000" stroke="#000000" paint-order="fill stroke markers" d=" M 250.5 440.5 L 272.5 440.5 L 272.5 462.5 L 250.5 462.5 Z" stroke-miterlimit="10"/><path fill="#000000" stroke="#000000" paint-order="fill stroke markers" d=" M 300.5 440.5 L 322.5 440.5 L 322.5 462.5 L 300.5 462.5 Z" stroke-miterlimit="10"/><path fill="#000000" stroke="#000000" paint-order="fill stroke markers" d=" M 350.5 440.5 L 372.5 440.5 L 372.5 462.5 L 350.5 462.5 Z" stroke-miterlimit="10"/><path fill="#000000" stroke="#000000" paint-order="fill stroke markers" d=" M 125.5 440.5 L 147.5 440.5 L 147.5 462.5 L 125.5 462.5 Z" stroke-miterlimit="10"/><path fill="#000000" stroke="#000000" paint-order="fill stroke markers" d=" M 225.5 440.5 L 247.5 440.5 L 247.5 462.5 L 225.5 462.5 Z" stroke-miterlimit="10"/><path fill="#000000" stroke="#000000" paint-order="fill stroke markers" d=" M 325.5 440.5 L 347.5 440.5 L 347.5 462.5 L 325.5 462.5 Z" stroke-miterlimit="10"/><path fill="#000000" stroke="#000000" paint-order="fill stroke markers" d=" M 0.4999999999999982 415.5 L 22.5 415.5 L 22.500000000000004 437.5 L 0.5000000000000036 437.5 Z" stroke-miterlimit="10"/><path fill="#000000" stroke="#000000" paint-order="fill stroke markers" d=" M 50.5 415.5 L 72.5 415.5 L 72.5 437.5 L 50.5 437.5 Z" stroke-miterlimit="10"/><path fill="#000000" stroke="#000000" paint-order="fill stroke markers" d=" M 0.4999999999999982 465.5 L 22.5 465.5 L 22.500000000000004 487.5 L 0.5000000000000036 487.5 Z" stroke-miterlimit="10"/><path fill="#000000" stroke="#000000" paint-order="fill stroke markers" d=" M 50.5 465.5 L 72.5 465.5 L 72.5 487.5 L 50.5 487.5 Z" stroke-miterlimit="10"/><path fill="#000000" stroke="#000000" paint-order="fill stroke markers" d=" M 150.5 465.5 L 172.5 465.5 L 172.5 487.5 L 150.5 487.5 Z" stroke-miterlimit="10"/><path fill="#000000" stroke="#000000" paint-order="fill stroke markers" d=" M 200.5 465.5 L 222.5 465.5 L 222.5 487.5 L 200.5 487.5 Z" stroke-miterlimit="10"/><path fill="none" stroke="#000000" paint-order="fill stroke markers" d=" M 11.5 1.5 L 61.5 1.5" stroke-linecap="round" stroke-miterlimit="10" stroke-width="3"/><path fill="none" stroke="#000000" paint-order="fill stroke markers" d=" M 61.5 1.5 L 61.5 51.5" stroke-linecap="square" stroke-miterlimit="10" stroke-width="0.8"/><path fill="none" stroke="#000000" paint-order="fill stroke markers" d=" M 11.5 51.5 L 61.5 51.5" stroke-linecap="square" stroke-miterlimit="10" stroke-width="0.8"/><path fill="none" stroke="#000000" paint-order="fill stroke markers" d=" M 11.5 1.5 L 11.5 51.5" stroke-linecap="round" stroke-miterlimit="10" stroke-width="3"/><path fill="none" stroke="#000000" paint-order="fill stroke markers" d=" M 61.5 1.5 L 111.5 1.5" stroke-linecap="round" stroke-miterlimit="10" stroke-width="3"/><path fill="none" stroke="#000000" paint-order="fill stroke markers" d=" M 111.5 1.5 L 111.5 51.5" stroke-linecap="square" stroke-miterlimit="10" stroke-width="0.8"/><path fill="none" stroke="#000000" paint-order="fill stroke markers" d=" M 61.5 51.5 L 111.5 51.5" stroke-linecap="square" stroke-miterlimit="10" stroke-width="0.8"/><path fill="none" stroke="#000000" paint-order="fill stroke markers" d=" M 111.5 1.5 L 161.5 1.5" stroke-linecap="round" stroke-miterlimit="10" stroke-width="3"/><path fill="none" stroke="#000000" paint-order="fill stroke markers" d=" M 161.5 1.5 L 161.5 51.5" stroke-linecap="square" stroke-miterlimit="10" stroke-width="0.8"/><path fill="none" stroke="#000000" paint-order="fill stroke markers" d=" M 111.5 51.5 L 161.5 51.5" stroke-linecap="square" stroke-miterlimit="10" stroke-width="0.8"/><path fill="none" stroke="#000000" paint-order="fill stroke markers" d=" M 161.5 1.5 L 211.5 1.5" stroke-linecap="round" stroke-miterlimit="10" stroke-width="3"/><path fill="none" stroke="#000000" paint-order="fill stroke markers" d=" M 211.5 1.5 L 211.5 51.5" stroke-linecap="square" stroke-miterlimit="10" stroke-width="0.8"/><path fill="none" stroke="#000000" paint-order="fill stroke markers" d=" M 161.5 51.5 L 211.5 51.5" stroke-linecap="square" stroke-miterlimit="10" stroke-width="0.8"/><path fill="none" stroke="#000000" paint-order="fill stroke markers" d=" M 211.5 1.5 L 261.5 1.5" stroke-linecap="round" stroke-miterlimit="10" stroke-width="3"/><path fill="none" stroke="#000000" paint-order="fill stroke markers" d=" M 261.5 1.5 L 261.5 51.5" stroke-linecap="square" stroke-miterlimit="10" stroke-width="0.8"/><path fill="none" stroke="#000000" paint-order="fill stroke markers" d=" M 211.5 51.5 L 261.5 51.5" stroke-linecap="square" stroke-miterlimit="10" stroke-width="0.8"/><path fill="none" stroke="#000000" paint-order="fill stroke markers" d=" M 261.5 1.5 L 311.5 1.5" stroke-linecap="round" stroke-miterlimit="10" stroke-width="3"/><path fill="none" stroke="#000000" paint-order="fill stroke markers" d=" M 311.5 1.5 L 311.5 51.5" stroke-linecap="square" stroke-miterlimit="10" stroke-width="0.8"/><path fill="none" stroke="#000000" paint-order="fill stroke markers" d=" M 261.5 51.5 L 311.5 51.5" stroke-linecap="square" stroke-miterlimit="10" stroke-width="0.8"/><path fill="none" stroke="#000000" paint-order="fill stroke markers" d=" M 311.5 1.5 L 361.5 1.5" stroke-linecap="round" stroke-miterlimit="10" stroke-width="3"/><path fill="none" stroke="#000000" paint-order="fill stroke markers" d=" M 361.5 1.5 L 361.5 51.5" stroke-linecap="round" stroke-miterlimit="10" stroke-width="3"/><path fill="none" stroke="#000000" paint-order="fill stroke markers" d=" M 311.5 51.5 L 361.5 51.5" stroke-linecap="square" stroke-miterlimit="10" stroke-width="0.8"/><path fill="none" stroke="#000000" paint-order="fill stroke markers" d=" M 61.5 51.5 L 61.5 101.5" stroke-linecap="square" stroke-miterlimit="10" stroke-width="0.8"/><path fill="none" stroke="#000000" paint-order="fill stroke markers" d=" M 11.5 101.5 L 61.5 101.5" stroke-linecap="square" stroke-miterlimit="10" stroke-width="0.8"/><path fill="none" stroke="#000000" paint-order="fill stroke markers" d=" M 11.5 51.5 L 11.5 101.5" stroke-linecap="round" stroke-miterlimit="10" stroke-width="3"/><path fill="none" stroke="#000000" paint-order="fill stroke markers" d=" M 111.5 51.5 L 111.5 101.5" stroke-linecap="square" stroke-miterlimit="10" stroke-width="0.8"/><path fill="none" stroke="#000000" paint-order="fill stroke markers" d=" M 61.5 101.5 L 111.5 101.5" stroke-linecap="square" stroke-miterlimit="10" stroke-width="0.8"/><path fill="none" stroke="#000000" paint-order="fill stroke markers" d=" M 161.5 51.5 L 161.5 101.5" stroke-linecap="square" stroke-miterlimit="10" stroke-width="0.8"/><path fill="none" stroke="#000000" paint-order="fill stroke markers" d=" M 111.5 101.5 L 161.5 101.5" stroke-linecap="square" stroke-miterlimit="10" stroke-width="0.8"/><path fill="none" stroke="#000000" paint-order="fill stroke markers" d=" M 211.5 51.5 L 211.5 101.5" stroke-linecap="square" stroke-miterlimit="10" stroke-width="0.8"/><path fill="none" stroke="#000000" paint-order="fill stroke markers" d=" M 161.5 101.5 L 211.5 101.5" stroke-linecap="square" stroke-miterlimit="10" stroke-width="0.8"/><path fill="none" stroke="#000000" paint-order="fill stroke markers" d=" M 261.5 51.5 L 261.5 101.5" stroke-linecap="square" stroke-miterlimit="10" stroke-width="0.8"/><path fill="none" stroke="#000000" paint-order="fill stroke markers" d=" M 211.5 101.5 L 261.5 101.5" stroke-linecap="square" stroke-miterlimit="10" stroke-width="0.8"/><path fill="none" stroke="#000000" paint-order="fill stroke markers" d=" M 311.5 51.5 L 311.5 101.5" stroke-linecap="square" stroke-miterlimit="10" stroke-width="0.8"/><path fill="none" stroke="#000000" paint-order="fill stroke markers" d=" M 261.5 101.5 L 311.5 101.5" stroke-linecap="square" stroke-miterlimit="10" stroke-width="0.8"/><path fill="none" stroke="#000000" paint-order="fill stroke markers" d=" M 361.5 51.5 L 361.5 101.5" stroke-linecap="round" stroke-miterlimit="10" stroke-width="3"/><path fill="none" stroke="#000000" paint-order="fill stroke markers" d=" M 311.5 101.5 L 361.5 101.5" stroke-linecap="square" stroke-miterlimit="10" stroke-width="0.8"/><path fill="none" stroke="#000000" paint-order="fill stroke markers" d=" M 61.5 101.5 L 61.5 151.5" stroke-linecap="square" stroke-miterlimit="10" stroke-width="0.8"/><path fill="none" stroke="#000000" paint-order="fill stroke markers" d=" M 11.5 151.5 L 61.5 151.5" stroke-linecap="square" stroke-miterlimit="10" stroke-width="0.8"/><path fill="none" stroke="#000000" paint-order="fill stroke markers" d=" M 11.5 101.5 L 11.5 151.5" stroke-linecap="round" stroke-miterlimit="10" stroke-width="3"/><path fill="none" stroke="#000000" paint-order="fill stroke markers" d=" M 111.5 101.5 L 111.5 151.5" stroke-linecap="square" stroke-miterlimit="10" stroke-width="0.8"/><path fill="none" stroke="#000000" paint-order="fill stroke markers" d=" M 61.5 151.5 L 111.5 151.5" stroke-linecap="square" stroke-miterlimit="10" stroke-width="0.8"/><path fill="none" stroke="#000000" paint-order="fill stroke markers" d=" M 161.5 101.5 L 161.5 151.5" stroke-linecap="square" stroke-miterlimit="10" stroke-width="0.8"/><path fill="none" stroke="#000000" paint-order="fill stroke markers" d=" M 111.5 151.5 L 161.5 151.5" stroke-linecap="square" stroke-miterlimit="10" stroke-width="0.8"/><path fill="none" stroke="#000000" paint-order="fill stroke markers" d=" M 211.5 101.5 L 211.5 151.5" stroke-linecap="square" stroke-miterlimit="10" stroke-width="0.8"/><path fill="none" stroke="#000000" paint-order="fill stroke markers" d=" M 161.5 151.5 L 211.5 151.5" stroke-linecap="square" stroke-miterlimit="10" stroke-width="0.8"/><path fill="none" stroke="#000000" paint-order="fill stroke markers" d=" M 261.5 101.5 L 261.5 151.5" stroke-linecap="square" stroke-miterlimit="10" stroke-width="0.8"/><path fill="none" stroke="#000000" paint-order="fill stroke markers" d=" M 211.5 151.5 L 261.5 151.5" stroke-linecap="square" stroke-miterlimit="10" stroke-width="0.8"/><path fill="none" stroke="#000000" paint-order="fill stroke markers" d=" M 311.5 101.5 L 311.5 151.5" stroke-linecap="square" stroke-miterlimit="10" stroke-width="0.8"/><path fill="none" stroke="#000000" paint-order="fill stroke markers" d=" M 261.5 151.5 L 311.5 151.5" stroke-linecap="square" stroke-miterlimit="10" stroke-width="0.8"/><path fill="none" stroke="#000000" paint-order="fill stroke markers" d=" M 361.5 101.5 L 361.5 151.5" stroke-linecap="round" stroke-miterlimit="10" stroke-width="3"/><path fill="none" stroke="#000000" paint-order="fill stroke markers" d=" M 311.5 151.5 L 361.5 151.5" stroke-linecap="square" stroke-miterlimit="10" stroke-width="0.8"/><path fill="none" stroke="#000000" paint-order="fill stroke markers" d=" M 61.5 151.5 L 61.5 201.5" stroke-linecap="square" stroke-miterlimit="10" stroke-width="0.8"/><path fill="none" stroke="#000000" paint-order="fill stroke markers" d=" M 11.5 201.5 L 61.5 201.5" stroke-linecap="square" stroke-miterlimit="10" stroke-width="0.8"/><path fill="none" stroke="#000000" paint-order="fill stroke markers" d=" M 11.5 151.5 L 11.5 201.5" stroke-linecap="round" stroke-miterlimit="10" stroke-width="3"/><path fill="none" stroke="#000000" paint-order="fill stroke markers" d=" M 111.5 151.5 L 111.5 201.5" stroke-linecap="square" stroke-miterlimit="10" stroke-width="0.8"/><path fill="none" stroke="#000000" paint-order="fill stroke markers" d=" M 61.5 201.5 L 111.5 201.5" stroke-linecap="square" stroke-miterlimit="10" stroke-width="0.8"/><path fill="none" stroke="#000000" paint-order="fill stroke markers" d=" M 161.5 151.5 L 161.5 201.5" stroke-linecap="square" stroke-miterlimit="10" stroke-width="0.8"/><path fill="none" stroke="#000000" paint-order="fill stroke markers" d=" M 111.5 201.5 L 161.5 201.5" stroke-linecap="square" stroke-miterlimit="10" stroke-width="0.8"/><path fill="none" stroke="#000000" paint-order="fill stroke markers" d=" M 211.5 151.5 L 211.5 201.5" stroke-linecap="square" stroke-miterlimit="10" stroke-width="0.8"/><path fill="none" stroke="#000000" paint-order="fill stroke markers" d=" M 161.5 201.5 L 211.5 201.5" stroke-linecap="square" stroke-miterlimit="10" stroke-width="0.8"/><path fill="none" stroke="#000000" paint-order="fill stroke markers" d=" M 261.5 151.5 L 261.5 201.5" stroke-linecap="square" stroke-miterlimit="10" stroke-width="0.8"/><path fill="none" stroke="#000000" paint-order="fill stroke markers" d=" M 211.5 201.5 L 261.5 201.5" stroke-linecap="square" stroke-miterlimit="10" stroke-width="0.8"/><path fill="none" stroke="#000000" paint-order="fill stroke markers" d=" M 311.5 151.5 L 311.5 201.5" stroke-linecap="square" stroke-miterlimit="10" stroke-width="0.8"/><path fill="none" stroke="#000000" paint-order="fill stroke markers" d=" M 261.5 201.5 L 311.5 201.5" stroke-linecap="square" stroke-miterlimit="10" stroke-width="0.8"/><path fill="none" stroke="#000000" paint-order="fill stroke markers" d=" M 361.5 151.5 L 361.5 201.5" stroke-linecap="round" stroke-miterlimit="10" stroke-width="3"/><path fill="none" stroke="#000000" paint-order="fill stroke markers" d=" M 311.5 201.5 L 361.5 201.5" stroke-linecap="square" stroke-miterlimit="10" stroke-width="0.8"/><path fill="none" stroke="#000000" paint-order="fill stroke markers" d=" M 61.5 201.5 L 61.5 251.5" stroke-linecap="square" stroke-miterlimit="10" stroke-width="0.8"/><path fill="none" stroke="#000000" paint-order="fill stroke markers" d=" M 11.5 251.5 L 61.5 251.5" stroke-linecap="square" stroke-miterlimit="10" stroke-width="0.8"/><path fill="none" stroke="#000000" paint-order="fill stroke markers" d=" M 11.5 201.5 L 11.5 251.5" stroke-linecap="round" stroke-miterlimit="10" stroke-width="3"/><path fill="none" stroke="#000000" paint-order="fill stroke markers" d=" M 111.5 201.5 L 111.5 251.5" stroke-linecap="square" stroke-miterlimit="10" stroke-width="0.8"/><path fill="none" stroke="#000000" paint-order="fill stroke markers" d=" M 61.5 251.5 L 111.5 251.5" stroke-linecap="square" stroke-miterlimit="10" stroke-width="0.8"/><path fill="none" stroke="#000000" paint-order="fill stroke markers" d=" M 161.5 201.5 L 161.5 251.5" stroke-linecap="square" stroke-miterlimit="10" stroke-width="0.8"/><path fill="none" stroke="#000000" paint-order="fill stroke markers" d=" M 111.5 251.5 L 161.5 251.5" stroke-linecap="square" stroke-miterlimit="10" stroke-width="0.8"/><path fill="none" stroke="#000000" paint-order="fill stroke markers" d=" M 211.5 201.5 L 211.5 251.5" stroke-linecap="square" stroke-miterlimit="10" stroke-width="0.8"/><path fill="none" stroke="#000000" paint-order="fill stroke markers" d=" M 161.5 251.5 L 211.5 251.5" stroke-linecap="square" stroke-miterlimit="10" stroke-width="0.8"/><path fill="none" stroke="#000000" paint-order="fill stroke markers" d=" M 261.5 201.5 L 261.5 251.5" stroke-linecap="square" stroke-miterlimit="10" stroke-width="0.8"/><path fill="none" stroke="#000000" paint-order="fill stroke markers" d=" M 211.5 251.5 L 261.5 251.5" stroke-linecap="square" stroke-miterlimit="10" stroke-width="0.8"/><path fill="none" stroke="#000000" paint-order="fill stroke markers" d=" M 311.5 201.5 L 311.5 251.5" stroke-linecap="square" stroke-miterlimit="10" stroke-width="0.8"/><path fill="none" stroke="#000000" paint-order="fill stroke markers" d=" M 261.5 251.5 L 311.5 251.5" stroke-linecap="square" stroke-miterlimit="10" stroke-width="0.8"/><path fill="none" stroke="#000000" paint-order="fill stroke markers" d=" M 361.5 201.5 L 361.5 251.5" stroke-linecap="round" stroke-miterlimit="10" stroke-width="3"/><path fill="none" stroke="#000000" paint-order="fill stroke markers" d=" M 311.5 251.5 L 361.5 251.5" stroke-linecap="square" stroke-miterlimit="10" stroke-width="0.8"/><path fill="none" stroke="#000000" paint-order="fill stroke markers" d=" M 61.5 251.5 L 61.5 301.5" stroke-linecap="square" stroke-miterlimit="10" stroke-width="0.8"/><path fill="none" stroke="#000000" paint-order="fill stroke markers" d=" M 11.5 301.5 L 61.5 301.5" stroke-linecap="square" stroke-miterlimit="10" stroke-width="0.8"/><path fill="none" stroke="#000000" paint-order="fill stroke markers" d=" M 11.5 251.5 L 11.5 301.5" stroke-linecap="round" stroke-miterlimit="10" stroke-width="3"/><path fill="none" stroke="#000000" paint-order="fill stroke markers" d=" M 111.5 251.5 L 111.5 301.5" stroke-linecap="square" stroke-miterlimit="10" stroke-width="0.8"/><path fill="none" stroke="#000000" paint-order="fill stroke markers" d=" M 61.5 301.5 L 111.5 301.5" stroke-linecap="square" stroke-miterlimit="10" stroke-width="0.8"/><path fill="none" stroke="#000000" paint-order="fill stroke markers" d=" M 161.5 251.5 L 161.5 301.5" stroke-linecap="square" stroke-miterlimit="10" stroke-width="0.8"/><path fill="none" stroke="#000000" paint-order="fill stroke markers" d=" M 111.5 301.5 L 161.5 301.5" stroke-linecap="square" stroke-miterlimit="10" stroke-width="0.8"/><path fill="none" stroke="#000000" paint-order="fill stroke markers" d=" M 211.5 251.5 L 211.5 301.5" stroke-linecap="square" stroke-miterlimit="10" stroke-width="0.8"/><path fill="none" stroke="#000000" paint-order="fill stroke markers" d=" M 161.5 301.5 L 211.5 301.5" stroke-linecap="square" stroke-miterlimit="10" stroke-width="0.8"/><path fill="none" stroke="#000000" paint-order="fill stroke markers" d=" M 261.5 251.5 L 261.5 301.5" stroke-linecap="square" stroke-miterlimit="10" stroke-width="0.8"/><path fill="none" stroke="#000000" paint-order="fill stroke markers" d=" M 211.5 301.5 L 261.5 301.5" stroke-linecap="square" stroke-miterlimit="10" stroke-width="0.8"/><path fill="none" stroke="#000000" paint-order="fill stroke markers" d=" M 311.5 251.5 L 311.5 301.5" stroke-linecap="square" stroke-miterlimit="10" stroke-width="0.8"/><path fill="none" stroke="#000000" paint-order="fill stroke markers" d=" M 261.5 301.5 L 311.5 301.5" stroke-linecap="square" stroke-miterlimit="10" stroke-width="0.8"/><path fill="none" stroke="#000000" paint-order="fill stroke markers" d=" M 361.5 251.5 L 361.5 301.5" stroke-linecap="round" stroke-miterlimit="10" stroke-width="3"/><path fill="none" stroke="#000000" paint-order="fill stroke markers" d=" M 311.5 301.5 L 361.5 301.5" stroke-linecap="square" stroke-miterlimit="10" stroke-width="0.8"/><path fill="none" stroke="#000000" paint-order="fill stroke markers" d=" M 61.5 301.5 L 61.5 351.5" stroke-linecap="square" stroke-miterlimit="10" stroke-width="0.8"/><path fill="none" stroke="#000000" paint-order="fill stroke markers" d=" M 11.5 351.5 L 61.5 351.5" stroke-linecap="round" stroke-miterlimit="10" stroke-width="3"/><path fill="none" stroke="#000000" paint-order="fill stroke markers" d=" M 11.5 301.5 L 11.5 351.5" stroke-linecap="round" stroke-miterlimit="10" stroke-width="3"/><path fill="none" stroke="#000000" paint-order="fill stroke markers" d=" M 111.5 301.5 L 111.5 351.5" stroke-linecap="square" stroke-miterlimit="10" stroke-width="0.8"/><path fill="none" stroke="#000000" paint-order="fill stroke markers" d=" M 61.5 351.5 L 111.5 351.5" stroke-linecap="round" stroke-miterlimit="10" stroke-width="3"/><path fill="none" stroke="#000000" paint-order="fill stroke markers" d=" M 161.5 301.5 L 161.5 351.5" stroke-linecap="square" stroke-miterlimit="10" stroke-width="0.8"/><path fill="none" stroke="#000000" paint-order="fill stroke markers" d=" M 111.5 351.5 L 161.5 351.5" stroke-linecap="round" stroke-miterlimit="10" stroke-width="3"/><path fill="none" stroke="#000000" paint-order="fill stroke markers" d=" M 211.5 301.5 L 211.5 351.5" stroke-linecap="square" stroke-miterlimit="10" stroke-width="0.8"/><path fill="none" stroke="#000000" paint-order="fill stroke markers" d=" M 161.5 351.5 L 211.5 351.5" stroke-linecap="round" stroke-miterlimit="10" stroke-width="3"/><path fill="none" stroke="#000000" paint-order="fill stroke markers" d=" M 261.5 301.5 L 261.5 351.5" stroke-linecap="square" stroke-miterlimit="10" stroke-width="0.8"/><path fill="none" stroke="#000000" paint-order="fill stroke markers" d=" M 211.5 351.5 L 261.5 351.5" stroke-linecap="round" stroke-miterlimit="10" stroke-width="3"/><path fill="none" stroke="#000000" paint-order="fill stroke markers" d=" M 311.5 301.5 L 311.5 351.5" stroke-linecap="square" stroke-miterlimit="10" stroke-width="0.8"/><path fill="none" stroke="#000000" paint-order="fill stroke markers" d=" M 261.5 351.5 L 311.5 351.5" stroke-linecap="round" stroke-miterlimit="10" stroke-width="3"/><path fill="none" stroke="#000000" paint-order="fill stroke markers" d=" M 361.5 301.5 L 361.5 351.5" stroke-linecap="round" stroke-miterlimit="10" stroke-width="3"/><path fill="none" stroke="#000000" paint-order="fill stroke markers" d=" M 311.5 351.5 L 361.5 351.5" stroke-linecap="round" stroke-miterlimit="10" stroke-width="3"/></g></svg>