<svg version="1.1" xmlns="http://www.w3.org/2000/svg" xmlns:xlink="http://www.w3.org/1999/xlink" width="403.2" height="403.2"><defs/><g><rect fill="rgb(255,255,255)" stroke="none" x="0" y="0" width="403.2" height="403.2" fill-opacity="0"/><path fill="none" stroke="#000000" paint-order="fill stroke markers" d=" M 1.5 1.5 L 51.5 1.5" stroke-linecap="round" stroke-miterlimit="10" stroke-width="3"/><path fill="none" stroke="#000000" paint-order="fill stroke markers" d=" M 1.5 1.5 L 1.5 51.5" stroke-linecap="round" stroke-miterlimit="10" stroke-width="3"/><path fill="none" stroke="#000000" paint-order="fill stroke markers" d=" M 51.5 1.5 L 101.5 1.5" stroke-linecap="round" stroke-miterlimit="10" stroke-width="3"/><path fill="none" stroke="#000000" paint-order="fill stroke markers" d=" M 101.5 1.5 L 151.5 1.5" stroke-linecap="round" stroke-miterlimit="10" stroke-width="3"/><path fill="none" stroke="#000000" paint-order="fill stroke markers" d=" M 151.5 1.5 L 201.5 1.5" stroke-linecap="round" stroke-miterlimit="10" stroke-width="3"/><path fill="none" stroke="#000000" paint-order="fill stroke markers" d=" M 201.5 1.5 L 251.5 1.5" stroke-linecap="round" stroke-miterlimit="10" stroke-width="3"/><path fill="none" stroke="#000000" paint-order="fill stroke markers" d=" M 251.5 1.5 L 301.5 1.5" stroke-linecap="round" stroke-miterlimit="10" stroke-width="3"/><path fill="none" stroke="#000000" paint-order="fill stroke markers" d=" M 301.5 1.5 L 351.5 1.5" stroke-linecap="round" stroke-miterlimit="10" stroke-width="3"/><path fill="none" stroke="#000000" paint-order="fill stroke markers" d=" M 351.5 1.5 L 401.5 1.5" stroke-linecap="round" stroke-miterlimit="10" stroke-width="3"/><path fill="none" stroke="#000000" paint-order="fill stroke markers" d=" M 401.5 1.5 L 401.5 51.5" stroke-linecap="round" stroke-miterlimit="10" stroke-width="3"/><path fill="none" stroke="#000000" paint-order="fill stroke markers" d=" M 1.5 51.5 L 1.5 101.5" stroke-linecap="round" stroke-miterlimit="10" stroke-width="3"/><path fill="none" stroke="#000000" paint-order="fill stroke markers" d=" M 401.5 51.5 L 401.5 101.5" stroke-linecap="round" stroke-miterlimit="10" stroke-width="3"/><path fill="none" stroke="#000000" paint-order="fill stroke markers" d=" M 1.5 101.5 L 1.5 151.5" stroke-linecap="round" stroke-miterlimit="10" stroke-width="3"/><path fill="none" stroke="#000000" paint-order="fill stroke markers" d=" M 401.5 101.5 L 401.5 151.5" stroke-linecap="round" stroke-miterlimit="10" stroke-width="3"/><path fill="none" stroke="#000000" paint-order="fill stroke markers" d=" M 1.5 151.5 L 1.5 201.5" stroke-linecap="round" stroke-miterlimit="10" stroke-width="3"/><path fill="none" stroke="#000000" paint-order="fill stroke markers" d=" M 401.5 151.5 L 401.5 201.5" stroke-linecap="round" stroke-miterlimit="10" stroke-width="3"/><path fill="none" stroke="#000000" paint-order="fill stroke markers" d=" M 1.5 201.5 L 1.5 251.5" stroke-linecap="round" stroke-miterlimit="10" stroke-width="3"/><path fill="none" stroke="#000000" paint-order="fill stroke markers" d=" M 401.5 201.5 L 401.5 251.5" stroke-linecap="round" stroke-miterlimit="10" stroke-width="3"/><path fill="none" stroke="#000000" paint-order="fill stroke markers" d=" M 1.5 251.5 L 1.5 301.5" stroke-linecap="round" stroke-miterlimit="10" stroke-width="3"/><path fill="none" stroke="#000000" paint-order="fill stroke markers" d=" M 401.5 251.5 L 401.5 301.5" stroke-linecap="round" stroke-miterlimit="10" stroke-width="3"/><path fill="none" stroke="#000000" paint-order="fill stroke markers" d=" M 1.5 301.5 L 1.5 351.5" stroke-linecap="round" stroke-miterlimit="10" stroke-width="3"/><path fill="none" stroke="#000000" paint-order="fill stroke markers" d=" M 401.5 301.5 L 401.5 351.5" stroke-linecap="round" stroke-miterlimit="10" stroke-width="3"/><path fill="none" stroke="#000000" paint-order="fill stroke markers" d=" M 1.5 401.5 L 51.5 401.5" stroke-linecap="round" stroke-miterlimit="10" stroke-width="3"/><path fill="none" stroke="#000000" paint-order="fill stroke markers" d=" M 1.5 351.5 L 1.5 401.5" stroke-linecap="round" stroke-miterlimit="10" stroke-width="3"/><path fill="none" stroke="#000000" paint-order="fill stroke markers" d=" M 51.5 401.5 L 101.5 401.5" stroke-linecap="round" stroke-miterlimit="10" stroke-width="3"/><path fill="none" stroke="#000000" paint-order="fill stroke markers" d=" M 101.5 401.5 L 151.5 401.5" stroke-linecap="round" stroke-miterlimit="10" stroke-width="3"/><path fill="none" stroke="#000000" paint-order="fill stroke markers" d=" M 151.5 401.5 L 201.5 401.5" stroke-linecap="round" stroke-miterlimit="10" stroke-width="3"/><path fill="none" stroke="#000000" paint-order="fill stroke markers" d=" M 201.5 401.5 L 251.5 401.5" stroke-linecap="round" stroke-miterlimit="10" stroke-width="3"/><path fill="none" stroke="#000000" paint-order="fill stroke markers" d=" M 251.5 401.5 L 301.5 401.5" stroke-linecap="round" stroke-miterlimit="10" stroke-width="3"/><path fill="none" stroke="#000000" paint-order="fill stroke markers" d=" M 301.5 401.5 L 351.5 401.5" stroke-linecap="round" stroke-miterlimit="10" stroke-width="3"/><path fill="none" stroke="#000000" paint-order="fill stroke markers" d=" M 401.5 351.5 L 401.5 401.5" stroke-linecap="round" stroke-miterlimit="10" stroke-width="3"/><path fill="none" stroke="#000000" paint-order="fill stroke markers" d=" M 351.5 401.5 L 401.5 401.5" stroke-linecap="round" stroke-miterlimit="10" stroke-width="3"/><path fill="none" stroke="#000000" paint-order="fill stroke markers" d=" M 1.5 1.5 L 51.5 1.5" stroke-linecap="round" stroke-miterlimit="10" stroke-width="3"/><path fill="none" stroke="#000000" paint-order="fill stroke markers" d=" M 51.5 1.5 L 51.5 51.5" stroke-linecap="square" stroke-miterlimit="10" stroke-width="0.8"/><path fill="none" stroke="#000000" paint-order="fill stroke markers" d=" M 1.5 51.5 L 51.5 51.5" stroke-linecap="square" stroke-miterlimit="10" stroke-width="0.8"/><path fill="none" stroke="#000000" paint-order="fill stroke markers" d=" M 1.5 1.5 L 1.5 51.5" stroke-linecap="round" stroke-miterlimit="10" stroke-width="3"/><path fill="none" stroke="#000000" paint-order="fill stroke markers" d=" M 51.5 1.5 L 101.5 1.5" stroke-linecap="round" stroke-miterlimit="10" stroke-width="3"/><path fill="none" stroke="#000000" paint-order="fill stroke markers" d=" M 101.5 1.5 L 101.5 51.5" stroke-linecap="square" stroke-miterlimit="10" stroke-width="0.8"/><path fill="none" stroke="#000000" paint-order="fill stroke markers" d=" M 51.5 51.5 L 101.5 51.5" stroke-linecap="square" stroke-miterlimit="10" stroke-width="0.8"/><path fill="none" stroke="#000000" paint-order="fill stroke markers" d=" M 101.5 1.5 L 151.5 1.5" stroke-linecap="round" stroke-miterlimit="10" stroke-width="3"/><path fill="none" stroke="#000000" paint-order="fill stroke markers" d=" M 151.5 1.5 L 151.5 51.5" stroke-linecap="square" stroke-miterlimit="10" stroke-width="0.8"/><path fill="none" stroke="#000000" paint-order="fill stroke markers" d=" M 101.5 51.5 L 151.5 51.5" stroke-linecap="square" stroke-miterlimit="10" stroke-width="0.8"/><path fill="none" stroke="#000000" paint-order="fill stroke markers" d=" M 151.5 1.5 L 201.5 1.5" stroke-linecap="round" stroke-miterlimit="10" stroke-width="3"/><path fill="none" stroke="#000000" paint-order="fill stroke markers" d=" M 201.5 1.5 L 201.5 51.5" stroke-linecap="square" stroke-miterlimit="10" stroke-width="0.8"/><path fill="none" stroke="#000000" paint-order="fill stroke markers" d=" M 151.5 51.5 L 201.5 51.5" stroke-linecap="square" stroke-miterlimit="10" stroke-width="0.8"/><path fill="none" stroke="#000000" paint-order="fill stroke markers" d=" M 201.5 1.5 L 251.5 1.5" stroke-linecap="round" stroke-miterlimit="10" stroke-width="3"/><path fill="none" stroke="#000000" paint-order="fill stroke markers" d=" M 251.5 1.5 L 251.5 51.5" stroke-linecap="square" stroke-miterlimit="10" stroke-width="0.8"/><path fill="none" stroke="#000000" paint-order="fill stroke markers" d=" M 201.5 51.5 L 251.5 51.5" stroke-linecap="square" stroke-miterlimit="10" stroke-width="0.8"/><path fill="none" stroke="#000000" paint-order="fill stroke markers" d=" M 251.5 1.5 L 301.5 1.5" stroke-linecap="round" stroke-miterlimit="10" stroke-width="3"/><path fill="none" stroke="#000000" paint-order="fill stroke markers" d=" M 301.5 1.5 L 301.5 51.5" stroke-linecap="square" stroke-miterlimit="10" stroke-width="0.8"/><path fill="none" stroke="#000000" paint-order="fill stroke markers" d=" M 251.5 51.5 L 301.5 51.5" stroke-linecap="square" stroke-miterlimit="10" stroke-width="0.8"/><path fill="none" stroke="#000000" paint-order="fill stroke markers" d=" M 301.5 1.5 L 351.5 1.5" stroke-linecap="round" stroke-miterlimit="10" stroke-width="3"/><path fill="none" stroke="#000000" paint-order="fill stroke markers" d=" M 351.5 1.5 L 351.5 51.5" stroke-linecap="square" stroke-miterlimit="10" stroke-width="0.8"/><path fill="none" stroke="#000000" paint-order="fill stroke markers" d=" M 301.5 51.5 L 351.5 51.5" stroke-linecap="square" stroke-miterlimit="10" stroke-width="0.8"/><path fill="none" stroke="#000000" paint-order="fill stroke markers" d=" M 351.5 1.5 L 401.5 1.5" stroke-linecap="round" stroke-miterlimit="10" stroke-width="3"/><path fill="none" stroke="#000000" paint-order="fill stroke markers" d=" M 401.5 1.5 L 401.5 51.5" stroke-linecap="round" stroke-miterlimit="10" stroke-width="3"/><path fill="none" stroke="#000000" paint-order="fill stroke markers" d=" M 351.5 51.5 L 401.5 51.5" stroke-linecap="square" stroke-miterlimit="10" stroke-width="0.8"/><path fill="none" stroke="#000000" paint-order="fill stroke markers" d=" M 51.5 51.5 L 51.5 101.5" stroke-linecap="square" stroke-miterlimit="10" stroke-width="0.8"/><path fill="none" stroke="#000000" paint-order="fill stroke markers" d=" M 1.5 101.5 L 51.5 101.5" stroke-linecap="square" stroke-miterlimit="10" stroke-width="0.8"/><path fill="none" stroke="#000000" paint-order="fill stroke markers" d=" M 1.5 51.5 L 1.5 101.5" stroke-linecap="round" stroke-miterlimit="10" stroke-width="3"/><path fill="none" stroke="#000000" paint-order="fill stroke markers" d=" M 101.5 51.5 L 101.5 101.5" stroke-linecap="square" stroke-miterlimit="10" stroke-width="0.8"/><path fill="none" stroke="#000000" paint-order="fill stroke markers" d=" M 51.5 101.5 L 101.5 101.5" stroke-linecap="square" stroke-miterlimit="10" stroke-width="0.8"/><path fill="none" stroke="#000000" paint-order="fill stroke markers" d=" M 151.5 51.5 L 151.5 101.5" stroke-linecap="square" stroke-miterlimit="10" stroke-width="0.8"/><path fill="none" stroke="#000000" paint-order="fill stroke markers" d=" M 101.5 101.5 L 151.5 101.5" stroke-linecap="square" stroke-miterlimit="10" stroke-width="0.8"/><path fill="none" stroke="#000000" paint-order="fill stroke markers" d=" M 201.5 51.5 L 201.5 101.5" stroke-linecap="square" stroke-miterlimit="10" stroke-width="0.8"/><path fill="none" stroke="#000000" paint-order="fill stroke markers" d=" M 151.5 101.5 L 201.5 101.5" stroke-linecap="square" stroke-miterlimit="10" stroke-width="0.8"/><path fill="none" stroke="#000000" paint-order="fill stroke markers" d=" M 251.5 51.5 L 251.5 101.5" stroke-linecap="square" stroke-miterlimit="10" stroke-width="0.8"/><path fill="none" stroke="#000000" paint-order="fill stroke markers" d=" M 201.5 101.5 L 251.5 101.5" stroke-linecap="square" stroke-miterlimit="10" stroke-width="0.8"/><path fill="none" stroke="#000000" paint-order="fill stroke markers" d=" M 301.5 51.5 L 301.5 101.5" stroke-linecap="square" stroke-miterlimit="10" stroke-width="0.8"/><path fill="none" stroke="#000000" paint-order="fill stroke markers" d=" M 251.5 101.5 L 301.5 101.5" stroke-linecap="square" stroke-miterlimit="10" stroke-width="0.8"/><path fill="none" stroke="#000000" paint-order="fill stroke markers" d=" M 351.5 51.5 L 351.5 101.5" stroke-linecap="square" stroke-miterlimit="10" stroke-width="0.8"/><path fill="none" stroke="#000000" paint-order="fill stroke markers" d=" M 301.5 101.5 L 351.5 101.5" stroke-linecap="square" stroke-miterlimit="10" stroke-width="0.8"/><path fill="none" stroke="#000000" paint-order="fill stroke markers" d=" M 401.5 51.5 L 401.5 101.5" stroke-linecap="round" stroke-miterlimit="10" stroke-width="3"/><path fill="none" stroke="#000000" paint-order="fill stroke markers" d=" M 351.5 101.5 L 401.5 101.5" stroke-linecap="square" stroke-miterlimit="10" stroke-width="0.8"/><path fill="none" stroke="#000000" paint-order="fill stroke markers" d=" M 51.5 101.5 L 51.5 151.5" stroke-linecap="square" stroke-miterlimit="10" stroke-width="0.8"/><path fill="none" stroke="#000000" paint-order="fill stroke markers" d=" M 1.5 151.5 L 51.5 151.5" stroke-linecap="square" stroke-miterlimit="10" stroke-width="0.8"/><path fill="none" stroke="#000000" paint-order="fill stroke markers" d=" M 1.5 101.5 L 1.5 151.5" stroke-linecap="round" stroke-miterlimit="10" stroke-width="3"/><path fill="none" stroke="#000000" paint-order="fill stroke markers" d=" M 101.5 101.5 L 101.5 151.5" stroke-linecap="square" stroke-miterlimit="10" stroke-width="0.8"/><path fill="none" stroke="#000000" paint-order="fill stroke markers" d=" M 51.5 151.5 L 101.5 151.5" stroke-linecap="square" stroke-miterlimit="10" stroke-width="0.8"/><path fill="none" stroke="#000000" paint-order="fill stroke markers" d=" M 151.5 101.5 L 151.5 151.5" stroke-linecap="square" stroke-miterlimit="10" stroke-width="0.8"/><path fill="none" stroke="#000000" paint-order="fill stroke markers" d=" M 101.5 151.5 L 151.5 151.5" stroke-linecap="square" stroke-miterlimit="10" stroke-width="0.8"/><path fill="none" stroke="#000000" paint-order="fill stroke markers" d=" M 201.5 101.5 L 201.5 151.5" stroke-linecap="square" stroke-miterlimit="10" stroke-width="0.8"/><path fill="none" stroke="#000000" paint-order="fill stroke markers" d=" M 151.5 151.5 L 201.5 151.5" stroke-linecap="square" stroke-miterlimit="10" stroke-width="0.8"/><path fill="none" stroke="#000000" paint-order="fill stroke markers" d=" M 251.5 101.5 L 251.5 151.5" stroke-linecap="square" stroke-miterlimit="10" stroke-width="0.8"/><path fill="none" stroke="#000000" paint-order="fill stroke markers" d=" M 201.5 151.5 L 251.5 151.5" stroke-linecap="square" stroke-miterlimit="10" stroke-width="0.8"/><path fill="none" stroke="#000000" paint-order="fill stroke markers" d=" M 301.5 101.5 L 301.5 151.5" stroke-linecap="square" stroke-miterlimit="10" stroke-width="0.8"/><path fill="none" stroke="#000000" paint-order="fill stroke markers" d=" M 251.5 151.5 L 301.5 151.5" stroke-linecap="square" stroke-miterlimit="10" stroke-width="0.8"/><path fill="none" stroke="#000000" paint-order="fill stroke markers" d=" M 351.5 101.5 L 351.5 151.5" stroke-linecap="square" stroke-miterlimit="10" stroke-width="0.8"/><path fill="none" stroke="#000000" paint-order="fill stroke markers" d=" M 301.5 151.5 L 351.5 151.5" stroke-linecap="square" stroke-miterlimit="10" stroke-width="0.8"/><path fill="none" stroke="#000000" paint-order="fill stroke markers" d=" M 401.5 101.5 L 401.5 151.5" stroke-linecap="round" stroke-miterlimit="10" stroke-width="3"/><path fill="none" stroke="#000000" paint-order="fill stroke markers" d=" M 351.5 151.5 L 401.5 151.5" stroke-linecap="square" stroke-miterlimit="10" stroke-width="0.8"/><path fill="none" stroke="#000000" paint-order="fill stroke markers" d=" M 51.5 151.5 L 51.5 201.5" stroke-linecap="square" stroke-miterlimit="10" stroke-width="0.8"/><path fill="none" stroke="#000000" paint-order="fill stroke markers" d=" M 1.5 201.5 L 51.5 201.5" stroke-linecap="square" stroke-miterlimit="10" stroke-width="0.8"/><path fill="none" stroke="#000000" paint-order="fill stroke markers" d=" M 1.5 151.5 L 1.5 201.5" stroke-linecap="round" stroke-miterlimit="10" stroke-width="3"/><path fill="none" stroke="#000000" paint-order="fill stroke markers" d=" M 101.5 151.5 L 101.5 201.5" stroke-linecap="square" stroke-miterlimit="10" stroke-width="0.8"/><path fill="none" stroke="#000000" paint-order="fill stroke markers" d=" M 51.5 201.5 L 101.5 201.5" stroke-linecap="square" stroke-miterlimit="10" stroke-width="0.8"/><path fill="none" stroke="#000000" paint-order="fill stroke markers" d=" M 151.5 151.5 L 151.5 201.5" stroke-linecap="square" stroke-miterlimit="10" stroke-width="0.8"/><path fill="none" stroke="#000000" paint-order="fill stroke markers" d=" M 101.5 201.5 L 151.5 201.5" stroke-linecap="square" stroke-miterlimit="10" stroke-width="0.8"/><path fill="none" stroke="#000000" paint-order="fill stroke markers" d=" M 201.5 151.5 L 201.5 201.5" stroke-linecap="square" stroke-miterlimit="10" stroke-width="0.8"/><path fill="none" stroke="#000000" paint-order="fill stroke markers" d=" M 151.5 201.5 L 201.5 201.5" stroke-linecap="square" stroke-miterlimit="10" stroke-width="0.8"/><path fill="none" stroke="#000000" paint-order="fill stroke markers" d=" M 251.5 151.5 L 251.5 201.5" stroke-linecap="square" stroke-miterlimit="10" stroke-width="0.8"/><path fill="none" stroke="#000000" paint-order="fill stroke markers" d=" M 201.5 201.5 L 251.5 201.5" stroke-linecap="square" stroke-miterlimit="10" stroke-width="0.8"/><path fill="none" stroke="#000000" paint-order="fill stroke markers" d=" M 301.5 151.5 L 301.5 201.5" stroke-linecap="square" stroke-miterlimit="10" stroke-width="0.8"/><path fill="none" stroke="#000000" paint-order="fill stroke markers" d=" M 251.5 201.5 L 301.5 201.5" stroke-linecap="square" stroke-miterlimit="10" stroke-width="0.8"/><path fill="none" stroke="#000000" paint-order="fill stroke markers" d=" M 351.5 151.5 L 351.5 201.5" stroke-linecap="square" stroke-miterlimit="10" stroke-width="0.8"/><path fill="none" stroke="#000000" paint-order="fill stroke markers" d=" M 301.5 201.5 L 351.5 201.5" stroke-linecap="square" stroke-miterlimit="10" stroke-width="0.8"/><path fill="none" stroke="#000000" paint-order="fill stroke markers" d=" M 401.5 151.5 L 401.5 201.5" stroke-linecap="round" stroke-miterlimit="10" stroke-width="3"/><path fill="none" stroke="#000000" paint-order="fill stroke markers" d=" M 351.5 201.5 L 401.5 201.5" stroke-linecap="square" stroke-miterlimit="10" stroke-width="0.8"/><path fill="none" stroke="#000000" paint-order="fill stroke markers" d=" M 51.5 201.5 L 51.5 251.5" stroke-linecap="square" stroke-miterlimit="10" stroke-width="0.8"/><path fill="none" stroke="#000000" paint-order="fill stroke markers" d=" M 1.5 251.5 L 51.5 251.5" stroke-linecap="square" stroke-miterlimit="10" stroke-width="0.8"/><path fill="none" stroke="#000000" paint-order="fill stroke markers" d=" M 1.5 201.5 L 1.5 251.5" stroke-linecap="round" stroke-miterlimit="10" stroke-width="3"/><path fill="none" stroke="#000000" paint-order="fill stroke markers" d=" M 101.5 201.5 L 101.5 251.5" stroke-linecap="square" stroke-miterlimit="10" stroke-width="0.8"/><path fill="none" stroke="#000000" paint-order="fill stroke markers" d=" M 51.5 251.5 L 101.5 251.5" stroke-linecap="square" stroke-miterlimit="10" stroke-width="0.8"/><path fill="none" stroke="#000000" paint-order="fill stroke markers" d=" M 151.5 201.5 L 151.5 251.5" stroke-linecap="square" stroke-miterlimit="10" stroke-width="0.8"/><path fill="none" stroke="#000000" paint-order="fill stroke markers" d=" M 101.5 251.5 L 151.5 251.5" stroke-linecap="square" stroke-miterlimit="10" stroke-width="0.8"/><path fill="none" stroke="#000000" paint-order="fill stroke markers" d=" M 201.5 201.5 L 201.5 251.5" stroke-linecap="square" stroke-miterlimit="10" stroke-width="0.8"/><path fill="none" stroke="#000000" paint-order="fill stroke markers" d=" M 151.5 251.5 L 201.5 251.5" stroke-linecap="square" stroke-miterlimit="10" stroke-width="0.8"/><path fill="none" stroke="#000000" paint-order="fill stroke markers" d=" M 251.5 201.5 L 251.5 251.5" stroke-linecap="square" stroke-miterlimit="10" stroke-width="0.8"/><path fill="none" stroke="#000000" paint-order="fill stroke markers" d=" M 201.5 251.5 L 251.5 251.5" stroke-linecap="square" stroke-miterlimit="10" stroke-width="0.8"/><path fill="none" stroke="#000000" paint-order="fill stroke markers" d=" M 301.5 201.5 L 301.5 251.5" stroke-linecap="square" stroke-miterlimit="10" stroke-width="0.8"/><path fill="none" stroke="#000000" paint-order="fill stroke markers" d=" M 251.5 251.5 L 301.5 251.5" stroke-linecap="square" stroke-miterlimit="10" stroke-width="0.8"/><path fill="none" stroke="#000000" paint-order="fill stroke markers" d=" M 351.5 201.5 L 351.5 251.5" stroke-linecap="square" stroke-miterlimit="10" stroke-width="0.8"/><path fill="none" stroke="#000000" paint-order="fill stroke markers" d=" M 301.5 251.5 L 351.5 251.5" stroke-linecap="square" stroke-miterlimit="10" stroke-width="0.8"/><path fill="none" stroke="#000000" paint-order="fill stroke markers" d=" M 401.5 201.5 L 401.5 251.5" stroke-linecap="round" stroke-miterlimit="10" stroke-width="3"/><path fill="none" stroke="#000000" paint-order="fill stroke markers" d=" M 351.5 251.5 L 401.5 251.5" stroke-linecap="square" stroke-miterlimit="10" stroke-width="0.8"/><path fill="none" stroke="#000000" paint-order="fill stroke markers" d=" M 51.5 251.5 L 51.5 301.5" stroke-linecap="square" stroke-miterlimit="10" stroke-width="0.8"/><path fill="none" stroke="#000000" paint-order="fill stroke markers" d=" M 1.5 301.5 L 51.5 301.5" stroke-linecap="square" stroke-miterlimit="10" stroke-width="0.8"/><path fill="none" stroke="#000000" paint-order="fill stroke markers" d=" M 1.5 251.5 L 1.5 301.5" stroke-linecap="round" stroke-miterlimit="10" stroke-width="3"/><path fill="none" stroke="#000000" paint-order="fill stroke markers" d=" M 101.5 251.5 L 101.5 301.5" stroke-linecap="square" stroke-miterlimit="10" stroke-width="0.8"/><path fill="none" stroke="#000000" paint-order="fill stroke markers" d=" M 51.5 301.5 L 101.5 301.5" stroke-linecap="square" stroke-miterlimit="10" stroke-width="0.8"/><path fill="none" stroke="#000000" paint-order="fill stroke markers" d=" M 151.5 251.5 L 151.5 301.5" stroke-linecap="square" stroke-miterlimit="10" stroke-width="0.8"/><path fill="none" stroke="#000000" paint-order="fill stroke markers" d=" M 101.5 301.5 L 151.5 301.5" stroke-linecap="square" stroke-miterlimit="10" stroke-width="0.8"/><path fill="none" stroke="#000000" paint-order="fill stroke markers" d=" M 201.5 251.5 L 201.5 301.5" stroke-linecap="square" stroke-miterlimit="10" stroke-width="0.8"/><path fill="none" stroke="#000000" paint-order="fill stroke markers" d=" M 151.5 301.5 L 201.5 301.5" stroke-linecap="square" stroke-miterlimit="10" stroke-width="0.8"/><path fill="none" stroke="#000000" paint-order="fill stroke markers" d=" M 251.5 251.5 L 251.5 301.5" stroke-linecap="square" stroke-miterlimit="10" stroke-width="0.8"/><path fill="none" stroke="#000000" paint-order="fill stroke markers" d=" M 201.5 301.5 L 251.5 301.5" stroke-linecap="square" stroke-miterlimit="10" stroke-width="0.8"/><path fill="none" stroke="#000000" paint-order="fill stroke markers" d=" M 301.5 251.5 L 301.5 301.5" stroke-linecap="square" stroke-miterlimit="10" stroke-width="0.8"/><path fill="none" stroke="#000000" paint-order="fill stroke markers" d=" M 251.5 301.5 L 301.5 301.5" stroke-linecap="square" stroke-miterlimit="10" stroke-width="0.8"/><path fill="none" stroke="#000000" paint-order="fill stroke markers" d=" M 351.5 251.5 L 351.5 301.5" stroke-linecap="square" stroke-miterlimit="10" stroke-width="0.8"/><path fill="none" stroke="#000000" paint-order="fill stroke markers" d=" M 301.5 301.5 L 351.5 301.5" stroke-linecap="square" stroke-miterlimit="10" stroke-width="0.8"/><path fill="none" stroke="#000000" paint-order="fill stroke markers" d=" M 401.5 251.5 L 401.5 301.5" stroke-linecap="round" stroke-miterlimit="10" stroke-width="3"/><path fill="none" stroke="#000000" paint-order="fill stroke markers" d=" M 351.5 301.5 L 401.5 301.5" stroke-linecap="square" stroke-miterlimit="10" stroke-width="0.8"/><path fill="none" stroke="#000000" paint-order="fill stroke markers" d=" M 51.5 301.5 L 51.5 351.5" stroke-linecap="square" stroke-miterlimit="10" stroke-width="0.8"/><path fill="none" stroke="#000000" paint-order="fill stroke markers" d=" M 1.5 351.5 L 51.5 351.5" stroke-linecap="square" stroke-miterlimit="10" stroke-width="0.8"/><path fill="none" stroke="#000000" paint-order="fill stroke markers" d=" M 1.5 301.5 L 1.5 351.5" stroke-linecap="round" stroke-miterlimit="10" stroke-width="3"/><path fill="none" stroke="#000000" paint-order="fill stroke markers" d=" M 101.5 301.5 L 101.5 351.5" stroke-linecap="square" stroke-miterlimit="10" stroke-width="0.8"/><path fill="none" stroke="#000000" paint-order="fill stroke markers" d=" M 51.5 351.5 L 101.5 351.5" stroke-linecap="square" stroke-miterlimit="10" stroke-width="0.8"/><path fill="none" stroke="#000000" paint-order="fill stroke markers" d=" M 151.5 301.5 L 151.5 351.5" stroke-linecap="square" stroke-miterlimit="10" stroke-width="0.8"/><path fill="none" stroke="#000000" paint-order="fill stroke markers" d=" M 101.5 351.5 L 151.5 351.5" stroke-linecap="square" stroke-miterlimit="10" stroke-width="0.8"/><path fill="none" stroke="#000000" paint-order="fill stroke markers" d=" M 201.5 301.5 L 201.5 351.5" stroke-linecap="square" stroke-miterlimit="10" stroke-width="0.8"/><path fill="none" stroke="#000000" paint-order="fill stroke markers" d=" M 151.5 351.5 L 201.5 351.5" stroke-linecap="square" stroke-miterlimit="10" stroke-width="0.8"/><path fill="none" stroke="#000000" paint-order="fill stroke markers" d=" M 251.5 301.5 L 251.5 351.5" stroke-linecap="square" stroke-miterlimit="10" stroke-width="0.8"/><path fill="none" stroke="#000000" paint-order="fill stroke markers" d=" M 201.5 351.5 L 251.5 351.5" stroke-linecap="square" stroke-miterlimit="10" stroke-width="0.8"/><path fill="none" stroke="#000000" paint-order="fill stroke markers" d=" M 301.5 301.5 L 301.5 351.5" stroke-linecap="square" stroke-miterlimit="10" stroke-width="0.8"/><path fill="none" stroke="#000000" paint-order="fill stroke markers" d=" M 251.5 351.5 L 301.5 351.5" stroke-linecap="square" stroke-miterlimit="10" stroke-width="0.8"/><path fill="none" stroke="#000000" paint-order="fill stroke markers" d=" M 351.5 301.5 L 351.5 351.5" stroke-linecap="square" stroke-miterlimit="10" stroke-width="0.8"/><path fill="none" stroke="#000000" paint-order="fill stroke markers" d=" M 301.5 351.5 L 351.5 351.5" stroke-linecap="square" stroke-miterlimit="10" stroke-width="0.8"/><path fill="none" stroke="#000000" paint-order="fill stroke markers" d=" M 401.5 301.5 L 401.5 351.5" stroke-linecap="round" stroke-miterlimit="10" stroke-width="3"/><path fill="none" stroke="#000000" paint-order="fill stroke markers" d=" M 351.5 351.5 L 401.5 351.5" stroke-linecap="square" stroke-miterlimit="10" stroke-width="0.8"/><path fill="none" stroke="#000000" paint-order="fill stroke markers" d=" M 51.5 351.5 L 51.5 401.5" stroke-linecap="square" stroke-miterlimit="10" stroke-width="0.8"/><path fill="none" stroke="#000000" paint-order="fill stroke markers" d=" M 1.5 401.5 L 51.5 401.5" stroke-linecap="round" stroke-miterlimit="10" stroke-width="3"/><path fill="none" stroke="#000000" paint-order="fill stroke markers" d=" M 1.5 351.5 L 1.5 401.5" stroke-linecap="round" stroke-miterlimit="10" stroke-width="3"/><path fill="none" stroke="#000000" paint-order="fill stroke markers" d=" M 101.5 351.5 L 101.5 401.5" stroke-linecap="square" stroke-miterlimit="10" stroke-width="0.8"/><path fill="none" stroke="#000000" paint-order="fill stroke markers" d=" M 51.5 401.5 L 101.5 401.5" stroke-linecap="round" stroke-miterlimit="10" stroke-width="3"/><path fill="none" stroke="#000000" paint-order="fill stroke markers" d=" M 151.5 351.5 L 151.5 401.5" stroke-linecap="square" stroke-miterlimit="10" stroke-width="0.8"/><path fill="none" stroke="#000000" paint-order="fill stroke markers" d=" M 101.5 401.5 L 151.5 401.5" stroke-linecap="round" stroke-miterlimit="10" stroke-width="3"/><path fill="none" stroke="#000000" paint-order="fill stroke markers" d=" M 201.5 351.5 L 201.5 401.5" stroke-linecap="square" stroke-miterlimit="10" stroke-width="0.8"/><path fill="none" stroke="#000000" paint-order="fill stroke markers" d=" M 151.5 401.5 L 201.5 401.5" stroke-linecap="round" stroke-miterlimit="10" stroke-width="3"/><path fill="none" stroke="#000000" paint-order="fill stroke markers" d=" M 251.5 351.5 L 251.5 401.5" stroke-linecap="square" stroke-miterlimit="10" stroke-width="0.8"/><path fill="none" stroke="#000000" paint-order="fill stroke markers" d=" M 201.5 401.5 L 251.5 401.5" stroke-linecap="round" stroke-miterlimit="10" stroke-width="3"/><path fill="none" stroke="#000000" paint-order="fill stroke markers" d=" M 301.5 351.5 L 301.5 401.5" stroke-linecap="square" stroke-miterlimit="10" stroke-width="0.8"/><path fill="none" stroke="#000000" paint-order="fill stroke markers" d=" M 251.5 401.5 L 301.5 401.5" stroke-linecap="round" stroke-miterlimit="10" stroke-width="3"/><path fill="none" stroke="#000000" paint-order="fill stroke markers" d=" M 351.5 351.5 L 351.5 401.5" stroke-linecap="square" stroke-miterlimit="10" stroke-width="0.8"/><path fill="none" stroke="#000000" paint-order="fill stroke markers" d=" M 301.5 401.5 L 351.5 401.5" stroke-linecap="round" stroke-miterlimit="10" stroke-width="3"/><path fill="none" stroke="#000000" paint-order="fill stroke markers" d=" M 401.5 351.5 L 401.5 401.5" stroke-linecap="round" stroke-miterlimit="10" stroke-width="3"/><path fill="none" stroke="#000000" paint-order="fill stroke markers" d=" M 351.5 401.5 L 401.5 401.5" stroke-linecap="round" stroke-miterlimit="10" stroke-width="3"/><text fill="none" stroke="rgb(255,255,255)" font-family="Helvetica,Arial" font-size="35px" font-style="normal" font-weight="normal" text-decoration="normal" x="76.5" y="43.8" text-anchor="middle" dominant-baseline="alphabetic" stroke-opacity="0" stroke-linecap="round" stroke-miterlimit="10" stroke-width="3">1</text><text fill="#000000" stroke="none" font-family="Helvetica,Arial" font-size="35px" font-style="normal" font-weight="normal" text-decoration="normal" x="76.5" y="43.8" text-anchor="middle" dominant-baseline="alphabetic">1</text><path fill="#000000" stroke="rgb(255,255,255)" paint-order="stroke fill markers" d=" M 59 11.5 L 59 12.5 L 81.5 12.5 L 81.5 14.5 L 94 11.5 L 81.5 8.5 L 81.5 10.5 L 59 10.5 L 59 11.5" stroke-opacity="0" stroke-linecap="round" stroke-miterlimit="10" stroke-width="3"/><text fill="none" stroke="rgb(255,255,255)" font-family="Helvetica,Arial" font-size="35px" font-style="normal" font-weight="normal" text-decoration="normal" x="21.5" y="88.8" text-anchor="middle" dominant-baseline="alphabetic" stroke-opacity="0" stroke-linecap="round" stroke-miterlimit="10" stroke-width="3">1</text><text fill="#000000" stroke="none" font-family="Helvetica,Arial" font-size="35px" font-style="normal" font-weight="normal" text-decoration="normal" x="21.5" y="88.8" text-anchor="middle" dominant-baseline="alphabetic">1</text><path fill="#000000" stroke="rgb(255,255,255)" paint-order="stroke fill markers" d=" M 41.5 59 L 40.5 59 L 40.5 81.5 L 38.5 81.5 L 41.5 94 L 44.5 81.5 L 42.5 81.5 L 42.5 59 L 41.5 59" stroke-opacity="0" stroke-linecap="round" stroke-miterlimit="10" stroke-width="3"/><text fill="none" stroke="rgb(255,255,255)" font-family="Helvetica,Arial" font-size="35px" font-style="normal" font-weight="normal" text-decoration="normal" x="76.5" y="93.8" text-anchor="middle" dominant-baseline="alphabetic" stroke-opacity="0" stroke-linecap="round" stroke-miterlimit="10" stroke-width="3">1</text><text fill="#000000" stroke="none" font-family="Helvetica,Arial" font-size="35px" font-style="normal" font-weight="normal" text-decoration="normal" x="76.5" y="93.8" text-anchor="middle" dominant-baseline="alphabetic">1</text><path fill="#000000" stroke="rgb(255,255,255)" paint-order="stroke fill markers" d=" M 59 61.5 L 59 62.5 L 81.5 62.5 L 81.5 64.5 L 94 61.5 L 81.5 58.5 L 81.5 60.5 L 59 60.5 L 59 61.5" stroke-opacity="0" stroke-linecap="round" stroke-miterlimit="10" stroke-width="3"/><text fill="none" stroke="rgb(255,255,255)" font-family="Helvetica,Arial" font-size="35px" font-style="normal" font-weight="normal" text-decoration="normal" x="71.5" y="138.8" text-anchor="middle" dominant-baseline="alphabetic" stroke-opacity="0" stroke-linecap="round" stroke-miterlimit="10" stroke-width="3">1</text><text fill="#000000" stroke="none" font-family="Helvetica,Arial" font-size="35px" font-style="normal" font-weight="normal" text-decoration="normal" x="71.5" y="138.8" text-anchor="middle" dominant-baseline="alphabetic">1</text><path fill="#000000" stroke="rgb(255,255,255)" paint-order="stroke fill markers" d=" M 91.5 109 L 90.5 109 L 90.5 131.5 L 88.5 131.5 L 91.5 144 L 94.5 131.5 L 92.5 131.5 L 92.5 109 L 91.5 109" stroke-opacity="0" stroke-linecap="round" stroke-miterlimit="10" stroke-width="3"/><text fill="none" stroke="rgb(255,255,255)" font-family="Helvetica,Arial" font-size="35px" font-style="normal" font-weight="normal" text-decoration="normal" x="226.5" y="143.8" text-anchor="middle" dominant-baseline="alphabetic" stroke-opacity="0" stroke-linecap="round" stroke-miterlimit="10" stroke-width="3">2</text><text fill="#000000" stroke="none" font-family="Helvetica,Arial" font-size="35px" font-style="normal" font-weight="normal" text-decoration="normal" x="226.5" y="143.8" text-anchor="middle" dominant-baseline="alphabetic">2</text><path fill="#000000" stroke="rgb(255,255,255)" paint-order="stroke fill markers" d=" M 209 111.5 L 209 112.5 L 231.5 112.5 L 231.5 114.5 L 244 111.5 L 231.5 108.5 L 231.5 110.5 L 209 110.5 L 209 111.5" stroke-opacity="0" stroke-linecap="round" stroke-miterlimit="10" stroke-width="3"/><text fill="none" stroke="rgb(255,255,255)" font-family="Helvetica,Arial" font-size="35px" font-style="normal" font-weight="normal" text-decoration="normal" x="271.5" y="138.8" text-anchor="middle" dominant-baseline="alphabetic" stroke-opacity="0" stroke-linecap="round" stroke-miterlimit="10" stroke-width="3">2</text><text fill="#000000" stroke="none" font-family="Helvetica,Arial" font-size="35px" font-style="normal" font-weight="normal" text-decoration="normal" x="271.5" y="138.8" text-anchor="middle" dominant-baseline="alphabetic">2</text><path fill="#000000" stroke="rgb(255,255,255)" paint-order="stroke fill markers" d=" M 291.5 109 L 290.5 109 L 290.5 131.5 L 288.5 131.5 L 291.5 144 L 294.5 131.5 L 292.5 131.5 L 292.5 109 L 291.5 109" stroke-opacity="0" stroke-linecap="round" stroke-miterlimit="10" stroke-width="3"/><text fill="none" stroke="rgb(255,255,255)" font-family="Helvetica,Arial" font-size="35px" font-style="normal" font-weight="normal" text-decoration="normal" x="321.5" y="138.8" text-anchor="middle" dominant-baseline="alphabetic" stroke-opacity="0" stroke-linecap="round" stroke-miterlimit="10" stroke-width="3">2</text><text fill="#000000" stroke="none" font-family="Helvetica,Arial" font-size="35px" font-style="normal" font-weight="normal" text-decoration="normal" x="321.5" y="138.8" text-anchor="middle" dominant-baseline="alphabetic">2</text><path fill="#000000" stroke="rgb(255,255,255)" paint-order="stroke fill markers" d=" M 341.5 109 L 340.5 109 L 340.5 131.5 L 338.5 131.5 L 341.5 144 L 344.5 131.5 L 342.5 131.5 L 342.5 109 L 341.5 109" stroke-opacity="0" stroke-linecap="round" stroke-miterlimit="10" stroke-width="3"/><text fill="none" stroke="rgb(255,255,255)" font-family="Helvetica,Arial" font-size="35px" font-style="normal" font-weight="normal" text-decoration="normal" x="76.5" y="193.8" text-anchor="middle" dominant-baseline="alphabetic" stroke-opacity="0" stroke-linecap="round" stroke-miterlimit="10" stroke-width="3">1</text><text fill="#000000" stroke="none" font-family="Helvetica,Arial" font-size="35px" font-style="normal" font-weight="normal" text-decoration="normal" x="76.5" y="193.8" text-anchor="middle" dominant-baseline="alphabetic">1</text><path fill="#000000" stroke="rgb(255,255,255)" paint-order="stroke fill markers" d=" M 59 161.5 L 59 162.5 L 81.5 162.5 L 81.5 164.5 L 94 161.5 L 81.5 158.5 L 81.5 160.5 L 59 160.5 L 59 161.5" stroke-opacity="0" stroke-linecap="round" stroke-miterlimit="10" stroke-width="3"/><text fill="none" stroke="rgb(255,255,255)" font-family="Helvetica,Arial" font-size="35px" font-style="normal" font-weight="normal" text-decoration="normal" x="171.5" y="188.8" text-anchor="middle" dominant-baseline="alphabetic" stroke-opacity="0" stroke-linecap="round" stroke-miterlimit="10" stroke-width="3">2</text><text fill="#000000" stroke="none" font-family="Helvetica,Arial" font-size="35px" font-style="normal" font-weight="normal" text-decoration="normal" x="171.5" y="188.8" text-anchor="middle" dominant-baseline="alphabetic">2</text><path fill="#000000" stroke="rgb(255,255,255)" paint-order="stroke fill markers" d=" M 191.5 159 L 190.5 159 L 190.5 181.5 L 188.5 181.5 L 191.5 194 L 194.5 181.5 L 192.5 181.5 L 192.5 159 L 191.5 159" stroke-opacity="0" stroke-linecap="round" stroke-miterlimit="10" stroke-width="3"/><text fill="none" stroke="rgb(255,255,255)" font-family="Helvetica,Arial" font-size="35px" font-style="normal" font-weight="normal" text-decoration="normal" x="371.5" y="188.8" text-anchor="middle" dominant-baseline="alphabetic" stroke-opacity="0" stroke-linecap="round" stroke-miterlimit="10" stroke-width="3">2</text><text fill="#000000" stroke="none" font-family="Helvetica,Arial" font-size="35px" font-style="normal" font-weight="normal" text-decoration="normal" x="371.5" y="188.8" text-anchor="middle" dominant-baseline="alphabetic">2</text><path fill="#000000" stroke="rgb(255,255,255)" paint-order="stroke fill markers" d=" M 391.5 159 L 390.5 159 L 390.5 181.5 L 388.5 181.5 L 391.5 194 L 394.5 181.5 L 392.5 181.5 L 392.5 159 L 391.5 159" stroke-opacity="0" stroke-linecap="round" stroke-miterlimit="10" stroke-width="3"/><text fill="none" stroke="rgb(255,255,255)" font-family="Helvetica,Arial" font-size="35px" font-style="normal" font-weight="normal" text-decoration="normal" x="76.5" y="243.8" text-anchor="middle" dominant-baseline="alphabetic" stroke-opacity="0" stroke-linecap="round" stroke-miterlimit="10" stroke-width="3">1</text><text fill="#000000" stroke="none" font-family="Helvetica,Arial" font-size="35px" font-style="normal" font-weight="normal" text-decoration="normal" x="76.5" y="243.8" text-anchor="middle" dominant-baseline="alphabetic">1</text><path fill="#000000" stroke="rgb(255,255,255)" paint-order="stroke fill markers" d=" M 94 211.5 L 94 210.5 L 71.5 210.5 L 71.5 208.5 L 59 211.5 L 71.5 214.5 L 71.5 212.5 L 94 212.5 L 94 211.5" stroke-opacity="0" stroke-linecap="round" stroke-miterlimit="10" stroke-width="3"/><text fill="none" stroke="rgb(255,255,255)" font-family="Helvetica,Arial" font-size="35px" font-style="normal" font-weight="normal" text-decoration="normal" x="321.5" y="238.8" text-anchor="middle" dominant-baseline="alphabetic" stroke-opacity="0" stroke-linecap="round" stroke-miterlimit="10" stroke-width="3">2</text><text fill="#000000" stroke="none" font-family="Helvetica,Arial" font-size="35px" font-style="normal" font-weight="normal" text-decoration="normal" x="321.5" y="238.8" text-anchor="middle" dominant-baseline="alphabetic">2</text><path fill="#000000" stroke="rgb(255,255,255)" paint-order="stroke fill markers" d=" M 341.5 209 L 340.5 209 L 340.5 231.5 L 338.5 231.5 L 341.5 244 L 344.5 231.5 L 342.5 231.5 L 342.5 209 L 341.5 209" stroke-opacity="0" stroke-linecap="round" stroke-miterlimit="10" stroke-width="3"/><text fill="none" stroke="rgb(255,255,255)" font-family="Helvetica,Arial" font-size="35px" font-style="normal" font-weight="normal" text-decoration="normal" x="26.5" y="293.8" text-anchor="middle" dominant-baseline="alphabetic" stroke-opacity="0" stroke-linecap="round" stroke-miterlimit="10" stroke-width="3">1</text><text fill="#000000" stroke="none" font-family="Helvetica,Arial" font-size="35px" font-style="normal" font-weight="normal" text-decoration="normal" x="26.5" y="293.8" text-anchor="middle" dominant-baseline="alphabetic">1</text><path fill="#000000" stroke="rgb(255,255,255)" paint-order="stroke fill markers" d=" M 9 261.5 L 9 262.5 L 31.5 262.5 L 31.5 264.5 L 44 261.5 L 31.5 258.5 L 31.5 260.5 L 9 260.5 L 9 261.5" stroke-opacity="0" stroke-linecap="round" stroke-miterlimit="10" stroke-width="3"/><text fill="none" stroke="rgb(255,255,255)" font-family="Helvetica,Arial" font-size="35px" font-style="normal" font-weight="normal" text-decoration="normal" x="76.5" y="293.8" text-anchor="middle" dominant-baseline="alphabetic" stroke-opacity="0" stroke-linecap="round" stroke-miterlimit="10" stroke-width="3">1</text><text fill="#000000" stroke="none" font-family="Helvetica,Arial" font-size="35px" font-style="normal" font-weight="normal" text-decoration="normal" x="76.5" y="293.8" text-anchor="middle" dominant-baseline="alphabetic">1</text><path fill="#000000" stroke="rgb(255,255,255)" paint-order="stroke fill markers" d=" M 59 261.5 L 59 262.5 L 81.5 262.5 L 81.5 264.5 L 94 261.5 L 81.5 258.5 L 81.5 260.5 L 59 260.5 L 59 261.5" stroke-opacity="0" stroke-linecap="round" stroke-miterlimit="10" stroke-width="3"/><text fill="none" stroke="rgb(255,255,255)" font-family="Helvetica,Arial" font-size="35px" font-style="normal" font-weight="normal" text-decoration="normal" x="121.5" y="288.8" text-anchor="middle" dominant-baseline="alphabetic" stroke-opacity="0" stroke-linecap="round" stroke-miterlimit="10" stroke-width="3">1</text><text fill="#000000" stroke="none" font-family="Helvetica,Arial" font-size="35px" font-style="normal" font-weight="normal" text-decoration="normal" x="121.5" y="288.8" text-anchor="middle" dominant-baseline="alphabetic">1</text><path fill="#000000" stroke="rgb(255,255,255)" paint-order="stroke fill markers" d=" M 141.5 294 L 142.5 294 L 142.5 271.5 L 144.5 271.5 L 141.5 259 L 138.5 271.5 L 140.5 271.5 L 140.5 294 L 141.5 294" stroke-opacity="0" stroke-linecap="round" stroke-miterlimit="10" stroke-width="3"/><text fill="none" stroke="rgb(255,255,255)" font-family="Helvetica,Arial" font-size="35px" font-style="normal" font-weight="normal" text-decoration="normal" x="276.5" y="293.8" text-anchor="middle" dominant-baseline="alphabetic" stroke-opacity="0" stroke-linecap="round" stroke-miterlimit="10" stroke-width="3">2</text><text fill="#000000" stroke="none" font-family="Helvetica,Arial" font-size="35px" font-style="normal" font-weight="normal" text-decoration="normal" x="276.5" y="293.8" text-anchor="middle" dominant-baseline="alphabetic">2</text><path fill="#000000" stroke="rgb(255,255,255)" paint-order="stroke fill markers" d=" M 294 261.5 L 294 260.5 L 271.5 260.5 L 271.5 258.5 L 259 261.5 L 271.5 264.5 L 271.5 262.5 L 294 262.5 L 294 261.5" stroke-opacity="0" stroke-linecap="round" stroke-miterlimit="10" stroke-width="3"/><text fill="none" stroke="rgb(255,255,255)" font-family="Helvetica,Arial" font-size="35px" font-style="normal" font-weight="normal" text-decoration="normal" x="226.5" y="343.8" text-anchor="middle" dominant-baseline="alphabetic" stroke-opacity="0" stroke-linecap="round" stroke-miterlimit="10" stroke-width="3">2</text><text fill="#000000" stroke="none" font-family="Helvetica,Arial" font-size="35px" font-style="normal" font-weight="normal" text-decoration="normal" x="226.5" y="343.8" text-anchor="middle" dominant-baseline="alphabetic">2</text><path fill="#000000" stroke="rgb(255,255,255)" paint-order="stroke fill markers" d=" M 209 311.5 L 209 312.5 L 231.5 312.5 L 231.5 314.5 L 244 311.5 L 231.5 308.5 L 231.5 310.5 L 209 310.5 L 209 311.5" stroke-opacity="0" stroke-linecap="round" stroke-miterlimit="10" stroke-width="3"/><text fill="none" stroke="rgb(255,255,255)" font-family="Helvetica,Arial" font-size="35px" font-style="normal" font-weight="normal" text-decoration="normal" x="171.5" y="388.8" text-anchor="middle" dominant-baseline="alphabetic" stroke-opacity="0" stroke-linecap="round" stroke-miterlimit="10" stroke-width="3">2</text><text fill="#000000" stroke="none" font-family="Helvetica,Arial" font-size="35px" font-style="normal" font-weight="normal" text-decoration="normal" x="171.5" y="388.8" text-anchor="middle" dominant-baseline="alphabetic">2</text><path fill="#000000" stroke="rgb(255,255,255)" paint-order="stroke fill markers" d=" M 191.5 394 L 192.5 394 L 192.5 371.5 L 194.5 371.5 L 191.5 359 L 188.5 371.5 L 190.5 371.5 L 190.5 394 L 191.5 394" stroke-opacity="0" stroke-linecap="round" stroke-miterlimit="10" stroke-width="3"/><text fill="none" stroke="rgb(255,255,255)" font-family="Helvetica,Arial" font-size="35px" font-style="normal" font-weight="normal" text-decoration="normal" x="226.5" y="393.8" text-anchor="middle" dominant-baseline="alphabetic" stroke-opacity="0" stroke-linecap="round" stroke-miterlimit="10" stroke-width="3">2</text><text fill="#000000" stroke="none" font-family="Helvetica,Arial" font-size="35px" font-style="normal" font-weight="normal" text-decoration="normal" x="226.5" y="393.8" text-anchor="middle" dominant-baseline="alphabetic">2</text><path fill="#000000" stroke="rgb(255,255,255)" paint-order="stroke fill markers" d=" M 244 361.5 L 244 360.5 L 221.5 360.5 L 221.5 358.5 L 209 361.5 L 221.5 364.5 L 221.5 362.5 L 244 362.5 L 244 361.5" stroke-opacity="0" stroke-linecap="round" stroke-miterlimit="10" stroke-width="3"/><text fill="none" stroke="rgb(255,255,255)" font-family="Helvetica,Arial" font-size="35px" font-style="normal" font-weight="normal" text-decoration="normal" x="271.5" y="388.8" text-anchor="middle" dominant-baseline="alphabetic" stroke-opacity="0" stroke-linecap="round" stroke-miterlimit="10" stroke-width="3">2</text><text fill="#000000" stroke="none" font-family="Helvetica,Arial" font-size="35px" font-style="normal" font-weight="normal" text-decoration="normal" x="271.5" y="388.8" text-anchor="middle" dominant-baseline="alphabetic">2</text><path fill="#000000" stroke="rgb(255,255,255)" paint-order="stroke fill markers" d=" M 291.5 394 L 292.5 394 L 292.5 371.5 L 294.5 371.5 L 291.5 359 L 288.5 371.5 L 290.5 371.5 L 290.5 394 L 291.5 394" stroke-opacity="0" stroke-linecap="round" stroke-miterlimit="10" stroke-width="3"/><text fill="none" stroke="rgb(255,255,255)" font-family="Helvetica,Arial" font-size="35px" font-style="normal" font-weight="normal" text-decoration="normal" x="321.5" y="388.8" text-anchor="middle" dominant-baseline="alphabetic" stroke-opacity="0" stroke-linecap="round" stroke-miterlimit="10" stroke-width="3">2</text><text fill="#000000" stroke="none" font-family="Helvetica,Arial" font-size="35px" font-style="normal" font-weight="normal" text-decoration="normal" x="321.5" y="388.8" text-anchor="middle" dominant-baseline="alphabetic">2</text><path fill="#000000" stroke="rgb(255,255,255)" paint-order="stroke fill markers" d=" M 341.5 394 L 342.5 394 L 342.5 371.5 L 344.5 371.5 L 341.5 359 L 338.5 371.5 L 340.5 371.5 L 340.5 394 L 341.5 394" stroke-opacity="0" stroke-linecap="round" stroke-miterlimit="10" stroke-width="3"/><text fill="none" stroke="rgb(255,255,255)" font-family="Helvetica,Arial" font-size="35px" font-style="normal" font-weight="normal" text-decoration="normal" x="376.5" y="393.8" text-anchor="middle" dominant-baseline="alphabetic" stroke-opacity="0" stroke-linecap="round" stroke-miterlimit="10" stroke-width="3">2</text><text fill="#000000" stroke="none" font-family="Helvetica,Arial" font-size="35px" font-style="normal" font-weight="normal" text-decoration="normal" x="376.5" y="393.8" text-anchor="middle" dominant-baseline="alphabetic">2</text><path fill="#000000" stroke="rgb(255,255,255)" paint-order="stroke fill markers" d=" M 394 361.5 L 394 360.5 L 371.5 360.5 L 371.5 358.5 L 359 361.5 L 371.5 364.5 L 371.5 362.5 L 394 362.5 L 394 361.5" stroke-opacity="0" stroke-linecap="round" stroke-miterlimit="10" stroke-width="3"/></g></svg>